<svg xmlns="http://www.w3.org/2000/svg" xmlns:xlink="http://www.w3.org/1999/xlink" viewBox="0 0 200 200"><defs><path id="a" d="M0 .1h168.8v168.7H.1z"/><path id="c" d="M0 .8h53.8v53.4H0z"/><path id="e" d="M0 .8h34.3v43.4H0z"/></defs><g fill="none" fill-rule="evenodd"><g transform="translate(14 1)"><mask id="b" fill="#fff"><use xlink:href="#a"/></mask><path fill="#FCE6F1" d="M168.8 84.5a84.4 84.4 0 11-168.7 0 84.4 84.4 0 01168.7 0" mask="url(#b)"/></g><g transform="translate(52.6 144.7)"><mask id="d" fill="#fff"><use xlink:href="#c"/></mask><path fill="#D3AB02" d="M12.5 4.9c-.5-4.5 2-4.7 3.8-3.4C18.8 3.3 31.2 10 31.2 10s2 1.8 4.3.2C37.2 8.9 46 3.8 48.2 2.5c2.3-1.3 3.2-.3 2.9 2-.3 2.1-7.7 17.5-7.7 20 0 2.6 6.6 6.5 9.5 9.4 1.8 1.8.6 4.8-1.3 4.8-2.6 0-11.7-2.5-13.9-2.9-2-.3-3.5.8-3.5 3 0 2.3.5 11 .3 13.8-.1 2-3 2.4-5 .1-1.3-1.6-9.8-12.6-10.8-13.5-.3-.3-1-2.2-4.5-2-3.6 0-7.8.2-10.6 0-1.4-.2-2.5-.7-3-1.3-.9-1-.8-2.4.6-3.9 2.2-2.5 13.5-8.8 14.5-10.7.6-1.3.6-2.4.3-4C15 13 12.7 7.2 12.5 5" mask="url(#d)"/></g><path fill="#F8D114" d="M68.7 146.3c-.5-4.5 2-4.7 3.8-3.4 2.5 1.8 14.8 8.5 14.8 8.5s2.1 1.8 4.3.2a300 300 0 0112.8-7.7c2.2-1.3 3.2-.3 2.9 2-.3 2.1-7.7 17.5-7.7 20 0 2.6 6.6 6.6 9.4 9.4 1.9 1.8.7 4.8-1.2 4.8-2.6 0-11.7-2.5-14-2.9-2-.3-3.4.8-3.4 3 0 2.3.4 11 .3 13.8-.1 2-3 2.4-5 .2-1.3-1.7-9.8-12.7-10.8-13.6-.3-.3-1-2.2-4.5-2a96 96 0 01-10.7 0c-1.4-.2-2.4-.6-3-1.3-.8-1-.7-2.4.6-3.9 2.3-2.5 13.6-8.8 14.6-10.7.6-1.3.6-2.4.3-4-1-4.3-3.3-10.1-3.5-12.4"/><path fill="#4E4C75" d="M93 102.6c1.2-1.1 2.4 1.1 3.3-1.7 4.8-15 11.1-12.8 18.4-11.2 7.3 1.6 11.3-10.2 2.8-14.6-10.4-5.4-26-6-32 11.3-1.3 3.7 3 20.2 7.5 16.2"/><path fill="#EFD259" d="M84.3 86c-1.5 14.2 6.7 24.2 13.9 31.4 4 3.7 15.3-7 11-8.4-3.8-1.2-20-16-17.6-32.9l-3.4 2.5-3.9 7.4z"/><g transform="translate(4 71.2)"><mask id="f" fill="#fff"><use xlink:href="#e"/></mask><path fill="#4E4C75" d="M34.3 5c-1-1.3-5.6-4.2-5.6-4.2a25.3 25.3 0 00-14.6 5.7c1.3 1.8 2.8 2 2.4 2.4-3.8 3-6.2 1.5-8 3-9.2 8-11 22-5 30 2.8 3.6 7.7 2.2 8.7 1" mask="url(#f)"/></g><path fill="#827AAF" d="M47.6 86.7c1-4.1-3.8-9-8-10.2-7.8-2.3-14.5 1-18.9 3.3-6.3 3.4-15.4 14-13.7 25.7 1.6 11.7 11.6 10.7 13.7 4.7 2-6 4.7-14.3 11-13.9 7.8.6 11.1 3 14.9-2.7"/><path fill="#4E4C75" d="M79.8 94.5C78.7 86.7 69 77.6 59.4 82c-3.2 1.5-7.4 11.7-3.7 11.3 6.6-.8 9.4 1.3 10.4 4.8.7 2.7 3.5 4.9 7.9 4.2 4.4-.7 6.1-5.2 5.8-7.8"/><path fill="#FF8B6C" d="M37 44.3c-4.5-2.2-10.5-2.2-15.7 3.6-1.1 1.2-3.6.7-2.9-1.8 1.2-4.2 4.8-9.6 15.4-8.8"/><path fill="#827AAF" d="M127.3 53.9c-.6-5.8-3.6-17.7 0-21.9l-12.9 4.1c0-.4.2-.9.4-1.3a9 9 0 019.4-6.1h-.3c-17.8-3.5-26.3 6-41.3 11.4-2-.5-4.8-.8-8.9-1-18.2-1.2-42.1-12.9-47 7-2 7.9 6.9 10.8 10 6.5 7-9.8 20.2-6.6 26.5-1.7 5.7 7-.4 12-5.1 17.9-4 5-6.5 10.7-5.3 17.5.7-.3 3-1.1 3.7-1.6a57.3 57.3 0 002.5-2c2.4-2.1 6.6-2.1 10.5-.5 5.5 2.3 12 11.3 9.5 16.2.4-.6 3-5.2 3.8-7 0-.4 1.2-.6 1.2-.7 1.5-8.3 11.3-26.8 34.3-15.2-9.9-5.3-28.1-14.2-31.4-24.4 10.2-3.9 16.2-3.7 25.2.1 1.3.9 2.4 1.8 3.3 2.7 8.4 8.4 12.3 3.4 12 0"/><path fill="#EFD259" d="M59 82.7a20 20 0 01-4.6 3c-3.6 1.2-7.2.2-10-1.1-5-2.3-8 4.7-3.6 7.4 2.7 1.7 18.2 9 29.3-9.5-4.2-2-8.7-2-11.1.2"/><path fill="#FF8B6C" d="M76.8 42.4c-1 1.9-2.4 4.3-5.3 3.5-2.3-.7-4.2-3-2.5-8 1-2.7 3.5-5 6-4.3 2.3.7 4.6 3.6 1.8 8.8"/><path fill="#827AAF" d="M72.6 25.9c-3.5 0-11.3 2-11.8 7.6-.6 5.8 9.3 8.2 12.4 8.3 3 .1 13.3-.4 13-8-.3-7.5-8.8-7.8-13.6-7.9"/><path fill="#827AAF" d="M67.2 31c-.4-4.1-.3-7.5 1-9a6.5 6.5 0 017.2.2c2.4 1.6 2.7 2.3 3 4.4.5 2 1.1 3.8-.2 5.8-2 3.3-10.5 3.4-11-1.3"/><path fill="#EFD259" d="M78.7 27.4c.4 1.2.7 3.4-.2 4.8-1.8 2.7-8 4.2-11.2.2-1.3-1.6-.4-2.6-.4-3 2.3 1.7 8.4 4.5 11.8-2"/><path fill="#4E4C75" d="M78.8 98.7c5.3-9.4 4.2-33.4.1-39.4 7.2 9.6 7 19 5.1 31.3M123.5 36c-2.6-.5-5.5-1-8.7-1.3-1.8 4.5 0 16.2 5.2 20.1.8.5 1.7.8 2.6.8 5.4.5-1-11 .9-19.6"/><path fill="#FF8B6C" d="M163.2 44.5c-.7-.3-2-1-2.5-1.5-.7-.8-.8-5.8-11.3-11.2-10-5.2-14.5-1-20.6-2.4a49 49 0 00-4.9-.7h.3a9 9 0 00-9.4 6.1 74.8 74.8 0 0113.6 2.5c-.6 1-.7 2 0 3.5.6 1 4.2 4.5 6 5.6 6.1 3.8 6.8 3 7.9 6 1.7 5 4 2.8 4-.2-.4-7.7-4.7-7.2-6.4-8.5-.4-.3-.5-.6-.3-.8 7.5.5 12 2 21.8 6.2 3 1.3 5.5-3.3 1.8-4.6"/><path fill="#F8D114" d="M137.5 150.6c2.2-1 2.7.1 2.4 1.3-.4 1.6-1.4 9-1.4 9s-.5 1.5.7 2.3c1 .6 5.3 4 6.3 5 1.1.8.8 1.5-.4 1.8-1.2.2-10.3-.5-11.6 0-1.2.4-2 4.5-2.9 6.5-.6 1.3-2.3 1.2-2.6.3-.5-1.3-1-6.4-1.3-7.6-.2-1-1-1.6-2.2-1.2-1 .5-5.3 2.4-6.8 2.8-1 .4-1.8-1-1-2.4l4.7-8c.1-.3 1-1 .2-2.7-.8-1.8-1.6-4-2-5.4-.2-.7-.2-1.3 0-1.8.3-.6 1-.8 2-.4 1.8.6 7 5.2 8.2 5.3.8 0 1.4-.2 2.1-.6 2-1.3 4.5-3.6 5.6-4.2m38.8-8.7c1.9 1.4 1.1 2.4 0 2.7-1.7.4-8.8 2.9-8.8 2.9s-1.5.2-1.6 1.7a161 161 0 01-1.6 7.8c-.3 1.4-1 1.4-1.8.5-.8-1-4.2-9.4-5.3-10.3-1-1-5 .2-7.1.3-1.4 0-2.2-1.5-1.5-2.2 1-1 5.2-3.8 6.2-4.5.9-.7 1-1.7 0-2.5-.8-.8-4.5-3.8-5.6-4.9-.7-.7.2-2 1.8-2l9.3.6c.3 0 1.2.4 2.4-1 1.3-1.6 2.8-3.3 4-4.3.5-.5 1-.8 1.5-.8.7 0 1.2.6 1.3 1.7.2 1.8-1.4 8.5-1 9.6a3 3 0 001.5 1.6c2 1.2 5.3 2.3 6.3 3m-9.4-29c-2.4.3-2.5-1-1.8-2 .9-1.3 4.4-8 4.4-8s1-1.2.1-2.4c-.7-.9-3.5-5.6-4.2-6.8-.7-1.2-.2-1.7 1-1.5 1.2.1 9.5 4 10.9 4 1.4 0 4.5-6.6 6-8.2 1-1 2.6-.3 2.6.7 0 1.4-1 8.2-1.2 9.4-.2 1 .4 1.6 1.6 1.8 1.2.3 6.5-.5 8.4-.3 1 .1 1.3 1.6 0 2.7l-9.4 7.1c-.1.2-1.2.6-1 2.4v5.8c0 .7-.3 1.3-.7 1.6-.5.5-1.2.4-2-.3-1.4-1.2-4.8-7.2-5.9-7.8-.7-.3-1.3-.3-2.1-.1-2.3.5-5.5 1.8-6.7 2"/><path fill="#827AAF" d="M96.4 113.4c.3-2 3.5-10.3 15.3-8.7 5.4.7 11.5-3.4 14.1-6.8 2.6-3.4 6.8-7.6 8.5-14 1.7-6.4 4-13.4 10-14.6 4.5-.8 9-.5 9.8 5.8.9 6.6 5 21.7-15.5 37.8-7.7 6.5-17.3 20.9-21 23.8-3.6 3-4.8-2.7-9.5-4.3a17.3 17.3 0 01-11.7-19"/><path fill="#EFD259" d="M154.7 71.7c-3-5.4-13.6-5.1-13.1 6.1.4 11.3-7.3 23.8-13.5 30.6a8.7 8.7 0 007.5 5.6c6-6.7 16.8-14.8 19.5-41.3l-.4-1m-23.2 47c-2.9-1.9-5.5-5.9-5.7-7.8a69.4 69.4 0 01-14.7 13.4c-3 1.7-6.9 9 .7 13.3 4.6 2.7 11-.3 16-5 .6-6.1.3-8.1 3-12.8.1-.4.4-.7.7-1.1"/><path fill="#FF8B6C" d="M140.4 113.6a37.4 37.4 0 0014.7-41c-3 24.4-13.5 34.7-19.5 41.4 1.5.2 3.2 0 4.8-.4m-6 9.5c-1.6-3.5-1.9-3-2.1-4l-.8-.4-.8 1c-2.6 4.8-2.3 6.8-3 13 3-2.9 5.5-6.4 6.6-9.6"/><path fill="#4E4C75" d="M112.7 138c-3.6-2.6-1.5-8-.2-9.2 1.3-1.2 13-9 13.8-12 2.7 3.8 5.2 6.2 8 6.3-.9-3-2-4-2-4-3.2-1.6-6-6.3-6.5-8.2-3.2 4-11 10.5-14.5 12.8-3.6 2.3-7.3 10 1.4 14.3m16.6-27.5a48.9 48.9 0 0014.8-35c0-6.9 2.2-6.8 3.8-7.2-6.4-.3-6.5 6.3-6.6 8.7-.1 2.3 1 15.2-13.2 31.4a5 5 0 001.2 2.1"/></g></svg>