<svg xmlns="http://www.w3.org/2000/svg" viewBox="0 0 28 28"><g fill="none" fill-rule="evenodd"><path d="M2 2h24v24H2z"/><path fill="#D45BAC" fill-rule="nonzero" d="m24.6 10.45.56.03a.5.5 0 0 1 .48.5v.5c-.15 3.71-1.02 6.36-2.6 7.95C21.05 21.41 18 21.9 16 22c1.64-1.65 3.94-4.66 3.94-8.29 0-.88-.15-1.72-.37-2.53 1.27-.44 2.94-.68 5.02-.73Zm-21.2 0c2.09.05 3.76.29 5.03.73-.22.8-.37 1.65-.37 2.53 0 3.63 2.3 6.64 3.94 8.29-2-.11-5.06-.59-7.03-2.57-1.59-1.59-2.46-4.24-2.6-7.96v-.5c0-.26.2-.48.47-.5l.57-.02Zm10.3-4.53a.5.5 0 0 1 .7.08l.07.1.18.2C15.77 7.55 18 10.41 18 13.75s-2.23 6.2-3.35 7.44a.9.9 0 0 1-1.28.02l-.02-.02C12.23 19.95 10 17.1 10 13.75c0-3.34 2.23-6.2 3.35-7.45a5.77 5.77 0 0 0 .35-.38Z"/></g></svg>