<svg xmlns="http://www.w3.org/2000/svg" viewBox="0 0 61 40"><path fill="#434375" d="M5.4 12.4c3.6.5 6 6.1 7.9 12.1l.2.8.3 1.1.3.8c1 3.8 2 7.6 2.8 9.8 1 2.8-3.3 4-4 1.5v-.4c-.3-.9-.6-1.8-1.8-.1-4 4.7-10 .3-11-4.3s4.4-10.1 7-7.8c1 .7 2 1.3 1.6 0-.4-1.1 0-3.2-5.7-7.5-2.4-1.8-.7-6.4 2.4-6Zm45 9.2c2 2.2 2 6-1.9 7.5-4 1.5-4-1.9-2.6-2.5 1.4-.5 3.4-2 2.2-2.7-1.3-.8-3.3.1-4 1.1-.6 1-.5 2.7-.1 3.8.4 1.1.7 2.9 4 2.8 2.2-.1 3-1 4-1.6 1.2-.9 3.3 1 1.9 2.8-2 2.5-6.9 3.7-9.1 2.4a9.7 9.7 0 0 1-4.5-7.3 7.6 7.6 0 0 1 2.7-6.7c.8-.7 4.9-2.2 7.3.4Zm-12.5-2.4c2.5.5 2.8 5.3.6 5-1.7-.2-3.2-.2-3.9 1.4-.6 1.4 2 5.1 3 6.9 1.1 2-1.7 5.2-4.3 1.6-2.2-3.1-4-9-4.4-10.8-.5-1.7 2.6-1.8 3.1-.7s1 .4 1.2-.7c.1-1 2.2-3.1 4.7-2.7Zm-11 2.2A27 27 0 0 1 29.5 33c-.1 2.7-2.5 2.5-3 1.3-.6-1.2-1.4-.1-2.9.5-1.5.7-5.6.8-7-5.7-1.5-6.6 4.5-8 6.4-6.8l.3.2v.1c.4.3.7.5.5-.7-.1-1.7 1.9-2.1 3-.5ZM5 33.7c3.3 0 3-4.9 0-5.5-3-.7-3 5.4 0 5.5Zm15.7-3.8c0 2.8 2.4 3.7 4 2 1.1-1.2-.1-3.5-.1-3.5-.9-1.2-4-1.2-3.9 1.5Zm1-29c5 2.7 4.5 1.8 6.3.6C30 .2 32 2.6 31.7 4.6c-.6 3.5-12.2 7-10.5 9.2.6.9 3-.4 5.4-1.9l.4-.3c1.8-1 3.6-2.2 4.9-2.7 5.4-2 5.5 9.3-.7 7.7-4-1-8.7.8-13.2 3.6-3.7 2.3-6.8-5.7-2.2-8 1.3-.7 9-4.5 8.4-5.7-.6-1.2-2.7-.3-4 .2-1.2.5-4.5-.7-3.9-4C17-.5 19.3-.5 22 .9Zm30.9 5c.7 2 1.5.4 1.8 0C55.7 4.6 59 4 60.2 8c.8 3 1.1 6.1.4 8.3-.7 1.9-2.8 1.8-3.4.4a7 7 0 0 1 0-3.4V13c.3-2 .6-3.7-1.4-3.2-4 1-1 5.6-.8 7 .5 3.2-3.5 3.5-4.2 1.8-1.7-4.1.4-6.8-1.6-11.7-.9-2.2 2.6-3.6 3.5-1ZM46 4c1.8 2.2 1.6 5.6-2 6.9-3.8 1.3-3.6-1.9-2.3-2.4C43 8.2 45 7 43.8 6.2c-1-.8-3 0-3.6 1-.7.9-.6 2.4-.4 3.3.3 1.1.5 2.8 3.5 2.7 2 0 2.9-.7 3.8-1.3 1.1-.8 3 1 1.6 2.6-2 2.3-6.6 3.3-8.6 2a8.6 8.6 0 0 1-3.6-6.9c0-3 1.5-5.1 2.9-6C40 3 44 1.5 46 4Z"/></svg>