<svg xmlns="http://www.w3.org/2000/svg" xmlns:xlink="http://www.w3.org/1999/xlink" viewBox="0 0 200 200"><defs><path id="a" d="M0 0h34.7v44H0z"/></defs><g fill="none" fill-rule="evenodd"><path fill="#FCE6F1" d="M178.5 92.3A89.3 89.3 0 110 92.3a89.3 89.3 0 01178.5 0"/><path fill="#EFD6AE" d="M100.2 119.8A19.2 19.2 0 0081 139v17.6h9.3v-17c0-5.8 4.4-10.5 10-10.5 5.4 0 9.8 4.7 9.8 10.5v7h2c.5 0 1 .5 1 1v3.5c0 .6-.5 1.1-1 1.1h-2v4.4h9.3V139c0-10.6-8.6-19.2-19.2-19.2z"/><path fill="#B27D38" d="M81 148.2v7.4H61.2v-7.4H52v8.4c0 4.6 3.8 8.3 8.4 8.3H82c4.6 0 8.3-3.7 8.3-8.3v-8.4H81"/><path fill="#EFC27B" d="M90.7 195H51.6c-3.7 0-6.7-2.9-6.7-6.6v-30.3c0-3.7 3-6.7 6.7-6.7h39c3.8 0 6.7 3 6.7 6.7v30.3c0 3.7-3 6.7-6.6 6.7"/><path fill="#F7DDAC" d="M75.8 169.2a4.6 4.6 0 10-7.1 3.9l-1.8 7.5h8.5l-1.8-7.5a4.6 4.6 0 002.2-4"/><path fill="#B27D38" d="M75.4 180.6H71v-16a4.6 4.6 0 012.5 8.5l1.8 7.5"/><path fill="#4E4C75" d="M126.2 114c1.3-1.1 2.5 1.1 3.4-1.7 4.8-15.3 11.3-13 18.6-11.3 7.4 1.6 11.4-10.4 3-14.8-10.6-5.4-26.4-6-32.5 11.4-1.3 3.8 3.1 20.5 7.5 16.4"/><path fill="#EFD259" d="M117.5 97.3c-1.6 14.3 6.8 24.4 14 31.7 4 3.7 15.5-7 11.2-8.5-3.9-1.3-20.3-16.1-17.8-33.3l-3.5 2.6-3.9 7.5z"/><g transform="translate(36.3 83)"><mask id="b" fill="#fff"><use xlink:href="#a"/></mask><path fill="#4E4C75" d="M34.7 4.2C33.7 3 29 .1 29 .1a25.6 25.6 0 00-14.9 5.7c1.4 1.8 3 2 2.5 2.4-3.9 3-6.3 1.5-8 3-9.4 8.2-11.3 22.4-5 30.5 2.7 3.5 7.7 2.2 8.7 1" mask="url(#b)"/></g><path fill="#827AAF" d="M80.4 97.9c1-4.1-4-9.1-8.2-10.3-7.8-2.3-14.6 1-19 3.4-6.4 3.4-15.6 14.2-14 26 1.7 11.8 11.8 10.8 14 4.7 2-6 4.7-14.5 11.2-14 7.8.5 11.1 3 15-2.8"/><path fill="#4E4C75" d="M113 105.9c-1.2-8-10.9-17.1-20.7-12.7-3.2 1.5-7.5 11.8-3.7 11.4 6.6-.8 9.5 1.3 10.5 4.8.7 2.8 3.5 5 8 4.3 4.4-.6 6.2-5.3 5.8-7.8"/><path fill="#FF8B6C" d="M69.7 55C65 53 59 52.9 53.7 58.8c-1 1.2-3.6.6-2.9-1.8 1.3-4.3 4.8-9.7 15.7-9"/><path fill="#827AAF" d="M161 64.7c-.7-5.8-3.7-17.8 0-22l-13 4 .3-1.2a9.1 9.1 0 019.6-6.2h-.3c-18.1-3.6-26.7 6.1-41.8 11.5-2-.5-5-.8-9-1.1-18.4-1.1-42.6-13-47.7 7.1-2 8 7 11 10.2 6.6 7.2-9.9 20.5-6.7 26.8-1.7 5.8 7-.4 12.1-5.1 18.1-4 5-6.6 10.9-5.4 17.7.8-.2 3-1.1 3.8-1.6a58 58 0 002.5-2c2.4-2.1 6.7-2.2 10.7-.5 5.5 2.3 12 11.4 9.5 16.4l3.9-7.1c0-.4 1.2-.6 1.2-.7 1.5-8.4 11.4-27 34.7-15.4-10-5.4-28.5-14.3-31.8-24.7 10.3-3.9 16.4-3.8 25.5.1a23 23 0 013.4 2.8c8.5 8.5 12.4 3.4 12 0"/><path fill="#EFD259" d="M91.9 93.9c-.7.5-3.2 2.6-4.7 3-3.6 1.3-7.2.2-10.2-1.1-5-2.3-8 4.8-3.6 7.5 2.8 1.7 18.5 9.1 29.7-9.6-4.2-2-8.8-2-11.2.2"/><path fill="#FF8B6C" d="M110 53.2c-1 1.8-2.5 4.3-5.5 3.4-2.3-.6-4.2-3-2.5-8 1-2.8 3.6-5 6-4.4 2.4.8 4.7 3.7 2 9"/><path fill="#827AAF" d="M105.7 36.4c-3.5 0-11.5 2-12 7.8-.5 5.7 9.4 8.2 12.5 8.3 3.1.1 13.5-.4 13.2-8-.3-7.6-8.9-8-13.7-8"/><path fill="#827AAF" d="M100.2 41.7c-.5-4.3-.3-7.7 1-9.1a6.5 6.5 0 017.3.1c2.4 1.6 2.7 2.4 3 4.5.5 2 1.2 3.8-.2 5.8-2 3.3-10.6 3.4-11.1-1.3"/><path fill="#EFD259" d="M111.9 38c.3 1.1.7 3.4-.3 4.8-1.8 2.7-8 4.3-11.3.2-1.3-1.6-.4-2.7-.4-3 2.4 1.7 8.5 4.5 12-2"/><path fill="#4E4C75" d="M112 110c5.2-9.5 4.2-33.7 0-39.7 7.3 9.6 7.2 19 5.2 31.6m40-55.2c-2.6-.5-5.6-1-8.9-1.2-1.7 4.5.1 16.3 5.3 20.3.8.4 1.7.7 2.6.8 5.5.5-1-11.2 1-19.9"/><path fill="#FF8B6C" d="M197.3 55.2c-.7-.3-2-1-2.5-1.5-.7-.8-.8-5.9-11.4-11.3-10.2-5.2-14.7-1-21-2.4l-4.8-.8h.3c-5.3-.4-8.4 3-9.6 6.3a75.6 75.6 0 0113.8 2.5c-.6 1-.7 2 0 3.5.6 1.1 4.3 4.6 6 5.7 6.3 3.9 7 3 8 6 1.8 5.2 4.2 3 4-.2-.3-7.7-4.6-7.2-6.3-8.5-.5-.4-.5-.6-.3-.8 7.6.4 12.1 2 22 6.2 3 1.3 5.5-3.4 1.8-4.7"/><path fill="#827AAF" d="M129.8 125c.3-2 3.5-10.5 15.4-8.9 5.5.8 11.7-3.3 14.3-6.8 2.6-3.4 6.9-7.7 8.6-14.2 1.7-6.5 4-13.5 10-14.7 4.6-.9 9.1-.5 10 5.8.9 6.7 5 22-15.7 38.2-7.8 6.7-17.5 21.2-21.2 24.2-3.7 3-4.9-2.8-9.6-4.4a17.5 17.5 0 01-11.8-19.3"/><path fill="#EFD259" d="M188.7 82.8c-3-5.5-13.7-5.2-13.3 6.2.5 11.4-7.4 24-13.6 30.8a8.8 8.8 0 007.6 5.8c6-6.8 17-15 19.7-41.9l-.4-1m-23.5 47.6c-2.9-1.9-5.5-6-5.7-7.8a70.2 70.2 0 01-14.9 13.4c-3 1.8-7 9.1.7 13.5 4.7 2.8 11.2-.2 16.2-5 .6-6.2.3-8.3 3-13 .1-.4.4-.7.7-1.1"/><path fill="#FF8B6C" d="M174.2 125.2a37.9 37.9 0 0015-41.5c-3.1 24.7-13.8 35-19.8 41.9 1.5.1 3.2 0 4.8-.4m-6.1 9.6c-1.5-3.6-1.8-3-2-4a8 8 0 01-.9-.5l-.7 1c-2.7 4.8-2.4 6.9-3 13.1 3-2.8 5.5-6.4 6.6-9.6"/><path fill="#4E4C75" d="M146.2 149.9c-3.6-2.7-1.5-8.2-.2-9.4 1.3-1.2 13.2-9.1 14-12.1 2.7 3.9 5.2 6.2 8.1 6.4-1-3-2-4-2-4a15.8 15.8 0 01-6.6-8.3 86.5 86.5 0 01-14.7 12.9c-3.6 2.3-7.4 10 1.4 14.5M163 122c3.6-2.4 15-17 15-35.4-.1-7 2.2-6.8 3.8-7.3-6.4-.3-6.5 6.4-6.7 8.8 0 2.4 1 15.4-13.3 31.7.2 1 1 2 1.2 2.2"/></g></svg>