<svg xmlns="http://www.w3.org/2000/svg" xmlns:xlink="http://www.w3.org/1999/xlink" viewBox="0 0 200 200"><defs><linearGradient id="b" x1="69.9%" x2="25.6%" y1="72.1%" y2="21.1%"><stop offset="0%" stop-color="#EFBC15"/><stop offset="100%" stop-color="#EB175D"/></linearGradient><linearGradient id="e" x1="904.9%" x2="-426.2%" y1="949.3%" y2="-486%"><stop offset="0%" stop-color="#EFBC15"/><stop offset="100%" stop-color="#EB175D"/></linearGradient><linearGradient id="h" x1="856%" x2="-252.5%" y1="547.4%" y2="-136.6%"><stop offset="0%" stop-color="#EFBC15"/><stop offset="100%" stop-color="#EB175D"/></linearGradient><path id="a" d="M.9 45C.7 14.1 24.2-.5 39.9.5l12.9 7.7.1 1a6.3 6.3 0 01-.1 1.6v.3c-.5 1.7-2 4-6.2 6a54 54 0 00-29 37.4"/><path id="d" d="M1.5 2A5 5 0 012.4.2L.6.2l.9 1.7"/><path id="g" d="M2.5 1.2L.3.9l2.2.3"/></defs><g fill="none" fill-rule="evenodd"><path fill="#FCE6F1" d="M190 91.2a90 90 0 11-180 0 90 90 0 01180 0"/><path fill="#F8D114" d="M121 174.4c-1 5-3.5 11-6.9 13.3-4.2 2.8-13.1 3.7-12.4 7.3.7 3.6 8.3 7.2 15.7 2.6 5.8-3.6 8.2-7 9.5-10 1.2-2.7 3-2.4 4.1-.6 1.2 1.8 3.1 10 12.8 11.7 9.7 1.8 13-5.6 7.1-7-5.8-1.5-7.6-4.6-8.3-6-.7-1.4-1.1-4.2 2.8-4 4 .3 9.4 0 13.1-2.1 4.4-2.5 6.2-5 7-8.7.6-3.6-1.1-5.3-4-4.2-5 2-20.6 9.8-26.7 4.6"/><path fill="#4E4C75" d="M136.2 169a16.4 16.4 0 01-6.5 7.9c-5 1.5-12.2 1-15-.5l2-3c-6-2.2-6.3.3-9.9-1.1-10.4-4-14-28.8-3.2-28.3.8 0-6.6 13.2 2.3 20 9 7 22.8 4.8 29 4.2"/><path fill="#827AAF" d="M133 151.8c-7.3 1.7-14.5 14.6-22.1-5.2-3-8-14.2-5.2-11.6 10 3 17.5 18 20.5 33.6 16 10.1-4.5 11.1-15.3 8.2-18.7"/><path fill="#FF8B6C" d="M132 52.3c3.3 1.4 6.3 2 7.7 1.4 1.5-.6 1.5-2.7-.2-3.1-1.8-.4-.8-1.8.4-2 1.3 0 3.2 1.7 4.1 1.4 1.2-.5 2.4-3-1.2-4.7a10.2 10.2 0 00-12 1.4"/><path fill="#EFD259" d="M130.2 132.6c3.4 11 1.9 19.2 1.3 23.6-.7 4.4 5.1 7.8 7.8 2.4 2.7-5.3 6.7-18 2.8-26.8"/><path fill="#827AAF" d="M134 75.9a6.6 6.6 0 01-5.7-7.9c1-4.7 5.3-7.4 14.6-5.9 9.3 1.6 14 6.4 13.1 11.8-.8 5.3-5.7 7-12.5 6-6.8-.9-9.6-4-9.6-4"/><path fill="#827AAF" d="M140.4 63.8c1.6-5.6 1.7-6.4 2.9-8.6 1.1-2.2 5.9-2.3 6.9 3 1 5.5-2.4 5.7-3.1 7.2"/><path fill="#FF8B6C" d="M131.3 78.4c.4-4.1 3.1-6.5 7.3-5.7 4.1.7 6.4 3.3 6.2 8.6-.2 5.3-6 3.6-7.5 3.2-1.6-.3-6.4-1.7-6-6.1M174 54.6c1.6-7.4-3.4-19.3-8-25.3-4.2-5.5-6.7-6.5-8.6-6.8-2.6-.3-2.2 2-1.1 3.5 1 1.6 3.6 3.5 4.7 6.4 1.1 2.8.2 6.8-2.6 5-2.7-1.8-10.3-2.6-3.8 3.2 6.5 5.8 12 5.2 11.8 14.7 0 9.5 6.4 5.2 7.6-.7"/><path fill="#35335B" d="M108.9 113.2a50.4 50.4 0 01-33 12.5c2 2.3 4.4 4.5 7.7 6.5 16.5 9.8 23.8 6.2 27.8 1.3 3-3.7 2.8-12.6-2.5-20.3"/><path fill="#1D2A3A" d="M87.2 99.5c-5-.8-9.6 0-12.6 3.6-1.5 1.7-3 5.2-3.1 9.3a25 25 0 0015.7-12.9m16.3 7.9c-2.4-2-5.3-3.8-8.2-5.2-4 13.6-11.3 20.8-18.8 24.2 1.8 2 4.1 4 7.1 5.8 16.5 9.8 23.8 6.2 27.8 1.3 3.9-4.7 2.5-17.7-8-26.1"/><path fill="#827AAF" d="M178.3 51c-2.4-7.2-8.7-10.2-14.1-6-4.5 3.5-2.4 5.6 0 11.7l1.5 4.3c2.7 9.6 1.2 15.7-9 20.8-1 .4-1.8.7-2.8.8h-3.3c-7.7-.4-8.5-6.2-21.2-6l-1.3.1c-4.6.2-5.7-10.2-5.3-13.6.4-4 2-7 8.8-8.7 6-1.4 3.5-8.2-2-8-10.5.3-19.7 7-18.9 18.4.8 12 7 15 4.8 20-2.2 4.8-8.2 5.3-13.1 5.7-4.9.4-25 4.7-29.2 15.8 3.3-4.4 27.5 0 29.6 8.5.2.9 0 24 6.2 21 3.3-1.7 7-6.2 10-11.5 3.8-6.6 7-15.5 8-25.5 1.3 15-2.2 24.6-5.4 30.3 9 12.5 25.4 5 28.2.4-8.4-13.1-11.1-33.8 7-36.5.6 0 1-.2 1.5-.3 1-.1 2.1-.4 3.2-.7 10.8-3.3 15.1-6.8 18-10.5 6.7-8.4 1.2-23.2-1.2-30.4"/><path fill="#4E4C75" d="M127 98.8c-1 10-4.2 19-8 25.5a24 24 0 002.6 4.8 51.3 51.3 0 005.4-30.3"/><path fill="#605B8E" d="M99.2 104.3c-8.4-5.2-19-7.8-24.6-1.2a12 12 0 00-1.9 3.2 45.8 45.8 0 0026.5-2"/><path fill="#4E4C75" d="M103.5 107.4c-8.6-7-22.4-12-29-4.3-3.5 4.2-7.8 19 8 29.8 15.4 10.6 24.9 5.5 28.9.6 3.9-4.7 2.5-17.7-8-26.1"/><path fill="#EFD259" d="M103.5 107.4c-1.4-1.1-2.8-2.2-4.3-3a45.8 45.8 0 01-34.1-.6c-16.6-10.1-9.2 15.6-7.7 16.7 5.1 3.8 11.7 5.3 18.6 5.2a50.4 50.4 0 0032.9-12.5c-1.4-2-3.2-4-5.4-5.8"/><path fill="#827AAF" d="M66.8 121c1.4-1.5 9.2-12.6.2-22a19.8 19.8 0 01-3.6-19.4c2-5 3.6-12 10-17.8 6.3-5.7 12.9-12.3 9.2-19.6-2.6-5.3-6.7-10-15-7-8.8 3-30.4 7.9-32.9 39.8-1.5 12.3-12 31.4-11.4 37.2 2 18.6 34 19.9 43.5 8.9"/><g transform="translate(26.9 28.7)"><mask id="c" fill="#fff"><use xlink:href="#a"/></mask><path fill="url(#b)" d="M39.8.6C24.2-.4.8 14.2.8 44.9c3 5.9 9.2 9.1 16.8 9.7a54 54 0 0129-37.4c4.2-2 5.7-4.3 6.1-6l.1-.3a5.7 5.7 0 00.1-1.5l-.1-1" mask="url(#c)"/></g><path fill="#FF8B6C" d="M59.8 48.8c4.7-3.6 19.6-4.8 20-10.5.3-5.6-8.9-9-13.1-9.2-15.6-1-39 13.8-39 44.5 1.4 3.4 6.1 7.3 10.1 8.5-.4-17.1 10.7-24.7 22-33.3"/><path fill="#EFD259" d="M71.7 48.9c9-6.2 11-7.8 8.1-11.3-1.5-12-48.4-2.5-47 42 5 3.8 11.4 3.9 15 3.6a60 60 0 0123.9-34.3"/><path fill="#4E4C75" d="M44.5 83.3c0-5.2 7.5-26.8 29-37.6 7.5-3.8 6.3-8 6.1-9 4.6 6.3-3.1 11.3-5.7 13-2.7 1.5-18.4 8.5-26 33.5-1.3.5-3 .2-3.4.1"/><g transform="translate(41.3 87.8)"><mask id="f" fill="#fff"><use xlink:href="#d"/></mask><path fill="url(#e)" d="M1.5 2A5 5 0 012.4.2L.6.2l.9 1.7" mask="url(#f)"/></g><g transform="translate(37.7 86.5)"><mask id="i" fill="#fff"><use xlink:href="#g"/></mask><path fill="url(#h)" d="M2.5 1.2L.3.9l2.2.3" mask="url(#i)"/></g><g><path fill="#FFA285" d="M26 86c2 0 4.2.3 6.4.6l1-.4-1.1-.6c-1.4.4-1-.3-6.2.3a29.7 29.7 0 010 0"/><path fill="#FF8B6C" d="M32 86.7l.4-.1c-2.2-.3-4.3-.6-6.3-.7a29.7 29.7 0 00-6.2 22.6c.7-9.7 12.7-16.2 12.2-21.8"/><path fill="#EFD259" d="M41.9 87.8a27 27 0 010 .1m-4-.4c-1.5-.3-3-.7-4.4-1.3l-1 .4 5.5.9"/><path fill="#EFD259" d="M32 86.7c.7 6.5 3.7 16.3-1.1 25.1l-3.8 7c5.3 1.2 10.4-.8 10.7-2.8.3-1.8 2.6-20.3 5-26.3l-.9-1.8a66.7 66.7 0 01-4-.4l-5.5-.9-.3.1"/><path fill="#EFD259" d="M32 86.7c.6 5.6-11.4 12-12.1 21.8.7 4.1 2.5 7.7 5.8 9.8l1.4.4 3.8-6.9c4.8-8.8 1.8-18.6 1.2-25"/><path fill="#4E4C75" d="M25.7 118.3c5.8 2 10.4-3.6 10.7-5.7.4-2 .3-19.5 3.1-22.1-6.4-.4-11-1.7-13.4-4.6 4-.8 6.2-.3 6.2-.3 4.3 2.3 11.9 2.5 14.4 1.7-2 6-3.6 18.3-3.5 23.5.1 5.2-5.8 14-17.5 7.5"/></g></g></svg>