<svg xmlns="http://www.w3.org/2000/svg" viewBox="0 0 200 200"><g fill="none" fill-rule="evenodd"><path fill="#FCE6F1" d="M198.8 100.2a98.9 98.9 0 11-197.8 0 98.9 98.9 0 01197.8 0"/><path fill="#FCE6F1" d="M26 154.5l3 .4 22.3 30.8c.6.8.6.7 1.8.9 1 0 1.4-1.3 1.5-1.9L33 155.4l9 1 16.1 2 16.2 1.9 16 1.9 7.4.9 22.2 30.4c.9 1 1.2.9 2.3 1 1.1.1 1.7 0 1.8-.6l-22.2-30.4 4.7.6 5 .6c3.8.6 7 0 5.2-1.8a38.4 38.4 0 00-3.6-3.3c-2-1.8-2.5-2.6-5-3L97 155.5l-16.2-2-16-1.9-16.2-2-16-1.8-16.5-1.8h-.7a11 11 0 00-3.2 0c1.2 2.4 2.6 4.7 4 7 1 .6 1.9.7 3.4.9l6.4.7z"/><path fill="#CC8BB3" d="M26 154.5l3 .4 22.3 30.8c.6.8.6.7 1.8.9 1 0 1.4-1.3 1.5-1.9L33 155.4l9 1 16.1 2 16.2 1.9 16 1.9 7.4.9 22.2 30.4c.9 1 1.2.9 2.3 1 1.1.1 1.7 0 1.8-.6l-22.2-30.4 4.7.6 5 .6c3.8.6 7 0 5.2-1.8a38.4 38.4 0 00-3.6-3.3c-2-1.8-2.5-2.6-5-3L97 155.5l-16.2-2-16-1.9-16.2-2-16-1.8-16.5-1.8h-.7a11 11 0 00-3.2 0c1.2 2.4 2.6 4.7 4 7 1 .6 1.9.7 3.4.9l6.4.7z"/><path fill="#4E4C75" d="M75.1 106c1.4.5 5.4 3.6 5.4 3.6 2.2 5.3.4 13.4-.3 14.6-2-.7-2.5-2-2.8-1.4-1.3 4.3.7 5.9 0 7.9-5.8 14-26.8 21-28.3 6.7"/><path fill="#827AAF" d="M63 101.4c3.2-2.2 9 .4 11.5 3.7 4.4 6 3.7 13 3 17.4-.9 6.6-7.2 18-17.9 20.2-10.7 2.3-13-6.7-8.4-10.4 4.5-3.7 10.9-8.7 8.5-14.1-3-6.5-6.2-8.6-2.4-13.7"/><path fill="#EFD259" d="M63 88.4a14.6 14.6 0 00-.8 1.7c-1.8 5.6 1.2 9.8 4 12.8 3.9 3.8-1.1 8.6-5.1 5.5-2.6-2-20-14.7-6.3-31.6C57.7 80 64 85.4 63 88.4"/><path fill="#F9F7DC" d="M55.2 185.5c-.1 1-1.1 1.6-2.2 1.5-1.2-.1-2-1-1.9-2l7.6-67c.2-1 1.2-1.6 2.3-1.5 1.1.2 2 1 1.8 2l-7.6 67zm69 7.9c0 1-1 1.6-2.2 1.5-1.1-.2-2-1-1.8-2l7.6-67c.1-1 1.1-1.6 2.3-1.5 1 .2 2 1 1.8 2l-7.6 67z"/><path fill="#F9F7DC" d="M49.9 111.9h-.7l5.5 14.4L71 128l-5.6-14.4-15.5-1.8zM81.6 115.5L87 130l16.2 1.9-5.5-14.5zM130.2 121.1l-16.3-1.8 5.6 14.4 16.2 1.9z"/><path fill="#D868A0" d="M44.7 115.5l-.7 6c-.3 3.3 1.7 3.7 4.3 4l6.4.8-5.5-14.4c-2.4-.2-4 .7-4.5 3.6M65.4 113.7L71 128 87 130l-5.5-14.5z"/><path fill="#ED195D" d="M97.8 117.4l5.5 14.5 16.2 1.8-5.6-14.4z"/><path fill="#D868A0" d="M140.7 136.1c2.5.3 4.8-.2 5.1-3.6l.7-5.4c.4-3.2-1.7-4.3-4.3-4.6l-12-1.4 5.5 14.5 5 .5z"/><path fill="#4E4C75" d="M84.3 99.8c1.4-1.2 2.7 1.2 3.6-1.8 5.2-16.5 12.1-14 20-12.2 8 1.7 12.4-11.4 3.2-16-10.9-5.3-28.4-6.5-35 12.4-1.3 4 3.4 22 8.2 17.6"/><path fill="#EFD259" d="M73.8 84c-.3 2.9-.2 5.4.2 7.9 1.9 10.6 9.7 17.7 16 24 4.3 4 16.7-7.5 12-9-4.2-1.4-21.8-17.5-19.2-36"/><path fill="#827AAF" d="M88 111.7c.3-2.1 3.8-11.2 16.6-9.4 5.9.8 12.5-3.7 15.4-7.4 2.8-3.7 7.3-8.3 9.2-15.3 1.8-6.9 4.2-14.5 10.8-15.8 5-1 9.8-.5 10.7 6.3 1 7.2 5.4 23.6-16.8 41-8.5 7.2-18.8 22.8-22.8 26-4 3.2-5.3-3-10.4-4.7A18.8 18.8 0 0188 111.7"/><path fill="#FF8B6C" d="M23.3 36.3c-5-2.4-11.4-2.4-17.2 4-1.1 1.2-3.9.6-3-2 1.2-4.7 5-10.5 16.7-9.7"/><path fill="#827AAF" d="M121.7 46.7c-.7-6.3-4-19.2 0-23.8l-14 4.5c0-.5.2-1 .3-1.4a9.8 9.8 0 0110.3-6.7h-.3c-19.4-3.9-28.7 6.6-45 12.4-2.1-.5-5.3-1-9.7-1.2-19.8-1.2-46.1-14.1-50.7 8-2 9.8 7.1 26.3 9.6 13 2.4-13 19-7.3 30-8.2 4.2 14.5 3.3 25-8 35.8-.8 18 21.8 20.5 30.3 12 1-3-1.1-.3-.2-2.4.3-7.3 9.6-31.6 37.6-18.4C101 64.5 80 53.8 76.5 42.6c11.2-4.1 18.8-3 28.6 1.2 1.4 1 2.7 2 3.7 3 9.1 9.1 13.3 3.7 13-.1"/><path fill="#827AAF" d="M121.7 46.7c-.7-6.3-4-19.2 0-23.8l-14 4.5c0-.5.2-1 .3-1.4a9.8 9.8 0 0110.3-6.7h-.3c-19.4-3.9-28.7 6.6-45 12.4-2.1-.5-5.3-1-9.7-1.2-19.8-1.2-46.1-14.1-50.7 8-2 9.8 7.1 26.3 9.6 13 2.4-13 19-7.3 30-8.2 4.2 14.5 3.3 25-8 35.8-.6 14.5 13.9 18.9 24 15.7 5.5-11.3 5.1-35.8.8-42.1 6.7 9 5.9 28.2 5.3 36.2v-.2c.3-7.3 9.6-31.6 37.6-18.4C101 64.5 80 53.8 76.5 42.6c11.2-4.1 18.8-3 28.6 1.2 1.4 1 2.7 2 3.7 3 9.1 9.1 13.3 3.7 13-.1"/><path fill="#827AAF" d="M74.5 91.1c.6-1.9 0-1.5-.3-1.5l-.2 1.9.5-.4"/><path fill="#605B8E" d="M74.2 89.6v-.7c-.2.6-.1.7 0 .7"/><path fill="#4E4C75" d="M69 52.7c4.3 6.3 4.7 30.8-.8 42 2.2-.6 4.2-1.7 5.8-3.2a149 149 0 00.3-2.6c.6-8 1.4-27.3-5.3-36.2m48.5-25.4c-2.7-.6-5.9-1-9.5-1.3-1.8 4.9.2 17.6 5.8 21.9a7 7 0 002.7.9c6 .5-1-12.1 1-21.5"/><path fill="#FF8B6C" d="M160.9 36.5a9.4 9.4 0 01-2.7-1.6c-.9-1-1-6.4-12.4-12.3-11-5.6-15.8-1.1-22.5-2.5-1.7-.4-3.4-.7-5.3-.9h.3c-5.6-.4-9 3.2-10.3 6.8a81.2 81.2 0 0114.9 2.7c-.7 1-.8 2.2 0 3.8a30 30 0 006.5 6c6.7 4.3 7.5 3.3 8.6 6.5 2 5.7 4.5 3.2 4.3-.1-.4-8.4-5-7.8-6.8-9.2-.5-.4-.6-.7-.4-.9 8.2.5 13.1 2.2 23.8 6.8 3.2 1.4 6-3.7 2-5.1m-94.2-2.3c-1 2-2.7 4.6-5.8 3.7-2.5-.7-4.6-3.2-2.7-8.6 1-3 3.8-5.5 6.4-4.7 2.6.7 5 3.9 2 9.6"/><path fill="#827AAF" d="M62.1 16.2c-3.8 0-12.3 2.1-13 8.3-.5 6.3 10.3 9 13.6 9 3.4.2 14.6-.4 14.2-8.6-.3-8.2-9.6-8.6-14.8-8.7"/><path fill="#827AAF" d="M56.2 21.9c-.5-4.6-.3-8.3 1.1-9.8a7 7 0 017.8.1c2.6 1.8 3 2.6 3.4 4.8.4 2.3 1.1 4.1-.3 6.3C66 27 56.7 27 56.2 22"/><path fill="#EFD259" d="M68.8 17.9c.4 1.2.7 3.7-.3 5.1-2 3-8.7 4.7-12.2.3-1.4-1.8-.4-2.9-.4-3.2 2.5 1.8 9.1 4.8 12.9-2.2m19.2 96c-8.2-8-24.3-23.6-5.3-42.1l-4 7L88 114zm63.3-47.5c-3.2-5.9-14.7-5.6-14.2 6.7.5 12.2-8 25.8-14.6 33.1a9.5 9.5 0 008 6.2c6.6-7.3 18.4-16.2 21.3-45l-.5-1m-25.2 51c-3-2-5.9-6.3-6.1-8.3a75.5 75.5 0 01-16 14.4c-3.4 2-7.5 9.8.7 14.5 5 3 12-.2 17.4-5.3.7-6.7.4-9 3.2-14l.8-1.3"/><path fill="#FF8B6C" d="M135.8 112a40.7 40.7 0 0016-44.6c-3.2 26.5-14.7 37.7-21.2 45 1.6.2 3.4 0 5.2-.4m-6.6 10.3c-1.6-3.9-2-3.3-2.2-4.3l-.9-.6-.8 1.3c-2.8 5-2.5 7.3-3.2 14 3.3-3.1 5.9-6.9 7.1-10.4"/><path fill="#4E4C75" d="M105.6 138.5c-3.8-2.9-1.5-8.8-.1-10 1.4-1.3 14.2-9.9 15-13 2.9 4 5.6 6.6 8.7 6.8-1-3.2-2.2-4.3-2.2-4.3a17 17 0 01-7-9 93 93 0 01-15.8 14c-4 2.4-8 10.8 1.4 15.5m18.2-30a53.1 53.1 0 0016-38c0-7.4 2.4-7.3 4.2-7.8-7-.4-7 6.8-7.2 9.4-.2 2.6 1 16.6-14.3 34.1.2 1.1 1 2.1 1.3 2.4"/></g></svg>