<svg width="561" height="61" viewBox="0 0 561 61" xmlns="http://www.w3.org/2000/svg"><g fill="#FFF" fill-rule="nonzero"><path d="M5.3 48V34.7h5.4c2.7 0 5-.6 6.8-1.7a9.8 9.8 0 004-4.3c.8-1.7 1.2-3.6 1.2-5.7 0-3.5-1-6.2-3.3-8.2-2.2-2-5.3-3-9.2-3H.5V48h4.8zm5.4-18H5.3V16.5H11c2.4 0 4.2.7 5.3 2a7 7 0 011.7 4.6c0 1-.2 2-.7 3.1-.4 1-1.2 2-2.3 2.7-1 .7-2.5 1.1-4.2 1.1zm28 18.5a12 12 0 006-1.5c1.7-1 3-2.2 4-4 .9-1.6 1.4-3.5 1.4-5.6 0-2-.5-3.9-1.5-5.6-.9-1.6-2.2-3-4-3.9-1.7-1-3.6-1.5-5.8-1.5a12 12 0 00-6 1.5 10.6 10.6 0 00-5.5 9.5c0 2.3.5 4.2 1.4 5.9 1 1.6 2.4 3 4.1 3.8 1.8 1 3.7 1.4 5.9 1.4zm0-3.9c-1.3 0-2.4-.3-3.5-.9-1-.6-1.8-1.5-2.4-2.6a7.6 7.6 0 01-.8-3.6 7 7 0 013.3-6.2c1-.7 2-1 3.3-1 2 0 3.6.7 4.8 2 1.3 1.5 2 3.2 2 5.2s-.7 3.7-2 5.1a6.3 6.3 0 01-4.8 2zm36.2 4.6l9.5-21.9h-4.6l-5.2 12.8L69 27.3h-4l1.6 3.5-3.9 9-5.5-12.5h-4.6l9.6 22 6-14.3L75 49.3zm23.6-.7a14.5 14.5 0 007.3-2.4l-2.1-3.4a8.4 8.4 0 01-5 1.8c-1.4 0-2.5-.3-3.6-.9-1-.6-1.8-1.4-2.4-2.4l16.4-5.8c-.6-2.8-1.9-5-3.7-6.6a10 10 0 00-6.8-2.4 11.7 11.7 0 00-10 5.5c-1 1.7-1.5 3.6-1.5 5.6 0 2.1.5 4 1.4 5.6 1 1.7 2.3 3 4 4 1.7 1 3.7 1.4 6 1.4zm-6.7-10.1v-1.1c0-2.1.5-3.8 1.8-5.2 1.2-1.3 2.8-2 4.7-2 1.3 0 2.5.4 3.4 1.1 1 .7 1.6 1.6 2.1 2.7l-12 4.5zm27.8 9.6v-9.5a7.4 7.4 0 018-7.4l.1-4.7a11.5 11.5 0 00-6 2.8c-1 .9-1.7 1.9-2.3 3l-.3-4.9h-4.2V48h4.7zm22.8.5a14.5 14.5 0 007.3-2.4l-2.1-3.4a8.4 8.4 0 01-5 1.8c-1.4 0-2.5-.3-3.6-.9-1-.6-1.8-1.4-2.4-2.4l16.4-5.8c-.6-2.8-1.9-5-3.7-6.6a10 10 0 00-6.8-2.4 11.7 11.7 0 00-10 5.5c-1 1.7-1.5 3.6-1.5 5.6 0 2.1.5 4 1.4 5.6 1 1.7 2.3 3 4 4 1.7 1 3.7 1.4 6 1.4zm-6.7-10.1v-1.1c0-2.1.5-3.8 1.8-5.2 1.2-1.3 2.8-2 4.7-2 1.3 0 2.5.4 3.4 1.1 1 .7 1.6 1.6 2.1 2.7l-12 4.5zm31.6 10.1c1.7 0 3.3-.3 4.7-1 1.5-.7 2.7-1.6 3.7-2.8V48h4.7V9.2h-4.6v20.9c-.9-1.1-2-2-3.5-2.7a11.7 11.7 0 00-10 .3c-1.7 1-3 2.2-3.9 3.8-1 1.7-1.4 3.6-1.4 5.8 0 2.3.5 4.2 1.3 5.9a9.7 9.7 0 009 5.3zm1.4-4a7 7 0 01-7-7.2 7.1 7.1 0 013.5-6.2c1-.6 2.3-1 3.5-1 1.7 0 3.2.5 4.5 1.5 1.3 1 2.1 2.1 2.5 3.6v4c-.3 1.6-1.2 2.9-2.4 3.8a7.3 7.3 0 01-4.6 1.5zm48.2 4c2 0 3.7-.5 5.4-1.4a10 10 0 004-3.9c.9-1.7 1.4-3.6 1.4-5.9 0-2.2-.5-4-1.4-5.7a9.7 9.7 0 00-8.8-5.2c-1.8 0-3.5.4-5 1a8.9 8.9 0 00-3.6 2.6V9.2h-4.6V48h4.6v-3.2c.9 1.1 2 2 3.4 2.7 1.4.7 3 1 4.6 1zm-1-4c-1.7 0-3.2-.5-4.5-1.5a6.7 6.7 0 01-2.5-3.7v-4.1a6.3 6.3 0 012.5-3.7 7.5 7.5 0 018-.4 7.2 7.2 0 013.4 6.2c.1 2-.5 3.8-1.9 5.1-1.3 1.4-3 2.1-5 2.1zm24.4 13.4l13.3-30.6h-4.3L242.8 42 236 27.3h-5.3l9.6 20-4.7 10.6h4.6z" fill-opacity=".5"/><path d="M283.7 48V37.1c0-2.4.6-4.6 1.6-6.5 1.1-2 2.6-2.9 4.5-2.9 1 .1 1.8.5 2.2 1.1.4.7.6 1.7.7 3V48h8.4V37.3c0-2.6.6-4.8 1.7-6.7 1-2 2.6-2.9 4.6-2.9 1 .1 1.7.5 2 1.1.4.7.6 1.7.7 3V48h8.4V28.3c-.1-2.3-1-4.2-2.5-5.7a8.6 8.6 0 00-6.1-2.1c-1.7 0-3.2.4-4.8 1.3-1.5 1-2.9 2.2-4 3.8-.5-1.7-1.4-3-2.8-3.9a9.8 9.8 0 00-5.3-1.2c-4.2 0-7.3 1.8-9.5 5.4l-.6-4.1h-7.6V48h8.4zm54.4.7c3.4 0 6.3-1.3 8.8-4V48h8.4V21.8h-7.8l-.5 2.7c-1-1.3-2.3-2.3-3.6-3-1.4-.7-3.2-1-5.6-1-2.2 0-4.3.6-6.3 1.8-2 1.2-3.5 2.8-4.7 5a15.7 15.7 0 00-1.7 7.6c0 4.6 1.2 8 3.6 10.3a13 13 0 009.4 3.5zm2.4-6.8a7.1 7.1 0 01-6-3.6c-.6-1.2-1-2.4-1-3.8 0-2 .7-3.8 2-5.2 1.3-1.3 3-2 4.7-2 1.6 0 3 .4 4.2 1.1 1.2.8 2 1.8 2.5 3.1v6.4a6.6 6.6 0 01-6.4 4zm33.6 18.7l17-38.8h-7.6l-7 15.5-6.9-15.5h-9.4l12.1 24.8-6.3 14h8.1zM407 48V29.1h6.7v-7.4H407v-9c0-1.6.4-2.9 1.1-3.7.8-.8 1.7-1.3 3-1.3 1.2 0 2.2.5 3 1.4l3-5.3V48h8.4V.7H417v2A14.5 14.5 0 00410 .8c-3.7 0-6.5 1.1-8.6 3.2-2 2.2-3 5-3 8.5v9.2h-4.4V29h4.4V48h8.4zm37.3 12.6l17-38.8h-7.6l-7 15.5-6.9-15.5h-9.4l12.1 24.8-6.3 14h8.1zm32.6-12.1c2.2 0 4.2-.6 6.1-1.6 2-1 3.3-2.4 4.2-3.9v5h2.8V24.5h-2.5l-.3 5.1a11 11 0 00-4-4.2c-1.8-1-3.6-1.6-5.5-1.6-2.5 0-4.6.5-6.6 1.5s-3.4 2.4-4.5 4.3-1.7 4-1.7 6.6c0 2.4.5 4.6 1.6 6.4 1 1.9 2.5 3.3 4.3 4.3 1.8 1 3.9 1.6 6.1 1.6zm.6-2.4a10 10 0 01-9.8-10c0-2 .5-3.7 1.3-5.2a9 9 0 013.5-3.5 10 10 0 015-1.2c2.3 0 4.4.8 6.2 2.2 1.9 1.5 3 3.4 3.5 5.6v3.3a8.8 8.8 0 01-3 6.3 9.7 9.7 0 01-6.7 2.5zm26 13.2V43a12 12 0 0010.1 5.5c2.4 0 4.5-.5 6.4-1.6 1.9-1 3.3-2.5 4.4-4.4 1.1-1.8 1.6-4 1.6-6.3s-.5-4.4-1.5-6.3a11.7 11.7 0 00-10.4-6 12.6 12.6 0 00-10.7 5.7l-.2-5.2h-2.5v34.9h2.8zm9.7-13.2a9.5 9.5 0 01-8.1-4.3 9.2 9.2 0 01-1.6-4.5v-2c.2-1.6.7-3.2 1.6-4.6a9.8 9.8 0 018.3-4.4 9.6 9.6 0 018.5 4.9 10 10 0 01-8.7 15zm24 13.2V43c1.1 1.7 2.5 3 4.4 4a12.8 12.8 0 0012.1 0 12.4 12.4 0 006-10.7c0-2.4-.5-4.5-1.5-6.4a11.7 11.7 0 00-10.4-6 12.6 12.6 0 00-10.7 5.7l-.1-5.2h-2.6v34.9h2.9zm9.7-13.2a9.5 9.5 0 01-8.1-4.3 9.2 9.2 0 01-1.5-4.5v-2a9.8 9.8 0 019.8-9 9.6 9.6 0 018.5 4.9 10 10 0 01-8.7 15z" fill-opacity=".9"/></g></svg>