<?xml version="1.0" encoding="UTF-8"?>
<svg width="1150px" height="528px" viewBox="0 0 1150 528" version="1.1" xmlns="http://www.w3.org/2000/svg" xmlns:xlink="http://www.w3.org/1999/xlink">
    <title>img-aboutus-background</title>
    <g id="Landing-Page" stroke="none" stroke-width="1" fill="none" fill-rule="evenodd">
        <g id="Landing-Page-Desktop" transform="translate(-145.000000, -3048.000000)" fill="#EDEBF5">
            <g id="About-us" transform="translate(0.000000, 2960.000000)">
                <g id="img-aboutus-background" transform="translate(145.000000, 88.000000)">
                    <path d="M1032.94416,196.629488 C1038.39359,197.381957 1050.96073,193.013254 1041.19036,169 C1021.63984,175.64072 1023.42049,187.887212 1027.27246,192.993773 C1027.49474,193.285994 1027.63641,193.695103 1027.71946,194.179703 C1026.67891,198.146602 1026.02185,202.554267 1025.94369,207.490365 C1022.59734,204.185834 1018.62568,201.692215 1014.05559,199.987593 C1014.07757,199.578484 1014.14352,199.315485 1014.14352,199.315485 C1014.74929,186.231294 990.530975,177.009288 971,200.637785 C989.248614,218.424298 1003.75029,210.848471 1010.00577,206.219204 C1019.49036,211.221053 1023.83573,219.047703 1025.11077,228.182042 C1026.81326,240.365219 1038.49618,235.69699 1036.45661,227.358953 C1034.98861,221.365989 1032.77807,216.327613 1029.88848,212.178076 C1029.50011,206.86209 1030.08633,201.699521 1031.22214,196.7342 C1031.70088,196.534516 1032.27001,196.485813 1032.94416,196.629488" id="Fill-1170"></path>
                    <path d="M1130.53833,298 C1130.11475,299.982088 1129.55174,301.917233 1128.92033,303.834121 C1128.9177,303.831513 1128.91507,303.828905 1128.90981,303.826297 C1122.79036,320.381952 1106.59723,338.2703 1090.80137,351.336436 C1090.82505,351.352084 1090.85136,351.365124 1090.87241,351.378164 C1089.26493,352.684778 1087.64431,353.98096 1086,355.264101 C1139.14397,389.567272 1173.38499,319.917726 1130.53833,298" id="Fill-1168"></path>
                    <path d="M27.9948821,198.281035 C1.95734602,201.552673 -4.56117124,216.78192 2.87327859,231.68861 C6.41958162,238.81556 10.5738969,239.486271 18.2014493,240.871214 C18.4467418,240.914733 18.6868153,240.937773 18.9294983,240.976172 C19.9550296,251.646117 31.4863858,274.20455 46.6214539,273.587598 C34.8891666,266.545128 33.7227226,249.206468 34.215917,239.376193 C35.2492769,238.912839 36.2643702,238.398285 37.2455401,237.760853 C41.11803,235.221366 50.3164981,231.373734 52.5789298,221.556259 C55.2954136,209.762489 47.4330067,195.841386 27.9948821,198.281035" id="Fill-1174"></path>
                    <g id="Group-49" transform="translate(1008.000000, 0.000000)">
                        <path d="M13.7712062,22.5297664 L17.1,19.749058 L10.9702044,19.369254 L8.79653445,14 L6.518695,19.6925396 L1.81188398e-13,21.4491334 L5.64598619,24.564431 L4.62049547,30.8741522 L9.31275213,26.838734 C10.7155679,28.8507913 13.0420198,32 13.0420198,32 L12.3452416,24.4559156" id="Path"></path>
                        <path d="M17.1,35.0480058 C17.0744654,39.0902508 19.4335417,43.1811417 18.846113,47.1932726 C18.2025158,51.6223685 18.7548392,58.7246741 21.1817858,60.7747525 C23.6110728,62.8225144 23.6414974,63.0055158 26.260353,64.2981076 C28.8815489,65.5860664 28.5538994,64.6154644 28.4111379,62.8850592 C28.273057,61.1523375 27.3767016,56.2390988 27.0513925,49.0418179 C26.723743,41.8422205 30.8100002,45.7570594 34.7137099,59.8944928 C38.6197599,74.0365591 60.3639846,75.6511407 66.4184791,72.350167 C72.0610715,69.2692582 68.9624434,63.75142 65.4940395,65.2200637 C62.7090188,66.4037813 59.9193174,67.0593431 56.2004956,65.0996072 C47.15971,60.9299562 45.1423252,51.8516993 45.8654945,42.0808171 C46.5933444,32.3076185 57.1179142,25.1103376 65.4027657,22.1058724 C73.4254976,19.2010155 71.4736427,16.5324389 68.5926675,12.9442225 C59.5308187,1.66531656 37.9480785,-4.58915995 31.0510566,4.02580232 C23.6508588,13.2685287 36.3800416,14.9317562 20.7839257,27.924852 C18.6120777,29.7317008 17.6104063,31.5663472 17.257013,33.412576" id="Path"></path>
                    </g>
                    <g id="Group-29" transform="translate(889.000000, 465.000000)">
                        <path d="M14.9174749,31.5089324 C17.5100854,31.3753928 20.0105319,32.7472088 21.4050118,35.0841519 C22.9617802,37.6901976 22.8535878,40.8870549 21.110488,43.8532528 C19.1870676,47.1290199 16.6806103,49.0167844 13.6632445,49.4598931 C13.5410271,49.478103 13.4148026,49.4922663 13.2905817,49.5044063 C14.7752219,51.084625 16.9490877,52.7073335 20.0526068,54.3381354 C22.0621804,55.3943123 24.3442386,55.7544646 26.5621828,55.4104989 C25.0014073,52.9197829 24.4404097,50.3784837 25.0294572,48.0597505 C25.708665,45.3889583 27.4838218,43.5113105 29.9041259,42.9103823 C32.182177,42.3458739 34.648563,43.0864118 36.1812887,44.8001701 C37.7901497,46.6009315 38.1688231,49.1746039 37.2131236,51.8595594 C36.509873,53.8363502 35.1374324,55.5885517 33.2921509,56.9279945 C33.5766568,57.1667471 33.8771912,57.4034764 34.1937542,57.6402057 C36.7963825,59.58867 39.0904621,59.3863373 41.6309799,57.0028576 C42.4384158,56.2420865 43.7086747,56.288623 44.4620144,57.1020006 C45.2173576,57.9214482 45.1712757,59.2001911 44.3618363,59.9609623 C41.95155,62.2291123 39.6414419,63 37.6138362,63 C35.1634787,63 33.121848,61.87503 31.8075107,60.8896695 C30.9379644,60.2422048 30.1405463,59.5664134 29.4232708,58.8724121 C25.7046579,60.0783152 21.6694821,59.7464895 18.2053217,57.9295415 C12.5091922,54.941087 9.32553063,51.7037631 7.75874439,48.5311858 C6.00161966,47.7683914 4.2464985,46.5968848 2.59556262,45.0551093 C0.0470305217,42.6716296 -0.630173762,38.9143107 0.587992523,33.8903888 C0.850459272,32.8038619 1.93037971,32.1381872 3.01030015,32.4032431 C4.0842099,32.674369 4.74338212,33.7689891 4.48091537,34.8494459 C3.62339042,38.3902689 3.89787855,40.7575619 5.31840469,42.0848647 C5.70308878,42.445017 6.09378356,42.778866 6.4864819,43.0864118 C6.50050684,40.8182618 7.13763987,38.6836514 8.01319688,36.8201668 C9.53390118,33.588913 12.0463691,31.6525886 14.9174749,31.5089324 Z M31.4528801,46.7668443 C31.2545273,46.7668443 31.0561746,46.7911242 30.8598254,46.8396841 C30.1866283,47.0076203 29.3010534,47.5296387 28.9103586,49.0673675 C28.6058171,50.2651774 29.0466009,52.0315422 30.4631199,53.9759598 C31.9056853,53.0776024 32.9575558,51.857536 33.4424181,50.49179 C33.7569775,49.6055726 33.9713587,48.3672963 33.2039941,47.5094055 C32.7832459,47.0359468 32.1240736,46.7668443 31.4528801,46.7668443 Z M15.2520699,35.5495172 C15.2079915,35.5495172 15.1619096,35.5495172 15.1158276,35.5515405 C13.7493977,35.622357 12.5111957,36.6866272 11.6336352,38.5541584 C10.7560746,40.4216896 10.0408026,42.7383995 10.7700995,45.3019553 C11.5875532,45.504288 12.3709463,45.5548712 13.0842148,45.4557281 C14.8473502,45.1967422 16.3880901,43.9625125 17.6643597,41.7894589 C18.9867113,39.5374955 18.4257136,37.9309736 17.9729084,37.1742491 C17.3778502,36.1747254 16.3219725,35.5495172 15.2520699,35.5495172 Z" id="Combined-Shape"></path>
                        <path d="M73.6081496,55.0509978 C73.3640674,54.0745335 73.0459603,52.9266897 72.5798033,51.758918 C72.5117804,51.2467724 72.3997427,50.6728505 72.2336868,50.0271884 C70.9112415,44.9236675 71.1973379,40.4199748 72.9719354,36.0019718 C73.2880418,36.1115749 73.5401267,35.7887438 73.2920431,35.2626487 C68.6904938,23.1943464 64.2670044,9.98816418 62.2943402,4.4801081 C60.3236767,-1.02794799 53.9555325,-0.302574465 51.4186783,0.689832167 C49.3039663,1.51883048 44.2582674,4.3904328 46.4329996,11.2515895 C48.6077319,18.1127462 55.9922183,36.7452803 57.3186649,42.4406582 C57.4487087,42.9388543 57.8768528,42.8133088 58.0269033,42.5462757 C62.0862701,43.6861484 66.6097932,47.7255224 68.9645861,51.9143552 C69.1706555,52.2790347 69.3727235,52.5958875 69.5727909,52.8828484 C69.7708576,53.3192682 70.0489512,53.7038756 71.4154113,55.9078951 C73.2200189,58.8193531 74.2503658,57.6037547 73.6081496,55.0509978" id="Fill-1178" transform="translate(59.850000, 28.800000) scale(-1, 1) translate(-59.850000, -28.800000) "></path>
                    </g>
                    <polygon id="Fill-1180" points="208.028372 416.518365 225 415.494057 209.357931 406.263428 219.584274 394.432242 205.550787 399.049249 205.223019 378.9 196.748131 397.046345 187.103365 389.728888 189.098544 401.597322 171.9 402.721522 186.35034 411.708348 179.001627 420.900035 191.520661 417.867743 192.324111 436.5 201.420917 420.646074 210.769852 428.793137"></polygon>
                    <g id="Group-28" transform="translate(102.600000, 18.900000)">
                        <path d="M0,31.5 C14.1298274,38.8863183 39.778899,38.4391604 51.3,31.7208412 C34.7805422,33.2886316 18.6937059,34.409264 0,31.5" id="Fill-1182"></path>
                        <path d="M4.5,39.6 C16.6293366,46.9214293 38.6821622,46.5537982 48.6,39.9743153 C34.394793,41.4693485 20.5625646,42.5232243 4.5,39.6" id="Fill-1184"></path>
                        <path d="M52.2,25.9534417 C38.1469423,29.5457039 16.0638321,29.9467093 0,25.9534417 C0,11.6179654 11.6882082,0 26.1009318,0 C40.5155189,0 52.2,11.6179654 52.2,25.9534417" id="Fill-1186"></path>
                    </g>
                </g>
            </g>
        </g>
    </g>
</svg>