<?xml version="1.0" encoding="UTF-8"?>
<svg width="151px" height="165px" viewBox="0 0 151 165" version="1.1" xmlns="http://www.w3.org/2000/svg" xmlns:xlink="http://www.w3.org/1999/xlink">
    <title>img-advantages-right</title>
    <defs>
        <linearGradient x1="140.608081%" y1="59.4011587%" x2="96.1883804%" y2="8.44545641%" id="linearGradient-1">
            <stop stop-color="#F0BD16" offset="0%"></stop>
            <stop stop-color="#F0B918" offset="17%"></stop>
            <stop stop-color="#F0AF1C" offset="33%"></stop>
            <stop stop-color="#EF9C24" offset="48%"></stop>
            <stop stop-color="#EE832F" offset="62%"></stop>
            <stop stop-color="#ED623E" offset="76%"></stop>
            <stop stop-color="#EC3A4F" offset="90%"></stop>
            <stop stop-color="#EB175E" offset="100%"></stop>
        </linearGradient>
        <linearGradient x1="3951.03974%" y1="2869.18118%" x2="2614.5894%" y2="1422.69199%" id="linearGradient-2">
            <stop stop-color="#F0BD16" offset="0%"></stop>
            <stop stop-color="#F0B918" offset="17%"></stop>
            <stop stop-color="#F0AF1C" offset="33%"></stop>
            <stop stop-color="#EF9C24" offset="48%"></stop>
            <stop stop-color="#EE832F" offset="62%"></stop>
            <stop stop-color="#ED623E" offset="76%"></stop>
            <stop stop-color="#EC3A4F" offset="90%"></stop>
            <stop stop-color="#EB175E" offset="100%"></stop>
        </linearGradient>
        <linearGradient x1="3397.45856%" y1="1462.94832%" x2="2282.8895%" y2="773.637862%" id="linearGradient-3">
            <stop stop-color="#F0BD16" offset="0%"></stop>
            <stop stop-color="#F0B918" offset="17%"></stop>
            <stop stop-color="#F0AF1C" offset="33%"></stop>
            <stop stop-color="#EF9C24" offset="48%"></stop>
            <stop stop-color="#EE832F" offset="62%"></stop>
            <stop stop-color="#ED623E" offset="76%"></stop>
            <stop stop-color="#EC3A4F" offset="90%"></stop>
            <stop stop-color="#EB175E" offset="100%"></stop>
        </linearGradient>
    </defs>
    <g id="Landing-Page" stroke="none" stroke-width="1" fill="none" fill-rule="evenodd">
        <g id="Landing-Page-Desktop" transform="translate(-1049.000000, -1744.000000)">
            <g id="Advantages" transform="translate(0.000000, 1505.000000)">
                <g id="img-advantages-right" transform="translate(1049.000000, 239.000000)">
                    <path d="M119.323551,135.252782 C152.779513,111.14133 160.354735,64.4737196 136.243282,31.0177573 C112.13183,-2.43820502 65.4642195,-10.0134269 32.0082572,14.0980256 C-1.44770507,38.2094781 -9.02292698,84.8770885 15.0885255,118.333051 C39.1999781,151.789013 85.8675884,159.364235 119.323551,135.252782 Z" id="Oval" fill="#FCE6F1" fill-rule="nonzero" opacity="0.64"></path>
                    <path d="M93.08,143.78 C92.36,147.86 90.21,152.92 87.43,154.78 C83.95,157.11 76.5,157.78 77.09,160.78 C77.68,163.78 83.96,166.78 90.09,162.98 C94.95,159.98 96.96,157.06 97.97,154.72 C98.98,152.38 100.46,152.62 101.44,154.12 C102.42,155.62 104.02,162.4 112.04,163.89 C120.06,165.38 122.81,159.21 117.95,158 C113.09,156.79 111.59,154.25 111.03,153.07 C110.47,151.89 110.11,149.56 113.4,149.79 C116.69,150.02 121.2,149.74 124.26,147.99 C127.91,145.9 129.42,143.79 130.01,140.78 C130.6,137.77 129.13,136.41 126.8,137.31 C122.62,138.92 109.59,145.46 104.55,141.09" id="Path" fill="#F8D114" fill-rule="nonzero"></path>
                    <path d="M105.77,139.36 C104.692219,142.037717 102.795063,144.305904 100.35,145.84 C96.22,147.09 90.18,146.69 87.92,145.45 C88.26,144.94 89.62,142.95 89.62,142.95 C84.62,141.15 84.3,143.19 81.37,142.05 C72.69,138.67 69.64,118.14 78.68,118.53 C79.34,118.53 73.23,129.53 80.61,135.21 C87.99,140.89 99.52,139.13 104.61,138.68" id="Path" fill="#4E4C75" fill-rule="nonzero"></path>
                    <path d="M103.09,124.99 C97.09,126.39 91.09,137.14 84.75,120.65 C82.22,114.07 72.94,116.38 75.11,129.04 C77.59,143.5 89.98,146.04 103.04,142.23 C111.4,138.56 112.23,129.56 109.83,126.73" id="Path" fill="#827AAF" fill-rule="nonzero"></path>
                    <path d="M102.25,42.43 C105,43.55 107.46,44.01 108.66,43.54 C109.230975,43.3437325 109.596006,42.7850802 109.546451,42.1833511 C109.496897,41.5816219 109.045391,41.0902138 108.45,40.99 C106.98,40.67 107.81,39.51 108.83,39.4 C109.85,39.29 111.48,40.76 112.22,40.48 C113.22,40.11 114.22,37.98 111.22,36.57 C108.38,35.23 105.22,34.67 101.31,37.77" id="Path" fill="#FF8B6C" fill-rule="nonzero"></path>
                    <path d="M100.73,109.02 C102.659704,115.368435 103.026788,122.089159 101.8,128.61 C101.3,132.26 106.11,135.1 108.35,130.61 C110.59,126.12 113.89,115.61 110.63,108.38" id="Path" fill="#EFD259" fill-rule="nonzero"></path>
                    <path d="M103.84,62 C102.334417,61.7879938 100.983354,60.963283 100.106619,59.7210831 C99.2298832,58.4788831 98.9054083,56.9296141 99.21,55.44 C99.96,51.51 103.56,49.27 111.3,50.56 C119.04,51.85 122.91,55.84 122.21,60.3 C121.51,64.76 117.41,66.19 111.78,65.39 C106.15,64.59 103.84,62 103.84,62 Z" id="Path" fill="#827AAF" fill-rule="nonzero"></path>
                    <path d="M109.26,51.97 C110.53,47.3 110.68,46.65 111.62,44.82 C112.56,42.99 116.52,42.88 117.36,47.36 C118.2,51.84 115.41,52.04 114.78,53.26" id="Path" fill="#827AAF" fill-rule="nonzero"></path>
                    <path d="M101.65,64.05 C101.97,60.63 104.28,58.68 107.72,59.31 C111.16,59.94 113.06,62.1 112.89,66.51 C112.72,70.92 107.89,69.46 106.62,69.15 C105.35,68.84 101.3,67.74 101.65,64.05 Z" id="Path" fill="#FF8B6C" fill-rule="nonzero"></path>
                    <path d="M137.22,44.36 C138.49,38.18 134.39,28.3 130.58,23.36 C127.04,18.76 124.96,17.94 123.39,17.74 C121.27,17.46 121.59,19.38 122.49,20.66 C123.39,21.94 125.49,23.56 126.42,25.91 C127.35,28.26 126.6,31.61 124.22,30.02 C122.03,28.56 115.68,27.91 121.07,32.73 C126.46,37.55 130.99,37.02 130.93,44.9 C130.87,52.78 136.21,49.25 137.22,44.36 Z" id="Path" fill="#FF8B6C" fill-rule="nonzero"></path>
                    <path d="M83.07,92.95 C77.16,98.86 66.07,103.27 55.75,103.36 C57.538221,105.513451 59.6951299,107.331755 62.12,108.73 C75.79,116.89 81.81,113.84 85.12,109.83 C87.71,106.74 87.5,99.36 83.07,92.95 Z" id="Path" fill="#35335B" fill-rule="nonzero"></path>
                    <path d="M65.05,81.59 C60.96,80.89 57.12,81.59 54.59,84.59 C52.9552326,86.8550045 52.0547162,89.5670249 52.01,92.36 C57.6906626,90.7881244 62.4330312,86.8713062 65.05,81.59 L65.05,81.59 Z" id="Path" fill="#1D2A3A" fill-rule="nonzero"></path>
                    <path d="M78.58,88.1 C76.484646,86.4205158 74.2029683,84.9877565 71.78,83.83 C68.47,95.14 62.42,101.07 56.18,103.83 C57.8864777,105.758148 59.8921164,107.399126 62.12,108.69 C75.79,116.85 81.81,113.8 85.12,109.79 C88.43,105.78 87.21,95.08 78.58,88.1 Z" id="Path" fill="#1D2A3A" fill-rule="nonzero"></path>
                    <path d="M140.71,41.36 C138.71,35.36 133.46,32.86 128.96,36.36 C125.23,39.26 126.96,40.97 128.96,46.02 C129.37,47.02 129.79,48.24 130.18,49.61 C132.43,57.61 131.18,62.61 122.68,66.86 C121.97478,67.2116662 121.219034,67.4512106 120.44,67.57 L119.79,67.57 C119.091097,67.6254332 118.388903,67.6254332 117.69,67.57 C111.3,67.21 110.63,62.4 100.04,62.57 L98.95,62.57 C95.18,62.76 94.24,54.09 94.55,51.29 C94.93,47.92 96.18,45.42 101.93,44.04 C106.82,42.87 104.83,37.28 100.18,37.42 C91.55,37.67 83.91,43.3 84.55,52.67 C85.24,62.67 90.35,65.12 88.55,69.29 C86.78,73.29 81.76,73.69 77.7,74.03 C73.64,74.37 57.02,77.93 53.47,87.11 C56.23,83.52 76.3,87.11 78,94.21 C78.17,94.93 78.07,114.21 83.2,111.57 C85.89,110.21 89.03,106.48 91.5,102.06 L91.5,102.12 C95.153552,95.5984928 97.3985541,88.3831445 98.09,80.94 C99.09,93.39 96.3,101.36 93.64,106.04 C101.05,116.46 114.64,110.2 117.02,106.37 C110.02,95.49 107.77,78.37 122.86,76.12 C123.29,76.06 123.69,75.96 124.07,75.87 C124.956642,75.7426414 125.832447,75.5487609 126.69,75.29 C135.69,72.57 139.28,69.61 141.69,66.54 C147.21,59.63 142.71,47.36 140.71,41.36 Z" id="Path" fill="#827AAF" fill-rule="nonzero"></path>
                    <path d="M98.11,81.03 C97.4185541,88.4731445 95.173552,95.6884928 91.52,102.21 C92.0847463,103.592464 92.8025538,104.907326 93.66,106.13 C96.32,101.45 99.14,93.48 98.11,81.03 Z" id="Path" fill="#4E4C75" fill-rule="nonzero"></path>
                    <path d="M75,85.57 C68,81.29 59.19,79.12 54.59,84.57 C53.9407372,85.3873048 53.4243975,86.3018672 53.06,87.28 C59.53,88.55 68.67,88.62 75,85.57 Z" id="Path" fill="#605B8E" fill-rule="nonzero"></path>
                    <path d="M37.98,68.17 C38.38,67.9 38.75,67.65 39.1,67.44 C39.1,66.78 39.86,65.11 37.98,68.17 Z" id="Path"></path>
                    <path d="M40.18,66.89 C39.8036322,67.0392441 39.442056,67.2233801 39.1,67.44 C39.1,67.79 39.3,67.86 40.18,66.89 Z" id="Path"></path>
                    <path d="M78.58,88.1 C71.44,82.33 60.03,78.1 54.58,84.55 C51.58,88.08 48.03,100.33 61.15,109.33 C73.9,118.08 81.8,113.84 85.15,109.83 C88.5,105.82 87.21,95.08 78.58,88.1 Z" id="Path" fill="#4E4C75" fill-rule="nonzero"></path>
                    <path d="M78.58,88.1 C77.4379451,87.1863514 76.2424958,86.3415227 75,85.57 C68.67,88.57 59.53,88.57 53.06,87.26 C50.8430206,86.8888046 48.6994308,86.166398 46.71,85.12 C32.93,76.75 39.11,98.12 40.38,99.05 C44.58,102.13 50.05,103.4 55.75,103.36 C66.06,103.27 77.16,98.86 83.07,92.95 C81.8105444,91.1288763 80.298776,89.4958971 78.58,88.1 Z" id="Path" fill="#EFD259" fill-rule="nonzero"></path>
                    <path d="M48.15,99.49 C49.31,98.15 55.75,88.95 48.31,81.12 C43.97,76.54 43.72,69.12 45.31,65.06 C46.9,61 48.31,55.14 53.6,50.31 C58.89,45.48 64.28,40.05 61.28,34.02 C59.07,29.59 55.64,25.77 48.75,28.2 C41.45,30.78 23.51,34.76 21.5,61.2 C20.26,71.45 11.5,87.29 12.01,92.06 C13.75,107.55 40.24,108.64 48.15,99.49 Z" id="Path" fill="#827AAF" fill-rule="nonzero"></path>
                    <path d="M48.04,23.3 C35.04,22.48 15.61,34.58 15.73,60.12 C18.1,65 23.29,67.69 29.62,68.18 C29.71,63.57 36.06,45.93 53.62,37.11 C57.09,35.38 58.33,33.55 58.73,32.11 C58.7242915,32.0434555 58.7242915,31.9765445 58.73,31.91 C58.7243125,31.8467944 58.7243125,31.7832056 58.73,31.72 C58.7872508,31.3495621 58.8106807,30.9746836 58.8,30.6 C58.8,30.22 58.71,29.92 58.68,29.72" id="Path" fill="url(#linearGradient-1)" fill-rule="nonzero" opacity="0.66"></path>
                    <path d="M42.33,39.5 C46.23,36.5 58.62,35.56 58.89,30.75 C59.14,26.17 51.58,23.35 48.05,23.13 C35.05,22.31 15.63,34.59 15.75,60.13 C16.82,62.92 20.75,66.13 24.08,67.13 C23.71,52.93 32.92,46.64 42.33,39.5 Z" id="Path" fill="#FF8B6C" fill-rule="nonzero"></path>
                    <path d="M52.21,39.55 C59.6,34.42 61.33,33.08 58.96,30.19 C57.64,20.31 18.76,28.19 19.96,65 C24.16,68.22 29.39,68.3 32.41,68 C34.28,58.47 41.88,46.71 52.21,39.55 Z" id="Path" fill="#EFD259" fill-rule="nonzero"></path>
                    <path d="M29.62,68.17 C29.62,63.81 35.87,45.86 53.67,36.94 C59.94,33.8 58.95,30.36 58.8,29.5 C62.6,34.71 56.16,38.83 54,40.18 C51.84,41.53 38.8,47.29 32.41,68.09 C31.4977754,68.3256149 30.5442267,68.3529568 29.62,68.17 Z" id="Path" fill="#4E4C75" fill-rule="nonzero"></path>
                    <path d="M28.99,72.11 C28.49,72.11 27.99,72.03 27.48,71.98 C27.7641022,72.4483794 28.0147273,72.9362629 28.23,73.44 C28.399453,72.9537316 28.657091,72.502865 28.99,72.11 Z" id="Path" fill="url(#linearGradient-2)" fill-rule="nonzero"></path>
                    <path d="M24.23,71.58 C24.83,71.69 25.44,71.77 26.04,71.82 C25.41,71.75 24.83,71.67 24.23,71.58 Z" id="Path" fill="url(#linearGradient-3)" fill-rule="nonzero"></path>
                    <path d="M14.35,70.36 C16.1123313,70.4436116 17.8684921,70.6272406 19.61,70.91 C19.81,70.82 20.1,70.7 20.48,70.57 C20.13,70.41 19.79,70.25 19.48,70.07 C18.38,70.4 18.71,69.81 14.34,70.36 C10.43,74.75 8.12,82.75 9.21,89.17 L9.21,89.11 C8.15,82.67 10.41,74.7 14.35,70.36 Z" id="Path" fill="#FFA285" fill-rule="nonzero"></path>
                    <path d="M19.33,71 L19.61,70.87 C17.8684921,70.5872406 16.1123313,70.4036116 14.35,70.32 C10.45,74.7 8.15,82.67 9.21,89.07 C9.81,81 19.76,75.62 19.33,71 Z" id="Path" fill="#FF8B6C" fill-rule="nonzero"></path>
                    <path d="M27.41,71.91 C26.96,71.91 26.49,71.91 26.01,71.82 L27.45,71.98 C27.4405416,71.9546562 27.4270327,71.9310156 27.41,71.91 Z" id="Path" fill="#EFD259" fill-rule="nonzero"></path>
                    <path d="M24.23,71.58 C22.9432516,71.3777977 21.6846556,71.0253908 20.48,70.53 C20.1,70.66 19.81,70.78 19.61,70.87 C21.1,71.1 22.64,71.36 24.23,71.58 Z" id="Path" fill="#EFD259" fill-rule="nonzero"></path>
                    <path d="M19.33,71 C19.83,76.33 22.33,84.5 18.33,91.83 C16.88,94.49 15.92,96.27 15.22,97.53 C19.61,98.58 23.78,96.92 24.06,95.32 C24.34,93.72 26.2,78.39 28.23,73.44 C28.0147273,72.9362629 27.7641022,72.4483794 27.48,71.98 L26.04,71.82 C25.44,71.77 24.83,71.69 24.23,71.58 C22.64,71.35 21.1,71.1 19.61,70.87 L19.33,71 Z" id="Path" fill="#EFD259" fill-rule="nonzero"></path>
                    <path d="M19.33,71 C19.76,75.62 9.81,81 9.21,89.07 C9.78,92.47 11.29,95.43 14.01,97.18 C14.41,97.32 14.81,97.43 15.22,97.53 C15.92,96.27 16.88,94.53 18.33,91.83 C22.33,84.5 19.83,76.36 19.33,71 Z" id="Path" fill="#EFD259" fill-rule="nonzero"></path>
                    <path d="M14,97.17 C18.81,98.89 22.63,94.23 22.92,92.48 C23.21,90.73 23.2,76.31 25.5,74.08 C20.17,73.74 16.31,72.72 14.34,70.32 C16.0156572,69.8740002 17.7648098,69.7753126 19.48,70.03 C23.09,72.03 29.37,72.11 31.48,71.46 C29.78,76.39 28.48,86.61 28.59,90.93 C28.7,95.25 23.72,102.58 14,97.17 Z" id="Path" fill="#4E4C75" fill-rule="nonzero"></path>
                </g>
            </g>
        </g>
    </g>
</svg>