<?xml version="1.0" encoding="UTF-8"?>
<svg width="1150px" height="594px" viewBox="0 0 1150 594" version="1.1" xmlns="http://www.w3.org/2000/svg" xmlns:xlink="http://www.w3.org/1999/xlink">
    <title>Group 27</title>
    <g id="Landing-Page" stroke="none" stroke-width="1" fill="none" fill-rule="evenodd" opacity="0.54">
        <g id="Landing-Page-Desktop" transform="translate(-145.000000, -1570.000000)" fill="#393378">
            <g id="Advantages" transform="translate(0.000000, 1505.000000)">
                <g id="Group-27" transform="translate(145.000000, 65.000000)">
                    <path d="M90.7497476,24.8665391 C95.6542305,25.5437611 106.964658,21.6119286 98.1713228,0 C80.5758583,5.97664835 82.1784438,16.9984909 85.6452163,21.5943954 C85.8452647,21.8573942 85.9727681,22.2255926 86.0475114,22.6617323 C85.1110212,26.2319414 84.5196694,30.1988404 84.4493227,34.6413289 C81.4376052,31.6672505 77.8631143,29.4229938 73.7500316,27.888834 C73.7698166,27.5206356 73.8291716,27.2839367 73.8291716,27.2839367 C74.3743584,15.5081642 52.5778778,7.20835953 35,28.4740064 C51.4237525,44.4818684 64.4752609,37.6636238 70.105194,33.497284 C78.6413245,37.9989473 82.5521605,45.0429325 83.6996908,53.2638375 C85.2319295,64.228697 95.7465606,60.0272907 93.9109518,52.5230575 C92.5897531,47.1293899 90.6002609,42.5948518 87.9996319,38.8602684 C87.6500968,34.0758814 88.177697,29.4295688 89.1999222,24.9607804 C89.6307957,24.7810645 90.1430075,24.7372314 90.7497476,24.8665391" id="Fill-1170" transform="translate(68.210000, 29.970000) scale(-1, 1) translate(-68.210000, -29.970000) "></path>
                    <path d="M912.195394,0.25293148 C888.761611,3.19740607 882.894946,16.9037279 889.585951,30.3197494 C892.777623,36.7340039 896.516507,37.3376443 903.381304,38.5840924 C903.602068,38.6232599 903.818134,38.6439957 904.036548,38.6785552 C904.959527,48.2815052 915.337747,68.5840953 928.959308,68.0288383 C918.40025,61.6906148 917.35045,46.0858211 917.794325,37.2385735 C918.724349,36.8215548 919.637933,36.3584567 920.520986,35.784768 C924.006227,33.499229 932.284848,30.036361 934.321037,21.2006333 C936.765872,10.5862402 929.689706,-1.94275262 912.195394,0.25293148" id="Fill-1174" transform="translate(910.895000, 34.020000) scale(-1, 1) translate(-910.895000, -34.020000) "></path>
                    <path d="M12.3940856,323.92679 L15.39,321.424152 L9.87318397,321.082329 L7.91688101,316.25 L5.8668255,321.373286 L-1.63424829e-13,322.95422 L5.08138757,325.757988 L4.15844592,331.436737 L8.38147692,327.804861 C9.6440111,329.615712 11.7378178,332.45 11.7378178,332.45 L11.1107175,325.660324 M17.01,327.543205 C16.9870188,331.181226 19.1101876,334.863028 18.5815017,338.473945 C18.0022642,342.460132 18.4993553,348.852207 20.6836072,350.697277 C22.8699655,352.540263 22.8973476,352.704964 25.2543177,353.868297 C27.613394,355.02746 27.3185095,354.153918 27.1900241,352.596553 C27.0657513,351.037104 26.2590314,346.615189 25.9662532,340.137636 C25.6713687,333.657998 29.3490002,337.181354 32.8623389,349.905044 C36.3777839,362.632903 55.9475861,364.086027 61.3966312,361.11515 C66.4749643,358.342332 63.6861991,353.376278 60.5646355,354.698057 C58.0581169,355.763403 55.5473856,356.353409 52.2004461,354.589646 C44.063739,350.836961 42.2480927,342.666529 42.898945,333.872735 C43.55401,325.076857 53.0261228,318.599304 60.4824891,315.895285 C67.7029478,313.280914 65.9462785,310.879195 63.3534008,307.6498 C55.1977368,297.498785 35.7732706,291.869756 29.565951,299.623222 C22.9057729,307.941676 34.3620375,309.438581 20.3255332,321.132367 C18.3708699,322.758531 17.4693657,324.409712 17.1513117,326.071318" id="Fill-1172"></path>
                    <g id="Group-26" transform="translate(378.500000, 186.500000) scale(-1, 1) translate(-378.500000, -186.500000) translate(345.000000, 158.000000)">
                        <path d="M26.7731371,31.9945655 C25.8102247,31.9945655 24.8599348,32.5572528 24.3243824,33.4568242 C23.9168577,34.1378762 23.4119599,35.583746 24.6020763,37.610513 C25.7507189,39.5662613 27.1373848,40.677068 28.7242067,40.9101553 C29.3661483,40.9993841 30.0712021,40.9538592 30.8069104,40.7717597 C31.4632777,38.4645595 30.8195329,36.3795206 30.0297283,34.6987426 C29.2399238,33.0179645 28.1255421,32.0601213 26.8957552,31.9963865 C26.8542814,31.9945655 26.8128076,31.9945655 26.7731371,31.9945655 M12.192408,42.0901599 C11.5883337,42.0901599 10.9950787,42.3323522 10.6164053,42.7584649 C9.92577717,43.5305666 10.1187203,44.6450154 10.4018237,45.442611 C10.8381997,46.6717824 11.7848832,47.7698422 13.083192,48.5783638 C14.3580592,46.828388 14.7547646,45.2386596 14.4806772,44.1606308 C14.1290519,42.7766749 13.3320346,42.3068582 12.7261571,42.1557157 C12.5494429,42.1120118 12.3709254,42.0901599 12.192408,42.0901599 M6.64754744,56.7 C4.82270229,56.7 2.74360499,56.006201 0.574347368,53.964866 C-0.154148128,53.280172 -0.195621881,52.1293034 0.484187034,51.3918006 C1.16219274,50.6597607 2.30542577,50.6178778 3.03211806,51.3025718 C5.31858412,53.4477035 7.38325576,53.629803 9.72562123,51.8761852 C10.0105279,51.6631288 10.2810089,51.4500724 10.5370642,51.235195 C8.87631088,50.0296966 7.64111431,48.4527152 7.00818877,46.6736034 C6.14805919,44.2571435 6.48886525,41.9408383 7.93684021,40.3201531 C9.31629331,38.7777706 11.5360407,38.1112865 13.5862867,38.6193441 C15.7645604,39.1601795 17.3622015,40.8500625 17.9734885,43.2537755 C18.5036313,45.3406353 17.9987334,47.6278046 16.5940354,49.869449 C18.5901852,50.1790181 20.6440376,49.8548811 22.4526539,48.9043219 C25.245821,47.4366002 27.2023003,45.9761625 28.5384764,44.5539656 C28.4266776,44.5430397 28.3130756,44.5302927 28.20308,44.5139038 C25.4874507,44.1151059 23.2316392,42.4161179 21.5005608,39.4679276 C19.931771,36.7983494 19.8343978,33.9211778 21.2354894,31.5757367 C22.4905213,29.4724879 24.7409232,28.2378535 27.0742726,28.3580392 C29.6582678,28.4873298 31.9194889,30.2300217 33.2881228,33.1381501 C34.0761241,34.8152862 34.6495438,36.7364356 34.6621663,38.7777706 C35.0155948,38.5009794 35.3672201,38.2005153 35.7134358,37.8763782 C36.9919093,36.6818057 37.2389486,34.551242 36.4671762,31.3645013 C36.2309561,30.3920902 36.8242111,29.4069321 37.7907299,29.1629188 C38.7626583,28.9243685 39.7345867,29.5234757 39.9708067,30.5013499 C41.0671564,35.0228796 40.4576725,38.4044667 38.1639936,40.5495984 C36.6781513,41.9371963 35.0985423,42.9915522 33.5171301,43.6780672 C32.1070224,46.5333868 29.241727,49.4469783 24.1152105,52.1365874 C20.9974661,53.7718406 17.3658079,54.0704837 14.0190563,52.9851709 C13.3735083,53.6097721 12.6558321,54.2179843 11.8732404,54.8007026 C10.6903368,55.687527 8.8528692,56.7 6.64754744,56.7" id="Fill-1176" transform="translate(20.250000, 42.525000) scale(-1, 1) translate(-20.250000, -42.525000) "></path>
                        <path d="M66.2473346,49.5458981 C66.0276607,48.6670801 65.7413643,47.6340207 65.321823,46.5830262 C65.2606024,46.1220952 65.1597684,45.6055655 65.0103181,45.0244695 C63.8201174,40.4313008 64.0776041,36.3779773 65.6747418,32.4017746 C65.9592376,32.5004174 66.186114,32.2098694 65.9628388,31.7363839 C61.8214444,20.8749118 57.840304,8.98934776 56.0649062,4.03209729 C54.291309,-0.925153188 48.5599792,-0.272317018 46.2768105,0.62084895 C44.3735697,1.36694743 39.8324407,3.95138952 41.7896997,10.1264305 C43.7469587,16.3014716 50.3929964,33.0707523 51.5867984,38.1965923 C51.7038378,38.6449688 52.0891675,38.531978 52.224213,38.2916482 C55.8776431,39.3175336 59.9488139,42.9529701 62.0681275,46.7229197 C62.2535899,47.0511313 62.4354512,47.3362987 62.6155118,47.5945636 C62.7937718,47.9873414 63.0440561,48.333488 64.2738702,50.3171056 C65.898017,52.9374178 66.8253292,51.8433792 66.2473346,49.5458981" id="Fill-1178" transform="translate(53.865000, 25.920000) scale(-1, 1) translate(-53.865000, -25.920000) "></path>
                    </g>
                    <path d="M827.538326,424 C827.114753,425.982088 826.551743,427.917233 825.920329,429.834121 C825.917699,429.831513 825.915068,429.828905 825.909806,429.826297 C819.790357,446.381952 803.597233,464.2703 787.801373,477.336436 C787.825051,477.352084 787.85136,477.365124 787.872407,477.378164 C786.264934,478.684778 784.644306,479.98096 783,481.264101 C836.143966,515.567272 870.384991,445.917726 827.538326,424" id="Fill-1168" transform="translate(814.950000, 457.300000) scale(-1, 1) translate(-814.950000, -457.300000) "></path>
                    <polygon id="Fill-1180" transform="translate(292.895000, 567.920000) scale(-1, 1) translate(-292.895000, -567.920000) " points="301.515535 575.856529 316.79 574.934651 302.712138 566.627086 311.915847 555.979018 299.285708 560.134324 298.990717 542 291.363318 558.33171 282.683028 551.745999 284.47869 562.42759 269 563.43937 282.005306 571.527513 275.391464 579.800032 286.658595 577.070969 287.3817 593.84 295.568826 579.571467 303.982867 586.903823"></polygon>
                    <g id="Group-17" transform="translate(1126.500000, 157.500000) scale(-1, 1) translate(-1126.500000, -157.500000) translate(1103.000000, 137.000000)">
                        <path d="M0,28.35 C12.7168446,34.9976865 35.8010091,34.5952444 46.17,28.5487571 C31.302488,29.9597684 16.8243353,30.9683376 0,28.35" id="Fill-1182"></path>
                        <path d="M4.05,35.64 C14.966403,42.2292863 34.813946,41.8984183 43.74,35.9768838 C30.9553137,37.3224136 18.5063081,38.2709019 4.05,35.64" id="Fill-1184"></path>
                        <path d="M46.98,23.3580975 C34.332248,26.5911335 14.4574489,26.9520384 0,23.3580975 C0,10.4561688 10.5193874,0 23.4908386,0 C36.463967,0 46.98,10.4561688 46.98,23.3580975" id="Fill-1186"></path>
                    </g>
                </g>
            </g>
        </g>
    </g>
</svg>