<?xml version="1.0" encoding="UTF-8"?>
<svg width="161px" height="159px" viewBox="0 0 161 159" version="1.1" xmlns="http://www.w3.org/2000/svg" xmlns:xlink="http://www.w3.org/1999/xlink">
    <title>img-advantages-middle</title>
    <g id="Landing-Page" stroke="none" stroke-width="1" fill="none" fill-rule="evenodd">
        <g id="Landing-Page-Desktop" transform="translate(-640.000000, -1751.000000)">
            <g id="Advantages" transform="translate(0.000000, 1505.000000)">
                <g id="Group-34" transform="translate(550.000000, 246.000000)">
                    <g id="img-advantages-middle" transform="translate(90.000000, 0.000000)">
                        <path d="M79.7609165,139.191363 C79.7609165,140.392285 78.7871957,141.367255 77.5862734,141.367255 C76.3847269,141.367255 75.4110061,140.392285 75.4110061,139.191363 C75.4110061,137.989817 76.3847269,137.01672 77.5862734,137.01672 C78.7871957,137.01672 79.7609165,137.989817 79.7609165,139.191363" id="Fill-1078" fill="#FFFFFF"></path>
                        <path d="M75.3618207,133.962046 C76.8142875,108.436204 93.9374175,99.5160481 82.4187998,87.3982175 C82.1241868,87.0892484 81.8551652,86.7915146 81.601124,86.5062643 C80.9569702,85.773477 80.4332832,85.1056044 80.0244453,84.4995256 C79.7348258,84.0694656 79.5020066,83.6706146 79.3209944,83.3011 C79.159956,82.9740297 79.0451069,82.6719266 78.9614667,82.3904214 C78.7018079,81.8917016 78.6949419,81.3093416 78.8903102,80.6757989 C78.5282858,81.1795122 78.1968462,81.8736004 77.9053542,82.7817823 C77.6600514,83.5482753 77.4415884,84.4645715 77.2587037,85.5500206 C77.2050242,85.8677282 77.1538415,86.1954227 77.107028,86.53997 C74.8231533,103.105083 57.168222,95.2866044 36.3124957,110.075925 C31.8995431,113.206812 29.1781183,117.210303 27.8442456,121.542112 C21.7971898,141.19754 44.6971056,167.821314 72.162274,152.339777 C74.7151702,150.89917 77.0015415,149.369929 79.0550937,147.757672 C76.4897139,144.007598 75.0534758,139.374935 75.3618207,133.962046" id="Fill-1082" fill="#FCC097"></path>
                        <path d="M118.368946,118.472145 C99.3277111,101.412681 103.037837,82.4644492 86.3797212,83.9069291 C86.0020923,83.9400107 85.6406921,83.9656021 85.2942722,83.9837033 C84.1763658,84.0448729 83.2301089,84.0248992 82.4261651,83.9468767 C81.9861182,83.9056808 81.5847704,83.8470079 81.2314846,83.767737 C80.8532315,83.6840969 80.5236644,83.5798588 80.2371658,83.4581437 C79.596133,83.1822562 79.1860467,82.8196076 78.9613419,82.3901717 C79.0456062,82.6723011 79.1598311,82.9744042 79.3208696,83.3008504 C79.5018818,83.6703649 79.7347009,84.0698401 80.0243204,84.499276 C80.4331583,85.1053547 80.9568454,85.7732273 81.6009991,86.5060147 C81.8550404,86.7912649 82.124062,87.089623 82.4186749,87.3985921 C93.9372926,99.5164226 76.8141627,108.436579 75.3616958,133.961796 C75.0533509,139.374685 76.4895891,144.007349 79.0549689,147.757422 C90.6603476,164.72201 125.723659,163.419347 130.756422,132.311464 C131.216443,129.465203 131.448638,126.765 131.47735,124.197124 C126.938313,123.866933 122.414881,122.096758 118.368946,118.472145" id="Fill-1084" fill="#D1BEF4"></path>
                        <path d="M151.636991,74.1504964 C149.700161,72.0139283 147.734618,70.1501268 145.742235,68.5197686 C142.65941,71.8135665 138.486143,74.2135386 133.17874,75.1067402 C107.964989,79.3449224 95.4726506,64.6217645 86.2066985,78.5422269 C86.0013433,78.8524443 85.7997331,79.1376946 85.6012439,79.4173272 C84.9458549,80.3361202 84.3354069,81.0763977 83.7680272,81.6562609 C83.368552,82.0682197 82.9896748,82.4015318 82.6345164,82.6624391 C82.4191743,82.8184841 82.2113223,82.957052 82.0128331,83.0619143 C81.8374385,83.1561654 81.6676615,83.2335638 81.5047506,83.2878674 C81.1458471,83.4582686 80.7082969,83.4901017 80.237041,83.4582686 C80.5235396,83.5793595 80.8531066,83.6835975 81.2313597,83.7678618 C81.5846456,83.8471327 81.9859933,83.9058056 82.4260402,83.9470015 C83.2299841,84.025024 84.176241,84.0449978 85.2941473,83.9838281 C85.6405672,83.9657269 86.0019675,83.9401355 86.3795964,83.907054 C103.037712,82.464574 99.3275863,101.412806 118.368821,118.47227 C122.414756,122.096259 126.938813,123.866433 131.477226,124.197249 C151.967182,125.686542 172.801687,97.4842173 151.636991,74.1504964" id="Fill-1086" fill="#FCD2B1"></path>
                        <path d="M75.3618207,133.962046 C76.8142875,108.436204 93.9374175,99.5160481 82.4187998,87.3982175 C82.1241868,87.0892484 81.8551652,86.7915146 81.601124,86.5062643 C80.9569702,85.773477 80.4332832,85.1056044 80.0244453,84.4995256 C79.7348258,84.0694656 79.5020066,83.6706146 79.3209944,83.3011 C79.159956,82.9740297 79.0451069,82.6719266 78.9614667,82.3904214 C78.7018079,81.8917016 78.6949419,81.3093416 78.8903102,80.6757989 C78.5282858,81.1795122 78.1968462,81.8736004 77.9053542,82.7817823 C77.6600514,83.5482753 77.4415884,84.4645715 77.2587037,85.5500206 C77.2050242,85.8677282 77.1538415,86.1954227 77.107028,86.53997 C74.8231533,103.105083 57.168222,95.2866044 36.3124957,110.075925 C31.8995431,113.206812 29.1781183,117.210303 27.8442456,121.542112 C21.7971898,141.19754 44.6971056,167.821314 72.162274,152.339777 C74.7151702,150.89917 77.0015415,149.369929 79.0550937,147.757672 C76.4897139,144.007598 75.0534758,139.374935 75.3618207,133.962046" id="Fill-1088" fill="#FCC097"></path>
                        <path d="M118.368946,118.472145 C99.3277111,101.412681 103.037837,82.4644492 86.3797212,83.9069291 C86.0020923,83.9400107 85.6406921,83.9656021 85.2942722,83.9837033 C84.1763658,84.0448729 83.2301089,84.0248992 82.4261651,83.9468767 C81.9861182,83.9056808 81.5847704,83.8470079 81.2314846,83.767737 C80.8532315,83.6840969 80.5236644,83.5798588 80.2371658,83.4581437 C79.596133,83.1822562 79.1860467,82.8196076 78.9613419,82.3901717 C79.0456062,82.6723011 79.1598311,82.9744042 79.3208696,83.3008504 C79.5018818,83.6703649 79.7347009,84.0698401 80.0243204,84.499276 C80.4331583,85.1053547 80.9568454,85.7732273 81.6009991,86.5060147 C81.8550404,86.7912649 82.124062,87.089623 82.4186749,87.3985921 C93.9372926,99.5164226 76.8141627,108.436579 75.3616958,133.961796 C75.0533509,139.374685 76.4895891,144.007349 79.0549689,147.757422 C90.6603476,164.72201 125.723659,163.419347 130.756422,132.311464 C131.216443,129.465203 131.448638,126.765 131.47735,124.197124 C126.938313,123.866933 122.414881,122.096758 118.368946,118.472145" id="Fill-1090" fill="#D1BEF4"></path>
                        <path d="M151.636991,74.1504964 C149.700161,72.0139283 147.734618,70.1501268 145.742235,68.5197686 C142.65941,71.8135665 138.486143,74.2135386 133.17874,75.1067402 C107.964989,79.3449224 95.4726506,64.6217645 86.2066985,78.5422269 C86.0013433,78.8524443 85.7997331,79.1376946 85.6012439,79.4173272 C84.9458549,80.3361202 84.3354069,81.0763977 83.7680272,81.6562609 C83.368552,82.0682197 82.9896748,82.4015318 82.6345164,82.6624391 C82.4191743,82.8184841 82.2113223,82.957052 82.0128331,83.0619143 C81.8374385,83.1561654 81.6676615,83.2335638 81.5047506,83.2878674 C81.1458471,83.4582686 80.7082969,83.4901017 80.237041,83.4582686 C80.5235396,83.5793595 80.8531066,83.6835975 81.2313597,83.7678618 C81.5846456,83.8471327 81.9859933,83.9058056 82.4260402,83.9470015 C83.2299841,84.025024 84.176241,84.0449978 85.2941473,83.9838281 C85.6405672,83.9657269 86.0019675,83.9401355 86.3795964,83.907054 C103.037712,82.464574 99.3275863,101.412806 118.368821,118.47227 C122.414756,122.096259 126.938813,123.866433 131.477226,124.197249 C151.967182,125.686542 172.801687,97.4842173 151.636991,74.1504964" id="Fill-1092" fill="#FCD2B1"></path>
                        <path d="M75.3618207,133.962046 C76.8142875,108.436204 93.9374175,99.5160481 82.4187998,87.3982175 C82.1241868,87.0892484 81.8551652,86.7915146 81.601124,86.5062643 C80.9569702,85.773477 80.4332832,85.1056044 80.0244453,84.4995256 C79.7348258,84.0694656 79.5020066,83.6706146 79.3209944,83.3011 C79.159956,82.9740297 79.0451069,82.6719266 78.9614667,82.3904214 C78.7018079,81.8917016 78.6949419,81.3093416 78.8903102,80.6757989 C78.5282858,81.1795122 78.1968462,81.8736004 77.9053542,82.7817823 C77.6600514,83.5482753 77.4415884,84.4645715 77.2587037,85.5500206 C77.2050242,85.8677282 77.1538415,86.1954227 77.107028,86.53997 C74.8231533,103.105083 57.168222,95.2866044 36.3124957,110.075925 C31.8995431,113.206812 29.1781183,117.210303 27.8442456,121.542112 C21.7971898,141.19754 44.6971056,167.821314 72.162274,152.339777 C74.7151702,150.89917 77.0015415,149.369929 79.0550937,147.757672 C76.4897139,144.007598 75.0534758,139.374935 75.3618207,133.962046" id="Fill-1094" fill="#FCC097"></path>
                        <path d="M118.368946,118.472145 C99.3277111,101.412681 103.037837,82.4644492 86.3797212,83.9069291 C86.0020923,83.9400107 85.6406921,83.9656021 85.2942722,83.9837033 C84.1763658,84.0448729 83.2301089,84.0248992 82.4261651,83.9468767 C81.9861182,83.9056808 81.5847704,83.8470079 81.2314846,83.767737 C80.8532315,83.6840969 80.5236644,83.5798588 80.2371658,83.4581437 C79.596133,83.1822562 79.1860467,82.8196076 78.9613419,82.3901717 C79.0456062,82.6723011 79.1598311,82.9744042 79.3208696,83.3008504 C79.5018818,83.6703649 79.7347009,84.0698401 80.0243204,84.499276 C80.4331583,85.1053547 80.9568454,85.7732273 81.6009991,86.5060147 C81.8550404,86.7912649 82.124062,87.089623 82.4186749,87.3985921 C93.9372926,99.5164226 76.8141627,108.436579 75.3616958,133.961796 C75.0533509,139.374685 76.4895891,144.007349 79.0549689,147.757422 C90.6603476,164.72201 125.723659,163.419347 130.756422,132.311464 C131.216443,129.465203 131.448638,126.765 131.47735,124.197124 C126.938313,123.866933 122.414881,122.096758 118.368946,118.472145" id="Fill-1096" fill="#D1BEF4"></path>
                        <path d="M151.636991,74.1504964 C149.700161,72.0139283 147.734618,70.1501268 145.742235,68.5197686 C142.65941,71.8135665 138.486143,74.2135386 133.17874,75.1067402 C107.964989,79.3449224 95.4726506,64.6217645 86.2066985,78.5422269 C86.0013433,78.8524443 85.7997331,79.1376946 85.6012439,79.4173272 C84.9458549,80.3361202 84.3354069,81.0763977 83.7680272,81.6562609 C83.368552,82.0682197 82.9896748,82.4015318 82.6345164,82.6624391 C82.4191743,82.8184841 82.2113223,82.957052 82.0128331,83.0619143 C81.8374385,83.1561654 81.6676615,83.2335638 81.5047506,83.2878674 C81.1458471,83.4582686 80.7082969,83.4901017 80.237041,83.4582686 C80.5235396,83.5793595 80.8531066,83.6835975 81.2313597,83.7678618 C81.5846456,83.8471327 81.9859933,83.9058056 82.4260402,83.9470015 C83.2299841,84.025024 84.176241,84.0449978 85.2941473,83.9838281 C85.6405672,83.9657269 86.0019675,83.9401355 86.3795964,83.907054 C103.037712,82.464574 99.3275863,101.412806 118.368821,118.47227 C122.414756,122.096259 126.938813,123.866433 131.477226,124.197249 C151.967182,125.686542 172.801687,97.4842173 151.636991,74.1504964" id="Fill-1098" fill="#FCD2B1"></path>
                        <path d="M118.368946,118.472145 C99.3277111,101.412681 103.037837,82.4644492 86.3797212,83.9069291 C86.0020923,83.9400107 85.6406921,83.9656021 85.2942722,83.9837033 C84.1763658,84.0448729 83.2301089,84.0248992 82.4261651,83.9468767 C81.9861182,83.9056808 81.5847704,83.8470079 81.2314846,83.767737 C80.8532315,83.6840969 80.5236644,83.5798588 80.2371658,83.4581437 C79.596133,83.1822562 79.1860467,82.8196076 78.9613419,82.3901717 C79.0456062,82.6723011 79.1598311,82.9744042 79.3208696,83.3008504 C79.5018818,83.6703649 79.7347009,84.0698401 80.0243204,84.499276 C80.4331583,85.1053547 80.9568454,85.7732273 81.6009991,86.5060147 C81.8550404,86.7912649 82.124062,87.089623 82.4186749,87.3985921 C93.9372926,99.5164226 76.8141627,108.436579 75.3616958,133.961796 C75.0533509,139.374685 76.4895891,144.007349 79.0549689,147.757422 C90.6603476,164.72201 125.723659,163.419347 130.756422,132.311464 C131.216443,129.465203 131.448638,126.765 131.47735,124.197124 C126.938313,123.866933 122.414881,122.096758 118.368946,118.472145" id="Fill-1100" fill="#D1BEF4"></path>
                        <path d="M151.636991,74.1504964 C149.700161,72.0139283 147.734618,70.1501268 145.742235,68.5197686 C142.65941,71.8135665 138.486143,74.2135386 133.17874,75.1067402 C107.964989,79.3449224 95.4726506,64.6217645 86.2066985,78.5422269 C86.0013433,78.8524443 85.7997331,79.1376946 85.6012439,79.4173272 C84.9458549,80.3361202 84.3354069,81.0763977 83.7680272,81.6562609 C83.368552,82.0682197 82.9896748,82.4015318 82.6345164,82.6624391 C82.4191743,82.8184841 82.2113223,82.957052 82.0128331,83.0619143 C81.8374385,83.1561654 81.6676615,83.2335638 81.5047506,83.2878674 C81.1458471,83.4582686 80.7082969,83.4901017 80.237041,83.4582686 C80.5235396,83.5793595 80.8531066,83.6835975 81.2313597,83.7678618 C81.5846456,83.8471327 81.9859933,83.9058056 82.4260402,83.9470015 C83.2299841,84.025024 84.176241,84.0449978 85.2941473,83.9838281 C85.6405672,83.9657269 86.0019675,83.9401355 86.3795964,83.907054 C103.037712,82.464574 99.3275863,101.412806 118.368821,118.47227 C122.414756,122.096259 126.938813,123.866433 131.477226,124.197249 C151.967182,125.686542 172.801687,97.4842173 151.636991,74.1504964" id="Fill-1102" fill="#FCD2B1"></path>
                        <path d="M118.368946,118.472145 C99.3277111,101.412681 103.037837,82.4644492 86.3797212,83.9069291 C86.0020923,83.9400107 85.6406921,83.9656021 85.2942722,83.9837033 C84.1763658,84.0448729 83.2301089,84.0248992 82.4261651,83.9468767 C81.9861182,83.9056808 81.5847704,83.8470079 81.2314846,83.767737 C80.8532315,83.6840969 80.5236644,83.5798588 80.2371658,83.4581437 C79.596133,83.1822562 79.1860467,82.8196076 78.9613419,82.3901717 C79.0456062,82.6723011 79.1598311,82.9744042 79.3208696,83.3008504 C79.5018818,83.6703649 79.7347009,84.0698401 80.0243204,84.499276 C80.4331583,85.1053547 80.9568454,85.7732273 81.6009991,86.5060147 C81.8550404,86.7912649 82.124062,87.089623 82.4186749,87.3985921 C93.9372926,99.5164226 76.8141627,108.436579 75.3616958,133.961796 C75.0533509,139.374685 76.4895891,144.007349 79.0549689,147.757422 C90.6603476,164.72201 125.723659,163.419347 130.756422,132.311464 C131.216443,129.465203 131.448638,126.765 131.47735,124.197124 C126.938313,123.866933 122.414881,122.096758 118.368946,118.472145" id="Fill-1104" fill="#D1BEF4"></path>
                        <path d="M151.636991,74.1504964 C149.700161,72.0139283 147.734618,70.1501268 145.742235,68.5197686 C142.65941,71.8135665 138.486143,74.2135386 133.17874,75.1067402 C107.964989,79.3449224 95.4726506,64.6217645 86.2066985,78.5422269 C86.0013433,78.8524443 85.7997331,79.1376946 85.6012439,79.4173272 C84.9458549,80.3361202 84.3354069,81.0763977 83.7680272,81.6562609 C83.368552,82.0682197 82.9896748,82.4015318 82.6345164,82.6624391 C82.4191743,82.8184841 82.2113223,82.957052 82.0128331,83.0619143 C81.8374385,83.1561654 81.6676615,83.2335638 81.5047506,83.2878674 C81.1458471,83.4582686 80.7082969,83.4901017 80.237041,83.4582686 C80.5235396,83.5793595 80.8531066,83.6835975 81.2313597,83.7678618 C81.5846456,83.8471327 81.9859933,83.9058056 82.4260402,83.9470015 C83.2299841,84.025024 84.176241,84.0449978 85.2941473,83.9838281 C85.6405672,83.9657269 86.0019675,83.9401355 86.3795964,83.907054 C103.037712,82.464574 99.3275863,101.412806 118.368821,118.47227 C122.414756,122.096259 126.938813,123.866433 131.477226,124.197249 C151.967182,125.686542 172.801687,97.4842173 151.636991,74.1504964" id="Fill-1106" fill="#FCD2B1"></path>
                        <path d="M110.849824,22.6373579 C107.845646,2.24789404 75.554942,-11.8616949 57.5329928,14.0817227 C55.8608146,16.4848157 54.4713899,18.8529546 53.3247713,21.1948779 C57.2670922,23.4556579 60.5764945,27.0003761 62.6550139,32.0100448 C72.4571366,55.6240226 60.9222902,71.1061833 76.5698587,77.0021876 C78.0142112,77.5470967 79.1583331,78.082019 80.0496622,78.6100752 C80.441023,78.8403977 80.7799528,79.0707201 81.0751899,79.2941765 C81.3142508,79.4776854 81.5189819,79.6618185 81.6981215,79.8390857 C81.8217092,79.9639217 81.9309407,80.0825159 82.0276886,80.2048551 C82.1543971,80.3440473 82.2611319,80.5019648 82.3466446,80.6823528 C82.3884646,80.7616237 82.4252912,80.8371495 82.4565002,80.9164203 C82.4739773,80.9676031 82.4964478,81.0144166 82.5126764,81.0674719 C82.5682285,81.2422423 82.5988133,81.4151402 82.6050551,81.5830446 C82.608176,81.612381 82.6181629,81.6417175 82.6212838,81.6741749 C82.6924403,81.3496013 82.7211526,80.9657306 82.7211526,80.5412882 C82.7224009,80.1268326 82.6861985,79.6630669 82.6137936,79.14687 C82.5058105,78.3891155 82.313563,77.5196328 82.0301853,76.5290591 C81.9303165,76.1801425 81.8429313,75.8474546 81.7193437,75.4716982 C76.5636169,59.5625984 95.8613899,58.9190688 108.201429,36.5247387 C110.789903,31.8271601 111.503965,27.0858888 110.849824,22.6373579" id="Fill-1108" fill="#FCC5DD"></path>
                        <path d="M79.3284222,79.6815426 C78.3078879,79.8912671 77.0033517,80.4205717 75.4029541,81.298793 C75.0877432,81.4716909 74.7925061,81.6189973 74.452328,81.8212317 C60.082456,90.3731218 55.1764012,71.6989046 30.6074281,64.6244485 C25.4036394,63.128289 20.5762313,63.4978036 16.3536536,65.1649884 C-2.77246996,72.7075795 -9.28329154,107.206632 19.9451853,119.006131 C22.6691068,120.108433 25.2987772,120.940465 27.8441832,121.54155 C29.1780559,117.210365 31.8994807,113.206875 36.3124333,110.075988 C57.1681596,95.2866668 74.8230909,103.105145 77.1069655,86.5400325 C77.153779,86.1954851 77.2049618,85.8677906 77.2586413,85.550083 C77.441526,84.464634 77.659989,83.5483377 77.9052918,82.7818447 C78.1967838,81.8736628 78.5282234,81.1789504 78.8902478,80.6758614 C78.9589076,80.5791135 79.0294399,80.4954733 79.1005965,80.4105849 C79.3402816,80.0373252 79.7191588,79.7551959 80.2047709,79.5523374 C79.9426153,79.5641968 79.639888,79.6160037 79.3284222,79.6815426" id="Fill-1110" fill="#F9E8A0"></path>
                        <path d="M81.0754396,79.2938644 C80.7802024,79.0710322 80.4412727,78.8400856 80.0499118,78.6097631 C79.1579586,78.082331 78.0138367,77.5467846 76.5701083,77.0018755 C60.9225399,71.1064954 72.4573863,55.6237105 62.6552636,32.0097327 C60.5767442,27.0006882 57.2673418,23.4553458 53.3250209,21.19519 C35.4928225,10.9742425 4.49292282,27.4076536 13.5029611,57.6048578 C14.3200127,60.3431354 15.2750081,62.8542116 16.3542154,65.1649259 C20.5761689,63.4977412 25.403577,63.1288508 30.6073657,64.6243861 C55.1763388,71.6988422 60.0823936,90.3730594 74.4522656,81.8211692 C74.7924437,81.6189349 75.0876808,81.4716284 75.4035159,81.2987306 C77.0039134,80.4205093 78.3078254,79.8912047 79.3283597,79.6814802 C79.6398256,79.6159413 79.943177,79.5647585 80.2047085,79.5522749 C80.3601293,79.5447848 80.480596,79.576618 80.619164,79.587229 C80.9718257,79.5747454 81.3338501,79.6621306 81.6983712,79.8387736 C81.5192315,79.6621306 81.3145005,79.4779975 81.0754396,79.2938644" id="Fill-1112" fill="#C6C0FF"></path>
                        <path d="M119.295791,21.4536005 C116.275384,21.6470963 113.470319,22.0503166 110.850012,22.6370458 C111.504152,27.0855767 110.79009,31.826848 108.201616,36.5250508 C95.8615772,58.9187567 76.5638041,59.5629104 81.7195309,75.4720103 C81.8431185,75.8477666 81.9305037,76.1804546 82.0303725,76.528747 C82.3137503,77.5193207 82.5059977,78.3894276 82.6139808,79.1471821 C82.6863857,79.663379 82.7225882,80.1271447 82.7207156,80.5409761 C82.7207156,80.9660426 82.6920033,81.3492892 82.621471,81.6738628 C82.6127325,81.7150586 82.6121083,81.7693623 82.6014972,81.8061889 C82.4092498,82.5645676 82.0253791,83.0395686 81.504813,83.2873681 C81.667724,83.2336886 81.8375009,83.1562903 82.0128955,83.0620391 C82.2113847,82.9571768 82.4192367,82.8186089 82.6345788,82.6625639 C82.989113,82.4016566 83.3686145,82.0677203 83.7680897,81.6563857 C84.3354693,81.0758983 84.9459173,80.336245 85.6013063,79.4174521 C85.7997956,79.1378194 86.0014057,78.8525692 86.2067609,78.5423517 C95.472713,64.6218893 107.965052,79.3450472 133.178803,75.106865 C138.486205,74.2130392 142.659473,71.8136913 145.742298,68.5198934 C159.810691,53.4821489 150.79878,19.468084 119.295791,21.4536005" id="Fill-1114" fill="#BDF4D9"></path>
                        <path d="M75.3618207,133.962046 C76.8142875,108.436204 93.9374175,99.5160481 82.4187998,87.3982175 C82.1241868,87.0892484 81.8551652,86.7915146 81.601124,86.5062643 C80.9569702,85.773477 80.4332832,85.1056044 80.0244453,84.4995256 C79.7348258,84.0694656 79.5020066,83.6706146 79.3209944,83.3011 C79.159956,82.9740297 79.0451069,82.6719266 78.9614667,82.3904214 C78.7018079,81.8917016 78.6949419,81.3093416 78.8903102,80.6757989 C78.5282858,81.1795122 78.1968462,81.8736004 77.9053542,82.7817823 C77.6600514,83.5482753 77.4415884,84.4645715 77.2587037,85.5500206 C77.2050242,85.8677282 77.1538415,86.1954227 77.107028,86.53997 C74.8231533,103.105083 57.168222,95.2866044 36.3124957,110.075925 C31.8995431,113.206812 29.1781183,117.210303 27.8442456,121.542112 C21.7971898,141.19754 44.6971056,167.821314 72.162274,152.339777 C74.7151702,150.89917 77.0015415,149.369929 79.0550937,147.757672 C76.4897139,144.007598 75.0534758,139.374935 75.3618207,133.962046" id="Fill-1116" fill="#FFCDC0"></path>
                        <path d="M118.368946,118.472145 C99.3277111,101.412681 103.037837,82.4644492 86.3797212,83.9069291 C86.0020923,83.9400107 85.6406921,83.9656021 85.2942722,83.9837033 C84.1763658,84.0448729 83.2301089,84.0248992 82.4261651,83.9468767 C81.9861182,83.9056808 81.5847704,83.8470079 81.2314846,83.767737 C80.8532315,83.6840969 80.5236644,83.5798588 80.2371658,83.4581437 C79.596133,83.1822562 79.1860467,82.8196076 78.9613419,82.3901717 C79.0456062,82.6723011 79.1598311,82.9744042 79.3208696,83.3008504 C79.5018818,83.6703649 79.7347009,84.0698401 80.0243204,84.499276 C80.4331583,85.1053547 80.9568454,85.7732273 81.6009991,86.5060147 C81.8550404,86.7912649 82.124062,87.089623 82.4186749,87.3985921 C93.9372926,99.5164226 76.8141627,108.436579 75.3616958,133.961796 C75.0533509,139.374685 76.4895891,144.007349 79.0549689,147.757422 C90.6603476,164.72201 125.723659,163.419347 130.756422,132.311464 C131.216443,129.465203 131.448638,126.765 131.47735,124.197124 C126.938313,123.866933 122.414881,122.096758 118.368946,118.472145" id="Fill-1118" fill="#C0C6FF"></path>
                        <path d="M151.636991,74.1504964 C149.700161,72.0139283 147.734618,70.1501268 145.742235,68.5197686 C142.65941,71.8135665 138.486143,74.2135386 133.17874,75.1067402 C107.964989,79.3449224 95.4726506,64.6217645 86.2066985,78.5422269 C86.0013433,78.8524443 85.7997331,79.1376946 85.6012439,79.4173272 C84.9458549,80.3361202 84.3354069,81.0763977 83.7680272,81.6562609 C83.368552,82.0682197 82.9896748,82.4015318 82.6345164,82.6624391 C82.4191743,82.8184841 82.2113223,82.957052 82.0128331,83.0619143 C81.8374385,83.1561654 81.6676615,83.2335638 81.5047506,83.2878674 C81.1458471,83.4582686 80.7082969,83.4901017 80.237041,83.4582686 C80.5235396,83.5793595 80.8531066,83.6835975 81.2313597,83.7678618 C81.5846456,83.8471327 81.9859933,83.9058056 82.4260402,83.9470015 C83.2299841,84.025024 84.176241,84.0449978 85.2941473,83.9838281 C85.6405672,83.9657269 86.0019675,83.9401355 86.3795964,83.907054 C103.037712,82.464574 99.3275863,101.412806 118.368821,118.47227 C122.414756,122.096259 126.938813,123.866433 131.477226,124.197249 C151.967182,125.686542 172.801687,97.4842173 151.636991,74.1504964" id="Fill-1120" fill="#F9ECD7"></path>
                        <path d="M76.5699211,77.0019379 C78.0136494,77.546847 79.1577714,78.0817693 80.0497246,78.6098256 C80.4410854,78.840148 80.7800152,79.0704704 81.0752523,79.2939268 C81.3143133,79.4780599 81.5190443,79.662193 81.698184,79.838836 C81.8217716,79.963672 81.9310031,80.0828904 82.027751,80.2046055 C82.1544595,80.3437976 82.2611943,80.5017151 82.346707,80.6821032 C82.388527,80.761374 82.4253537,80.837524 82.4565627,80.9161707 C82.4740397,80.9679776 82.4965102,81.0147911 82.5127389,81.0678464 C82.5682909,81.2419926 82.5988757,81.4148905 82.6051175,81.5827949 C82.6082384,81.6127555 82.6176011,81.642092 82.6213462,81.6739252 C82.6925027,81.3493516 82.7205908,80.9661051 82.7205908,80.5410385 C82.7224633,80.1272071 82.6862609,79.6634414 82.613856,79.1472445 C82.5058729,78.38949 82.3136254,77.5193831 82.0302477,76.5288094 C81.9303789,76.180517 81.8429937,75.8472049 81.7194061,75.4720727 C76.7059923,60.0042681 94.8078365,58.9643842 107.157862,38.3383561 C94.0482094,30.2920518 77.8719606,28.6460891 63.3978505,33.8954429 C71.8529928,56.4476905 61.3424258,71.2650995 76.5699211,77.0019379" id="Fill-1122" fill="#F797DA"></path>
                        <path d="M77.1069655,86.5402197 C77.153779,86.1950482 77.2049618,85.8679779 77.2586413,85.5502702 C77.441526,84.4648212 77.659989,83.548525 77.9052918,82.7820319 C78.1967838,81.8732259 78.5282234,81.1791377 78.8902478,80.6754244 C78.9589076,80.5786765 79.0294399,80.4950364 79.1005965,80.4107721 C79.3402816,80.0375125 79.7191588,79.7553831 80.2047709,79.5525246 C79.9426153,79.564384 79.639888,79.6155668 79.3284222,79.6817299 C78.3078879,79.8914544 77.0033517,80.4201348 75.4035783,81.2989803 C75.0877432,81.4718781 74.7925061,81.6185604 74.452328,81.8207947 C60.4962874,90.126758 55.4647724,72.7533319 32.6797057,65.2656686 C27.8604119,79.5144496 29.4751656,95.6239113 38.0295525,108.906462 C58.130021,95.7019338 74.8848847,102.650306 77.1069655,86.5402197" id="Fill-1124" fill="#F4D347"></path>
                        <path d="M74.452328,81.8210444 C74.7925061,81.6188101 75.0877432,81.4715036 75.4029541,81.2986058 C77.0033517,80.4203845 78.3078879,79.8910799 79.3284222,79.6813554 C79.639888,79.6158165 79.9426153,79.5646337 80.2047709,79.5521501 C80.3601917,79.5452841 80.4806584,79.5764931 80.6192264,79.5871042 C80.9718881,79.5746206 81.3332883,79.6620058 81.6984336,79.8386487 C81.519294,79.6620058 81.3145629,79.4778727 81.075502,79.2937396 C80.7802648,79.0709073 80.4413351,78.8405849 80.0499742,78.6096383 C79.158021,78.0822062 78.0138991,77.5466598 76.5701707,77.0017506 C61.3426755,71.2649123 71.8532425,56.4481274 63.3981002,33.8958798 C58.2436218,35.7659231 53.3026129,38.4967106 48.7966575,42.1412976 C41.051832,48.4068165 35.6489299,56.4837057 32.6797057,65.2659183 C55.4647724,72.7535816 60.4962874,90.1270077 74.452328,81.8210444" id="Fill-1126" fill="#96CDED"></path>
                        <path d="M81.7194061,75.4720103 C81.8429937,75.8477666 81.9303789,76.1804546 82.0302477,76.528747 C82.3136254,77.5193207 82.5058729,78.3894276 82.613856,79.1471821 C82.6862609,79.663379 82.7224633,80.1271447 82.7205908,80.5409761 C82.7205908,80.9660426 82.6925027,81.3492892 82.6213462,81.6744869 C82.6132318,81.7150586 82.6126077,81.7693623 82.6013724,81.8061889 C82.409125,82.5645676 82.0252543,83.0395686 81.5046882,83.2873681 C81.6675991,83.2336886 81.8373761,83.1562903 82.0127707,83.0620391 C82.2112599,82.9571768 82.4191119,82.8186089 82.634454,82.6625639 C82.9896124,82.4016566 83.3691138,82.0677203 83.7679648,81.6563857 C84.3353445,81.0765225 84.9457925,80.336245 85.6011815,79.4174521 C85.7996707,79.1378194 86.0012809,78.8525692 86.2066361,78.5423517 C95.1960765,65.0363449 107.224649,78.4930415 130.962215,75.4339353 C129.861161,66.2996852 126.270878,57.3526891 120.055917,49.6684091 C116.322697,45.0532222 111.942826,41.2750606 107.157862,38.3382937 C94.8078365,58.9643218 76.7059923,60.0042057 81.7194061,75.4720103" id="Fill-1128" fill="#7ACC7A"></path>
                        <path d="M82.4185501,87.3984672 C82.1239371,87.0894981 81.8549155,86.7911401 81.6008743,86.5058898 C80.9567205,85.7731025 80.4330335,85.1052299 80.0241956,84.4991511 C79.7352003,84.0697153 79.5017569,83.6702401 79.3207447,83.3013497 C79.1597063,82.9742794 79.0454814,82.6721763 78.9612171,82.3906711 C78.7015582,81.8919513 78.6946922,81.3089671 78.8900605,80.6754244 C78.5280361,81.1791377 78.1965966,81.8732259 77.9051045,82.7820319 C77.6598018,83.548525 77.4413388,84.4648212 77.258454,85.5502702 C77.2047745,85.8679779 77.1535918,86.1950482 77.1067783,86.5402197 C74.8846975,102.650306 58.1298337,95.7019338 38.0293652,108.906462 C39.0193147,110.445065 40.0941526,111.945594 41.2707319,113.399309 C50.1122416,124.329949 62.5602634,130.617939 75.517616,131.940576 C77.7209714,107.959581 93.6275745,99.1911 82.4185501,87.3984672" id="Fill-1130" fill="#FCA468"></path>
                        <path d="M86.3797212,83.9069291 C86.0020923,83.9400107 85.6406921,83.9656021 85.2942722,83.9837033 C84.1763658,84.0448729 83.2301089,84.0248992 82.4261651,83.9468767 C81.9861182,83.9056808 81.5847704,83.8470079 81.2314846,83.767737 C80.8532315,83.6840969 80.5236644,83.5798588 80.2371658,83.4581437 C79.596133,83.1822562 79.1860467,82.8196076 78.9613419,82.3901717 C79.0456062,82.6716769 79.1598311,82.9744042 79.3208696,83.3008504 C79.5018818,83.6703649 79.7347009,84.0698401 80.0243204,84.499276 C80.4331583,85.1053547 80.9568454,85.7732273 81.6009991,86.5060147 C81.8550404,86.7912649 82.124062,87.089623 82.4186749,87.3985921 C93.6276994,99.1906006 77.7210962,107.959705 75.5177408,131.940701 C88.3558751,133.253352 101.695226,129.690532 112.528494,120.926421 C114.051493,119.695538 115.472751,118.387881 116.814738,117.025296 C99.5230795,100.358441 102.56783,82.5050209 86.3797212,83.9069291" id="Fill-1132" fill="#AA94E0"></path>
                        <path d="M130.961965,75.434185 C107.2244,78.492667 95.196451,65.0365945 86.2070106,78.5419772 C86.0016554,78.8528188 85.8000452,79.1380691 85.601556,79.4177017 C84.9455428,80.3364947 84.3350948,81.076148 83.7683393,81.6566354 C83.3688641,82.06797 82.9893627,82.4012821 82.6342043,82.6621894 C82.4188622,82.8182344 82.2110102,82.9574265 82.0131452,83.0622888 C81.8371264,83.1559158 81.6679736,83.2333141 81.5050627,83.2876177 C81.145535,83.4580189 80.7079848,83.4898521 80.2367289,83.4580189 C80.5238517,83.579734 80.8527946,83.683972 81.2316718,83.7682363 C81.5849577,83.8475072 81.9863054,83.9055559 82.4257282,83.947376 C83.229672,84.0253985 84.1759289,84.0447481 85.2944594,83.9835784 C85.6408793,83.9654772 86.0016554,83.9398858 86.3799085,83.9068043 C102.568017,82.504896 99.5232667,100.358941 116.814301,117.025171 C127.881637,105.781192 132.759603,90.3595771 130.961965,75.434185" id="Fill-1134" fill="#F4B184"></path>
                        <path d="M110.849824,22.6373579 C107.845646,2.24789404 75.554942,-11.8616949 57.5329928,14.0817227 C55.8608146,16.4848157 54.4713899,18.8529546 53.3247713,21.1948779 C57.2670922,23.4556579 60.5764945,27.0003761 62.6550139,32.0100448 C72.4571366,55.6240226 60.9222902,71.1061833 76.5698587,77.0021876 C78.0142112,77.5470967 79.1583331,78.082019 80.0496622,78.6100752 C80.441023,78.8403977 80.7799528,79.0707201 81.0751899,79.2941765 C81.3142508,79.4776854 81.5189819,79.6618185 81.6981215,79.8390857 C81.8217092,79.9639217 81.9309407,80.0825159 82.0276886,80.2048551 C82.1543971,80.3440473 82.2611319,80.5019648 82.3466446,80.6823528 C82.3884646,80.7616237 82.4252912,80.8371495 82.4565002,80.9164203 C82.4739773,80.9676031 82.4964478,81.0144166 82.5126764,81.0674719 C82.5682285,81.2422423 82.5988133,81.4151402 82.6050551,81.5830446 C82.608176,81.612381 82.6181629,81.6417175 82.6212838,81.6741749 C82.6924403,81.3496013 82.7211526,80.9657306 82.7211526,80.5412882 C82.7224009,80.1268326 82.6861985,79.6630669 82.6137936,79.14687 C82.5058105,78.3891155 82.313563,77.5196328 82.0301853,76.5290591 C81.9303165,76.1801425 81.8429313,75.8474546 81.7193437,75.4716982 C76.5636169,59.5625984 95.8613899,58.9190688 108.201429,36.5247387 C110.789903,31.8271601 111.503965,27.0858888 110.849824,22.6373579" id="Fill-1136" fill="#EA94B7"></path>
                        <path d="M79.3284222,79.6815426 C78.3078879,79.8912671 77.0033517,80.4205717 75.4029541,81.298793 C75.0877432,81.4716909 74.7925061,81.6189973 74.452328,81.8212317 C60.082456,90.3731218 55.1764012,71.6989046 30.6074281,64.6244485 C25.4036394,63.128289 20.5762313,63.4978036 16.3536536,65.1649884 C-2.77246996,72.7075795 -9.28329154,107.206632 19.9451853,119.006131 C22.6691068,120.108433 25.2987772,120.940465 27.8441832,121.54155 C29.1780559,117.210365 31.8994807,113.206875 36.3124333,110.075988 C57.1681596,95.2866668 74.8230909,103.105145 77.1069655,86.5400325 C77.153779,86.1954851 77.2049618,85.8677906 77.2586413,85.550083 C77.441526,84.464634 77.659989,83.5483377 77.9052918,82.7818447 C78.1967838,81.8736628 78.5282234,81.1789504 78.8902478,80.6758614 C78.9589076,80.5791135 79.0294399,80.4954733 79.1005965,80.4105849 C79.3402816,80.0373252 79.7191588,79.7551959 80.2047709,79.5523374 C79.9426153,79.5641968 79.639888,79.6160037 79.3284222,79.6815426" id="Fill-1138" fill="#EFD259"></path>
                        <path d="M81.0754396,79.2938644 C80.7802024,79.0710322 80.4412727,78.8400856 80.0499118,78.6097631 C79.1579586,78.082331 78.0138367,77.5467846 76.5701083,77.0018755 C60.9225399,71.1064954 72.4573863,55.6237105 62.6552636,32.0097327 C60.5767442,27.0006882 57.2673418,23.4553458 53.3250209,21.19519 C35.4928225,10.9742425 4.49292282,27.4076536 13.5029611,57.6048578 C14.3200127,60.3431354 15.2750081,62.8542116 16.3542154,65.1649259 C20.5761689,63.4977412 25.403577,63.1288508 30.6073657,64.6243861 C55.1763388,71.6988422 60.0823936,90.3730594 74.4522656,81.8211692 C74.7924437,81.6189349 75.0876808,81.4716284 75.4035159,81.2987306 C77.0039134,80.4205093 78.3078254,79.8912047 79.3283597,79.6814802 C79.6398256,79.6159413 79.943177,79.5647585 80.2047085,79.5522749 C80.3601293,79.5447848 80.480596,79.576618 80.619164,79.587229 C80.9718257,79.5747454 81.3338501,79.6621306 81.6983712,79.8387736 C81.5192315,79.6621306 81.3145005,79.4779975 81.0754396,79.2938644" id="Fill-1140" fill="#827AAF"></path>
                        <path d="M119.295791,21.4536005 C116.275384,21.6470963 113.470319,22.0503166 110.850012,22.6370458 C111.504152,27.0855767 110.79009,31.826848 108.201616,36.5250508 C95.8615772,58.9187567 76.5638041,59.5629104 81.7195309,75.4720103 C81.8431185,75.8477666 81.9305037,76.1804546 82.0303725,76.528747 C82.3137503,77.5193207 82.5059977,78.3894276 82.6139808,79.1471821 C82.6863857,79.663379 82.7225882,80.1271447 82.7207156,80.5409761 C82.7207156,80.9660426 82.6920033,81.3492892 82.621471,81.6738628 C82.6127325,81.7150586 82.6121083,81.7693623 82.6014972,81.8061889 C82.4092498,82.5645676 82.0253791,83.0395686 81.504813,83.2873681 C81.667724,83.2336886 81.8375009,83.1562903 82.0128955,83.0620391 C82.2113847,82.9571768 82.4192367,82.8186089 82.6345788,82.6625639 C82.989113,82.4016566 83.3686145,82.0677203 83.7680897,81.6563857 C84.3354693,81.0758983 84.9459173,80.336245 85.6013063,79.4174521 C85.7997956,79.1378194 86.0014057,78.8525692 86.2067609,78.5423517 C95.472713,64.6218893 107.965052,79.3450472 133.178803,75.106865 C138.486205,74.2130392 142.659473,71.8136913 145.742298,68.5198934 C159.810691,53.4821489 150.79878,19.468084 119.295791,21.4536005" id="Fill-1142" fill="#9FDDC1"></path>
                        <path d="M75.3618207,133.962046 C76.8142875,108.436204 93.9374175,99.5160481 82.4187998,87.3982175 C82.1241868,87.0892484 81.8551652,86.7915146 81.601124,86.5062643 C80.9569702,85.773477 80.4332832,85.1056044 80.0244453,84.4995256 C79.7348258,84.0694656 79.5020066,83.6706146 79.3209944,83.3011 C79.159956,82.9740297 79.0451069,82.6719266 78.9614667,82.3904214 C78.7018079,81.8917016 78.6949419,81.3093416 78.8903102,80.6757989 C78.5282858,81.1795122 78.1968462,81.8736004 77.9053542,82.7817823 C77.6600514,83.5482753 77.4415884,84.4645715 77.2587037,85.5500206 C77.2050242,85.8677282 77.1538415,86.1954227 77.107028,86.53997 C74.8231533,103.105083 57.168222,95.2866044 36.3124957,110.075925 C31.8995431,113.206812 29.1781183,117.210303 27.8442456,121.542112 C21.7971898,141.19754 44.6971056,167.821314 72.162274,152.339777 C74.7151702,150.89917 77.0015415,149.369929 79.0550937,147.757672 C76.4897139,144.007598 75.0534758,139.374935 75.3618207,133.962046" id="Fill-1144" fill="#FFA285"></path>
                        <path d="M118.368946,118.472145 C99.3277111,101.412681 103.037837,82.4644492 86.3797212,83.9069291 C86.0020923,83.9400107 85.6406921,83.9656021 85.2942722,83.9837033 C84.1763658,84.0448729 83.2301089,84.0248992 82.4261651,83.9468767 C81.9861182,83.9056808 81.5847704,83.8470079 81.2314846,83.767737 C80.8532315,83.6840969 80.5236644,83.5798588 80.2371658,83.4581437 C79.596133,83.1822562 79.1860467,82.8196076 78.9613419,82.3901717 C79.0456062,82.6723011 79.1598311,82.9744042 79.3208696,83.3008504 C79.5018818,83.6703649 79.7347009,84.0698401 80.0243204,84.499276 C80.4331583,85.1053547 80.9568454,85.7732273 81.6009991,86.5060147 C81.8550404,86.7912649 82.124062,87.089623 82.4186749,87.3985921 C93.9372926,99.5164226 76.8141627,108.436579 75.3616958,133.961796 C75.0533509,139.374685 76.4895891,144.007349 79.0549689,147.757422 C90.6603476,164.72201 125.723659,163.419347 130.756422,132.311464 C131.216443,129.465203 131.448638,126.765 131.47735,124.197124 C126.938313,123.866933 122.414881,122.096758 118.368946,118.472145" id="Fill-1146" fill="#9097F7"></path>
                        <path d="M151.636991,74.1504964 C149.700161,72.0139283 147.734618,70.1501268 145.742235,68.5197686 C142.65941,71.8135665 138.486143,74.2135386 133.17874,75.1067402 C107.964989,79.3449224 95.4726506,64.6217645 86.2066985,78.5422269 C86.0013433,78.8524443 85.7997331,79.1376946 85.6012439,79.4173272 C84.9458549,80.3361202 84.3354069,81.0763977 83.7680272,81.6562609 C83.368552,82.0682197 82.9896748,82.4015318 82.6345164,82.6624391 C82.4191743,82.8184841 82.2113223,82.957052 82.0128331,83.0619143 C81.8374385,83.1561654 81.6676615,83.2335638 81.5047506,83.2878674 C81.1458471,83.4582686 80.7082969,83.4901017 80.237041,83.4582686 C80.5235396,83.5793595 80.8531066,83.6835975 81.2313597,83.7678618 C81.5846456,83.8471327 81.9859933,83.9058056 82.4260402,83.9470015 C83.2299841,84.025024 84.176241,84.0449978 85.2941473,83.9838281 C85.6405672,83.9657269 86.0019675,83.9401355 86.3795964,83.907054 C103.037712,82.464574 99.3275863,101.412806 118.368821,118.47227 C122.414756,122.096259 126.938813,123.866433 131.477226,124.197249 C151.967182,125.686542 172.801687,97.4842173 151.636991,74.1504964" id="Fill-1148" fill="#F7DDAC"></path>
                        <path d="M79.2248083,80.2447402 C79.1530276,80.3283804 79.0818711,80.4101479 79.0125871,80.50752 C78.8134737,81.1391902 78.8153462,81.7215501 79.0718842,82.2227667 C78.8321991,81.3863655 78.9064765,80.7340974 79.2248083,80.2447402" id="Fill-1150" fill="#EAC9B2"></path>
                        <path d="M80.7486813,79.4298108 C80.6094892,79.4173272 80.4890225,79.3867424 80.3342258,79.3917359 C79.8473654,79.5908493 79.4666156,79.8711061 79.225058,80.2449899 C79.6981864,79.7000808 80.2143833,79.4460395 80.7486813,79.4298108" id="Fill-1152" fill="#EAC9B2"></path>
                        <path d="M80.7486813,79.4298108 C81.3697404,79.4834903 81.8322578,79.7000808 82.1524622,80.0564876 C82.0575868,79.9341483 81.9483553,79.8124332 81.826016,79.6882214 C81.4621191,79.5090817 81.1007189,79.4185756 80.7486813,79.4298108" id="Fill-1154" fill="#EAC9B2"></path>
                        <path d="M82.6322069,80.9225997 C82.6771479,81.083014 82.6996183,81.2602811 82.7214646,81.4375482 C82.7164712,81.2696438 82.6865106,81.0961218 82.6322069,80.9225997" id="Fill-1156" fill="#EAC9B2"></path>
                        <path d="M82.468859,80.5355457 C82.5050614,80.6166891 82.5475057,80.6853489 82.5768421,80.7708616 C82.5462573,80.6915907 82.5100549,80.6166891 82.468859,80.5355457" id="Fill-1158" fill="#EAC9B2"></path>
                        <path d="M82.5770294,80.7707991 C82.5976273,80.8219819 82.6169769,80.874413 82.6319572,80.9224749 C82.6169769,80.8700438 82.5945064,80.8219819 82.5770294,80.7707991" id="Fill-1160" fill="#EAC9B2"></path>
                        <path d="M82.1525246,80.0564251 C82.2804815,80.2174636 82.3859679,80.3797504 82.4689838,80.5357954 C82.3847195,80.3554074 82.2798573,80.198114 82.1525246,80.0564251" id="Fill-1162" fill="#EAC9B2"></path>
                        <path d="M82.7163464,81.6619409 C82.7269574,81.6238659 82.7282058,81.5708106 82.7363201,81.5289906 C82.7338234,81.4984058 82.7244607,81.4678209 82.7213398,81.4378603 C82.7225882,81.5133861 82.7232123,81.5889119 82.7163464,81.6619409" id="Fill-1164" fill="#EAC9B2"></path>
                        <path d="M81.4972604,82.8816511 C81.9441733,82.6731749 82.2756129,82.2680821 82.4441415,81.6201833 C82.4497591,81.5571411 82.4491349,81.4928506 82.4478865,81.4279358 C82.4297853,81.2756359 82.4104357,81.123336 82.3717366,80.9866406 C82.3586288,80.9441963 82.3424001,80.9005037 82.3242989,80.8568111 C82.2999559,80.7837821 82.2631293,80.724485 82.2319203,80.6558252 C82.1607637,80.5216265 82.0702576,80.3836827 81.9616503,80.2457389 C81.6876353,79.9398907 81.291281,79.7551334 80.7601038,79.7095683 C80.3019557,79.7226761 79.8606604,79.9398907 79.4555676,80.4061532 C79.182801,80.8256021 79.1197588,81.3842432 79.325114,82.1001777 C79.5148647,82.4671955 79.8644055,82.7817823 80.4111872,83.0208432 C80.8137833,83.0501797 81.1889155,83.0252125 81.4972604,82.8816511" id="Fill-1166" fill="#FFFFFF"></path>
                        <path d="M88.0748692,15.8432835 C87.9743763,16.3176603 87.8408017,16.7808018 87.6909985,17.2395741 C87.6903744,17.2389499 87.6897502,17.2383258 87.6885018,17.2377016 C86.2366591,21.1999962 82.3948312,25.4812468 78.6472545,28.6083886 C78.6528721,28.6121337 78.6591139,28.6152546 78.6641074,28.6183755 C78.2827334,28.9310897 77.8982385,29.2413072 77.508126,29.5484037 C90.116562,37.7582433 98.2402647,21.0888922 88.0748692,15.8432835" id="Fill-1168" fill="#D868A0"></path>
                        <path d="M129.553003,47.1558973 C130.945549,47.348769 134.156955,46.22899 131.660235,40.0739511 C126.664298,41.7760899 127.119326,44.9150911 128.103657,46.2239966 C128.160458,46.2988982 128.19666,46.4037604 128.217882,46.5279723 C127.951982,47.5447615 127.784077,48.6745273 127.764104,49.9397401 C126.908977,49.0927279 125.89406,48.4535676 124.72622,48.0166416 C124.731837,47.9117793 124.74869,47.8443679 124.74869,47.8443679 C124.903487,44.4906487 118.714742,42.1268791 113.723799,48.1832976 C118.387047,52.7423083 122.092804,50.8004844 123.691329,49.6139182 C126.11502,50.8959839 127.225436,52.9020984 127.551258,55.2433976 C127.986312,58.3661701 130.971765,57.1696171 130.450574,55.0324248 C130.075442,53.4963178 129.510559,52.2048894 128.772154,51.1412866 C128.67291,49.7787017 128.822713,48.4554401 129.112957,47.1827371 C129.235296,47.1315543 129.38073,47.1190707 129.553003,47.1558973" id="Fill-1170" fill="#6CB793"></path>
                        <path d="M127.835884,94.6777168 L128.733455,93.9099754 L127.080626,93.8051132 L126.494521,92.3226857 L125.880328,93.8943709 L124.122637,94.3793588 L125.645012,95.2394788 L125.368501,96.9815652 L126.633714,95.8674039 C127.011967,96.4229241 127.639268,97.2924068 127.639268,97.2924068 L127.451389,95.2095182 M129.306397,95.7937506 C129.299586,96.8829447 129.92876,97.9852466 129.772091,99.0663264 C129.600441,100.259759 129.747748,102.173494 130.395022,102.725894 C131.042921,103.277669 131.051035,103.326979 131.749493,103.675271 C132.448574,104.022316 132.361189,103.760784 132.323114,103.294522 C132.286288,102.827635 132.047227,101.503749 131.960466,99.564422 C131.873081,97.6244706 132.962899,98.6793348 134.004031,102.488705 C135.045787,106.299324 140.845044,106.734378 142.459797,105.844921 C143.964695,105.014762 143.138281,103.527965 142.213246,103.923695 C141.470472,104.242651 140.72645,104.419294 139.734628,103.891238 C137.32342,102.767714 136.785377,100.321552 136.978249,97.6887611 C137.172369,95.0553457 139.979306,93.1160184 142.188903,92.306457 C144.328592,91.5237353 143.808026,90.8046799 143.039661,89.8378251 C140.622836,86.7986927 134.866648,85.1134067 133.027189,87.4347321 C131.053532,89.9252103 134.448447,90.3733715 130.288912,93.8743971 C129.709673,94.3612575 129.442524,94.8556081 129.348272,95.3530796" id="Fill-1172" fill="#D3A971"></path>
                        <path d="M52.4554758,122.780423 C46.2274077,123.578125 44.6682061,127.291371 46.4464949,130.925972 C47.2947555,132.663689 48.2884501,132.827224 50.1129282,133.164905 C50.1716012,133.175516 50.2290257,133.181134 50.2870745,133.190497 C50.5323772,135.792079 53.2906286,141.292353 56.9108726,141.141926 C54.1045593,139.424806 53.8255509,135.197235 53.9435209,132.800384 C54.1906962,132.687408 54.4335022,132.561947 54.6681939,132.406527 C55.594477,131.78734 57.7947115,130.849197 58.3358756,128.455467 C58.9856469,125.57987 57.1049926,122.185579 52.4554758,122.780423" id="Fill-1174" fill="#E87C62"></path>
                        <path d="M112.712939,134.036385 C112.379627,134.036385 112.050684,134.229257 111.865303,134.537602 C111.724238,134.771045 111.549468,135.266644 111.961426,135.961357 C112.359029,136.631726 112.839023,137.012476 113.388302,137.092371 C113.61051,137.122955 113.854564,137.107351 114.10923,137.044933 C114.336431,136.254097 114.113599,135.539411 113.840208,134.963293 C113.566817,134.387175 113.181074,134.058856 112.755383,134.03701 C112.741027,134.036385 112.726671,134.036385 112.712939,134.036385 M107.66582,137.496839 C107.456719,137.496839 107.251364,137.579855 107.120286,137.725913 C106.881225,137.990566 106.948013,138.372564 107.046009,138.645955 C107.19706,139.067276 107.524755,139.443657 107.974165,139.720793 C108.41546,139.120956 108.552779,138.576047 108.457904,138.206532 C108.336189,137.732155 108.060301,137.571117 107.850577,137.51931 C107.789407,137.504329 107.727613,137.496839 107.66582,137.496839 M105.746466,142.504635 C105.114796,142.504635 104.395116,142.266823 103.644228,141.567117 C103.392059,141.332425 103.377703,140.937944 103.613019,140.685151 C103.847711,140.43423 104.243441,140.419874 104.494985,140.654566 C105.286445,141.38985 106.001132,141.452268 106.811941,140.851183 C106.910562,140.778154 107.004189,140.705125 107.092822,140.631471 C106.517953,140.218264 106.090389,139.677724 105.871302,139.0679 C105.573568,138.239614 105.691538,137.445657 106.192755,136.890136 C106.670253,136.361456 107.438618,136.133006 108.148311,136.307152 C108.90232,136.492534 109.455344,137.071773 109.666941,137.89569 C109.85045,138.611001 109.675679,139.394971 109.189443,140.163336 C109.88041,140.269447 110.591351,140.158343 111.217404,139.832521 C112.184259,139.329432 112.861494,138.828839 113.324011,138.341355 C113.285312,138.33761 113.245989,138.333241 113.207914,138.327623 C112.267899,138.190927 111.48705,137.608568 110.887837,136.59802 C110.3448,135.682972 110.311094,134.696768 110.796082,133.892824 C111.230512,133.171896 112.009488,132.748702 112.817177,132.789898 C113.711627,132.834215 114.494349,133.431555 114.968101,134.42837 C115.240868,135.00324 115.439357,135.66175 115.443727,136.361456 C115.566066,136.266581 115.687781,136.163591 115.807624,136.052487 C116.250167,135.643025 116.33568,134.912734 116.068531,133.820419 C115.986763,133.487107 116.192118,133.149426 116.526679,133.065785 C116.863112,132.984018 117.199545,133.189373 117.281313,133.524558 C117.660814,135.074397 117.449841,136.233499 116.655884,136.968783 C116.14156,137.444408 115.594778,137.805808 115.047372,138.041124 C114.559264,139.019839 113.567442,140.018527 111.792898,140.94044 C110.713691,141.500954 109.456592,141.60332 108.298114,141.231308 C108.074658,141.445402 107.826234,141.653878 107.55534,141.853616 C107.145878,142.157591 106.509838,142.504635 105.746466,142.504635" id="Fill-1176" fill="#6E79CE"></path>
                        <path d="M103.128343,139.794196 C103.052193,139.488348 102.952949,139.12882 102.807515,138.763051 C102.786293,138.602637 102.751338,138.422873 102.699531,138.220638 C102.286949,136.622113 102.376206,135.211467 102.929854,133.82766 C103.028474,133.861989 103.107121,133.760872 103.029723,133.596089 C101.594109,129.816055 100.214047,125.679614 99.5986052,123.95438 C98.9837879,122.229147 96.997023,122.456348 96.2055628,122.76719 C95.5458045,123.026849 93.9716225,123.926292 94.6501062,126.075344 C95.3285899,128.224396 97.6324382,134.060479 98.0462696,135.844385 C98.0868413,136.00043 98.2204158,135.961107 98.2672293,135.877467 C99.5336905,136.234498 100.944962,137.499711 101.679621,138.811737 C101.743912,138.925962 101.806954,139.025206 101.869372,139.115088 C101.931166,139.251784 102.017927,139.372251 102.444242,140.062594 C103.007252,140.974521 103.328705,140.593771 103.128343,139.794196" id="Fill-1178" fill="#6E79CE"></path>
                        <polygon id="Fill-1180" fill="#D1B84B" points="28.0655175 93.1806211 34.3678629 92.8029922 28.5592438 89.3999628 32.356755 85.038193 27.1454761 86.7403318 27.023761 79.3119656 23.8766455 86.0019269 20.2951006 83.3042209 21.0360023 87.6797227 14.6493925 88.0941782 20.015468 91.4073257 17.286553 94.7959989 21.9354457 93.6780925 22.2338037 100.547193 25.6118659 94.7023719 29.083555 97.7059261"></polygon>
                        <path d="M28.0115883,45.0907354 C32.7615981,47.6167918 41.3840206,47.4638677 45.2570575,45.1662612 C39.7037281,45.7024318 34.2958325,46.0856783 28.0115883,45.0907354" id="Fill-1182" fill="#5E5991"></path>
                        <path d="M29.2925305,47.9519765 C33.3116255,50.003032 40.6189008,49.9000423 43.9052085,48.0568387 C39.1982671,48.4756635 34.6149134,48.7709007 29.2925305,47.9519765" id="Fill-1184" fill="#5E5991"></path>
                        <path d="M45.4517393,42.9731423 C40.7447979,44.175313 33.3482649,44.3095117 27.9678333,42.9731423 C27.9678333,38.1756948 31.8826902,34.2876776 36.7100984,34.2876776 C41.5381307,34.2876776 45.4517393,38.1756948 45.4517393,42.9731423" id="Fill-1186" fill="#5E5991"></path>
                        <path d="M82.8818165,81.5357942 C82.8818165,82.7367165 81.9080957,83.7104373 80.7071734,83.7104373 C79.5056269,83.7104373 78.5319061,82.7367165 78.5319061,81.5357942 C78.5319061,80.3336235 79.5056269,79.361151 80.7071734,79.361151 C81.9080957,79.361151 82.8818165,80.3336235 82.8818165,81.5357942" id="Fill-1188" fill="#514E82"></path>
                    </g>
                </g>
            </g>
        </g>
    </g>
</svg>