<svg width="240" height="240" viewBox="0 0 240 240" xmlns="http://www.w3.org/2000/svg" xmlns:xlink="http://www.w3.org/1999/xlink"><defs><path id="c" d="M0 .1h203.6v203.5H0z"/><path id="d" d="M0 0h64.8v64.4H0z"/><path id="f" d="M0 0h41.3v52.3H0z"/><circle id="a" cx="120" cy="120" r="120"/></defs><g fill="none" fill-rule="evenodd"><mask id="b" fill="#fff"><use xlink:href="#a"/></mask><use fill="#FCE6F1" fill-rule="nonzero" opacity=".5" xlink:href="#a"/><g mask="url(#b)"><g transform="translate(62.6 174.3)"><mask id="e" fill="#fff"><use xlink:href="#d"/></mask><path d="M15 4.9c-.5-5.4 2.4-5.6 4.7-4 3 2 17.9 10.2 17.9 10.2s2.5 2 5.2.1c2-1.5 12.7-7.7 15.4-9.2 2.7-1.5 3.8-.4 3.4 2.3-.4 2.7-9.2 21.2-9.2 24.3 0 3 7.9 7.8 11.3 11.3 2.2 2.2.8 5.8-1.5 5.8-3 0-14-3-16.7-3.5-2.5-.4-4.3 1-4.3 3.7s.6 13 .4 16.5c-.1 2.4-3.6 3-6 .2-1.6-2-11.9-15.2-13-16.3-.4-.4-1.2-2.7-5.4-2.5-4.4.1-9.5.2-13 0-1.6-.2-2.8-.7-3.5-1.5-1-1.2-.9-2.9.7-4.7C4.1 34.6 17.8 27 19 24.7c.8-1.5.8-3 .4-4.8-1.1-5.2-4-12.2-4.2-15" fill="#D3AB02" mask="url(#e)"/></g><path d="M82 175.2c-.5-5.3 2.3-5.6 4.6-4 3 2 18 10.2 18 10.2s2.4 2.1 5.1.2a362 362 0 0115.4-9.3c2.7-1.5 3.8-.3 3.5 2.4-.4 2.6-9.3 21.1-9.3 24.2 0 3 8 7.9 11.4 11.3 2.2 2.2.7 5.8-1.6 5.8-3 0-14-3-16.7-3.4-2.5-.4-4.2 1-4.2 3.6 0 2.7.5 13 .3 16.6 0 2.3-3.6 2.8-6 .1-1.6-2-11.8-15.2-13-16.3-.4-.4-1.2-2.7-5.4-2.5-4.4.2-9.5.3-12.9 0-1.7-.2-2.9-.7-3.6-1.5-1-1.1-.9-2.8.7-4.7 2.7-3 16.4-10.5 17.5-12.9.8-1.5.8-2.9.4-4.8-1-5.2-4-12.2-4.2-15" fill="#F8D114"/><path d="M111.3 122.6c1.5-1.4 3 1.3 4-2.1 5.8-18.2 13.4-15.5 22.2-13.5 8.8 2 13.6-12.4 3.4-17.6-12.5-6.5-31.3-7.3-38.6 13.6-1.5 4.5 3.7 24.3 9 19.6" fill="#4E4C75"/><path d="M100.9 102.6c-1.9 17 8 29.1 16.7 37.8 4.7 4.4 18.4-8.4 13.3-10-4.7-1.6-24.2-19.4-21.3-39.8l-4 3-4.7 9z" fill="#EFD259"/><g transform="translate(4 85.7)"><mask id="g" fill="#fff"><use xlink:href="#f"/></mask><path d="M41.3 5c-1.1-1.5-6.6-5-6.6-5A30.5 30.5 0 0017 7c1.6 2 3.4 2.3 2.9 2.9-4.6 3.5-7.5 1.7-9.6 3.6C-.8 23-3.1 40 4.3 49.6c3.3 4.2 9.3 2.6 10.5 1.2" fill="#4E4C75" mask="url(#g)"/></g><path d="M56.6 103.3c1.2-4.9-4.6-10.8-9.7-12.3-9.4-2.7-17.5 1.2-22.7 4-7.6 4.2-18.6 17-16.6 31 2 14.2 14 13 16.5 5.7s5.7-17.2 13.4-16.7c9.3.6 13.3 3.6 17.9-3.3" fill="#827AAF"/><path d="M95.4 112.8c-1.3-9.5-12.9-20.4-24.6-15-3.8 1.7-9 14-4.4 13.5 7.9-1 11.3 1.5 12.5 5.7.9 3.3 4.2 6 9.5 5.2 5.3-.8 7.4-6.4 7-9.4" fill="#4E4C75"/><path d="M43.8 52.2c-5.4-2.6-12.6-2.7-19 4.4-1.3 1.4-4.3.8-3.4-2.2C22.8 49.3 27 42.9 40 43.8" fill="#FF8B6C"/><path d="M152.7 63.7c-.8-7-4.4-21.2 0-26.3l-15.6 5 .5-1.6c1.5-3.9 5.1-7.9 11.4-7.4h-.4c-21.5-4.2-31.8 7.3-49.8 13.7-2.3-.5-5.8-1-10.7-1.2-22-1.4-50.8-15.5-56.8 8.5-2.4 9.5 8.4 13 12.1 7.8 8.5-11.8 24.5-8 32-2 6.8 8.3-.5 14.4-6.2 21.5-4.8 6-7.8 13-6.3 21.2.8-.3 3.6-1.4 4.5-2a69 69 0 003-2.4C73.1 96 78.2 96 83 98c6.5 2.7 14.4 13.5 11.4 19.5.4-.8 3.5-6.3 4.5-8.5 0-.5 1.5-.7 1.5-.8 1.8-10 13.6-32.3 41.3-18.3C130 83.4 108 72.8 104 60.4c12.3-4.6 19.5-4.5 30.3.2 1.6 1 3 2.1 4 3.2 10.2 10.2 14.9 4.2 14.4 0" fill="#827AAF"/><path d="M70.3 98.5a24 24 0 01-5.5 3.7c-4.4 1.4-8.7.2-12.2-1.4-6-2.7-9.5 5.7-4.3 9 3.3 2 22 10.8 35.4-11.5-5-2.4-10.5-2.3-13.4.2" fill="#EFD259"/><path d="M91.8 50c-1.1 2.2-3 5.1-6.4 4.1-2.8-.8-5-3.5-3-9.5 1.2-3.4 4.3-6.1 7.2-5.3 2.8 1 5.5 4.4 2.2 10.7" fill="#FF8B6C"/><path d="M86.8 30c-4.2 0-13.7 2.3-14.3 9.2-.7 7 11.2 9.9 15 10 3.6.1 16-.5 15.6-9.6-.3-9-10.6-9.4-16.3-9.6" fill="#827AAF"/><path d="M80.2 36.3c-.5-5.1-.3-9.2 1.2-10.9a7.8 7.8 0 018.7.2c2.8 2 3.2 2.8 3.7 5.3s1.3 4.5-.3 7c-2.5 4-12.7 4-13.3-1.6" fill="#827AAF"/><path d="M94.1 31.9c.5 1.3.9 4-.2 5.7-2.3 3.3-9.6 5.1-13.6.2-1.5-1.9-.4-3.1-.4-3.5 2.8 2 10 5.4 14.2-2.4" fill="#EFD259"/><path d="M94.3 117.8c6.2-11.4 5-40.2 0-47.5 8.7 11.6 8.5 22.8 6.2 37.7M148 42.3c-3-.6-6.5-1.1-10.4-1.5-2 5.4.1 19.5 6.3 24.2 1 .6 2 1 3 1 6.6.6-1-13.3 1.2-23.7" fill="#4E4C75"/><path d="M196 52.4c-.9-.3-2.5-1.2-3-1.7-.9-1-1-7.1-13.6-13.6-12.1-6.2-17.5-1.2-25-2.8a59 59 0 00-5.8-1l.4.1c-6.3-.5-10 3.5-11.4 7.4a90.2 90.2 0 0116.4 3c-.7 1.1-.9 2.4 0 4.2.8 1.3 5.1 5.4 7.2 6.8 7.5 4.6 8.3 3.5 9.6 7.1 2.1 6.2 4.9 3.5 4.7-.2-.4-9.2-5.5-8.6-7.6-10.2-.5-.4-.5-.7-.3-1 9 .6 14.4 2.5 26.2 7.6 3.6 1.5 6.6-4.1 2.2-5.7" fill="#FF8B6C"/><path d="M165 180.4c2.6-1.3 3.3.1 3 1.6-.6 1.9-1.8 11-1.8 11s-.6 1.6 1 2.6l7.5 6c1.3 1 1 1.9-.5 2.2-1.4.3-12.4-.6-14 0-1.5.6-2.4 5.4-3.5 7.9-.7 1.5-2.8 1.4-3.2.3-.6-1.6-1.2-7.7-1.5-9.1-.3-1.3-1.3-2-2.6-1.4-1.4.5-6.5 2.8-8.3 3.3-1.2.4-2.1-1.3-1.2-3 .6-1.2 5.4-8.9 5.7-9.7.1-.2 1.1-1 .2-3.1-.9-2.2-2-4.8-2.4-6.5-.3-1-.2-1.6 0-2.1.4-.8 1.3-1 2.5-.6 2 .8 8.5 6.2 9.9 6.4.9 0 1.6-.2 2.5-.8 2.4-1.5 5.4-4.3 6.7-5M211.7 169.9c2.4 1.7 1.5 3 0 3.3-2 .4-10.5 3.5-10.5 3.5s-1.8.2-2 2c-.1 1.4-1.5 7.8-1.9 9.5-.3 1.6-1.2 1.6-2.1.5-1-1.1-5.2-11.3-6.4-12.4-1.2-1.1-6 .3-8.6.4-1.7 0-2.6-1.8-1.8-2.7 1.1-1.2 6.3-4.5 7.5-5.4 1-.9 1.1-2 0-3-1-1-5.4-4.5-6.7-5.9-1-.9.1-2.5 2-2.4l11.3.7c.3 0 1.5.5 3-1.3s3.3-3.9 4.6-5.1c.7-.7 1.3-1 2-1s1.4.7 1.5 2c.3 2.2-1.7 10.4-1.2 11.7.4.8 1 1.4 1.8 1.9 2.5 1.4 6.3 2.8 7.5 3.7M200.4 134.9c-2.8.3-3-1.2-2.2-2.5 1.1-1.6 5.4-9.7 5.4-9.7s1.2-1.3.1-2.8c-.8-1-4.2-6.8-5-8.2-.9-1.4-.3-2 1.2-1.9 1.4.2 11.4 4.9 13 4.9 1.8 0 5.6-8 7.4-9.9 1.2-1.1 3.1-.4 3.1.8 0 1.7-1.3 9.9-1.5 11.3-.2 1.4.5 2 2 2.3 1.4.3 7.8-.6 10-.4 1.3.1 1.6 2 .2 3.2-1 1-10.8 8-11.4 8.6-.2.3-1.5.7-1.3 3 .1 2.3.2 5 0 6.9 0 .9-.3 1.6-.7 2-.7.5-1.6.4-2.6-.4-1.6-1.5-5.7-8.8-7-9.4-.8-.4-1.6-.4-2.6-.2-2.8.7-6.6 2.2-8 2.4" fill="#F8D114"/><path d="M115.5 135.5c.3-2.3 4.2-12.4 18.4-10.5 6.5 1 13.9-4 17-8 3.2-4.2 8.2-9.3 10.3-17 2-7.7 4.7-16.1 12-17.6 5.4-1 10.8-.6 11.8 7 1.1 8 6 26.1-18.7 45.5-9.3 8-20.8 25.2-25.2 28.8-4.5 3.6-5.9-3.3-11.5-5.2a20.8 20.8 0 01-14.1-23" fill="#827AAF"/><path d="M185.7 85.3c-3.5-6.5-16.3-6.2-15.8 7.4.6 13.6-8.8 28.6-16.2 36.8 2 4.5 5.3 6.4 9 6.8 7.2-8.1 20.3-18 23.5-49.9l-.5-1.1M157.7 141.9c-3.4-2.2-6.5-7-6.8-9.3-5.3 6.6-14 14-17.7 16-3.7 2.2-8.3 10.9.8 16.1 5.6 3.3 13.4-.3 19.3-5.9.7-7.5.4-10 3.5-15.6l1-1.3" fill="#EFD259"/><path d="M168.5 135.8a45.1 45.1 0 0017.7-49.4c-3.6 29.4-16.3 41.8-23.5 49.9 1.8.2 3.8 0 5.8-.5M161.2 147.3c-1.8-4.3-2.2-3.6-2.5-4.8l-1-.6-.9 1.3c-3.1 5.7-2.8 8.1-3.5 15.6 3.6-3.4 6.5-7.6 7.9-11.5" fill="#FF8B6C"/><path d="M135 165.3c-4.2-3.3-1.7-9.8-.1-11.2 1.5-1.4 15.7-10.9 16.6-14.4 3.2 4.6 6.3 7.4 9.7 7.6a11.8 11.8 0 00-2.5-4.8c-3.8-2-7.3-7.6-7.8-10-3.9 4.9-13.2 12.7-17.5 15.5-4.3 2.7-8.8 12 1.6 17.3M155.1 132A59 59 0 00173 89.9c0-8.2 2.7-8.1 4.7-8.6-7.7-.4-7.9 7.6-8 10.4-.2 2.9 1.1 18.4-15.9 37.9a6 6 0 001.4 2.6" fill="#4E4C75"/></g></g></svg>