<svg width="135" height="40" viewBox="0 0 135 40" xmlns="http://www.w3.org/2000/svg"><g fill-rule="nonzero" fill="none"><rect fill="#000" width="135" height="40" rx="5"/><path d="M130 .8c2.3 0 4.2 1.9 4.2 4.2v30c0 2.3-1.9 4.2-4.2 4.2H5A4.2 4.2 0 01.8 35V5C.8 2.7 2.7.8 5 .8h125zm0-.8H5a5 5 0 00-5 5v30a5 5 0 005 5h125a5 5 0 005-5V5a5 5 0 00-5-5z" fill="#A6A6A6"/><g fill="#FFF"><path d="M50.9 25.7H46L45 29.1h-2l4.5-12.5h2L54 29.1h-2L51 25.7zm-4.3-1.5h3.8l-1.9-5.5-1.9 5.5zm17.1.3c0 2.8-1.5 4.7-3.7 4.7a3 3 0 01-2.9-1.6V32h-1.9V20H57v1.4c.6-1 1.7-1.6 3-1.6 2.2 0 3.7 1.8 3.7 4.6zm-1.9 0c0-1.8-1-3-2.4-3s-2.3 1.2-2.3 3c0 1.9 1 3 2.3 3 1.5 0 2.4-1.1 2.4-3zm11.9 0c0 2.8-1.5 4.7-3.8 4.7a3 3 0 01-2.8-1.6V32h-2V20H67v1.4c.6-1 1.7-1.6 2.9-1.6 2.3 0 3.8 1.8 3.8 4.6zm-2 0c0-1.8-.9-3-2.3-3s-2.4 1.2-2.4 3c0 1.9 1 3 2.4 3s2.4-1.1 2.4-3zm8.6 1.1c.1 1.2 1.3 2 3 2 1.5 0 2.6-.8 2.6-1.9 0-1-.6-1.5-2.2-2l-1.7-.3c-2.2-.6-3.3-1.6-3.3-3.4 0-2 1.9-3.6 4.5-3.6 2.7 0 4.4 1.5 4.5 3.6h-1.9c0-1.2-1.1-2-2.6-2s-2.5.8-2.5 2c0 .8.6 1.3 2.2 1.7l1.4.3c2.5.6 3.6 1.7 3.6 3.5 0 2.3-1.8 3.8-4.8 3.8-2.7 0-4.6-1.5-4.7-3.7h1.9zm11.6-7.7V20h1.7v1.5H92v5c0 .7.4 1.1 1.1 1.1h.6V29l-1 .1c-1.8 0-2.5-.7-2.5-2.4v-5.2h-1.4V20h1.4V18h1.8zm2.7 6.6c0-2.8 1.7-4.6 4.3-4.6 2.7 0 4.3 1.8 4.3 4.6 0 2.9-1.6 4.7-4.3 4.7-2.6 0-4.3-1.8-4.3-4.7zm6.7 0c0-2-.9-3-2.4-3s-2.4 1-2.4 3 1 3.1 2.4 3.1c1.5 0 2.4-1.1 2.4-3zm3.5-4.5h1.7v1.5c.3-1 1.2-1.6 2.3-1.6h.6v1.8c-.3 0-.6-.1-.8 0a1.9 1.9 0 00-2 2V29h-1.8v-9zm13.2 6.4c-.3 1.6-1.9 2.8-4 2.8-2.6 0-4.2-1.8-4.2-4.6 0-2.9 1.6-4.7 4.2-4.7 2.5 0 4 1.7 4 4.5v.6h-6.3v.1a2.4 2.4 0 002.4 2.6 2 2 0 002-1.3h1.9zm-6.3-2.7h4.5a2.2 2.2 0 00-2.2-2.3 2.3 2.3 0 00-2.3 2.3zM46.4 7.3a2.6 2.6 0 012.8 3c0 1.9-1 3-2.8 3h-2.2v-6h2.2zm-1.2 5.1h1.1a1.9 1.9 0 002-2.1 1.9 1.9 0 00-2-2.2h-1.1v4.3zm5-1.4a2.1 2.1 0 114.3 0 2.1 2.1 0 11-4.2 0zm3.4 0c0-1-.5-1.5-1.2-1.5-.8 0-1.2.5-1.2 1.5s.4 1.6 1.2 1.6c.7 0 1.2-.6 1.2-1.6zm6.5 2.3h-.9l-1-3.4-.9 3.4h-1l-1.2-4.5h1l.8 3.4 1-3.4h.8l1 3.4.8-3.4h.9L60 13.3zm2.3-4.5h.9v.7c.3-.6.8-.9 1.4-.8a1.5 1.5 0 011.6 1.6v3h-1v-2.7c0-.8-.3-1.1-1-1.1a1 1 0 00-1 1.1v2.7h-.9V8.8zM67.7 7h.9v6.3h-1V7zm2 4a2.1 2.1 0 114.3 0 2.1 2.1 0 11-4.2 0zm3.4 0c0-1-.4-1.5-1.2-1.5-.8 0-1.2.5-1.2 1.5s.4 1.6 1.2 1.6c.8 0 1.2-.6 1.2-1.6zm1.9 1c0-.8.6-1.3 1.6-1.4H78v-.4c0-.5-.3-.8-1-.8-.4 0-.8.2-.9.5h-.9c.1-.7.9-1.2 1.9-1.2 1.1 0 1.8.5 1.8 1.5v3h-.9v-.6c-.4.5-.9.8-1.4.7A1.4 1.4 0 0175 12zm2.9-.4v-.4l-1.1.1c-.7 0-1 .2-1 .6 0 .5.4.7.9.7a1 1 0 001.2-1zm2-.6c0-1.4.8-2.3 1.9-2.3.6 0 1.1.3 1.4.8V7h1v6.3h-1v-.8c-.3.6-.8.9-1.4.8-1.2 0-1.9-.9-1.9-2.3zm1 0c0 1 .4 1.5 1.1 1.5.8 0 1.3-.5 1.3-1.5s-.5-1.5-1.3-1.5c-.7 0-1.2.6-1.2 1.5zm6.9 0a2.1 2.1 0 114.2 0 2.1 2.1 0 11-4.2 0zm3.3 0c0-1-.4-1.5-1.2-1.5-.7 0-1.2.5-1.2 1.5s.5 1.6 1.2 1.6c.8 0 1.2-.6 1.2-1.6zm2.1-2.2h.9v.7c.3-.6.8-.9 1.4-.8a1.5 1.5 0 011.6 1.6v3h-1v-2.7c0-.8-.2-1.1-.9-1.1a1 1 0 00-1 1.1v2.7h-1V8.8zm8.9-1.2v1.2h1v.7h-1v2.3c0 .5.2.7.6.7h.4v.7a3 3 0 01-.5 0c-1 0-1.4-.3-1.4-1.1V9.5h-.7v-.7h.7V7.6h.9zm2.2-.6h.9v2.5c.3-.5.8-.9 1.4-.8a1.5 1.5 0 011.6 1.7v2.9h-1v-2.7c0-.7-.3-1.1-.9-1.1a1 1 0 00-1.1 1.1v2.7h-1V7zm9 5c-.2.9-1 1.4-2 1.3a2 2 0 01-2-2.3 2 2 0 012-2.3c1.3 0 2 .8 2 2.2v.4h-3a1.2 1.2 0 001.1 1.3 1 1 0 001-.6h1zm-3-1.4h2.2a1 1 0 00-1.1-1.2 1.2 1.2 0 00-1.2 1.2zM32 18.7a5 5 0 012.4-4.2 5.2 5.2 0 00-4-2.2c-1.7-.2-3.4 1-4.3 1-.8 0-2.2-1-3.6-1a5.4 5.4 0 00-4.6 2.8c-2 3.4-.5 8.4 1.4 11.1 1 1.4 2 2.9 3.5 2.8 1.4 0 2-.9 3.6-.9 1.7 0 2.2.9 3.7.9s2.4-1.4 3.4-2.7c.6-1 1.2-2 1.5-3.2-1.8-.7-3-2.5-3-4.4zm-2.7-8.2c.8-1 1.2-2.2 1-3.5a5 5 0 00-3.2 1.7c-.8 1-1.2 2.1-1.1 3.4 1.2 0 2.5-.6 3.3-1.6z"/></g></g></svg>