<svg xmlns="http://www.w3.org/2000/svg" width="86" height="23" viewBox="0 0 86 23">
    <g fill="none" fill-rule="evenodd">
        <g fill="#2a2a5a" fill-rule="nonzero">
            <g>
                <g>
                    <g>
                        <path d="M6.875.741c4.027 2.24 3.615 1.488 5.135.473 1.52-1.015 3.162.926 2.888 2.557-.48 2.86-9.92 5.706-8.583 7.486.964 1.288 6.074-2.96 8.739-3.948 4.46-1.657 4.53 7.557-.53 6.283-3.292-.829-7.103.636-10.845 2.942-3.011 1.859-5.56-4.69-1.794-6.59 1.057-.532 7.333-3.657 6.866-4.635-.468-.978-2.166-.232-3.184.157-1.021.387-3.753-.572-3.218-3.285.508-2.562 2.403-2.62 4.526-1.44zM29.28 5.669c-.77-1.863 2.128-2.935 2.813-.91.553 1.632 1.24.399 1.506.095.99-1.119 3.663-1.62 4.621 1.697.716 2.471.926 4.981.331 6.736-.533 1.583-2.283 1.544-2.751.339-.859-2.215 1.555-6.343-1.183-5.614-3.29.877-.825 4.573-.65 5.744.391 2.619-2.825 2.848-3.42 1.414-1.378-3.325.37-5.543-1.267-9.501z" transform="translate(-16 -17) translate(16 17) translate(0 5.573)"/>
                        <path d="M23.129 7.046c1.057-.383 2.626-1.416 1.721-2.008-.906-.591-2.42.023-2.964.783-.548.76-.536 2.022-.332 2.799.228.88.382 2.229 2.876 2.209 1.616-.012 2.35-.601 3.081-1.086.954-.633 2.436.849 1.284 2.148-1.616 1.822-5.33 2.656-6.978 1.606-1.634-1.042-2.867-3.185-2.953-5.612-.085-2.425 1.208-4.222 2.321-5 .652-.454 3.777-1.55 5.478.482 1.465 1.751 1.306 4.583-1.718 5.627-3.026 1.046-2.94-1.539-1.816-1.948z" transform="translate(-16 -17) translate(16 17) translate(0 5.573)"/>
                    </g>
                    <g>
                        <path d="M37.591 11.613c1.126-.453 2.765-1.627 1.736-2.238-1.03-.61-2.636.11-3.178.952-.541.842-.437 2.211-.164 3.047.31.945.575 2.404 3.29 2.296 1.76-.07 2.517-.732 3.282-1.285.997-.719 2.713.836 1.549 2.286-1.633 2.032-5.62 3.064-7.49 1.983-1.856-1.073-3.349-3.354-3.613-5.983-.264-2.628 1.017-4.62 2.178-5.503.678-.515 4.007-1.811 6.002.332 1.72 1.849 1.747 4.925-1.477 6.164-3.225 1.237-3.313-1.57-2.115-2.051zM27.254 17.746c-1.825-2.58-3.262-7.358-3.622-8.806-.358-1.45 2.148-1.517 2.555-.597.41.92.795.298.942-.567.147-.865 1.799-2.556 3.871-2.195 2.072.36 2.33 4.312.474 4.1-1.384-.16-2.578-.223-3.158 1.07-.532 1.184 1.579 4.211 2.386 5.639.963 1.696-1.368 4.295-3.448 1.356zM4.401.02C1.916-.303.522 3.412 2.455 4.865c4.717 3.544 4.368 5.253 4.683 6.244.314.993-.578.53-1.274-.068C3.661 9.142-.716 13.65.1 17.416c.815 3.764 5.774 7.348 9.005 3.471 1.15-1.598 1.286-.242 1.471.472.525 1.99 4.143 1.047 3.274-1.216C11.863 14.965 9.752.716 4.401.02zm-.23 17.365c-2.495-.063-2.48-5.022.032-4.492 2.455.518 2.701 4.558-.032 4.492zM21.933 7.387c-.847-1.346-2.472-1.043-2.34.345.133 1.388-.287.605-.682.342-1.544-1.025-6.496.189-5.3 5.556 1.197 5.367 4.572 5.22 5.804 4.686 1.232-.533 1.87-1.42 2.327-.432.46.99 2.362 1.18 2.464-1.067.126-2.746-1.156-7.66-2.273-9.43zm-1.698 8.607c-1.275 1.303-3.163.63-3.21-1.652-.044-2.264 2.453-2.27 3.181-1.293 0 0 1.011 1.94.029 2.945z" transform="translate(-16 -17) translate(16 17) translate(40.124)"/>
                    </g>
                </g>
            </g>
        </g>
    </g>
</svg>
