<svg width="216" height="210" viewBox="0 0 216 210" xmlns="http://www.w3.org/2000/svg"><g fill-rule="nonzero" fill="none"><path d="M70 20.5c2.5-15.8 10.7-14.3 16-8.2l.3.5c7.7 9 41.7 42 41.7 42 3.2 4.7 9.1 6.5 14.4 4.5 7-2.9 41.3-12.6 50-15 8.7-2.3 11 1.8 8 9.2-3.2 7.4-42.1 53.7-44.5 62.5-2.3 8.9 16 28.5 23 41 4.4 8-2.3 17.2-8.7 15.4-8.6-2.3-36.9-19.2-44-22.4a9.6 9.6 0 00-9.2-.3c-3 1.5-5 4.3-5.5 7.6l-.3 1.2c-2.3 9.3-8.3 37.1-11.3 46.4-2.2 6.6-12.4 5.6-16.8-3.9l-.5-1c-4-9.2-20.5-49.8-23.3-55.3l-.2-.3c-.8-1.4-1.1-8.6-13-11.2a326.2 326.2 0 01-36-9.6 15 15 0 01-9-7c-2-4-.2-8.8 5.6-12.8 10-6.7 53.8-18 58.8-23.8 3.1-3.7 4.8-8.6 4.7-13.5 1-15.5-1.5-37.8-.3-46z" fill="#D3AB02"/><path d="M83.3 13C85.9-2.9 94-1.5 99.3 4.6c6.7 8.1 42 42.6 42 42.6 3.2 4.6 9.1 6.4 14.4 4.4l.4-.2c8-3 41-12.4 49.6-14.8 8.7-2.4 11 1.8 7.8 9.2-3 7.4-42 53.7-44.3 62.5-2.4 8.8 16 28.5 23 41 4.4 8-2.3 17.1-8.8 15.4-8.6-2.3-36.8-19.2-44-22.4a9.5 9.5 0 00-9.1-.3c-3 1.4-5 4.3-5.5 7.6l-.3 1.2c-2.3 9.3-8.3 37.1-11.3 46.4-2.2 6.6-12.4 5.6-16.8-3.9l-.4-1c-4.1-9.2-20.6-49.8-23.4-55.3l-.1-.3c-.8-1.4-1.1-8.5-12.9-11.1h-.4a335 335 0 01-36-9.7c-3.7-1.1-6.9-3.6-8.9-7-1.9-4-.2-8.8 5.6-12.8C30 89.4 73.6 78 78.6 72.4c3.2-3.8 4.9-8.6 4.8-13.5 1-15.6-1.5-37.8-.1-46z" fill="#F8D114"/></g></svg>