<svg width="42" height="33" viewBox="0 0 42 33" xmlns="http://www.w3.org/2000/svg"><g fill="#6F7BBF" fill-rule="evenodd"><path d="M33.5 17.2c-.8 0-1.6.4-2 1.2-.6 1-.6 2.1 0 3.2 1 1.4 2 2.2 3.1 2.4.7 0 1.3 0 2-.2.4-1.4.3-3-.5-4.6-.6-1.2-1.5-2-2.5-2h-.1m-9.1 6.2a2 2 0 00-1.5.7c-.5.5-.6 1.3-.2 2.3.3 1 1.2 2 2.4 2.5 1.3-1.5 1.6-2.8 1.3-3.7-.3-1.2-1-1.6-1.5-1.7a2 2 0 00-.5 0m-3.5 9a5 5 0 01-3.3-1.5.5.5 0 11.6-.8c1.7 1.6 3.3 1.7 5 .5l1.2-1a5.6 5.6 0 01-2.6-3c-.7-1.7 0-2.8.4-3.3a3 3 0 013-.8c1 .2 1.9 1.1 2.2 2.4.3 1.3-.2 2.8-1.3 4.3 1.6.5 3.4.4 5-.4 2.3-1.3 4-2.6 4.9-4h-1.5c-1.5-.2-2.8-1.1-3.7-2.8-.9-1.4-1-3-.2-4.2a3.4 3.4 0 013-1.7c.9 0 2.4.5 3.4 2.6a7 7 0 01.7 4.5c.8-.5 1.5-1 1.8-1.4 1-.9 1.2-2.4.7-4.6a.5.5 0 111-.2c.5 2.6.2 4.4-1 5.6-1 .8-2 1.5-3 1.9-.8 1.9-2.7 3.6-5.7 5.1-1.9 1-4.1 1.1-6.1.4l-1.6 1.3c-.8.6-1.7 1-2.9 1M16.2 27.4c0-.3 0-.6-.2-1-.7-2.9-.5-5.4.5-8a627.8 627.8 0 01-6-17.8 1 1 0 00-1-.6h-8a1 1 0 00-1 1.3 320 320 0 017.1 20.8c.1.3.4.2.4 0a11.7 11.7 0 016.5 6l1 1.6c1.1 1.7 1.7 1 1.3-.5l-.6-1.8z"/></g></svg>