<svg width="31" height="33" viewBox="0 0 31 33" xmlns="http://www.w3.org/2000/svg"><g fill="none" fill-rule="evenodd"><path d="M21.4 0a27.7 27.7 0 01-.8 2.8A62.3 62.3 0 010 27.8C25.6 44.4 42 10.6 21.4 0" fill="#C96D97"/><path d="M9.8 21.8c-.5 1-.3 2 0 2.3.5.7 1.4.5 1.2-.3-.3-1-.9-.6-1.2-2M13.2 19.4c1 .4 1.8.8 2.2 1.4.4.6-.6 1.6-1.2.7-.6-.7-.2-1-1-2M15.5 16.3c1.6-.3 2-.3 2.5.2.4.5 0 1.2-.6 1-.6 0-1-.6-2-1.2M17.8 12.5c1.5.7 1.2 1.2 2 1.2.7 0 .8-1 .3-1.4-.6-.4-1.9 0-2.3.2" fill="#F1C0FC"/></g></svg>