<svg width="39" height="33" viewBox="0 0 39 33" xmlns="http://www.w3.org/2000/svg"><g fill="none" fill-rule="evenodd"><path d="M31.2 13.7c-3.8-.1-7 2.4-7.5 4.4-1.4 5.6 3.3 5.8 4.3 6.6.3 2.4 1 6.6-3.4 7.9 5.9-.2 7.6-4.6 7.8-7.2 1.7-.7 5.3-.8 5.7-4.9.5-4.3-2.5-6.8-6.9-6.8M7.9 8.4c-7.3 1-9.2 5.3-7 9.6.9 2 2 2.2 4.2 2.6h.2c.3 3.1 3.5 9.6 7.8 9.4-3.3-2-3.6-7-3.5-9.8l.9-.5c1-.7 3.6-1.8 4.3-4.6.7-3.4-1.5-7.4-7-6.7" fill="#EA6D50"/><path d="M22.8 13.6l1.8.1c3.4.3 7.4-3 6.8-7.8-.6-4.7-5.5-6-9-5.9-4.7 0-11.5 5.9-5.3 11.6l.4.4C15.8 16 15 24.4 21.2 28c-2-5.1-2.6-10.7 1.6-14.5" fill="#EA6D50"/><path d="M7.4 19c-1 0-1.2-.3-1.5-.7A12.4 12.4 0 014 12.2c0-3.2 6.7-2.8 4.7 1.4 4-1.6 4.3 5-1.3 5.3" fill="#FCD4CD"/><path d="M5.6 12.6c-.2-1.4 1.8-1.7 1.9-.3 0 1.4-1.8 1.6-2 .3M7.3 16.5c-.8-1.3 1.3-2.5 2.2-1.1.9 1.3-1.5 2.4-2.2 1" fill="#EA6D50"/><path d="M20.7 3.7c.2 1.9.3 3.6 0 4.6-.6 1.5.2 2.4 1.8 2 1.6-.4 3 0 3.8-.5 1-.7.4-2.3-.7-2.2-1 0-2.7.7-2.7 0 .1-.8 0-2.4.5-3.7.7-2.1-3-2.6-2.7-.2M28.2 21c1-2.5 1.1-5.6 3-5.7 2.2-.2 2.6 4.4 3.1 6.6.5 1.7-2.1 1.9-2.2.4-.1-1.5-1.7-1.8-2-.2-.3 1.6-2.8 1.2-2-1.1" fill="#FCD4CD"/><path d="M31.2 19c.6 0 .9-.3.9-.7 0-.3-.3-.9-.7-.9-.3 0-.7.4-.7.8-.1.4 0 .7.5.8" fill="#EA6D50"/></g></svg>