<svg width="33" height="33" viewBox="0 0 33 33" xmlns="http://www.w3.org/2000/svg"><g fill="none" fill-rule="evenodd"><path d="M14.6 1.8c-3.3 4 2.3 4.8-4.5 10.5-3.3 2.8-.4 5.7-.9 8.5-.2 2 0 5.1 1 6 1.1 1 1.1 1 2.3 1.6 1.1.5 1 .1 1-.7-.1-.7-.5-2.9-.7-6-.1-3.2 1.7-1.5 3.4 4.7 1.7 6.3 11.2 7 13.8 5.5 2.5-1.3 1.1-3.8-.4-3.1-1.2.5-2.4.8-4 0-4-2-4.9-6-4.6-10.2.4-4.3 5-7.5 8.6-8.8 3.5-1.3 2.6-2.5 1.4-4-4-5-13.4-7.8-16.4-4M3.9 15.1h-.2a1.5 1.5 0 00.5 0H4zm1.5-.9l2.1-1.8-2.7-.2-1-2.4-1 2.6L0 13l2.5 1.5-.5 2.8 2.1-1.8 1.7 2.3-.4-3.7z" fill="#D3A971"/><path d="M17.6 14.7c-.6-2.8 4.3-1.8 2.6-5.2-.3 1.8-.7 1.7-2 2.5-.7.3-1.3 1.3-.6 2.7M16.3 13.4c-.7-2.8 4.2-1.8 2.5-5.2-.2 1.8-.7 1.7-2 2.5-.6.3-1.3 1.3-.5 2.7" fill="#F9ECD7"/><path d="M15 12.2c-.6-2.8 4.3-1.8 2.6-5.2-.2 1.8-.7 1.7-2 2.5-.6.3-1.3 1.3-.5 2.7" fill="#F9ECD7"/></g></svg>