<svg width="519" height="760" viewBox="0 0 519 760" xmlns="http://www.w3.org/2000/svg" xmlns:xlink="http://www.w3.org/1999/xlink"><defs><filter x="-3.9%" y="-175.2%" width="107.9%" height="450.5%" filterUnits="objectBoundingBox" id="a"><feOffset in="SourceAlpha" result="shadowOffsetOuter1"/><feGaussianBlur stdDeviation="5" in="shadowOffsetOuter1" result="shadowBlurOuter1"/><feColorMatrix values="0 0 0 0 0 0 0 0 0 0 0 0 0 0 0 0 0 0 0.24 0" in="shadowBlurOuter1"/></filter><filter x="-51.1%" y="-5%" width="202.1%" height="110%" filterUnits="objectBoundingBox" id="c"><feOffset in="SourceAlpha" result="shadowOffsetOuter1"/><feGaussianBlur stdDeviation=".5" in="shadowOffsetOuter1" result="shadowBlurOuter1"/><feColorMatrix values="0 0 0 0 0 0 0 0 0 0 0 0 0 0 0 0 0 0 0.1 0" in="shadowBlurOuter1"/></filter><filter x="-34%" y="-3.3%" width="168.1%" height="106.6%" filterUnits="objectBoundingBox" id="e"><feOffset in="SourceAlpha" result="shadowOffsetInner1"/><feComposite in="shadowOffsetInner1" in2="SourceAlpha" operator="arithmetic" k2="-1" k3="1" result="shadowInnerInner1"/><feColorMatrix values="0 0 0 0 0.718377976 0 0 0 0 0.718377976 0 0 0 0 0.718377976 0 0 0 1 0" in="shadowInnerInner1"/></filter><filter x="-51.1%" y="-2.7%" width="202.1%" height="105.4%" filterUnits="objectBoundingBox" id="f"><feOffset in="SourceAlpha" result="shadowOffsetOuter1"/><feGaussianBlur stdDeviation=".5" in="shadowOffsetOuter1" result="shadowBlurOuter1"/><feColorMatrix values="0 0 0 0 0 0 0 0 0 0 0 0 0 0 0 0 0 0 0.1 0" in="shadowBlurOuter1"/></filter><filter x="-34%" y="-1.8%" width="168.1%" height="103.6%" filterUnits="objectBoundingBox" id="h"><feOffset in="SourceAlpha" result="shadowOffsetInner1"/><feComposite in="shadowOffsetInner1" in2="SourceAlpha" operator="arithmetic" k2="-1" k3="1" result="shadowInnerInner1"/><feColorMatrix values="0 0 0 0 0.718377976 0 0 0 0 0.718377976 0 0 0 0 0.718377976 0 0 0 1 0" in="shadowInnerInner1"/></filter><filter x="-51.1%" y="-2.7%" width="202.1%" height="105.4%" filterUnits="objectBoundingBox" id="i"><feOffset in="SourceAlpha" result="shadowOffsetOuter1"/><feGaussianBlur stdDeviation=".5" in="shadowOffsetOuter1" result="shadowBlurOuter1"/><feColorMatrix values="0 0 0 0 0 0 0 0 0 0 0 0 0 0 0 0 0 0 0.1 0" in="shadowBlurOuter1"/></filter><filter x="-34%" y="-1.8%" width="168.1%" height="103.6%" filterUnits="objectBoundingBox" id="k"><feOffset in="SourceAlpha" result="shadowOffsetInner1"/><feComposite in="shadowOffsetInner1" in2="SourceAlpha" operator="arithmetic" k2="-1" k3="1" result="shadowInnerInner1"/><feColorMatrix values="0 0 0 0 0.718377976 0 0 0 0 0.718377976 0 0 0 0 0.718377976 0 0 0 1 0" in="shadowInnerInner1"/></filter><filter x="-8.7%" y="-.7%" width="117.3%" height="101.5%" filterUnits="objectBoundingBox" id="l"><feGaussianBlur stdDeviation="1.8" in="SourceGraphic"/></filter><filter x="-9%" y="-.7%" width="117.9%" height="101.5%" filterUnits="objectBoundingBox" id="m"><feGaussianBlur stdDeviation="1.8" in="SourceGraphic"/></filter><filter x="-2.6%" y="-2.6%" width="105.3%" height="105.3%" filterUnits="objectBoundingBox" id="n"><feOffset in="SourceAlpha" result="shadowOffsetOuter1"/><feGaussianBlur stdDeviation=".5" in="shadowOffsetOuter1" result="shadowBlurOuter1"/><feColorMatrix values="0 0 0 0 1 0 0 0 0 1 0 0 0 0 1 0 0 0 0.7 0" in="shadowBlurOuter1"/></filter><filter x="-2.6%" y="-2.6%" width="105.3%" height="105.3%" filterUnits="objectBoundingBox" id="p"><feGaussianBlur stdDeviation=".5" in="SourceAlpha" result="shadowBlurInner1"/><feOffset in="shadowBlurInner1" result="shadowOffsetInner1"/><feComposite in="shadowOffsetInner1" in2="SourceAlpha" operator="arithmetic" k2="-1" k3="1" result="shadowInnerInner1"/><feColorMatrix values="0 0 0 0 0 0 0 0 0 0 0 0 0 0 0 0 0 0 0.112686821 0" in="shadowInnerInner1"/></filter><filter x="-13.3%" y="-6.6%" width="126.5%" height="126.5%" filterUnits="objectBoundingBox" id="u"><feOffset dy="2" in="SourceAlpha" result="shadowOffsetOuter1"/><feGaussianBlur stdDeviation="1" in="shadowOffsetOuter1" result="shadowBlurOuter1"/><feColorMatrix values="0 0 0 0 0.898039216 0 0 0 0 0.890196078 0 0 0 0 0.921568627 0 0 0 1 0" in="shadowBlurOuter1"/></filter><filter x="-.3%" y="-1.2%" width="100.6%" height="101.5%" filterUnits="objectBoundingBox" id="z"><feOffset dy="-2" in="SourceAlpha" result="shadowOffsetOuter1"/><feColorMatrix values="0 0 0 0 0.898039216 0 0 0 0 0.890196078 0 0 0 0 0.921568627 0 0 0 1 0" in="shadowOffsetOuter1"/></filter><filter x="-.3%" y="-4.5%" width="100.6%" height="105.9%" filterUnits="objectBoundingBox" id="B"><feOffset dy="-2" in="SourceAlpha" result="shadowOffsetOuter1"/><feColorMatrix values="0 0 0 0 0.898039216 0 0 0 0 0.890196078 0 0 0 0 0.921568627 0 0 0 1 0" in="shadowOffsetOuter1" result="shadowMatrixOuter1"/><feOffset dy="-1" in="SourceAlpha" result="shadowOffsetOuter2"/><feColorMatrix values="0 0 0 0 0.698039216 0 0 0 0 0.68627451 0 0 0 0 0.733333333 0 0 0 1 0" in="shadowOffsetOuter2" result="shadowMatrixOuter2"/><feMerge><feMergeNode in="shadowMatrixOuter1"/><feMergeNode in="shadowMatrixOuter2"/></feMerge></filter><filter x="-.3%" y="-2.6%" width="100.7%" height="110.5%" filterUnits="objectBoundingBox" id="D"><feOffset dy="2" in="SourceAlpha" result="shadowOffsetOuter1"/><feColorMatrix values="0 0 0 0 0.898039216 0 0 0 0 0.890196078 0 0 0 0 0.921568627 0 0 0 1 0" in="shadowOffsetOuter1"/></filter><path d="M191 750.3c105.5 0 191-3 191-6.8s-117.6-.1-191.5-.1S0 739.7 0 743.4c0 3.8 85.5 7 191 7z" id="b"/><path d="M0 1.3C0 .6.6.1 1.3.2h.3C2.3.3 3 1 3 1.8v26.7c0 .7-.6 1.4-1.3 1.5h-.3C.6 30.1 0 29.6 0 29V1.3z" id="d"/><path d="M0 1.3C0 .6.6.1 1.3.2h.3C2.3.3 3 1 3 1.8v53.6H1.3C.6 55.4 0 54.8 0 54V1.3z" id="g"/><path d="M0 1.3C0 .6.6 0 1.3 0H3v55.4H1.3C.6 55.4 0 54.8 0 54V1.3z" id="j"/><path d="M191 724.2a25.2 25.2 0 100-50.4 25.2 25.2 0 000 50.4zm0 3.3a28.5 28.5 0 110-57 28.5 28.5 0 010 57z" id="o"/><path id="y" d="M0 306.1h322.9V567H0z"/><path id="C" d="M0 0h322.9v67.3H0z"/><linearGradient x1="50%" y1="0%" x2="50%" y2="100%" id="t"><stop stop-color="#FFD9ED" offset="0%"/><stop stop-color="#FFE9F4" offset="100%"/></linearGradient><linearGradient x1="74.5%" y1="77.1%" x2="35.5%" y2="33.6%" id="w"><stop stop-color="#C9DDE0" offset="21%"/><stop stop-color="#C0D8DC" offset="34%"/><stop stop-color="#A6CAD1" offset="57%"/><stop stop-color="#7DB4C0" offset="85%"/><stop stop-color="#64A6B5" offset="100%"/></linearGradient><linearGradient x1="68%" y1="34.6%" x2="33.6%" y2="67.1%" id="x"><stop stop-color="#C9DDE0" offset="23%"/><stop stop-color="#C0D8DC" offset="36%"/><stop stop-color="#A6CAD1" offset="58%"/><stop stop-color="#7DB4C0" offset="85%"/><stop stop-color="#64A6B5" offset="100%"/></linearGradient><circle id="s" cx="4" cy="4" r="3.1"/><circle id="v" cx="24.8" cy="42" r="15.1"/><rect id="q" x="0" y="0" width="57.1" height="5.9" rx="2.9"/><rect id="E" x="0" y="0" width="295.4" height="37.9" rx="6.9"/></defs><g fill="none" fill-rule="evenodd"><circle fill="#E4E2FF" cx="259.2" cy="342.2" r="259.2"/><g transform="translate(68)"><use filter="url(#a)" xlink:href="#b" opacity=".7" fill="#000"/><path d="M309.7 0c28.9 0 62.1 12.5 62.1 62.5v94.9a3 3 0 00-.8 2v53.7c0 .8.3 1.6.8 2.1v467.5c0 20.8-5.9 62.5-63.3 62.5H73c-56.7 0-62.9-41.5-62.9-62.5V283.2a3 3 0 00.8-2V159.3a3 3 0 00-.8-2V62.5C10.1 25.8 29 0 73.1 0h236.6z" fill="#F6F5F9"/><g fill="#ACA9BB"><path d="M10.1 59.6s2.2-.9 6.7-.9v10.5c-4.4.4-6.7 1.3-6.7 1.3v-11zM371.8 59.6s-2.1-.9-6.7-.9v10.5a27 27 0 016.7 1.3v-11zM10.1 686s2.2.8 6.7.8V676c-4.8.2-6.7-.4-6.7-.4V686zM371.8 686s-2.1.8-6.7.8V676c4.8.2 6.7-.4 6.7-.4V686z"/></g><g transform="translate(8 94.8)"><use fill="#000" filter="url(#c)" xlink:href="#d"/><use fill="#3D3C6E" xlink:href="#d"/><use fill="#000" filter="url(#e)" xlink:href="#d"/></g><path d="M8.4 95.7c0-.3.2-.5.4-.5.3 0 .5.2.5.5v28.5c0 .2-.2.4-.5.4a.4.4 0 01-.4-.4V95.7z" fill="#3D3C6E"/><g transform="translate(8.4 158.6)"><use fill="#000" filter="url(#f)" xlink:href="#g"/><use fill="#3D3C6E" xlink:href="#g"/><use fill="#000" filter="url(#h)" xlink:href="#g"/></g><path d="M8.8 159.4c0-.2.2-.4.5-.4.2 0 .4.2.4.4v53.7c0 .3-.2.5-.4.5a.4.4 0 01-.5-.5v-53.7z" fill="#3D3C6E"/><g transform="translate(8.4 226.6)"><use fill="#000" filter="url(#i)" xlink:href="#j"/><use fill="#3D3C6E" xlink:href="#j"/><use fill="#000" filter="url(#k)" xlink:href="#j"/></g><path d="M8.8 227.4c0-.2.2-.4.5-.4.2 0 .4.2.4.4v53.7c0 .2-.2.4-.4.4a.4.4 0 01-.5-.4v-53.7z" fill="#3D3C6E"/><g transform="matrix(-1 0 0 1 373.5 158.6)" fill="#3D3C6E"><path d="M0 1.3C0 .6.6.1 1.3.2h.3C2.3.3 3 1 3 1.8v51.8c0 .8-.6 1.4-1.3 1.6h-.3C.6 55.3 0 54.8 0 54V1.3z"/><rect x=".4" y=".4" width="1" height="54.5" rx=".5"/></g><path d="M16 684.8V60C16 34.3 27.6 5.9 70.5 5.9h241.7c29 0 53.8 15 53.8 54.1v625.2c0 14.8-4.4 54.1-54.6 54.1H71c-47.3 0-55-34.2-55-54.5z" fill="#1C1C3B"/><path d="M78.4 6.3a52 52 0 00-52 52v628.6a52 52 0 0052 52h-10a52 52 0 01-52-52V58.2a52 52 0 0152-52z" fill="#4E4D66" opacity=".8" filter="url(#l)"/><path d="M313.8 6.3a52 52 0 0152 52v628.6a52 52 0 01-52 52h-8a52 52 0 0052-52V58.2a52 52 0 00-52-52h8z" fill="#4E4D66" opacity=".8" filter="url(#m)"/><path d="M19 684.8c0 12.4 2.7 24 9.1 33.2 8.3 11.7 22.2 18.4 42.8 18.4h240.5c21.6 0 35.5-7.4 43.6-20.2 5.8-9 8-20 8-31V562.5 312.7 60c0-17.8-5.3-31-15-39.5a53 53 0 00-35.8-11.7H70.5c-19.2 0-32.6 5.8-41 16.3A55 55 0 0018.8 60a29104597.9 29104597.9 0 000 499.8v125zm-3 0V60C16 34.3 27.6 5.9 70.5 5.9h241.7c29 0 53.8 15 53.8 54.1v625.2c0 14.8-4.4 54.1-54.6 54.1H71c-47.3 0-55-34.2-55-54.5z" fill="#1C1C3B" fill-rule="nonzero"/><circle fill="#514E82" cx="191.2" cy="27.5" r="3.6"/><g fill-rule="nonzero"><use fill="#000" filter="url(#n)" xlink:href="#o"/><use fill="#FFF" xlink:href="#o"/><use fill="#000" filter="url(#p)" xlink:href="#o"/></g><g opacity=".8" transform="translate(162.4 46.2)"><mask id="r" fill="#fff"><use xlink:href="#q"/></mask><use fill="#514E82" xlink:href="#q"/><path d="M57.5 5v.5H-.8V5h58.3zm0-1.2v.4H-.8v-.4h58.3zm0-1.3V3H-.8v-.4h58.3zm0-1.2v.4H-.8v-.4h58.3zm0-1.3v.4H-.8V0h58.3z" fill="#514E82" mask="url(#r)"/><path d="M.8-.4v7.1H.4V-.4h.4zm1.3 0v7.1h-.4V-.4H2zm1.3 0v7.1h-.5V-.4h.5zm1.2 0v7.1h-.4V-.4h.4zM6-.4v7.1h-.4V-.4h.4zM7-.4v7.1h-.4V-.4h.4zm1.3 0v7.1H8V-.4h.4zm1.3 0v7.1h-.5V-.4h.5zm1.2 0v7.1h-.4V-.4h.4zm1.3 0v7.1h-.4V-.4h.4zm1.2 0v7.1H13V-.4h.4zm1.3 0v7.1h-.4V-.4h.4zm1.2 0v7.1h-.4V-.4h.4zm1.3 0v7.1h-.4V-.4h.4zm1.3 0v7.1H18V-.4h.5zm1.2 0v7.1h-.4V-.4h.4zm1.3 0v7.1h-.4V-.4h.4zm1.2 0v7.1h-.4V-.4h.4zm1.3 0v7.1h-.4V-.4h.4zm1.3 0v7.1h-.5V-.4h.5zm1.2 0v7.1h-.4V-.4h.4zm1.3 0v7.1h-.4V-.4h.4zm1.2 0v7.1h-.4V-.4h.4zm1.3 0v7.1h-.4V-.4h.4zm1.3 0v7.1h-.5V-.4h.5zm1.2 0v7.1H32V-.4h.4zm1.3 0v7.1h-.4V-.4h.4zm1.2 0v7.1h-.4V-.4h.4zm1.3 0v7.1h-.4V-.4h.4zm1.2 0v7.1H37V-.4h.4zm1.3 0v7.1h-.4V-.4h.4zm1.3 0v7.1h-.5V-.4h.5zm1.2 0v7.1h-.4V-.4h.4zm1.3 0v7.1H42V-.4h.4zm1.2 0v7.1h-.4V-.4h.4zm1.3 0v7.1h-.4V-.4h.4zm1.3 0v7.1h-.5V-.4h.5zm1.2 0v7.1H47V-.4h.4zm1.3 0v7.1h-.4V-.4h.4zm1.2 0v7.1h-.4V-.4h.4zm1.3 0v7.1h-.4V-.4h.4zm1.3 0v7.1H52V-.4h.5zm1.2 0v7.1h-.4V-.4h.4zm1.3 0v7.1h-.4V-.4h.4zm1.2 0v7.1h-.4V-.4h.4z" fill="#514E82" mask="url(#r)"/></g><g transform="translate(129.7 44.9)"><use fill="#514E82" xlink:href="#s"/></g><path stroke="#000" fill="#FFE9F4" stroke-linecap="round" stroke-linejoin="round" d="M29.5 90.5h323v568h-323z"/><g transform="translate(29.8 91)"><rect fill="url(#t)" x="1.1" y="1.1" width="320.4" height="565.4" rx="2.7"/><path d="M69.7 48.4c.3 0 .5-.1.6-.3.2-.1.3-.4.3-.6V36.9c0-.2 0-.4-.2-.6a.8.8 0 00-.7-.3l-.6.3a1 1 0 00-.2.6v8.4l-6.7-9a.8.8 0 00-.7-.3c-.3 0-.5.1-.6.3l-.3.6v10.6c0 .3 0 .5.2.6l.6.3a1 1 0 00.8-.9V39l6.8 9c.2.2.4.3.7.3zm7.3 0a5.3 5.3 0 002.7-.7c.4-.2.6-.5.6-.9l-.1-.4a.5.5 0 00-.4-.2 1 1 0 00-.4 0l-.3.2a8 8 0 01-1 .5l-1 .2c-1.7 0-2.5-1-2.6-2.7h5.3c.4 0 .6-.3.6-.7 0-1.2-.3-2.2-1-3-.6-.7-1.5-1-2.6-1a4 4 0 00-2.1.5c-.7.4-1.1 1-1.5 1.6a5 5 0 00-.5 2.3c0 1.3.4 2.4 1.2 3.1.7.8 1.8 1.2 3.1 1.2zm1.9-5h-4.4c0-.8.3-1.4.7-1.8.4-.4 1-.7 1.6-.7.6 0 1.1.3 1.5.7.4.4.6 1 .6 1.8zm12.5 5c.2 0 .3 0 .5-.2.2 0 .3-.2.4-.4l2.8-7v-.3c0-.2 0-.4-.2-.6a.9.9 0 00-.6-.2c-.3 0-.5.2-.7.5l-2.2 5.9-2.3-5.8c0-.2-.1-.3-.3-.4a.9.9 0 00-1 0l-.3.4-2.2 5.8-2.3-5.9c0-.3-.3-.5-.7-.5a1 1 0 00-.6.2.7.7 0 00-.2 1l2.8 6.9.4.4a1 1 0 001 0c.2 0 .3-.2.4-.4l2.2-5.5 2.2 5.5c0 .2.2.3.4.4l.5.2zm15.4 0c.8 0 1.5 0 2.2-.3.7-.3 1.3-.6 1.8-1 .2-.2.3-.5.3-.7 0-.2 0-.4-.2-.6a.5.5 0 00-.4-.2l-.6.2-1.5 1-1.5.2c-1.3 0-2.2-.4-3-1.3-.6-.8-1-2-1-3.5s.4-2.7 1-3.5c.8-.8 1.7-1.2 3-1.2a4.4 4.4 0 013 1l.6.3c.2 0 .3 0 .4-.2l.2-.5c0-.3-.1-.6-.3-.7-.5-.5-1.1-.8-1.8-1a6.5 6.5 0 00-5.2.3 5 5 0 00-2 2.2c-.4 1-.7 2-.7 3.3 0 1.3.3 2.4.7 3.3a5 5 0 002 2.2 6 6 0 003 .7zm12.9 0l.6-.2c.2-.2.2-.4.2-.6V43c0-2.3-1-3.4-3-3.4-.6 0-1.1 0-1.6.3s-.9.7-1.2 1.2v-4.4c0-.2 0-.4-.2-.5a.9.9 0 00-.6-.3 1 1 0 00-.6.3c-.2.1-.3.3-.3.6v10.7c0 .2 0 .4.2.6l.7.2.6-.2c.2-.2.2-.4.2-.6v-4.1c0-.7.3-1.3.7-1.8.4-.4 1-.6 1.7-.6.6 0 1 .1 1.3.5.3.3.4.8.4 1.5v4.5c0 .2 0 .4.2.6l.7.2zm6 0c.5 0 1-.1 1.4-.4.4-.2.8-.6 1-1v.6c0 .2 0 .4.2.6l.6.2c.3 0 .5 0 .6-.2l.3-.6V43c0-1.2-.3-2-.9-2.6-.5-.5-1.3-.8-2.4-.8a6.6 6.6 0 00-3 .7l-.5.4-.1.4.1.5.4.2c.2 0 .4 0 .7-.2l1.2-.5a4 4 0 011.1-.2c.6 0 1 .2 1.3.5.2.3.4.7.4 1.4v.5h-.4c-1.3 0-2.3 0-3 .2a3 3 0 00-1.6.8 2 2 0 00-.5 1.4c0 .5.2 1 .4 1.4.3.3.6.7 1.1.9l1.5.3zm.2-1.3c-.4 0-.8-.1-1.1-.4-.3-.2-.4-.6-.4-1s0-.6.3-.8a2 2 0 011-.4l2-.1h.4v.4c0 .7-.2 1.2-.6 1.7a2 2 0 01-1.6.6zm7.1 1.3c.3 0 .5 0 .6-.2l.3-.6V36.9c0-.3-.1-.5-.3-.6a.9.9 0 00-.6-.3 1 1 0 00-.6.3c-.2.1-.3.3-.3.6v10.7l.3.6.6.2zm4.2 0c.2 0 .4 0 .6-.2.2-.2.2-.4.2-.6V36.9c0-.3 0-.5-.2-.6a.9.9 0 00-.6-.3 1 1 0 00-.6.3c-.2.1-.3.3-.3.6v10.7c0 .2 0 .4.3.6l.6.2zm7.1 0a5.3 5.3 0 002.7-.7c.4-.2.6-.5.6-.9 0-.2 0-.3-.2-.4a.5.5 0 00-.3-.2 1 1 0 00-.4 0l-.3.2a8 8 0 01-1 .5l-1.1.2c-1.6 0-2.5-1-2.6-2.7h5.4c.4 0 .6-.3.6-.7 0-1.2-.4-2.2-1-3-.7-.7-1.6-1-2.7-1a4 4 0 00-2 .5c-.7.4-1.2 1-1.5 1.6a5 5 0 00-.5 2.3c0 1.3.4 2.4 1.1 3.1.8.8 1.9 1.2 3.2 1.2zm1.9-5h-4.5c.1-.8.4-1.4.8-1.8.4-.4.9-.7 1.6-.7.6 0 1.1.3 1.5.7.3.4.5 1 .6 1.8zm10 5c.3 0 .5 0 .7-.2l.2-.6V43c0-2.3-1-3.4-3-3.4-.6 0-1.2.1-1.7.4-.5.2-.8.6-1.1 1.1v-.7c0-.2 0-.4-.2-.6a.8.8 0 00-.6-.2c-.3 0-.5 0-.7.2l-.2.6v7c0 .3 0 .5.2.7l.7.2.6-.2.2-.6v-4.1c0-.7.2-1.3.7-1.8.4-.4 1-.6 1.6-.6.6 0 1 .1 1.4.5.2.3.4.8.4 1.6v4.4c0 .2 0 .4.2.6l.6.2zm7 3.1c1.4 0 2.4-.3 3.1-1 .7-.6 1-1.6 1-2.9v-7c0-.3 0-.5-.2-.7a.8.8 0 00-.6-.2c-.3 0-.5 0-.7.2l-.2.6v.8c-.3-.6-.6-1-1.1-1.2-.5-.3-1-.4-1.7-.4s-1.4.1-2 .5c-.5.3-1 .8-1.3 1.5-.3.6-.5 1.3-.5 2.2 0 .8.2 1.5.5 2.1.3.7.8 1.2 1.3 1.5.6.4 1.3.5 2 .5.6 0 1.2-.1 1.7-.4.5-.3.9-.7 1.1-1.2v1.4c0 1.6-.8 2.4-2.4 2.4L162 50l-1.2-.5-.7-.2c-.2 0-.3 0-.4.2l-.2.4c0 .4.3.7.7 1 .8.4 1.8.6 3 .6zm0-4.8c-.7 0-1.3-.3-1.8-.8a3 3 0 01-.6-2c0-1 .2-1.6.6-2 .5-.6 1-.8 1.8-.8s1.4.2 1.8.7c.4.5.6 1.2.6 2a3 3 0 01-.6 2.1c-.5.5-1 .8-1.8.8zm10.4 1.7a5.3 5.3 0 002.7-.7c.4-.2.6-.5.6-.9 0-.2 0-.3-.2-.4a.5.5 0 00-.4-.2 1 1 0 00-.4 0l-.2.2a8 8 0 01-1 .5l-1.1.2c-1.6 0-2.5-1-2.6-2.7h5.3c.4 0 .6-.3.6-.7 0-1.2-.3-2.2-1-3-.6-.7-1.5-1-2.6-1a4 4 0 00-2 .5c-.7.4-1.2 1-1.5 1.6a5 5 0 00-.5 2.3c0 1.3.4 2.4 1.1 3.1.8.8 1.8 1.2 3.2 1.2zm1.9-5H171c0-.8.3-1.4.7-1.8.4-.4 1-.7 1.6-.7.7 0 1.2.3 1.6.7.3.4.5 1 .6 1.8z" fill="#1C1C3B" fill-rule="nonzero"/><g transform="translate(7.3 5.2)" fill="#D2CFD9"><path d="M144.8 2.2h17a3.8 3.8 0 010 7.5h-17a3.8 3.8 0 010-7.5z"/><ellipse cx="5.8" cy="5.7" rx="5.1" ry="5"/><path d="M27.7 9.9l-4.3-7.2a1.3 1.3 0 011-2h8.8a1.3 1.3 0 011.1 2L30 9.9a1.3 1.3 0 01-2.3 0zM290.6 2.2h13a3.8 3.8 0 010 7.5h-13a3.8 3.8 0 010-7.5z"/><rect x="268.4" y=".7" width="10.2" height="10" rx="1.3"/></g><use fill="#000" filter="url(#u)" xlink:href="#v"/><use fill="#FFF" xlink:href="#v"/><path opacity=".9" d="M16.4 33.7H33v16.7H16.4z"/><path d="M28 35.7a.9.9 0 00-1.3 0l-5.6 5.7c-.4.4-.4 1 0 1.2l5.6 5.7a.9.9 0 101.3-1.2l-4.8-4.8a.4.4 0 010-.6L28 37a.9.9 0 000-1.3z" fill="#645BD4"/><path d="M227.2 164.9c7.4-1.8 26.5 13.2 32.3 30.6 8.3 25.2-1.5 41.5-1.7 59-.4 38-59.8 39.2-48.1 7.5 2.2-6 9.2-18.4 11-27.6a247 247 0 004.4-44.9c-1-7.3-4.4-22.8-6.2-26.8-1.8-4 .7-4.8 5.5-6.3" fill="#D379A6" fill-rule="nonzero"/><path d="M219.8 269.6c8.6-32.8 30.3-96.6 6.6-110.6-33.4-19.7-3.6 2.5-2.2 4.1 1.4 1.6-15.8 100.4-18 106.2-2.3 5.8 12.1 5.9 13.6.3z" fill="#993771" fill-rule="nonzero"/><path d="M215.2 169.1a58.8 58.8 0 012.6 26c-1.7 23-11.8 61-14 69.8-2.2 8.8 10.3 12.3 13.2 3.1 2-5.9 7-26.2 9.4-35 2.4-8.7 5-22.8 6.3-30.1 1.3-7.4 2.2-23.7-1.6-32.9-3.9-9.1-5.6-10-6.7-13.6-1.1-3.5-6.6-7.7-8.1-5.7s-3.3 9.8-2.6 11.4" fill="#D375A4" fill-rule="nonzero"/><path d="M174.5 112.4c-1.4.4-4 1.5-1.1-1 2.9-2.4 7-5.2 9.4-6 2.3-.9 3.3-1.4 4.8-.2 1.4 1.3 2.3 3.3 1.6 3.5-.7 0-1.6-.7-3.7-.2-2 .6-4 .7-5.8 1.8a20 20 0 01-5.2 2.1z" fill="#91470F" fill-rule="nonzero"/><path d="M152.7 96.8c-1.2 1.4-6.3 19.6-11.4 26.2-9 11.7-.6 37.1-.3 41.9.4 4.7 5.5 6.3 13.5 7.4 4.3.6-3-20.7-4.3-26.2-1.3-5.5-1.6-19.8-1.6-22.2 0-2.4 3.9-20.6 4.3-24" fill="#D39F59" fill-rule="nonzero"/><path d="M160.1 106.4c0-3.3.4-4.4 2.8-6.8 2.4-2.4 7.3-6.6 11.7-6.6 4.4 0 8.3-.8 10 1.6 2.9 3.6 4.5 7.9 4.9 12.4.5 7 2.5 12 .9 17.3-1.7 5.3 3 11.2 2.6 13.4-.5 3.6 0 7.4 1.2 10.8 1.2 3 2 4.8 4.6 4.8 2.6 0 6.6.8 8.3 4.5 1.7 3.6 7.3.6 8.2 1.5 1 1 .8 3 3.2 2.7 3.5-.3 7.2 6 9.5-1.7 3.5-11.6 3.5-10 3-15.7-2.1-19.3-12.5-18.3-14.2-24.5-1.6-6.3-3.1-18.8-10.4-26.1-7.4-7.4-20-14.9-27.5-14.2-8.7.8-17 3.6-21.3 8-5.1 5.2-7.6 15.5-8.5 22.9-.9 7.3-3.7 19.3-4.5 23.6-.8 4.4.1 7 1.2 13.5 1.1 6.4 4 11 6.6 16.5 1.1 2.4 2.4 12.7 7.7 11.3 3.8-1.1 6.8-2.4 6.3-8.1-.6-5.7.2-4.8-.6-7.7-.7-3 4.4-6.5 4.4-9" fill="#774C25" fill-rule="nonzero"/><path d="M170 95c.1-4-.2-9 3.7-11.6 3.6-2.3 9.4-2.8 12.3-.4 2.8 2.5 3.4 4.8 2.2 8.3-1.3 3.5-1.8 5-1 7.7.6 2.8-17.2-4-17.2-4z" fill="#663810" fill-rule="nonzero"/><path d="M170.4 90.6c-.6 3.9-2.1 1.8-2.5.7-.8-2.4-3.7-4-5.5-3.7-1.8.3-5.4 2.7-7.3 7.8-2.1 5.7-5.2 29.9-5.2 32.7-.2 19.2 9.4 47 11.8 46.7 14.7-1.9-3.3-50.8-2.2-52.9 4-8 6.4-20.7 6.6-21.3.4-1 4.1-3.9 5.4-6 1.2-2-.6-5.3-1.1-4" fill="#4C2E1A" fill-rule="nonzero"/><path d="M133.6 201.8c56.6 0 31.2 19.6 42 32.6 10.7 13 10.3 27.6 2.5 33.4-22 16.6-10-10-59.8 5.9l2.9-30.8 2-17.7 10.4-23.4" fill="#C16397" fill-rule="nonzero"/><path d="M173.8 174.6c-22.3 18.4-13.9 54-16.2 94.7-1.1 19.1 38.5 20.6 32.6-2.2-1.7-6.6-12.4-32.3-13.4-45.8-.9-13.5-1.2-31.2-1-35.5.1-4.2-.2-12.7-2-11.2z" fill="#D379A6" fill-rule="nonzero"/><path d="M177.4 167c-13.6 19.8-14.9 62 6.2 100.7 3.9 7 17.6 4.3 14.2-4-9.8-23.6-23.8-74.5-13-90.2 4.3-6.4-3.2-12.7-7.4-6.6z" fill="#993771" fill-rule="nonzero"/><path d="M181.8 168c-14.2 13.4-16.9 59.8 4.9 97.5 5 8.6 16.8 2.8 11.8-5.6-13.9-23.3-19.7-69.5-4.8-85.3 6-6.5-5.5-12.5-11.9-6.5z" fill="#D375A4" fill-rule="nonzero"/><path d="M203.8 149.2c-2.8-3.8-6.8-7.8-10.2-14.6-2.3-5-3.6-10.5-3.7-16 0-2.4.2-2.5.3-8.8.3-14.5-8.8-16.8-16-16.7-6.7 0-14.4 4.8-14.8 16.8-.1 4 .7 9.8 1.5 11.4.7 1.7 5.7.8-.6 9-6.2 8.2-.4 18.5 3.2 24.3 2.2 3.5 3.4 8.2 5.3 9.9.9.7 3 1.2 5.7 2.7a58 58 0 0029.3-18zM215.2 167.6c-1-2.7-3.4-5.2-5-7.6 0 .7-1-.3-1.5-.2-1 .4-1.4 2.1-2.9 2-7-.6-9 9.3-12 13.6-2.3 3-7.3 3.6-10.2 3.1.5 1.1 1 2.3 1.4 3.7 2.6 8.4 5.9 18.5 11.7 27.7 3.2 5.2 3.3 6.9 6.7.7 2-3.8 7.3-11.8 9.1-15.5 1.5-3 5.2-8.9 5.8-15.7.3-3.3-1.7-8.2-3-11.8z" fill="#FF8B6C" fill-rule="nonzero"/><path d="M194 175.6c2.6-3.3 7.6-9.4 11-11.8 2.4-1.6 5.2-3.1 5.3-3.8-1.8-2.8-3.5-5.1-4-6.6-.7-1.5-1.5-3-2.5-4.2a58.8 58.8 0 01-29.3 18c3 1.8 6.4 5 9.1 11.3 3 .5 8 .1 10.4-2.9z" fill="#DD6A57" fill-rule="nonzero"/><path d="M203.7 157.6c-.2 5.3 0 10.1 3.2 10.3 2.8.1 2.4-2.6 4.8-2.6 2.7 0 1.7 2.6 4.4 2.6 2.6 0 2-2.7 4.8-2.6 2.7 0 1.4 2.6 4.7 2.5 4.1 0 6-15.2 5.6-19.6-.4-4.4-4.4.4-7.9 1.2-3.4.9-6.4 2.8-11.8 4.7-5.4 2-5.6 2.8-5 3.8" fill="#774C25" fill-rule="nonzero"/><path d="M178.4 132.6c-2.2.8-4.1 1.9-7.6 1-3-.6-3 3.7.9 3.5 2.6 0 5.1-.6 7.5-1.4 1.8-.6.8-3.6-.8-3z" fill="#4F2109" fill-rule="nonzero"/><path d="M184 82.5c3.5 1.8 5.4 1.4 3.5 7.4-3.5 10.7-1 13.6 2.7 24.6 2.2 6.6-5.2 9.9-.7 15.5 13.8 17.2 4.7 36.5 15.7 35.2 5.4-.7 3.6-29.3.3-37.8-2.6-6.6-1.7-19.4-5-24.1-2.1-3-7.2-7.3-7.7-10.3-.6-3 0-9.7-5.7-11.6-5.7-1.8-4.6.4-3.1 1.1z" fill="#B78344" fill-rule="nonzero"/><path d="M160 114.3c-3.3 1.6-4 3.7-4.3 5.5-.3 2.5-.4 5-.3 7.4.1 2 .7 4 2.2 5.1 1.4 1.1 6.7 3.3 9.9-1.8 3-5.2 4-8.8 4-10.9 0-2 .5-3-3.7-5-.7-.4-5.6-1.3-7.8-.3zM180.5 109.4c-1.6.8-4.4 3-3.9 6.8.6 3.7 2.6 7.9 4.5 11.2 1.8 3.3 4 6.6 10 1.5 6.1-5.2 6.5-12.4 2.3-16-4.3-3.7-7.6-6.3-12.9-3.5z" stroke="#000" stroke-width=".7" fill="#000" fill-rule="nonzero"/><path d="M166.8 119.1c1.9-1.5 6.6-6.7 11.3-5 4.6 1.6 1.6 2.7.6 2.8-.9.2-7.8.6-9 5.2-1 4.6-4.9-1.2-2.9-3z" fill="#000" fill-rule="nonzero"/><path d="M180.1 111.2c-1.7 1.3-2.7 3.7-1.4 6.8 1.2 3.1 3 8 4 9.6a3.8 3.8 0 005.3 1.2c2-1.2 6-4.6 6-7.3.3-2.8 1.2-4.4-1.4-6.8-2.6-2.4-7.5-7.2-12.5-3.5z" fill="#FFF" fill-rule="nonzero" opacity=".3"/><path d="M164.9 115.7c-2-.3-5.1 0-6.2.7-1.1.7-2.2 3.4-2.2 6.8 0 3.5 0 6.4 1.6 7.5 2 1.2 5 2.5 7.4-.8 2.3-3.3 2.7-5.2 3.4-7.5 1-3 1.1-6-4-6.7z" fill="#FFF" fill-rule="nonzero" opacity=".2"/><path d="M171.7 120.6c.5-1.9 1.4-2 2.4-2.4 1.2-.5 2.6 0 3.3 1.1.7 1.3 1.4 0 .9-.9-.6-.8-1.7-2.1-4.4-1.3-2.8.8-3 2.3-3.5 3.2-.4 1 1 1.5 1.3.3z" fill="#000" fill-rule="nonzero"/><path d="M174 143.7c4-.3 8.7-2 10.3-3.9.5-.6.8-1.3 1-2l-.7.1c-4.7 1.6-9.2 6.8-18.2 1.6-.3-.3-.7-.4-1.1-.5.3.9.8 1.7 1.5 2.4 1.1 1.3 5 2.6 7.2 2.3z" fill="#FFF" fill-rule="nonzero"/><path d="M183.9 153.7c.6-1.6 1.3-2.8 1.8-3.8 1.8-4 3.4-7.7 3.4-9.2 0-1.9-1-5.9-6.7-3-4.7 2.4-8.2 4.5-14.2 1.3-6.5-3.4-6 1.2-6.2 2.5a34.5 34.5 0 004.5 12.8c2 3 4 4.3 6.2-1.8 1.2-3.6 2.6-3.4 4-.8 2.5 3.9 5 6.7 7.2 2z"/><path d="M181.7 164c1.4-2 3-2.6 3.9-4.6.8-2 .7-3.1 1.6-4.7.7-1.4 1.7-1.5 2.9-.1l1.1-7.2c1-2.5 2.7-19-9.4-13.2-12.1 5.7-14 0-17.4 1-5.8 1.4-4.5 12-2 16.7.4 4 .9 8.4 1.8 9.9 1.4 2.4 1.6 5.3 5.7 7.1 2.8 1.3 8 .6 11.4-.2-1.8-.8-.7-2.9.4-4.6zm-4.9-12.3c-1.5-2.5-2.9-2.7-4 .8-2.2 6.1-4.3 4.8-6.3 1.8a33.6 33.6 0 01-4.4-12.8c.2-1.3-.4-5.9 6.1-2.5 6 3.2 9.5 1.1 14.2-1.3 5.6-2.9 6.8 1.1 6.8 3 0 1.5-1.6 5.1-3.5 9.2l-1.8 3.8c-2.2 4.7-4.7 1.9-7-2z" fill="#774C25" fill-rule="nonzero"/><path d="M188.2 162.9c.4-1.5 1.5-4.3 1.7-7.2l.2-1.1c-1.2-1.4-2-1.4-3-.2-1 1.1-1 2.7-1.5 4.2-.6 2.2-2.5 3.7-4.6 5-2 1-3 4.7-1.3 5.4 1.5-.3 4.2-1 4.8-1.4 2-.9 3.1-2.4 3.7-4.7z" fill="#774C25" fill-rule="nonzero"/><path d="M126.4 228.3c-3-3-5.1-13.6-8.5-20.4-2 4.3-2.7 10.4-1.7 14.6 2.8 10.8.4 31.6-3.5 40.3-5.2 11.5 8.9 17.4 16-.3 3.2-8.2 6.8-15 9-24.8-2.3-.9-6-3.9-11.3-9.4z" fill="#993771" fill-rule="nonzero"/><path d="M138.1 207.7c-1.3-7.3-10.5-9.5-18.5-4.7-2.3 1.7-4.1 4-5.3 6.6a97.4 97.4 0 0012.1 18.7c5.4 5.5 9 8.5 11.4 9.4 1.5-9.4 2.2-19.8.3-30z" fill="#9B2767" fill-rule="nonzero"/><path d="M138.1 207.7c-1.3-7.3-10.5-9.5-18.5-4.7-2.3 1.7-4.1 4-5.3 6.6a97.4 97.4 0 0012.1 18.7c5.4 5.5 9 8.5 11.4 9.4 1.5-9.4 2.2-19.8.3-30z" fill="#FF8B6C" fill-rule="nonzero"/><path d="M136.9 189.5c2.8-4.2 3.3-7 6.9-9.7 5.9-4.4 7.1 2.5 3.4 6.8-2.5 2.8-1.9 7.5-3.7 11.6-1.9 4-3.3 5.3-6.5 9.2-3 3.8-6.3 5.3-7.6 7.7a16.7 16.7 0 01-10.4 6.7c-5.2.9-7.8-2.9-9-4.9-.6-1.2-6.2-6.1-6.8-9-.4-1.7 3.7-2 4.6-1.7 1.4.4 1.7-.6 1.5-1.8-.1-1 .8-2 1.7-2.7.7-.5 1.6-.9 2.5-1.1 1.6-.3 1.8.3 2.2-.2.4-.5-.3-1.4-.4-1.8-.6-2.6 3.7-4.8 4.5-4.7.9 0 1.1.2 1.3 0 .3-.2 0-.4 0-1.2-.1-1 3.8-1.5 6-1.7 4.5-.5 9.2-.5 9.8-1.5z" fill="#FF8B6C" fill-rule="nonzero"/><path d="M65.7 105c-2.3-2.7 2-8 5.3-5.4 2.6 2.1 5 3.7 6.8 7 1.3 2.5 2.3 6.8.3 10.9A93.3 93.3 0 0162.8 136c-3.1 2.4-8.7 5-12.8 3.9a22 22 0 01-12-8.3c-1.9-3.2 1.7-7.8 4.4-5.5 5.3 4.4 10 7.6 15.2 3.2 3-2.4 10.5-12.4 11.8-14.4 2.5-3.7-1.2-6.7-3.7-9.9z" fill="url(#w)" fill-rule="nonzero" transform="translate(58.8 79.8)"/><path d="M115.9 199.5c-2.3-2.2 2.7-7.6 5.7-5 3 2.6 6.2 5.7 7.5 6.9 2.2 2-2.6 7.4-5 5.4-2.6-2-6.8-6-8.2-7.3zM121.8 194c-2.4-1.9 1.8-7.8 5-5.7l7.8 5.4c2.4 1.7-1.7 7.6-4.3 6-2.6-1.6-7-4.7-8.5-5.8zM109.6 204.8c-1.4-2.6 5.1-6.2 7-3l4.6 8c1.5 2.5-4.9 6.1-6.5 3.7-1.6-2.4-4.3-7.1-5.1-8.7zM102.4 209c-.6-2.8 6.7-4.5 7.6-1l2.3 9c.6 2.8-6.5 4.6-7.3 1.8-1-2.9-2.2-8-2.6-9.8z" fill="#FF8B6C" fill-rule="nonzero"/><path d="M140.2 165.6c2.9-2.8 6-4.3 3-11.4-3-7.1-15.8-29.2-35.7-28.3-1 0-6.1-3.9-6.9-3.7-2.4.8 1 6.5.6 7.8-.2.7-.5 1.3-.9 1.9-1 1-7.3 8.7-9.2 10.3a57 57 0 00-7 9c-1 1.5-6.8 10-8.3 11.6-1.5 1.6-9.7 12.7-12.8 16.8-3.1 4-5.9 9-3 16.2a38 38 0 0024 20c9.9 1.2 10.9-1.8 13.2-3.8 2.3-2 10.7-12.3 12.3-13.7 1.5-1.4 16.8-16.2 18.3-18 1.5-1.8 9-11.3 12.4-14.7z" fill="#C9DDE0" fill-rule="nonzero"/><path d="M58.8 74.7c-8.5-8.2-17-17.5-12-22.4 5-4.9 18.5 2 24.4 8.3 5 5.4 13.3 17.3 10.5 20.3-3 3-15.5 1-23-6.2z" fill="url(#x)" fill-rule="nonzero" transform="translate(58.8 79.8)"/><path d="M180.5 145.4c1.3-.4 3-2 4.2-3 1-.7 1.8-.3 2.3.3l.3-.4c.7-1 1.2-5.2-2-4.5-.2.7-.5 1.4-1 2-1.6 2-6.3 3.6-10.3 4-2.2.2-6-1-7.3-2.4a7.5 7.5 0 01-1.5-2.3c-1.6-.3-2.5 1.4-1.7 3 1.3 2.4 5.2 6 13.1 5.4l1.6-.1c0-1 1.4-1.7 2.3-2z" fill="#4F2109" fill-rule="nonzero"/><path d="M187 142.7c-.5-.7-1.2-1-2.3-.2-1.3.9-3 2.5-4.2 2.9-1 .3-2.3 1-2.3 2 6-.8 7.8-3.3 8.8-4.7z" fill="#4F2109" fill-rule="nonzero"/><path d="M74.8 176.1h47.7l-16.4 18.2c-5 5.4-9.2 9.8-10.5 11-3.8 3.5-3.7 5.6-11.7 4a29 29 0 01-17.3-14 15.2 15.2 0 01-1.2-3.5c-.3-2.2.2-3.8 1.6-5.5l7.3-9.6.5-.6zm8-10.1c6.2-6.9 22.5-5.6 25.6-5.4 3.6.3 18.6 1 23 5.8l-8.9 9.7H74.8l.3-.3.5-.8c2.7-3.6 5.5-7 7.2-9z" fill="#84BEE9" fill-rule="nonzero"/><path d="M108 165.7c12.4-8.8 16.4-24.7 17-39.2 0-.5-1.2-.3-1.2.2-.7 14.1-4.4 30-16.7 38.5-.7.5.4.7.8.4z" fill="#40A629" fill-rule="nonzero"/><path d="M124.2 126.2c-.6-2-3.2-13.6 2.3-12.4 3.8.7 0 10.9-2 12.7" fill="#40A629" fill-rule="nonzero"/><path d="M124.5 126.3c2-1.4 4.1-2.6 6.8-2.6 2.2 0 5.5 1.4 4 4.1-1.8 3.5-8.8.3-10.9-1.2M124.4 126.3c-1.4-1.8-10.1-7.1-11-2-.9 4.3 9 2.8 11 2.3" fill="#40A629" fill-rule="nonzero"/><mask id="A" fill="#fff"><use xlink:href="#y"/></mask><g><use fill="#000" filter="url(#z)" xlink:href="#y"/><use fill="#FFF" xlink:href="#y"/></g><g mask="url(#A)"><path fill="#FFF" d="M0 306.1h322.9v39.7H0z"/><path fill="#E5E3EB" opacity=".5" d="M0 344h322.9v2.6H0z"/><path d="M249.5 331.9c.2 0 .3 0 .4-.2l.1-.4v-7.6l-.1-.3-.4-.2c-.1 0-.3 0-.3.2l-.2.3v3.3h-5v-3.3l-.2-.3-.4-.2c-.1 0-.2 0-.3.2l-.1.3v8l.4.2c.2 0 .3 0 .4-.2l.1-.4V328h5.1v3.4c0 .2 0 .3.2.4l.3.2zm3-7.4l.4-.1.2-.5c0-.2 0-.3-.2-.4a.7.7 0 00-.5-.2c-.1 0-.3 0-.4.2l-.2.4c0 .2 0 .3.2.5l.4.1zm0 7.4s.2 0 .3-.2l.1-.3v-5.1l-.1-.4-.4-.1-.3.1-.1.4v5.4l.4.2zm4.8 2.1c1 0 1.6-.2 2-.6.5-.5.7-1.1.7-2v-5.1l-.1-.4-.4-.1-.3.1-.2.4v.6a2 2 0 00-.8-.8c-.3-.2-.7-.3-1.2-.3s-1 0-1.3.3l-1 1c-.2.5-.3 1-.3 1.6 0 .6.1 1 .3 1.5a2.4 2.4 0 002.3 1.4c.5 0 1 0 1.3-.3.3-.2.6-.5.7-.9v1c0 .7-.1 1.1-.4 1.4-.3.3-.7.5-1.3.5-.4 0-.7 0-1-.2l-.8-.3-.4-.2-.3.1v.3c0 .2 0 .4.4.5.6.4 1.3.5 2.1.5zm0-3.2c-.7 0-1.1-.2-1.4-.6-.4-.3-.5-.9-.5-1.5 0-.7.1-1.2.5-1.6.3-.3.7-.5 1.3-.5.6 0 1 .2 1.4.5.3.4.4 1 .4 1.6 0 .6-.1 1.2-.5 1.5-.3.4-.7.6-1.3.6zm9 1h.4l.2-.4V328c0-.8-.2-1.4-.6-1.7-.3-.4-.8-.6-1.5-.6-.5 0-.9 0-1.2.2a2 2 0 00-.8.9v-3.2l-.1-.4h-.7l-.2.4v7.7l.1.3.4.2c.2 0 .3 0 .4-.2v-3.3c0-.5.2-1 .6-1.3.3-.3.7-.5 1.3-.5.4 0 .8.1 1 .4.2.2.3.6.3 1.1v3.3l.1.3.4.2zm2.9 0h.3l.1-.4v-7.7l-.1-.4h-.7l-.1.4v7.7l.1.3.4.2zm2.8-7.3l.4-.1.2-.5c0-.2 0-.3-.2-.4a.7.7 0 00-.4-.2c-.2 0-.4 0-.5.2l-.2.4c0 .2 0 .3.2.5l.5.1zm0 7.4c.1 0 .2 0 .3-.2l.1-.3v-5.1l-.1-.4-.3-.1-.4.1-.1.4v5l.1.4.4.2zm4.8 2.1c1 0 1.6-.2 2-.6.5-.5.7-1.1.7-2v-5.1l-.1-.4-.4-.1-.3.1-.2.4v.6a2 2 0 00-.8-.8c-.3-.2-.7-.3-1.2-.3s-1 0-1.3.3l-1 1c-.2.5-.3 1-.3 1.6 0 .6.1 1 .3 1.5a2.4 2.4 0 002.3 1.4c.5 0 1 0 1.3-.3.3-.2.6-.5.7-.9v1c0 .7-.1 1.1-.4 1.4-.3.3-.7.5-1.3.5-.4 0-.7 0-1-.2l-.8-.3-.4-.2-.3.1v.3c0 .2.1.4.4.5.6.4 1.3.5 2.1.5zm0-3.2c-.6 0-1-.2-1.4-.6-.3-.3-.5-.9-.5-1.5 0-.7.2-1.2.5-1.6.3-.3.8-.5 1.3-.5.6 0 1 .2 1.4.5.3.4.4 1 .4 1.6 0 .6-.1 1.2-.4 1.5-.4.4-.8.6-1.4.6zm9.1 1h.3l.2-.4V328c0-.8-.2-1.4-.5-1.7-.4-.4-1-.6-1.6-.6-.5 0-.9 0-1.2.2a2 2 0 00-.8.9v-3.2l-.1-.4h-.7l-.2.4v7.7c0 .1 0 .2.2.3l.3.2c.2 0 .3 0 .4-.2v-3.3c0-.5.3-1 .6-1.3.3-.3.7-.5 1.3-.5.4 0 .8.1 1 .4.2.2.3.6.3 1.1v3.3l.1.3.4.2zm4.8 0h.4l.2-.3c0-.3-.1-.4-.4-.4h-.3c-.4 0-.7-.2-.9-.4l-.2-1v-3h1.3l.3-.1.1-.3v-.3H289.4v-1.5c0-.1 0-.2-.2-.3l-.3-.1h-.4l-.1.4v1.4h-.8l-.3.1-.2.3c0 .1 0 .2.2.3h1.1v3.1c0 .7.1 1.2.4 1.5.4.4.8.6 1.5.6h.3zm3.5 0c.7 0 1.3 0 1.7-.4.5-.3.7-.7.7-1.2l-.2-.8-.7-.5a6 6 0 00-1.2-.4 5 5 0 01-.9-.3 1 1 0 01-.4-.3l-.1-.4c0-.3 0-.5.3-.7.2-.2.5-.2 1-.2h.7l.6.4.4.2h.3v-.3c0-.3 0-.5-.4-.6l-.7-.4a3.3 3.3 0 00-2.1.1 2 2 0 00-.8.6c-.2.3-.3.6-.3 1s.2.7.5 1c.3.3.8.5 1.5.6l1 .3c.2 0 .3.1.4.3l.1.4c0 .3 0 .5-.3.7l-1 .2a2.7 2.7 0 01-1.6-.5l-.5-.2-.2.1-.1.3v.3c.2 0 .3.2.4.3l.9.3 1 .2zM149.4 331.9c.2 0 .3 0 .4-.2l.1-.3v-.2l-3.5-7.7-.2-.2h-.6l-.3.2-3.4 7.7v.2l.1.3.3.2c.2 0 .4-.1.5-.3l.8-2h4.6l.8 2c.1.2.2.3.4.3zm-1.6-3.1H144l1.9-4.3 2 4.3zm5.8 3a3.4 3.4 0 001.8-.4l.3-.3v-.3-.3h-.5l-.2.1-.6.3-.7.2c-.6 0-1-.2-1.4-.6-.3-.4-.5-1-.5-1.7s.2-1.2.5-1.6c.3-.4.8-.6 1.4-.6l.7.1a3.9 3.9 0 01.7.4h.1l.2.1h.3v-.3-.4l-.4-.2-.7-.4-1-.1c-.5 0-1 .1-1.4.4-.5.2-.8.6-1 1-.3.5-.4 1-.4 1.6 0 .6.1 1.2.4 1.6.2.5.5.9 1 1.1.4.3.8.4 1.4.4zm5.9 0h.4l.2-.3c0-.3-.1-.4-.4-.4h-.4c-.3 0-.6-.2-.8-.4l-.2-1v-3h1.3l.3-.1.1-.3v-.3H158.2v-1.5c0-.1 0-.2-.2-.3l-.3-.1h-.4l-.1.4v1.4h-.8l-.3.1-.2.3c0 .1 0 .2.2.3h1.1v3.1c0 .7.1 1.2.4 1.5.3.4.8.6 1.5.6h.3zm2-7.3l.5-.1.2-.5c0-.2 0-.3-.2-.4a.7.7 0 00-.4-.2c-.2 0-.4 0-.5.2l-.2.4c0 .2 0 .3.2.5l.5.1zm0 7.4c.2 0 .3 0 .4-.2l.1-.3v-5.1l-.1-.4-.3-.1-.4.1-.1.4v5l.1.4.4.2zm4.8 0c.5 0 1-.1 1.5-.4.4-.2.7-.6 1-1 .2-.5.3-1 .3-1.7 0-.6-.1-1.1-.4-1.6-.2-.5-.5-.8-1-1-.4-.3-.9-.4-1.4-.4-.6 0-1 0-1.5.3-.4.3-.7.6-1 1.1-.2.5-.3 1-.3 1.6 0 .6.1 1.2.3 1.6.3.5.6.9 1 1.1.4.3 1 .4 1.5.4zm0-.8c-.6 0-1-.2-1.3-.6-.4-.4-.5-1-.5-1.7s.1-1.2.5-1.6c.3-.4.7-.6 1.3-.6.6 0 1 .2 1.3.6.3.4.5 1 .5 1.6 0 .8-.2 1.3-.5 1.7-.3.4-.7.6-1.3.6zm8.8.8c.2 0 .3 0 .4-.2l.1-.3V328c0-1.6-.7-2.3-2.1-2.3-.4 0-.8 0-1.2.3a2 2 0 00-.8.8v-.6l-.1-.4-.4-.1-.3.1-.2.4v5c0 .2 0 .3.2.4l.3.2c.2 0 .3 0 .4-.2l.1-.3v-3c0-.5.2-1 .5-1.3.3-.3.8-.5 1.3-.5s.8.1 1 .4c.2.2.3.6.3 1.2v3.2c0 .1 0 .2.2.3l.3.2zm4.3 0c.7 0 1.2-.2 1.7-.5.4-.3.6-.7.6-1.2 0-.3 0-.6-.2-.8-.1-.2-.3-.4-.6-.5a6 6 0 00-1.3-.4 5 5 0 01-.9-.3 1 1 0 01-.4-.3l-.1-.4c0-.3.1-.5.3-.7.3-.2.6-.2 1-.2h.7l.6.4c.2.2.4.2.5.2h.2v-.3c0-.3 0-.5-.3-.6l-.8-.4a3.3 3.3 0 00-2 .1 2 2 0 00-.9.6c-.2.3-.3.6-.3 1s.2.7.5 1c.3.3.8.5 1.5.6l1 .3c.2 0 .3.1.4.3l.2.4c0 .3-.2.5-.4.7l-1 .2a2.7 2.7 0 01-1.6-.5l-.4-.2-.3.1v.6l.3.3c.3.1.6.3 1 .3l1 .2z" fill="#B2AFBB" fill-rule="nonzero"/><path d="M26 330c1.5 0 2.5-.3 3.3-1 .8-.8 1.2-1.8 1.2-3.2 0-1.3-.4-2.4-1.2-3.1a4.5 4.5 0 00-3.2-1.1h-2.4l-.6.1-.2.6v7l.2.6.6.2H26zm0-1.2h-1.5v-6H26c2 0 2.9 1 2.9 3s-1 3-3 3zm8.7 1.4c.3 0 .6 0 1-.2a4 4 0 00.9-.3c.3-.2.4-.4.4-.7l-.1-.4-.3-.2-.6.2-.6.3-.7.1c-.5 0-1-.1-1.2-.4-.2-.2-.4-.7-.5-1.2h3.6c.3 0 .5-.2.5-.5 0-.6-.1-1.1-.4-1.5-.2-.5-.5-.8-.9-1-.4-.3-.8-.4-1.4-.4-.5 0-1 .1-1.5.4l-1 1c-.2.6-.3 1-.3 1.7 0 1 .2 1.7.8 2.2a3 3 0 002.3.9zm1-3.6H33c.1-.5.2-.9.5-1.1.2-.3.6-.4 1-.4s.7.1 1 .4c.1.2.3.6.3 1zm4.7 3.6a3 3 0 001.8-.5c.5-.4.7-.8.7-1.3 0-.4 0-.7-.2-.9-.1-.2-.3-.4-.6-.5-.3-.2-.8-.3-1.3-.4l-1-.3a.5.5 0 01-.3-.5c0-.2.1-.4.3-.5l.7-.2.6.1a5 5 0 011 .5h.2l.3-.1.1-.4c0-.3 0-.5-.3-.7a3 3 0 00-.9-.4 3.7 3.7 0 00-2.2.2 2 2 0 00-.9.6c-.2.3-.3.6-.3 1s.2.8.5 1c.3.3.8.5 1.5.7l1 .2.3.3.1.3c0 .2 0 .3-.2.4-.2.2-.5.2-.8.2a2.9 2.9 0 01-1.6-.4l-.5-.2c-.2 0-.3.1-.3.2l-.2.4c0 .3.1.5.4.6.5.4 1.2.6 2.1.6zm6.4 0a3.7 3.7 0 001.8-.6c.2 0 .3-.1.3-.2l.1-.4-.1-.4-.3-.2h-.3l-.3.2-.5.3h-.6c-.5 0-.9 0-1.1-.4-.3-.3-.4-.8-.4-1.4 0-.6.1-1 .4-1.4.2-.3.6-.5 1.1-.5h.6c.1.2.3.2.5.3l.3.2h.3l.3-.1.1-.4c0-.3-.1-.5-.4-.7-.2-.1-.5-.3-.8-.3a3.5 3.5 0 00-2.5.2c-.5.3-.9.6-1.1 1.1-.3.5-.4 1-.4 1.6 0 .6.1 1.2.4 1.6.2.5.6.8 1 1 .5.3 1 .5 1.6.5zm4 0l.5-.2c.2-.2.2-.4.2-.6V327c0-.4.1-.8.4-1 .2-.3.5-.5 1-.5h.4l.5-.3c.1 0 .2-.2.2-.5 0-.2 0-.3-.2-.4l-.5-.2h-.2a2 2 0 00-1 .4c-.3.2-.5.4-.6.8v-.5l-.2-.5a.7.7 0 00-.5-.2l-.6.2-.2.5v4.7c0 .2 0 .4.2.6l.6.1zm4.6-7.2c.3 0 .5-.1.6-.3.2-.1.3-.3.3-.5 0-.3-.1-.5-.3-.6a1 1 0 00-.6-.2 1 1 0 00-.7.2l-.2.6c0 .2 0 .4.2.5.2.2.4.3.7.3zm0 7.1l.5-.1c.2-.2.2-.4.2-.6v-4.6c0-.3 0-.5-.2-.6a.8.8 0 00-.5-.2l-.5.2c-.2.1-.3.3-.3.6v4.6l.3.6.5.1zm3 2.2c.3 0 .5 0 .6-.2l.2-.5v-2.4c.2.3.4.5.8.7.3.2.7.3 1 .3.6 0 1-.2 1.5-.4.3-.3.7-.6.9-1 .2-.5.3-1 .3-1.7 0-.6-.1-1.1-.3-1.6-.2-.5-.6-.8-1-1-.4-.4-.8-.5-1.3-.5l-1.2.3c-.3.2-.5.4-.7.8v-.3c0-.3 0-.4-.2-.6a.8.8 0 00-.6-.2l-.5.2-.2.6v6.8c0 .2 0 .4.2.5l.6.2zm2.3-3.3c-.5 0-.9-.2-1.1-.5-.3-.3-.4-.8-.4-1.4 0-.6.1-1 .4-1.4.2-.3.6-.5 1-.5.6 0 1 .2 1.2.5.3.3.4.8.4 1.4 0 .6-.1 1-.4 1.4-.3.3-.6.5-1.1.5zm7 1.1l.6-.1c.2-.1.3-.2.3-.4 0-.4-.2-.6-.6-.6h-.4c-.5 0-.8-.4-.8-1v-2.7h1l.6-.1.1-.5-.1-.4a.8.8 0 00-.5-.1h-1V323c0-.3-.1-.4-.3-.6a.8.8 0 00-.5-.2l-.6.2-.2.6v1h-.6l-.5.2-.2.4.2.5.5.1h.6v2.6c0 1.4.7 2.1 2 2.2h.4zM70 323c.3 0 .5-.1.7-.3l.2-.5c0-.3 0-.5-.2-.6a1 1 0 00-.7-.2 1 1 0 00-.6.2c-.2.1-.3.3-.3.6 0 .2 0 .4.3.5.1.2.3.3.6.3zm0 7.1l.5-.1.3-.6v-4.6c0-.3-.1-.5-.3-.6a.8.8 0 00-.5-.2l-.5.2c-.2.1-.2.3-.2.6v4.6c0 .2 0 .4.2.6l.5.1zm5 0c.6 0 1.1 0 1.6-.3.4-.3.8-.6 1-1 .3-.6.4-1 .4-1.7 0-.6-.1-1.2-.4-1.6-.2-.5-.6-.9-1-1.1-.5-.3-1-.4-1.6-.4-.6 0-1.1.1-1.6.4-.4.2-.8.6-1 1-.3.5-.4 1-.4 1.7 0 .6.1 1.1.4 1.6.2.5.6.8 1 1 .5.3 1 .5 1.6.5zm0-1.1c-.5 0-.9-.2-1.1-.5-.3-.3-.4-.8-.4-1.4 0-.6.1-1.1.4-1.4.3-.4.6-.5 1.1-.5.5 0 .9.1 1.1.5.3.3.4.8.4 1.4 0 .6-.1 1-.4 1.4-.2.3-.6.5-1.1.5zm9 1.1c.3 0 .4 0 .6-.2l.2-.5v-3c0-.8-.2-1.4-.5-1.8-.4-.4-1-.6-1.6-.6l-1.2.3a2 2 0 00-.8.7v-.3c0-.2 0-.3-.2-.5a.7.7 0 00-.5-.2l-.5.2c-.2.2-.2.3-.2.5v4.7c0 .2 0 .4.2.5 0 .2.3.2.5.2s.4 0 .6-.2l.2-.5v-2.7c0-.4 0-.8.4-1 .2-.3.6-.5 1-.5s.6.1.8.3c.2.2.3.6.3 1v3c0 .1 0 .3.2.4.1.2.3.2.5.2z" fill="#1C1C3B" fill-rule="nonzero"/><g transform="translate(0 342.4)"><rect stroke="#645BD4" stroke-width=".9" fill="#645BD4" x="-.4" y="-.4" width="108.5" height="2.6" rx=".9"/></g><path stroke="#A6ABBD" stroke-width=".9" opacity=".2" stroke-linecap="square" d="M107.2 318.6v15.5M214.8 318.6v15.5"/></g><path d="M80.5 460.1l.4-.1.1-.4v-2.5h2.8c.3 0 .4-.2.4-.4 0-.3-.1-.4-.4-.4H81v-2.1h3c.2 0 .4-.2.4-.4 0-.3-.2-.4-.5-.4h-3.4l-.3.1-.1.4v5.7l.1.4.3.1zm5.2 0l.3-.1.1-.3v-2.2c0-.4.1-.6.3-.9.2-.2.5-.4.9-.4h.3c.2 0 .3 0 .3-.2.1 0 .2-.1.2-.3 0-.2-.2-.4-.5-.4h-.1l-.9.3-.5.6v-.4l-.1-.3-.3-.2c-.2 0-.3 0-.4.2l-.1.3v3.9l.1.3.4.1zm5 0a3 3 0 001.4-.4c.3 0 .4-.2.4-.4l-.1-.3-.2-.1h-.3l-.1.1-.5.3h-.7c-.8 0-1.3-.4-1.4-1.4h3c.2 0 .3-.1.3-.4 0-.6-.2-1.2-.5-1.6-.4-.4-.9-.6-1.5-.6l-1.2.3a2 2 0 00-.7.9c-.2.3-.3.8-.3 1.2 0 .8.2 1.4.6 1.8.4.4 1 .6 1.7.6zm1-2.7h-2.5c0-.5.2-.8.4-1 .3-.3.5-.4 1-.4.3 0 .6.1.8.4.2.2.3.5.3 1zm5.6 4.4l.4-.1.1-.3v-5.6l-.1-.3-.4-.2c-.1 0-.2 0-.3.2l-.1.3v.4l-.6-.6c-.3-.2-.6-.3-1-.3a2 2 0 00-1.7 1.2 3 3 0 00-.3 1.3c0 .4 0 .8.2 1.2a2 2 0 001.8 1.1c.4 0 .7 0 1-.2l.6-.6v2.4l.4.1zm-1.7-2.4c-.4 0-.8-.2-1-.4-.2-.3-.3-.7-.3-1.2 0-.6 0-1 .3-1.3.2-.3.6-.4 1-.4s.7.1 1 .4c.2.3.3.7.3 1.2 0 .6-.1 1-.4 1.2-.2.3-.5.5-1 .5zm5.2.7c.3 0 .6 0 .9-.2l.6-.6v.4l.1.3.3.1.4-.1.1-.3v-3.9l-.1-.3-.4-.2c-.1 0-.2 0-.3.2l-.1.3v2.2c0 .4-.2.8-.4 1-.2.2-.5.4-.9.4-.3 0-.5-.1-.7-.3l-.2-.8v-2.5l-.1-.3-.4-.2c-.1 0-.3 0-.3.2l-.2.3v2.5c0 1.2.6 1.8 1.7 1.8zm5.8 0a3 3 0 001.5-.4c.3 0 .4-.2.4-.4l-.1-.3-.2-.1h-.3l-.1.1-.5.3h-.7c-.8 0-1.3-.4-1.4-1.4h3c.2 0 .3-.1.3-.4 0-.6-.2-1.2-.5-1.6-.4-.4-.9-.6-1.5-.6l-1.2.3a2 2 0 00-.7.9c-.2.3-.3.8-.3 1.2 0 .8.2 1.4.6 1.8.4.4 1 .6 1.7.6zm1-2.7h-2.4c0-.5.2-.8.4-1 .3-.3.5-.4 1-.4.3 0 .6.1.8.4.2.2.3.5.3 1zm5.6 2.7l.4-.1.1-.3v-2.5c0-1.3-.6-1.9-1.7-1.9a2 2 0 00-.9.2c-.2.2-.5.4-.6.7v-.4l-.1-.3-.4-.2c-.1 0-.2 0-.3.2l-.1.3v4.2l.4.1.4-.1.1-.3v-2.3c0-.4.1-.7.4-1 .2-.2.5-.3.9-.3.3 0 .6 0 .7.3.2.2.2.4.2.8v2.5c0 .1 0 .2.2.3l.3.1zm3.8 0h.8l.6-.4.3-.2v-.2-.3l-.3-.1h-.2l-.2.2-.4.2h-.5c-.4 0-.8 0-1-.4-.2-.2-.4-.6-.4-1.2 0-.5.2-.9.4-1.2.2-.3.6-.4 1-.4h.5l.4.3.2.1h.4l.1-.3c0-.2 0-.3-.3-.5l-.6-.3h-.8c-.4 0-.8 0-1.2.2a2 2 0 00-.8.9c-.2.3-.3.8-.3 1.3l.3 1.2c.2.4.5.6.8.8.3.2.7.3 1.2.3zm4.7 0a3 3 0 001.5-.4c.2 0 .3-.2.3-.4v-.3l-.3-.1h-.2l-.2.1-.5.3h-.6c-.9 0-1.4-.4-1.4-1.4h2.9c.2 0 .3-.1.3-.4 0-.6-.1-1.2-.5-1.6-.4-.4-.8-.6-1.5-.6a2 2 0 00-2 1.2l-.2 1.2c0 .8.2 1.4.7 1.8.4.4 1 .6 1.7.6zm1-2.7h-2.4c0-.5.2-.8.4-1 .2-.3.5-.4.9-.4.3 0 .6.1.8.4.2.2.3.5.3 1z" fill="#777486" fill-rule="nonzero" mask="url(#A)"/><path d="M84.9 477.3l.4-.1c.2-.1.2-.2.2-.4s0-.3-.2-.4a.7.7 0 00-.4-.1h-3V474h2.8l.4-.1.2-.4c0-.2 0-.3-.2-.4a.7.7 0 00-.4-.1h-2.9v-2h3c.3 0 .4 0 .5-.2.2 0 .2-.2.2-.4 0-.1 0-.3-.2-.3a.7.7 0 00-.4-.2h-3.7c-.2 0-.4 0-.5.2l-.2.5v6c0 .2 0 .3.2.4 0 .2.3.2.5.2h3.7zm3.6 0h.4l.3-.3 1.9-4v-.3l-.1-.4a.7.7 0 00-.5-.1h-.3l-.2.3-1.4 3.2-1.5-3.2c0-.2-.3-.3-.5-.3l-.5.1-.2.4v.3l2 4 .3.3h.3zm5.7.1l.8-.1.8-.3c.3-.2.4-.4.4-.6v-.3l-.4-.2-.4.2-.6.2-.6.1c-.4 0-.7-.1-1-.3l-.4-1h3c.3 0 .5-.2.5-.5 0-.5-.1-1-.3-1.3a2 2 0 00-.8-.9c-.3-.2-.7-.3-1.2-.3s-.9.1-1.3.4c-.3.2-.6.5-.8.9a3 3 0 00-.3 1.4c0 .8.2 1.4.7 1.9.4.5 1 .7 1.9.7zm1-3h-2.4c0-.5.2-.8.4-1 .2-.2.5-.4.8-.4.4 0 .7.1.9.4l.3 1zm2.8 3c.1 0 .3 0 .4-.2.2 0 .2-.2.2-.4v-2.2c0-.4.1-.7.3-.9.2-.2.5-.4.9-.4h.3l.5-.2.1-.4-.1-.4c-.1-.1-.3-.2-.5-.1h-.1c-.3 0-.6 0-.9.2l-.5.7v-.4l-.2-.4a.6.6 0 00-.4-.1l-.5.1-.2.5v4c0 .2 0 .3.2.4l.5.2zm4.8 1.8c.3 0 .5 0 .6-.3l2.8-6v-.2l-.1-.4a.7.7 0 00-.5-.1h-.3l-.2.3-1.4 3.2-1.5-3.2-.2-.3h-.3l-.5.1-.2.4v.3l2 4-.7 1.4v.3l.1.4.4.1zm6.1-1.8c.4 0 .7 0 1-.2.3-.2.5-.4.6-.7v.3l.2.4.5.2c.2 0 .3 0 .4-.2.2-.1.2-.3.2-.4v-6.2c0-.2 0-.4-.2-.5a.7.7 0 00-.4-.1l-.5.1-.2.4v2.5c-.1-.3-.3-.5-.6-.6a2 2 0 00-1-.3c-.4 0-.8.1-1.2.4-.3.2-.6.5-.8.9l-.2 1.3c0 .6 0 1 .2 1.4l.8 1 1.2.3zm.3-1c-.4 0-.7-.2-.9-.4a2 2 0 01-.3-1.3c0-.5 0-.9.3-1.2.2-.2.5-.4 1-.4.4 0 .7.2.9.5.2.2.3.6.3 1.2 0 .5 0 .9-.3 1.2-.2.3-.5.4-1 .4zm5.6 1c.3 0 .6 0 .8-.2.3-.2.5-.4.6-.7v.3c0 .1 0 .3.2.4l.4.2c.2 0 .3 0 .5-.2l.1-.4v-2.6c0-.7-.1-1.2-.5-1.5-.3-.4-.9-.6-1.6-.6a4.4 4.4 0 00-1.8.5l-.3.2v.7h.7l.8-.3h.6l.7.1.2.8v.2h-.3c-.7 0-1.3 0-1.7.2-.5 0-.8.2-1 .4l-.2 1c0 .2 0 .5.2.7l.6.6 1 .2zm.2-1l-.5-.1a.7.7 0 01-.3-.6c0-.2 0-.3.2-.4l.5-.2h1.3v.1c0 .4-.1.7-.3 1-.3.2-.5.3-.9.3zm5 2.8c.2 0 .4 0 .5-.3l2.8-6 .1-.2c0-.1 0-.3-.2-.4a.7.7 0 00-.4-.1h-.3l-.2.3-1.5 3.2-1.4-3.2-.3-.3h-.3l-.4.1c-.2.1-.2.3-.2.4v.3l2 4-.8 1.4v.3c0 .2 0 .3.2.4l.4.1z" fill="#645BD4" fill-rule="nonzero" mask="url(#A)"/><path d="M17.3 460c1 0 2-.2 2.5-.8.6-.6.9-1.4.9-2.5 0-1-.3-1.9-.9-2.4-.6-.6-1.4-1-2.5-1h-1.9l-.3.2-.1.4v6l.4.2h1.9zm0-.7h-1.4v-5.1h1.3c1.7 0 2.5.8 2.5 2.5s-.8 2.6-2.5 2.6zm5-4.9l.5-.1.2-.4c0-.2 0-.3-.2-.4a.6.6 0 00-.4-.2c-.2 0-.3 0-.4.2-.2 0-.2.2-.2.4 0 .1 0 .3.2.4l.4.1zm0 5.7l.4-.1.2-.3v-3.9c0-.1 0-.3-.2-.3l-.3-.2c-.1 0-.3 0-.4.2v4.5l.4.1zm2.7 0l.3-.1.2-.3v-3.5h.9l.3-.1.1-.3-.1-.3h-1.3v-.3c0-.4.1-.6.3-.8.1-.2.4-.3.7-.3h.2c.3 0 .4-.2.4-.4l-.1-.3h-.7c-.5 0-1 .2-1.3.5a2 2 0 00-.4 1.4v.1h-.6l-.3.1v.6H24.5v3.6l.1.3.4.1zm6.1-5.7l.5-.1.1-.4c0-.2 0-.3-.2-.4a.6.6 0 00-.4-.2c-.2 0-.3 0-.4.2l-.2.4c0 .1 0 .3.2.4l.4.1zm0 5.7l.4-.1v-4.2-.3h-2.8v-.3c0-.4 0-.6.2-.8.1-.2.4-.3.7-.3h.2c.2 0 .4-.2.4-.4s-.2-.3-.4-.3h-.4c-.5 0-1 .2-1.3.6a2 2 0 00-.4 1.3v.1h-.6l-.3.1v.6H27.7v3.6l.1.3.4.1.3-.1.2-.3v-3.5h2v3.8l.4.1zm3.8 0h.8l.6-.4.3-.2v-.2-.3l-.3-.1h-.1l-.3.2-.4.2H35c-.4 0-.8 0-1-.4-.2-.2-.3-.6-.3-1.2 0-.5 0-.9.3-1.2.2-.3.6-.4 1-.4h.5l.4.3.3.1H36.5l.1-.3c0-.2 0-.3-.3-.5l-.6-.3H35c-.5 0-.9 0-1.2.2a2 2 0 00-.9.9l-.2 1.3c0 .4 0 .8.2 1.2.2.4.5.6.8.8l1.2.3zm4.3 0c.3 0 .6 0 .8-.2.3-.1.5-.3.6-.6v.4l.1.3.4.1.3-.1.2-.3v-3.9c0-.1 0-.3-.2-.3l-.3-.2c-.2 0-.3 0-.4.2l-.1.3v2.2c0 .4-.1.8-.3 1-.3.2-.6.4-1 .4-.2 0-.5-.1-.6-.3-.2-.2-.3-.5-.3-.8v-2.5-.3l-.4-.2c-.2 0-.3 0-.4.2l-.1.3v2.5c0 1.2.5 1.8 1.7 1.8zm4.2 0l.3-.1.1-.3v-5.9-.3l-.4-.2c-.2 0-.3 0-.4.2l-.1.3v5.9l.1.3.4.1zm4 0h.4l.2-.4-.1-.2-.3-.1h-.3l-.6-.3-.1-.6v-2.3h.9l.3-.1.1-.3v-.3h-1.4v-1-.4l-.4-.1-.4.1v1.4H45h-.3v.3c0 .3 0 .4.3.4h.6v2.2c0 .5.1 1 .4 1.2.2.3.6.5 1.1.5h.3zm2.4 1.7h.2l.2-.3 2.6-5.5v-.2-.3a.5.5 0 00-.6 0l-.2.1-1.4 3.3-1.5-3.3c-.1-.2-.2-.2-.4-.2h-.4l-.1.4v.2l1.9 3.8-.7 1.4v.5l.4.1z" fill="#777486" fill-rule="nonzero" mask="url(#A)"/><path d="M27.5 477.3l.5-.1.1-.4-.1-.4a.7.7 0 00-.5-.1h-3V474h2.8l.5-.1.1-.4-.1-.4a.7.7 0 00-.5-.1h-2.9v-2h3.1c.2 0 .4 0 .5-.2l.1-.4-.1-.3a.7.7 0 00-.5-.2h-3.7c-.2 0-.4 0-.5.2l-.2.5v6c0 .2 0 .3.2.4.1.2.3.2.5.2h3.7zm3.2.1c.3 0 .6 0 .9-.2l.5-.7v.3l.2.4.5.2c.1 0 .3 0 .4-.2l.2-.4v-2.6c0-.7-.2-1.2-.5-1.5-.4-.4-.9-.6-1.6-.6a4.4 4.4 0 00-1.9.5l-.2.2-.1.3v.4h.8l.7-.3h.6l.7.1c.2.2.2.4.2.8v.2H32c-.8 0-1.4 0-1.8.2-.4 0-.7.2-1 .4l-.2 1c0 .2 0 .5.2.7.2.3.4.5.7.6l1 .2zm.3-1l-.6-.1a.7.7 0 01-.2-.6l.1-.4.6-.2H32v.1c0 .4 0 .7-.3 1-.2.2-.5.3-.8.3zm5.5 1c.7 0 1.2-.1 1.6-.4.4-.3.6-.7.6-1.2l-.2-.7c-.1-.2-.3-.3-.6-.4a5 5 0 00-1-.4l-1-.2a.4.4 0 01-.2-.4c0-.2.1-.3.3-.5l.6-.1h.5a4.3 4.3 0 01.8.4h.5l.1-.4c0-.2-.1-.4-.3-.5l-.8-.4a3.2 3.2 0 00-1.9.1l-.7.6c-.2.2-.3.5-.3.8 0 .4.2.7.4 1 .3.2.7.4 1.3.5l.8.2.4.2v.3c0 .1 0 .3-.2.4l-.7.1a2.5 2.5 0 01-1.3-.3l-.4-.2c-.2 0-.2 0-.3.2l-.1.3c0 .2 0 .4.3.6.5.2 1 .4 1.8.4zm4.4 1.8c.2 0 .4 0 .5-.3l2.8-6 .1-.2c0-.1 0-.3-.2-.4a.7.7 0 00-.4-.1h-.3l-.3.3-1.4 3.2-1.4-3.2-.3-.3h-.3l-.4.1c-.2.1-.2.3-.2.4v.3l2 4-.8 1.4v.3l.1.4.5.1zM211.5 477.3c.4 0 .6-.2.6-.5 0-.4-.2-.6-.6-.6h-1v-5.6c0-.2-.1-.3-.3-.5a.6.6 0 00-.4-.1c-.2 0-.4 0-.6.2l-1.6 1c-.2 0-.3.2-.3.4s0 .3.2.4c0 .2.2.2.3.2h.3l1-.7v4.7h-1c-.5 0-.7.2-.7.6 0 .3.2.5.6.5h3.5zm11.6 0h.4l.2-.5v-2.6c0-.7-.1-1.3-.4-1.6-.3-.3-.7-.5-1.3-.5a2 2 0 00-1 .3l-.7.7c-.2-.7-.7-1-1.5-1l-1 .2-.5.7v-.3l-.2-.4a.6.6 0 00-.5-.1l-.4.1-.2.5v4c0 .2 0 .3.2.4l.4.2c.2 0 .4 0 .5-.2l.2-.4v-2.4c0-.4 0-.7.3-.9.2-.2.4-.3.8-.3.3 0 .5 0 .6.2l.2.8v2.6c0 .2 0 .3.2.4l.5.2c.1 0 .3 0 .4-.2l.2-.4v-2.4c0-.4 0-.7.3-.9.2-.2.5-.3.8-.3.3 0 .5 0 .6.2l.2.8v2.6c0 .2 0 .3.2.4l.5.2zm4.2.1c.5 0 1-.1 1.4-.3.4-.2.7-.5.9-1 .2-.3.3-.8.3-1.3 0-.6-.1-1-.3-1.4-.2-.4-.5-.7-1-1-.3-.2-.8-.3-1.3-.3s-1 .1-1.3.4c-.4.2-.7.5-1 .9-.2.4-.3.8-.3 1.4 0 .5.1 1 .4 1.4.2.4.5.7.9.9.4.2.8.3 1.3.3zm0-1c-.4 0-.7-.1-1-.4-.2-.3-.3-.7-.3-1.2 0-.6.1-1 .4-1.3.2-.2.5-.4 1-.4.3 0 .7.2.9.4.2.3.3.7.3 1.3 0 .5-.1.9-.3 1.2-.2.3-.6.4-1 .4zm7.8 1c.2 0 .3 0 .4-.2l.2-.4v-2.6c0-.7-.2-1.2-.5-1.6-.2-.3-.7-.5-1.3-.5a2 2 0 00-1 .3c-.3.1-.5.3-.7.6v-.3c0-.1 0-.3-.2-.4a.6.6 0 00-.4-.1l-.5.1-.1.5v4l.1.4.5.2c.2 0 .4 0 .5-.2l.2-.4v-2.4c0-.3 0-.7.3-.9.2-.2.5-.3.9-.3.3 0 .5 0 .7.2l.2.9v2.5c0 .1 0 .3.2.4l.5.2zm4.3 0l.5-.1c.2-.1.2-.3.2-.4 0-.3-.1-.5-.5-.5h-.3c-.4 0-.7-.3-.7-.8v-2.4h1l.4-.1.1-.4-.1-.3a.7.7 0 00-.5-.1h-.9v-1l-.1-.4a.7.7 0 00-.5-.2c-.2 0-.4 0-.5.2l-.1.4v1h-1l-.1.4.1.4.4.1h.6v2.3c0 1.1.5 1.8 1.7 1.8h.3zm5.5 0c.2 0 .4 0 .5-.2l.1-.4v-2.6c0-1.4-.5-2-1.7-2l-1 .1-.7.7v-2.5c0-.1 0-.3-.2-.4a.7.7 0 00-.4-.1l-.5.1-.2.5v6.2c0 .1 0 .3.2.4l.5.2c.2 0 .3 0 .4-.2l.2-.4v-2.4c0-.3.1-.7.3-.9.3-.2.6-.3 1-.3.3 0 .5 0 .6.2.2.2.3.4.3.8v2.6l.1.4.5.2z" fill="#645BD4" fill-rule="nonzero" mask="url(#A)"/><path d="M211.3 460.1l.4-.1.1-.4v-5.8l-.1-.3-.4-.2c-.1 0-.2 0-.3.2l-.1.3v2.5H207v-2.5l-.1-.3-.4-.2c-.1 0-.2 0-.3.2l-.1.3v6.2l.4.1.4-.1.1-.4v-2.5h3.8v2.9l.4.1zm4 0c.4 0 .8 0 1.2-.3.3-.2.6-.4.8-.8l.2-1.3c0-.5 0-.9-.2-1.2a2 2 0 00-.8-.9l-1.2-.3c-.5 0-.9.1-1.2.3a2 2 0 00-.8.9c-.2.3-.3.7-.3 1.2s0 1 .3 1.3c.2.4.4.6.8.8.3.2.7.3 1.2.3zm0-.7c-.5 0-.8-.2-1-.4-.2-.3-.3-.7-.3-1.3 0-.5 0-.9.3-1.2.2-.3.6-.4 1-.4s.7.1 1 .4c.2.3.3.7.3 1.2 0 .6-.1 1-.4 1.3-.2.2-.5.4-1 .4zm8.3.7h.3l.2-.3 1.5-3.8v-.2-.3l-.4-.1c-.2 0-.3 0-.4.2l-1.2 3.2-1.2-3.1-.2-.3a.5.5 0 00-.5 0l-.2.3-1.3 3.2-1.2-3.3c0-.2-.2-.2-.4-.2h-.3a.4.4 0 00-.2.6l1.6 3.8.2.2a.6.6 0 00.6 0l.2-.2 1.2-3 1.2 3 .2.2.3.1zm6 0l.3-.1.1-.3v-5.9l-.1-.3-.3-.2c-.2 0-.3 0-.4.2l-.1.3v5.9l.1.3.4.1zm3.8 0c.4 0 .8 0 1.2-.3.3-.2.6-.4.8-.8.2-.4.2-.8.2-1.3s0-.9-.2-1.2a2 2 0 00-.8-.9l-1.2-.3c-.5 0-.9.1-1.2.3a2 2 0 00-.8.9c-.2.3-.3.7-.3 1.2s0 1 .3 1.3c.2.4.4.6.8.8.3.2.7.3 1.2.3zm0-.7c-.5 0-.8-.2-1-.4-.2-.3-.3-.7-.3-1.3 0-.5 0-.9.3-1.2.2-.3.6-.4 1-.4s.7.1 1 .4c.2.3.3.7.3 1.2 0 .6-.1 1-.4 1.3-.2.2-.5.4-1 .4zm7 .7l.3-.1.2-.3v-2.5c0-1.3-.6-1.9-1.7-1.9a2 2 0 00-1 .2l-.6.7v-.4-.3l-.4-.2c-.2 0-.3 0-.4.2l-.1.3v3.9l.1.3.4.1.3-.1.2-.3v-2.3c0-.4 0-.7.3-1 .2-.2.6-.3 1-.3.3 0 .5 0 .7.3l.2.8v2.5l.1.3.4.1zm3.8 1.7c.8 0 1.3-.1 1.7-.5.4-.4.6-.9.6-1.6v-3.9c0-.1 0-.2-.2-.3l-.3-.2c-.2 0-.3 0-.4.2v.7c-.2-.3-.4-.5-.7-.6a2 2 0 00-2 0 2 2 0 00-.7.8l-.3 1.2c0 .5 0 .9.3 1.2.1.4.4.7.7.8.3.2.7.3 1 .3.4 0 .7 0 1-.2.3-.2.5-.4.6-.7v.8c0 .9-.4 1.3-1.3 1.3l-.7-.1-.6-.2a1 1 0 00-.4-.2l-.2.1-.1.3c0 .2.1.3.3.5.5.2 1 .3 1.7.3zm0-2.6c-.4 0-.7-.2-1-.4-.2-.3-.3-.7-.3-1.2s0-.8.3-1.1c.3-.3.6-.4 1-.4s.7.1 1 .4c.2.3.3.7.3 1.1 0 .5-.1.9-.3 1.2-.3.2-.6.4-1 .4z" fill="#777486" fill-rule="nonzero" mask="url(#A)"/><path d="M281.9 477.4c.5 0 1 0 1.5-.3.4-.1.7-.4 1-.7.2-.4.3-.7.3-1.2 0-.4 0-.7-.3-1l-.9-.6-1.5-.5c-.5 0-1-.2-1.2-.4a.7.7 0 01-.4-.6c0-.4.2-.6.5-.8a2 2 0 011-.3l1 .1.9.5.2.1h.2l.3-.1.1-.4v-.3l-.2-.2c-.6-.5-1.4-.8-2.4-.8-.6 0-1 .1-1.5.3-.4.2-.8.5-1 .8a2 2 0 00-.4 1.2c0 .4.1.7.3 1 .2.2.5.5.9.6l1.5.5 1.2.4c.3.1.4.3.4.6s-.1.6-.4.8c-.3.2-.7.2-1.2.2l-1-.1-1-.5a.8.8 0 00-.4-.1l-.3.1-.1.4c0 .2 0 .4.2.5.3.3.7.5 1.2.6l1.5.2zm6.2 0c.6 0 1-.1 1.4-.3.4-.2.7-.5.9-1 .2-.3.3-.8.3-1.3 0-.6-.1-1-.3-1.4-.2-.4-.5-.7-1-1-.3-.2-.7-.3-1.3-.3-.5 0-1 .1-1.3.4-.4.2-.7.5-1 .9l-.2 1.4c0 .5 0 1 .3 1.4.2.4.5.7.9.9.4.2.8.3 1.3.3zm0-1c-.4 0-.7-.1-1-.4-.1-.3-.3-.7-.3-1.2 0-.6.2-1 .4-1.3.2-.2.5-.4 1-.4.3 0 .7.2.9.4.2.3.3.7.3 1.3 0 .5 0 .9-.3 1.2-.2.3-.6.4-1 .4zm4.3 1c.2 0 .4 0 .5-.2l.2-.4v-6.2l-.2-.5a.7.7 0 00-.5-.1l-.4.1c-.2.1-.2.3-.2.5v6.2c0 .2 0 .3.2.4l.4.2zm4.3 0c.5 0 1-.1 1.4-.3.4-.2.7-.5.9-1 .2-.3.3-.8.3-1.3 0-.6-.1-1-.3-1.4-.2-.4-.5-.7-1-1-.3-.2-.8-.3-1.3-.3s-1 .1-1.4.4l-.9.9c-.2.4-.3.8-.3 1.4 0 .5.1 1 .3 1.4a2.8 2.8 0 002.3 1.2zm0-1c-.4 0-.7-.1-1-.4-.2-.3-.3-.7-.3-1.2 0-.6.1-1 .3-1.3.3-.2.6-.4 1-.4s.7.2 1 .4c.2.3.3.7.3 1.3 0 .5-.1.9-.3 1.2-.3.3-.6.4-1 .4z" fill="#645BD4" fill-rule="nonzero" mask="url(#A)"/><path d="M274.7 460.1l.3-.1.2-.4v-2.2h1.8c.7 0 1.2-.2 1.6-.5.4-.4.6-.9.6-1.5 0-.7-.2-1.2-.6-1.5-.4-.3-1-.5-1.6-.5h-2.3l-.4.1-.1.4v5.7l.1.4.4.1zm2.2-3.5h-1.7v-2.4h1.7c.9 0 1.4.4 1.4 1.2 0 .8-.5 1.2-1.4 1.2zm3.8 3.5l.4-.1.1-.3v-5.9l-.1-.3-.4-.2s-.2 0-.3.2l-.1.3v5.9l.1.3.3.1zm3.3 0c.3 0 .6 0 .9-.2.2-.1.4-.3.5-.6v.4l.1.3.3.1.4-.1.1-.3v-2.5c0-.6-.1-1.1-.4-1.4-.3-.3-.8-.5-1.4-.5a3.6 3.6 0 00-1.6.4c-.2 0-.3.2-.3.2v.6H283.2l.6-.3.7-.1c.3 0 .5 0 .7.2l.2.8v.3h-1.9l-.9.5-.2.8c0 .3 0 .5.2.7.2.3.4.4.6.5.3.2.5.2.8.2zm.2-.7c-.2 0-.4 0-.6-.2a.7.7 0 01-.3-.6l.2-.4.6-.2 1.1-.1h.2v.3l-.3.9-.9.3zm4.5 2.4h.2l.2-.3 2.6-5.5v-.2-.3a.5.5 0 00-.6 0l-.2.1-1.5 3.3-1.4-3.3c-.1-.2-.2-.2-.4-.2h-.4l-.1.4v.2l1.8 3.8-.6 1.4v.5l.4.1zm5.9-1.7a3 3 0 001.5-.4c.2 0 .3-.2.3-.4v-.3l-.3-.1h-.2l-.2.1-.5.3h-.6c-.9 0-1.4-.4-1.4-1.4h2.9c.2 0 .3-.1.3-.4 0-.6-.1-1.2-.5-1.6-.4-.4-.8-.6-1.5-.6a2 2 0 00-2 1.2l-.2 1.2c0 .8.2 1.4.6 1.8.5.4 1 .6 1.8.6zm1-2.7h-2.4c0-.5.1-.8.4-1 .2-.3.5-.4.9-.4.3 0 .6.1.8.4.2.2.3.5.3 1zm2.4 2.7l.3-.1.1-.3v-2.2c0-.4.1-.6.3-.9.2-.2.5-.4 1-.4h.2c.2 0 .3 0 .4-.2v-.3c0-.2 0-.4-.4-.4h-.1c-.3 0-.6.2-.8.3l-.6.6v-.4l-.1-.3-.3-.2c-.2 0-.3 0-.4.2l-.1.3v3.9l.1.3.4.1zm4.5 0c.6 0 1 0 1.4-.3.3-.3.5-.6.5-1l-.1-.7-.6-.4-1-.3c-.4 0-.6-.2-.8-.3a.5.5 0 01-.2-.4c0-.2 0-.3.2-.5l.7-.1h.5l.5.3.2.1h.4l.1-.3c0-.2-.1-.3-.3-.5a2 2 0 00-.6-.3 2.8 2.8 0 00-1.7.1l-.7.5-.2.7c0 .4.1.7.3.9l1.2.5.8.2.3.2.1.3c0 .2 0 .3-.2.4l-.8.2a2 2 0 01-.6-.1 4 4 0 01-.6-.2 1 1 0 00-.4-.2l-.2.1v.5l.2.2c.4.3 1 .4 1.6.4z" fill="#777486" fill-rule="nonzero" mask="url(#A)"/><path d="M154.4 477.4c.1 0 .3 0 .4-.2l.2-.4v-6.2l-.2-.5a.6.6 0 00-.5-.1c-.2 0-.4.1-.6.4l-2.3 4.4-2.3-4.4c-.1-.3-.3-.4-.6-.4l-.5.1-.1.5v6.2l.1.4.4.2c.2 0 .4 0 .5-.2l.1-.4v-4.3l1.8 3.3c0 .2.2.3.3.4h.7l.2-.4 1.8-3.3v4.3l.1.4.5.2zm4.3 0c.5 0 1-.1 1.4-.3.4-.2.7-.5.9-1 .2-.3.3-.8.3-1.3 0-.6-.1-1-.3-1.4-.2-.4-.5-.7-1-1-.3-.2-.8-.3-1.3-.3s-1 .1-1.3.4c-.4.2-.7.5-1 .9-.1.4-.3.8-.3 1.4 0 .5.2 1 .4 1.4.2.4.5.7.9.9.4.2.8.3 1.3.3zm0-1c-.4 0-.7-.1-1-.4-.2-.3-.3-.7-.3-1.2 0-.6.1-1 .4-1.3.2-.2.5-.4 1-.4.3 0 .7.2.9.4.2.3.3.7.3 1.3 0 .5-.1.9-.3 1.2-.2.3-.6.4-1 .4zm4.3 1c.2 0 .3 0 .5-.2l.2-.4v-2.2c0-.4 0-.7.2-.9.2-.2.5-.4 1-.4h.2c.3 0 .4-.1.5-.2l.2-.4c0-.2 0-.3-.2-.4 0-.1-.2-.2-.4-.1h-.2c-.3 0-.6 0-.8.2-.3.2-.5.4-.6.7v-.4c0-.2 0-.3-.2-.4a.6.6 0 00-.4-.1l-.5.1-.1.5v4l.1.4.5.2zm7.4 0c.2 0 .4 0 .5-.2l.2-.4v-2.6c0-.7-.2-1.2-.5-1.6-.3-.3-.7-.5-1.3-.5a2 2 0 00-1 .3c-.3.1-.5.3-.7.6v-.3c0-.1 0-.3-.2-.4a.6.6 0 00-.4-.1l-.5.1-.2.5v4c0 .1 0 .3.2.4l.5.2c.2 0 .3 0 .4-.2.2-.1.2-.3.2-.4v-2.4c0-.3.1-.7.4-.9.2-.2.5-.3.8-.3.4 0 .6 0 .7.2.2.2.3.5.3.9v2.5l.1.4.5.2zm2.6-6.2c.2 0 .4 0 .6-.2l.2-.5-.2-.5a.8.8 0 00-.6-.1l-.5.1c-.2.2-.3.3-.3.5s.1.4.3.5c0 .2.3.2.5.2zm0 6.2c.2 0 .4 0 .5-.2l.2-.4v-4l-.2-.5a.7.7 0 00-.5-.1l-.5.1-.1.5v4l.1.4.5.2zm6 0c.3 0 .4 0 .6-.2l.1-.4v-2.6c0-.7-.1-1.2-.4-1.6-.3-.3-.8-.5-1.4-.5a2 2 0 00-1 .3c-.2.1-.5.3-.6.6v-.3l-.2-.4a.6.6 0 00-.5-.1l-.4.1-.2.5v4c0 .1 0 .3.2.4l.4.2c.2 0 .4 0 .5-.2l.2-.4v-2.4c0-.3.1-.7.3-.9.2-.2.5-.3 1-.3.2 0 .5 0 .6.2.2.2.2.5.2.9v2.5c0 .1 0 .3.2.4l.5.2zm4.3 1.9c.9 0 1.6-.2 2-.7.4-.4.7-1 .7-1.8v-4l-.2-.5a.7.7 0 00-.5-.1l-.4.1c-.2.1-.2.3-.2.5v.2c-.2-.3-.4-.5-.7-.6a2 2 0 00-1-.3l-1.2.3-.8 1a3 3 0 00-.2 1.3c0 .5 0 .9.2 1.3l.8.9 1.2.3c.4 0 .7-.1 1-.3.3-.1.5-.3.7-.6v.6c0 1-.5 1.4-1.4 1.4l-.7-.1a6 6 0 01-.9-.4h-.2l-.3.1-.1.4c0 .2.1.4.4.5.5.3 1 .5 1.8.5zm0-3.1c-.3 0-.7-.2-.9-.4-.2-.3-.3-.7-.3-1.1 0-.5 0-.9.3-1.2.2-.2.6-.4 1-.4s.7.2 1 .4c.2.3.3.7.3 1.2 0 .4-.1.8-.4 1-.2.3-.5.5-1 .5z" fill="#645BD4" fill-rule="nonzero" mask="url(#A)"/><path d="M160.9 460.1h.3l.2-.3 2-5.9.1-.1-.1-.4h-.6l-.2.2-1.7 5.1-1.8-5c0-.1 0-.2-.2-.3h-.5l-.2.3-1.8 5-1.7-5a.4.4 0 00-.5-.4l-.3.1-.2.4v.1l2.2 5.9c0 .1 0 .2.2.2l.3.1h.3l.2-.3 1.8-4.9 1.7 4.9c0 .1 0 .2.2.2l.3.1zm7.8 0l.3-.1.2-.3v-2.5c0-1.3-.6-1.9-1.7-1.9a2 2 0 00-.9.2l-.6.6v-2.3c0-.2 0-.3-.2-.3l-.3-.2c-.1 0-.3 0-.3.2-.1 0-.2.1-.2.3v5.9l.1.3.4.1.3-.1.2-.3v-2.3c0-.4 0-.7.3-1 .3-.2.6-.3 1-.3.3 0 .5 0 .7.3l.2.8v2.5l.1.3.4.1zm3.9 0a3 3 0 001.5-.4c.2 0 .3-.2.3-.4v-.3l-.3-.1h-.2l-.2.1-.5.3h-.6c-.9 0-1.4-.4-1.4-1.4h2.9c.2 0 .3-.1.3-.4 0-.6-.1-1.2-.5-1.6-.4-.4-.9-.6-1.5-.6a2 2 0 00-2 1.2l-.2 1.2c0 .8.2 1.4.6 1.8.5.4 1 .6 1.8.6zm1-2.7h-2.4c0-.5.1-.8.4-1 .2-.3.5-.4.8-.4.4 0 .7.1.9.4.2.2.3.5.3 1zm5.5 2.7l.4-.1.1-.3v-2.5c0-1.3-.5-1.9-1.6-1.9a2 2 0 00-1 .2l-.6.7v-.4l-.1-.3-.3-.2c-.2 0-.3 0-.4.2l-.1.3v3.9l.1.3.4.1.3-.1.1-.3v-2.3c0-.4.2-.7.4-1 .2-.2.5-.3 1-.3.2 0 .5 0 .6.3.2.2.3.4.3.8v2.5l.1.3.3.1z" fill="#777486" fill-rule="nonzero" mask="url(#A)"/><path d="M26.5 383.4a1.1 1.1 0 001.2-1.2v-11.1c0-.4-.1-.7-.3-1-.2-.1-.5-.3-.9-.3-.3 0-.6.2-.9.4-.2.2-.3.5-.3.9v4.4h-6.8v-4.4c0-.4-.1-.7-.3-1-.3-.1-.6-.3-1-.3-.3 0-.6.2-.8.4-.2.2-.3.5-.3.9v11.1c0 .4 0 .7.3.9.2.2.5.3.9.3.3 0 .6 0 .9-.3.2-.2.3-.5.3-.9v-4.7h6.8v4.7c0 .4.1.7.3.9.3.2.6.3 1 .3zm6.2 3.4c.4 0 .7-.2 1-.6l5.1-10.9.1-.4a1 1 0 00-.3-.7c-.2-.2-.5-.3-.8-.3a1 1 0 00-.6.1l-.4.5-2.6 5.9-2.6-5.9a1 1 0 00-.5-.5l-.5-.1c-.4 0-.6 0-.9.3a1 1 0 00-.3 1.2l3.6 7.3-1.3 2.7-.1.5c0 .2 0 .5.3.7l.8.2zm11.2-3.3c.7 0 1.3-.2 1.8-.5a3 3 0 001.2-1.2v.5c0 .3.1.6.4.8.2.2.5.3.8.3.4 0 .7 0 .9-.3.2-.2.3-.5.3-.8v-11.4a1 1 0 00-.4-.7c-.2-.3-.5-.4-.8-.4-.4 0-.7.1-.9.3a1 1 0 00-.3.8v4.5c-.3-.5-.7-.9-1.2-1.2-.5-.2-1-.4-1.8-.4a4 4 0 00-2 .6 4 4 0 00-1.5 1.7c-.4.7-.6 1.5-.6 2.5s.2 1.8.6 2.5a3.8 3.8 0 003.6 2.3zm.7-1.9a2 2 0 01-1.8-.8c-.4-.5-.6-1.2-.6-2.2 0-1 .2-1.7.6-2.2.4-.5 1-.7 1.8-.7a2 2 0 011.7.7c.4.5.6 1.3.6 2.2 0 1-.2 1.7-.6 2.3-.4.5-1 .7-1.7.7zm8.3 1.8c.3 0 .6 0 .9-.3.2-.2.3-.4.3-.8v-4c0-.6.2-1.2.5-1.6.4-.4 1-.7 1.7-.8h.5c.5 0 .8-.2 1-.3l.2-.8c0-.3-.1-.6-.3-.7-.2-.2-.5-.3-.8-.2h-.3c-.5 0-1 .2-1.5.5s-.9.7-1.1 1.3v-.8c0-.3-.1-.6-.3-.8-.2-.2-.5-.2-.8-.2-.3 0-.6 0-.8.2-.3.2-.4.5-.4.9v7.3c0 .4.1.6.4.8.2.2.5.3.8.3zm9 0a3 3 0 001.6-.3c.5-.3.8-.7 1-1.2v.4c0 .3.2.6.4.8.2.2.4.3.8.3.3 0 .6 0 .8-.3.2-.2.3-.4.3-.8v-4.6c0-1.3-.3-2.3-1-3-.6-.6-1.5-.9-2.8-.9a8.2 8.2 0 00-3.4.8l-.5.4a1 1 0 00-.2.6c0 .3 0 .5.2.6l.6.3c.1 0 .4 0 .7-.3l1.4-.4a4 4 0 011-.2c.7 0 1 .2 1.4.4.2.3.4.8.4 1.4v.4H64c-1.4 0-2.5.1-3.3.3-.7.2-1.3.5-1.7.9-.3.3-.5.9-.5 1.6 0 .5.2 1 .5 1.4.3.5.7.8 1.2 1 .5.3 1 .5 1.6.5zm.5-1.6c-.4 0-.8-.2-1-.4-.3-.3-.5-.6-.5-1s.1-.6.3-.8a2 2 0 011-.4l2-.1h.4v.4c0 .7-.2 1.2-.6 1.6a2 2 0 01-1.6.7zm11.2 1.6c.4 0 .8 0 1-.2.3-.1.4-.4.4-.7 0-.5-.3-.8-1-.8h-.5c-.8-.1-1.3-.6-1.3-1.6v-4.3h1.6c.4 0 .6 0 .8-.2.2-.2.3-.4.3-.7 0-.3 0-.5-.3-.6-.2-.2-.4-.3-.8-.3h-1.6v-1.7a1 1 0 00-.3-.8c-.2-.2-.5-.3-.8-.3-.4 0-.7 0-1 .3a1 1 0 00-.2.8v1.7h-1c-.3 0-.6.1-.8.3-.2.1-.2.3-.2.6s0 .5.2.7l.8.2h1v4.2c0 2 1 3.2 3.1 3.4h.6zm7 0l1.5-.1 1.5-.6c.4-.3.7-.6.7-1l-.2-.7a.6.6 0 00-.6-.2 2 2 0 00-.8.3l-1 .4-1.1.1c-.8 0-1.4-.2-1.8-.6-.5-.4-.7-1-.8-1.9h5.6c.5 0 .7-.3.7-.8 0-1-.1-1.7-.5-2.4-.3-.7-.8-1.2-1.4-1.5-.6-.4-1.4-.6-2.2-.6-.9 0-1.6.2-2.3.6-.7.4-1.3 1-1.6 1.7-.4.8-.6 1.6-.6 2.6 0 1.4.4 2.6 1.3 3.5.9.8 2 1.3 3.5 1.3zm1.7-5.6H78c.1-.7.3-1.3.7-1.7a2 2 0 011.6-.6c.6 0 1 .2 1.4.6.4.4.6 1 .6 1.7zm11.4 9c.4 0 .8-.2 1-.6l5.2-10.9v-.4a1 1 0 00-.3-.7c-.2-.2-.5-.3-.8-.3a1 1 0 00-.5.1l-.4.5-2.7 5.9-2.6-5.9a1 1 0 00-.4-.5l-.6-.1c-.3 0-.6 0-.9.3a1 1 0 00-.3 1.2l3.6 7.3-1.3 2.7-.1.5c0 .2 0 .5.3.7l.8.2zm11.9-3.3a5 5 0 002.5-.6 4 4 0 001.6-1.7c.4-.7.6-1.6.6-2.6s-.2-1.8-.6-2.5a4 4 0 00-1.6-1.7 5 5 0 00-2.5-.6 5 5 0 00-2.5.6 4 4 0 00-1.7 1.7c-.3.7-.5 1.6-.5 2.5 0 1 .2 1.9.5 2.6a4 4 0 001.7 1.7 5 5 0 002.5.6zm0-1.9c-.8 0-1.4-.2-1.8-.7-.4-.5-.6-1.3-.6-2.3 0-1 .2-1.7.6-2.2.4-.5 1-.8 1.8-.8a2 2 0 011.7.8c.4.5.6 1.3.6 2.2 0 1-.2 1.8-.6 2.3-.4.5-1 .7-1.7.7zm10 1.9c.6 0 1.2-.2 1.7-.4a3 3 0 001.2-1.2v.5c0 .3 0 .6.3.7.2.2.4.3.8.3.3 0 .6 0 .8-.3.3-.2.4-.4.4-.8V375a1 1 0 00-.4-.8c-.2-.2-.5-.3-.8-.3-.4 0-.7 0-.9.3a1 1 0 00-.3.8v4.2c0 .7-.2 1.3-.6 1.7a2 2 0 01-1.6.7c-.5 0-1-.2-1.2-.5-.3-.3-.4-.8-.4-1.4V375a1 1 0 00-.4-.8c-.2-.2-.5-.3-.8-.3-.4 0-.7 0-.9.3a1 1 0 00-.3.8v4.6c0 2.6 1.1 3.9 3.4 3.9zm8.8 0c.3 0 .6-.2.9-.4.2-.2.3-.4.3-.8v-4c0-.6.2-1.2.5-1.6.4-.4 1-.7 1.7-.8h.5c.5 0 .8-.2 1-.3l.2-.8c0-.3-.1-.6-.3-.7-.2-.2-.5-.3-.8-.2h-.3c-.5 0-1 .2-1.5.5s-.9.7-1.1 1.3v-.8c0-.3-.1-.6-.3-.8-.2-.2-.5-.2-.8-.2-.3 0-.6 0-.8.2-.3.2-.4.5-.4.9v7.3c0 .4.1.6.4.8.2.2.5.3.8.3zm9.4 0c1.2 0 2.2-.3 2.9-.8.7-.5 1-1.2 1-2 0-.6 0-1-.3-1.4-.2-.3-.5-.6-1-.8-.5-.3-1.1-.5-2-.6a6 6 0 01-1.6-.5.8.8 0 01-.4-.8c0-.3.1-.5.4-.7a2 2 0 011.1-.3l1 .1a8 8 0 011.4.7h.5c.2 0 .3 0 .5-.2l.2-.6c0-.4-.2-.8-.6-1a5.9 5.9 0 00-4.8-.4c-.6.2-1 .6-1.4 1-.3.5-.5 1-.5 1.5 0 .8.2 1.3.7 1.8.5.4 1.3.7 2.4 1 .7 0 1.1.2 1.5.3l.6.3.2.6c0 .3-.2.5-.5.7-.3.2-.7.3-1.2.3a4.5 4.5 0 01-2.4-.6 2 2 0 00-.9-.3c-.2 0-.4 0-.5.2l-.2.6c0 .5.2.8.6 1 .8.6 2 .9 3.3.9zm10.2 0l1.6-.2 1.4-.6c.5-.3.7-.6.7-1 0-.3 0-.5-.2-.7a.6.6 0 00-.5-.2 2 2 0 00-.8.3l-1 .4-1.2.1c-.7 0-1.4-.2-1.8-.6-.4-.4-.6-1-.7-1.9h5.6c.5 0 .7-.3.7-.8 0-1-.2-1.7-.5-2.4-.4-.7-.8-1.2-1.5-1.5-.6-.4-1.3-.6-2.1-.6-.9 0-1.7.2-2.4.6-.7.4-1.2 1-1.6 1.7-.3.8-.5 1.6-.5 2.6 0 1.4.4 2.6 1.3 3.5.8.8 2 1.3 3.5 1.3zm1.8-5.7h-4.3c0-.7.3-1.3.7-1.7a2 2 0 011.5-.6c.7 0 1.2.2 1.5.6.4.4.5 1 .6 1.7zm5.1 5.6c.3 0 .6 0 .9-.3.2-.2.3-.4.3-.8V371c0-.4-.1-.7-.3-.9l-.9-.3c-.3 0-.6.1-.8.3-.3.2-.4.5-.4.9v11.3c0 .4.1.6.4.8.2.2.5.3.8.3zm5.5 0c.3 0 .6 0 .8-.3.2-.2.4-.4.4-.8v-6.5h1.6c.7 0 1-.3 1-.9 0-.6-.3-.9-1-.9h-1.6v-.4c0-.6 0-1 .4-1.4.2-.3.6-.5 1.2-.5h.5c.6 0 1-.4 1-1 0-.2-.2-.5-.4-.6-.2-.2-.5-.2-1-.2h-.5c-1.2.2-2 .5-2.7 1.2a4 4 0 00-1 2.8v.1h-.9c-.7 0-1 .3-1 1 0 .5.3.8 1 .8h1v6.5c0 .4.1.6.3.8.3.2.5.3.9.3z" fill="#2A2A5A" fill-rule="nonzero" mask="url(#A)"/><path d="M21 405l.4-.2.2-.5v-6.1c0-.2 0-.4-.2-.5a.6.6 0 00-.5-.2c-.1 0-.3 0-.4.2l-.2.5v4.5l-3.7-5a.6.6 0 00-.5-.2c-.2 0-.4 0-.5.2l-.2.5v6c0 .3 0 .4.2.6l.4.1.5-.1.2-.5v-4.5l3.7 4.9c.2.2.3.2.5.2zm2.7-6.2c.2 0 .4 0 .5-.2.2-.1.2-.3.2-.5s0-.4-.2-.5a.8.8 0 00-.5-.2c-.3 0-.5 0-.6.2l-.2.5c0 .2 0 .4.2.5l.6.2zm0 6.1l.4-.1c.2-.1.2-.3.2-.5v-4c0-.2 0-.3-.2-.4a.7.7 0 00-.4-.2c-.2 0-.4 0-.5.2l-.2.4v4c0 .2 0 .4.2.5l.5.1zm4.3 2c.8 0 1.5-.3 2-.7.4-.4.6-1 .6-1.8v-4c0-.3 0-.4-.2-.5a.7.7 0 00-.5-.2c-.2 0-.3 0-.4.2l-.2.4v.3l-.7-.7a2 2 0 00-1-.2c-.4 0-.8.1-1.1.3-.4.2-.7.5-.8.9a3 3 0 00-.3 1.3c0 .5 0 1 .3 1.3.2.4.4.7.8 1l1.1.2c.4 0 .7 0 1-.2l.7-.7v.7c0 .9-.5 1.3-1.4 1.3h-.6a6 6 0 01-1-.4h-.5l-.1.4c0 .3.1.4.4.6.5.3 1.1.4 1.9.4zm0-3.2c-.4 0-.7-.1-1-.4-.2-.2-.3-.6-.3-1 0-.6 0-1 .3-1.2.3-.3.6-.4 1-.4s.7.1 1 .4c.2.3.3.6.3 1.1 0 .5-.1.9-.4 1.1-.2.3-.5.4-1 .4zm8 1.2l.5-.1.1-.5v-2.5c0-1.4-.6-2.1-1.7-2.1-.4 0-.7 0-1 .2-.3.1-.5.4-.7.6v-2.4c0-.2 0-.3-.2-.4a.7.7 0 00-.4-.2c-.2 0-.4 0-.5.2l-.2.4v6.2c0 .2 0 .4.2.5l.4.1.5-.1.2-.5V402c0-.4.1-.7.3-1 .3-.2.6-.3 1-.3.2 0 .5.1.6.3.2.1.2.4.2.8v2.5l.2.5.5.1zm4.3 0h.6l.2-.5c0-.2-.2-.4-.5-.4h-.3c-.5 0-.7-.4-.7-.9v-2.3h.9l.4-.1.2-.4-.2-.4a.7.7 0 00-.4 0h-1v-1-.5a.7.7 0 00-.5-.1l-.5.1-.2.5v1h-.9l-.2.4c0 .2 0 .3.2.4h.9v2.3c0 1.2.6 1.8 1.7 2h.3zm10 0l.4-.1.2-.4c0-.1 0-.2-.2-.3l-1-1a5 5 0 00.7-2.1l-.1-.5a.5.5 0 00-.4-.1l-.4.1-.2.4c0 .6-.1 1-.3 1.5l-1.5-1.4c.5-.3.8-.6 1-1 .3-.2.4-.5.4-1 0-.4-.2-.8-.5-1a2 2 0 00-1.3-.5c-.6 0-1.1.2-1.5.5-.3.3-.5.7-.5 1.2 0 .3 0 .6.2.8 0 .3.3.5.5.8-.5.3-.9.6-1.1 1a2 2 0 000 2.2c.1.3.4.5.8.7.4.2.8.3 1.3.3l1.2-.3 1.1-.7.9.8.3.2zm-3.5-4.6l-.4-.6a1 1 0 01-.2-.5l.3-.6.6-.2c.2 0 .4 0 .5.2.2.1.2.3.2.5 0 .3 0 .5-.2.6l-.8.6zm0 3.7c-.4 0-.7-.1-.9-.3a1 1 0 01-.3-.8c0-.3 0-.5.2-.8l.7-.6 1.9 1.8-.7.5a2 2 0 01-.9.2zm9.6 1c.3 0 .7-.1 1-.3l.6-.6v.2c0 .2 0 .4.2.5l.4.1.5-.1.2-.5v-6.2c0-.1 0-.3-.2-.4a.7.7 0 00-.5-.2c-.2 0-.3 0-.4.2-.2.1-.2.2-.2.4v2.5l-.7-.7a2 2 0 00-1-.2c-.4 0-.8.1-1.1.3-.3.2-.6.5-.8 1-.2.3-.3.8-.3 1.3s.1 1 .3 1.4l.8 1c.3.1.7.3 1.2.3zm.3-1c-.4 0-.7-.2-1-.5a2 2 0 01-.3-1.2c0-.5.1-1 .4-1.2.2-.3.5-.4 1-.4.3 0 .6.1.9.4.2.3.3.7.3 1.2s-.1 1-.3 1.2c-.3.3-.6.5-1 .5zm5.5 1c.4 0 .6-.1.9-.3.2-.1.4-.3.5-.6v.2l.2.5.5.1.4-.1.2-.5v-2.5c0-.7-.2-1.2-.5-1.6-.4-.3-.9-.5-1.6-.5a4.4 4.4 0 00-1.8.4c-.2 0-.3.2-.3.3l-.1.3v.3l.4.2.4-.2.7-.2.6-.1c.4 0 .6 0 .7.2.2.2.2.4.2.7v.3h-.2l-1.8.1c-.4.1-.7.3-.9.5-.2.2-.3.5-.3.9 0 .3 0 .5.3.8l.6.6 1 .2zm.3-1c-.2 0-.4 0-.6-.2a.7.7 0 01-.2-.5l.1-.5.6-.2h1.2v.2c0 .4 0 .7-.3.9-.2.2-.5.3-.8.3zm5 2.8c.2 0 .4-.1.5-.4l2.8-5.9v-.2l-.1-.4a.7.7 0 00-.5-.2l-.3.1-.2.3-1.4 3.2-1.5-3.2-.2-.3h-.8l-.2.5v.2l2 4-.7 1.5v.3l.1.3.4.2zm7.6-1.9l.4-.1c.2-.1.2-.3.2-.5v-2.2c0-.3.1-.6.3-.8.2-.3.5-.4.9-.4h.3l.5-.3.1-.4-.1-.4H77c-.3 0-.6 0-.9.2l-.5.7v-.4l-.2-.4a.6.6 0 00-.4-.2c-.2 0-.4 0-.5.2l-.2.4v4c0 .2 0 .4.2.5l.5.1zm4-6.1c.2 0 .3 0 .5-.2l.2-.5c0-.2 0-.4-.2-.5a.8.8 0 00-.6-.2c-.2 0-.4 0-.5.2-.2.1-.2.3-.2.5s0 .4.2.5l.5.2zm0 6.1l.4-.1.2-.5v-4c0-.2 0-.3-.2-.4a.7.7 0 00-.5-.2c-.2 0-.3 0-.4.2-.2 0-.2.2-.2.4v4c0 .2 0 .4.2.5l.4.1zm4.5 0h.6l.2-.5c0-.2-.2-.4-.5-.4h-.3c-.5 0-.7-.4-.7-.9v-2.3h.8l.5-.1.1-.4-.1-.4a.7.7 0 00-.5 0H83v-1c0-.2 0-.4-.2-.5a.7.7 0 00-.5-.1l-.4.1c-.2.1-.2.3-.2.5v1h-1l-.1.4.1.4h1v2.3c0 1.2.6 1.8 1.7 2h.3zm3.3 0c.3 0 .6 0 .9-.2.2-.1.5-.3.6-.6v.3c0 .1 0 .3.2.4l.4.1.5-.1.2-.5v-4c0-.2 0-.3-.2-.4a.7.7 0 00-.5-.2c-.2 0-.3 0-.4.2-.2 0-.2.2-.2.4v2.3c0 .4-.1.7-.3 1-.3.2-.5.3-.9.3-.3 0-.5 0-.7-.2l-.2-.8v-2.6c0-.2 0-.3-.2-.4a.7.7 0 00-.5-.2c-.1 0-.3 0-.4.2l-.2.4v2.6c0 1.4.6 2 1.9 2zm5.7 0c.4 0 .7 0 1-.2l.5-.6v.2l.1.5.5.1.4-.1.2-.5v-2.5c0-.7-.2-1.2-.5-1.6-.4-.3-.9-.5-1.6-.5a4.4 4.4 0 00-1.8.4c-.2 0-.3.2-.3.3l-.1.3.1.3.3.2.4-.2.7-.2.6-.1c.4 0 .6 0 .7.2.2.2.3.4.3.7v.3h-.3l-1.8.1c-.4.1-.7.3-.9.5-.2.2-.3.5-.3.9 0 .3.1.5.3.8l.6.6 1 .2zm.3-.9c-.2 0-.4 0-.6-.2a.7.7 0 01-.2-.5c0-.2 0-.3.2-.5l.5-.2h1.3v.2c0 .4-.1.7-.4.9-.2.2-.5.3-.8.3zm4.3 1l.5-.2.2-.5v-6.2c0-.2 0-.3-.2-.4a.7.7 0 00-.5-.2c-.1 0-.3 0-.4.2l-.2.4v6.2c0 .2 0 .4.2.5l.4.1zm3.9 0c.6 0 1.1-.2 1.5-.5.4-.2.6-.6.6-1s0-.6-.2-.8c0-.2-.3-.3-.5-.5a5 5 0 00-1.1-.3c-.5 0-.7-.2-.9-.3a.4.4 0 01-.2-.4c0-.1 0-.3.2-.4l.6-.1h.5a4.3 4.3 0 01.8.4h.5l.1-.4c0-.3 0-.4-.3-.6l-.7-.3a3.2 3.2 0 00-2 0l-.7.7-.2.8c0 .4.1.7.4 1 .2.2.7.3 1.3.5l.8.2.3.1.1.3c0 .2 0 .3-.2.4l-.7.2a2.5 2.5 0 01-1.3-.3c-.2-.2-.4-.2-.5-.2l-.3.1v.4c0 .2 0 .4.2.5.5.3 1.1.5 1.9.5z" fill="#3F3D4A" fill-rule="nonzero" mask="url(#A)"/><rect stroke="#AAA7B4" stroke-width=".9" mask="url(#A)" x="15.1" y="417.8" width="43.9" height="12.9" rx="6.5"/><path d="M26.8 428.2l.3-.1.1-.3v-3h3.4l.1-.3v-.3l-.4-.1h-3.1v-2.5h3.4l.2-.1.1-.3v-.2l-.3-.1h-4.1l-.1.4v6.8l.4.1zm7.2 0c.4 0 .9 0 1.2-.3.4-.2.7-.5.9-.9.2-.4.3-.9.3-1.4 0-.5-.1-1-.3-1.4-.2-.4-.5-.7-.9-.9-.3-.2-.8-.3-1.2-.3-.5 0-1 .1-1.3.3-.3.2-.6.5-.8 1a3 3 0 00-.3 1.3c0 .5 0 1 .3 1.4l.8 1 1.3.2zm0-.7c-.5 0-.9-.1-1.2-.5-.2-.3-.4-.8-.4-1.4 0-.6.2-1 .4-1.4.3-.3.7-.5 1.2-.5s.8.2 1.1.5c.3.3.4.8.4 1.4 0 .6-.1 1.1-.4 1.4-.2.4-.6.5-1.1.5zm5.7.7c.5 0 .9 0 1.3-.3.3-.2.6-.5.8-.9.2-.4.3-.9.3-1.4 0-.5 0-1-.3-1.4-.2-.4-.5-.7-.8-.9-.4-.2-.8-.3-1.3-.3s-.9.1-1.2.3c-.4.2-.7.5-.9 1a3 3 0 00-.3 1.3c0 .5.1 1 .3 1.4.2.4.5.7.9 1l1.2.2zm0-.7c-.5 0-.9-.1-1.1-.5-.3-.3-.4-.8-.4-1.4 0-.6.1-1 .4-1.4.2-.3.6-.5 1.1-.5.5 0 .9.2 1.1.5.3.3.4.8.4 1.4 0 .6 0 1.1-.3 1.4-.3.4-.7.5-1.2.5zm5.6.7c.4 0 .7 0 1-.2.3-.2.5-.4.7-.8V428.1l.4.1.3-.1.1-.3v-6.6-.3H47l-.1.3v2.8c-.2-.3-.4-.6-.7-.7a2 2 0 00-1-.3c-.5 0-.8.1-1.2.3-.3.2-.6.5-.8 1l-.2 1.3c0 .5 0 1 .2 1.4.2.4.5.7.8.9.4.2.7.3 1.2.3zm.2-.7c-.5 0-1-.1-1.2-.5-.3-.3-.4-.8-.4-1.4 0-.6.1-1 .4-1.4.3-.3.7-.5 1.2-.5.4 0 .8.2 1 .5.4.3.5.8.5 1.4 0 .6-.1 1.1-.4 1.4-.3.4-.7.5-1.1.5z" fill="#AAA7B4" fill-rule="nonzero" mask="url(#A)"/><g mask="url(#A)"><g transform="translate(0 500.2)"><use fill="#000" filter="url(#B)" xlink:href="#C"/><use fill="#FFF" xlink:href="#C"/></g><g transform="translate(13.8 512.2)"><use fill="#000" filter="url(#D)" xlink:href="#E"/><use fill="#645BD4" xlink:href="#E"/></g><path d="M118.3 535.4l.5-.2c.2-.2.3-.3.3-.5l-.1-.3-3.3-7.2c-.1-.1-.2-.3-.4-.3a1 1 0 00-1 0l-.3.3-3.3 7.2v.3c0 .2 0 .3.2.5l.5.2.4-.1.2-.4.7-1.6h4.3l.7 1.6c0 .2.2.3.3.4h.3zm-1.8-3.3h-3.2l1.6-3.6 1.6 3.6zm6.7 3.3a3.7 3.7 0 002-.5l.2-.3.1-.3-.1-.5-.4-.1h-.2l-.3.2-.6.2-.5.1c-.5 0-.9-.1-1.1-.5-.3-.3-.4-.8-.4-1.4 0-.6 0-1 .4-1.4.2-.3.6-.5 1.1-.5l.6.1.5.3.3.1H125.4v-.5c0-.3 0-.5-.3-.6l-.8-.4a3.5 3.5 0 00-2.6.2c-.4.3-.8.7-1 1.1-.3.5-.4 1-.4 1.7 0 .6.1 1.1.4 1.6.2.4.5.8 1 1 .4.3 1 .4 1.5.4zm6.4 0a3.7 3.7 0 002-.5l.2-.3.1-.3-.1-.5-.4-.1h-.2l-.3.2-.6.2-.5.1c-.5 0-.9-.1-1.1-.5-.3-.3-.4-.8-.4-1.4 0-.6 0-1 .4-1.4.2-.3.6-.5 1.1-.5l.6.1.5.3.3.1H131.8v-.5c0-.3 0-.5-.3-.6l-.8-.4a3.5 3.5 0 00-2.6.2c-.4.3-.8.7-1 1.1-.3.5-.4 1-.4 1.7 0 .6.1 1.1.4 1.6.2.4.5.8 1 1 .4.3 1 .4 1.5.4zm6.6 0l1-.1a4 4 0 00.9-.4c.3-.2.4-.4.4-.6v-.5l-.4-.1c-.1 0-.3 0-.5.2l-.7.2-.7.1c-.5 0-.9 0-1.2-.3-.2-.3-.4-.7-.4-1.3h3.5c.3 0 .5-.1.5-.5 0-.6-.1-1-.3-1.5a2.7 2.7 0 00-2.3-1.3c-.6 0-1 0-1.5.3s-.8.7-1 1.1c-.3.5-.4 1-.4 1.6 0 1 .3 1.7.8 2.3a3 3 0 002.3.8zm1.1-3.6h-2.7c0-.5.2-.8.4-1 .3-.3.6-.5 1-.5s.7.1 1 .4c.2.3.3.6.3 1.1zm3.8 5.7l.5-.1c.2-.2.2-.3.2-.5v-2.5c.2.3.5.6.8.7.3.2.7.3 1.1.3.5 0 1-.1 1.4-.4.4-.2.7-.6 1-1l.2-1.6c0-.6 0-1.2-.3-1.7-.2-.4-.5-.8-1-1-.3-.3-.8-.4-1.3-.4-.4 0-.8 0-1.1.2l-.8.8v-.3c0-.2 0-.4-.2-.5a.8.8 0 00-.5-.2c-.2 0-.4 0-.6.2l-.2.5v6.8c0 .3.1.4.3.5 0 .2.3.2.5.2zm2.2-3.3c-.5 0-.8-.1-1-.5-.3-.3-.5-.8-.5-1.4 0-.6.2-1 .4-1.4.3-.3.6-.5 1.1-.5.5 0 .9.2 1.1.5.3.4.4.9.4 1.5s-.1 1-.4 1.3c-.2.4-.6.5-1 .5zm7.5 1.2c.3 0 .5 0 .7-.2.2 0 .2-.2.2-.4 0-.3-.2-.5-.6-.5h-.3c-.5-.1-.8-.4-.8-1v-2.8h1l.5-.1.2-.4c0-.2 0-.4-.2-.5a.8.8 0 00-.5-.1h-1v-1.1c0-.2 0-.4-.2-.5a.8.8 0 00-.6-.2c-.2 0-.4 0-.5.2-.2.1-.2.3-.2.5v1.1h-.6l-.5.1-.2.5c0 .2 0 .3.2.4l.5.1h.6v2.7c0 1.3.7 2 2 2.1h.3zm8.6 0a3.7 3.7 0 002-.5l.2-.3.1-.3-.1-.5-.4-.1h-.2l-.3.2-.6.2-.5.1c-.5 0-.9-.1-1.2-.5-.2-.3-.4-.8-.4-1.4 0-.6.2-1 .4-1.4.3-.3.7-.5 1.2-.5l.6.1.5.3.3.1H161.6v-.5c0-.3 0-.5-.3-.6l-.8-.4a3.5 3.5 0 00-2.6.2c-.4.3-.8.7-1 1.1-.3.5-.4 1-.4 1.7 0 .6.1 1.1.4 1.6.2.4.5.8 1 1 .4.3 1 .4 1.5.4zm8.6 0c.2 0 .4 0 .5-.2.2-.1.2-.3.2-.5v-3c0-1.6-.7-2.4-2-2.4-.5 0-.8 0-1.2.2a2 2 0 00-.8.7v-2.8c0-.2 0-.4-.2-.5a.8.8 0 00-.5-.2l-.6.2-.2.5v7.3c0 .2 0 .4.2.5l.6.2c.2 0 .4 0 .5-.2.2-.1.2-.3.2-.5V532c0-.5.2-.9.4-1.1.3-.3.6-.4 1-.4s.7 0 .9.3l.2.9v3l.2.5.6.2zm4.7 0c.4 0 .7 0 1-.3.3-.1.5-.4.6-.7v.3c0 .2 0 .3.2.5l.5.2c.3 0 .4 0 .6-.2l.2-.5v-3c0-.8-.2-1.4-.6-1.8-.4-.4-1-.6-1.9-.6a5.2 5.2 0 00-2.1.5 1 1 0 00-.4.2v.8l.4.2c.1 0 .3 0 .5-.2l.8-.3h.8c.3 0 .6 0 .8.2l.2.8v.3h-.3c-.8 0-1.5 0-2 .2a2 2 0 00-1.1.5c-.2.3-.3.6-.3 1s0 .7.2 1l.8.7 1 .2zm.3-1a1 1 0 01-.7-.3.8.8 0 01-.3-.7c0-.2 0-.3.2-.5l.7-.2h1.4v.2c0 .4-.1.7-.4 1-.2.3-.5.4-1 .4zm5.6 1c.2 0 .4 0 .5-.2l.2-.5v-7.3c0-.2 0-.4-.2-.5a.8.8 0 00-.5-.2l-.6.2-.2.5v7.3c0 .2 0 .4.2.5l.6.2zm3.5 0c.3 0 .4 0 .6-.2l.2-.5v-7.3c0-.2 0-.4-.2-.5a.8.8 0 00-.6-.2l-.5.2-.2.5v7.3c0 .2 0 .4.2.5l.5.2zm5.6 0l1-.1a4 4 0 001-.4c.2-.2.4-.4.4-.6l-.1-.5-.4-.1s-.3 0-.5.2l-.7.2-.6.1c-.6 0-1 0-1.2-.3-.3-.3-.4-.7-.5-1.3h3.6c.3 0 .4-.1.4-.5 0-.6 0-1-.3-1.5-.2-.4-.5-.8-.9-1-.4-.2-.9-.3-1.4-.3-.5 0-1 0-1.5.3-.4.3-.8.7-1 1.1-.2.5-.4 1-.4 1.6 0 1 .3 1.7.9 2.3a3 3 0 002.2.8zm1.2-3.6H186c0-.5.2-.8.5-1 .2-.3.5-.5 1-.5.3 0 .7.1.9.4l.4 1.1zm7.8 3.6c.2 0 .4 0 .5-.2l.2-.5v-3c0-.8-.2-1.4-.5-1.8-.4-.4-.9-.6-1.6-.6-.4 0-.8 0-1.1.2a2 2 0 00-.8.8v-.3l-.2-.5a.7.7 0 00-.6-.2c-.2 0-.4 0-.5.2l-.2.5v4.7c0 .2 0 .4.2.5l.5.2c.3 0 .5 0 .6-.2l.2-.5V532c0-.5.1-.9.4-1.1.2-.3.6-.4 1-.4s.7 0 .8.3c.2.2.3.5.3 1v2.9c0 .2 0 .4.2.5l.6.2zm5.4 2.2c1 0 1.8-.3 2.3-.7.5-.5.8-1.2.8-2.1V530c0-.2 0-.4-.2-.5a.8.8 0 00-.6-.2c-.2 0-.4 0-.5.2l-.2.5v.3c-.2-.3-.4-.6-.8-.8l-1.1-.2c-.5 0-1 0-1.4.3l-1 1c-.2.5-.3 1-.3 1.6 0 .6.1 1.1.4 1.5.2.5.5.8.9 1 .4.3.9.4 1.4.4.4 0 .8 0 1.1-.2.4-.2.6-.5.8-.8v.8c0 1-.5 1.5-1.6 1.5a3 3 0 01-.8 0 6.9 6.9 0 01-1-.5h-.3l-.4.1-.1.4c0 .3.2.5.4.7.6.3 1.4.5 2.2.5zm0-3.6c-.4 0-.8-.2-1-.5-.3-.3-.5-.7-.5-1.3 0-.5.2-1 .4-1.3.3-.3.7-.5 1.2-.5s.8.2 1.1.5c.3.3.4.8.4 1.3 0 .6-.1 1-.4 1.3-.3.3-.6.5-1.1.5zm8 1.4l1-.1a4 4 0 00.8-.4c.3-.2.5-.4.5-.6l-.1-.5-.4-.1s-.3 0-.5.2l-.7.2-.6.1c-.6 0-1 0-1.2-.3-.3-.3-.4-.7-.5-1.3h3.6c.3 0 .4-.1.4-.5 0-.6 0-1-.3-1.5-.2-.4-.5-.8-.9-1-.4-.2-.9-.3-1.4-.3-.5 0-1 0-1.5.3-.4.3-.8.7-1 1.1-.2.5-.4 1-.4 1.6 0 1 .3 1.7.9 2.3a3 3 0 002.2.8zm1-3.6h-2.7c0-.5.2-.8.5-1 .2-.3.5-.5 1-.5.3 0 .7.1.9.4.2.3.3.6.3 1.1z" fill="#FFF" fill-rule="nonzero"/></g></g></g></g></svg>