<?xml version="1.0" encoding="UTF-8"?>
<svg width="594px" height="518px" viewBox="0 0 594 518" version="1.1" xmlns="http://www.w3.org/2000/svg" xmlns:xlink="http://www.w3.org/1999/xlink">
    <title>Hero / Img / Zuppaman</title>
    <defs>
        <rect id="path-1" x="0" y="0" width="594" height="517"></rect>
        <path d="M0,1.23800926 C0,0.554275624 0.554172907,0.0767547839 1.23846812,0.171531938 L1.56650743,0.21696647 C2.25049449,0.311700944 2.80497555,0.944049878 2.80497555,1.62767266 L2.80497555,26.3442128 C2.80497555,27.0285898 2.25080265,27.6601418 1.56650743,27.7549189 L1.23846812,27.8003535 C0.554481064,27.8950879 0,27.4131364 0,26.7338762 L0,1.23800926 Z" id="path-3"></path>
        <filter x="-53.5%" y="-5.4%" width="207.0%" height="110.8%" filterUnits="objectBoundingBox" id="filter-4">
            <feOffset dx="0" dy="0" in="SourceAlpha" result="shadowOffsetOuter1"></feOffset>
            <feGaussianBlur stdDeviation="0.5" in="shadowOffsetOuter1" result="shadowBlurOuter1"></feGaussianBlur>
            <feColorMatrix values="0 0 0 0 0   0 0 0 0 0   0 0 0 0 0  0 0 0 0.1 0" type="matrix" in="shadowBlurOuter1"></feColorMatrix>
        </filter>
        <filter x="-35.7%" y="-3.6%" width="171.3%" height="107.2%" filterUnits="objectBoundingBox" id="filter-5">
            <feOffset dx="0" dy="0" in="SourceAlpha" result="shadowOffsetInner1"></feOffset>
            <feComposite in="shadowOffsetInner1" in2="SourceAlpha" operator="arithmetic" k2="-1" k3="1" result="shadowInnerInner1"></feComposite>
            <feColorMatrix values="0 0 0 0 0.718377976   0 0 0 0 0.718377976   0 0 0 0 0.718377976  0 0 0 1 0" type="matrix" in="shadowInnerInner1"></feColorMatrix>
        </filter>
        <path d="M0,1.24223709 C0,0.55616849 0.554172907,0.0767547839 1.23846812,0.171531938 L1.56650743,0.21696647 C2.25049449,0.311700944 2.80497555,0.942708604 2.80497555,1.6339036 L2.80497555,51.2817899 L1.23846812,51.2817899 C0.554481064,51.2817899 0,50.7233491 0,50.0395528 L0,1.24223709 Z" id="path-6"></path>
        <filter x="-53.5%" y="-2.9%" width="207.0%" height="105.9%" filterUnits="objectBoundingBox" id="filter-7">
            <feOffset dx="0" dy="0" in="SourceAlpha" result="shadowOffsetOuter1"></feOffset>
            <feGaussianBlur stdDeviation="0.5" in="shadowOffsetOuter1" result="shadowBlurOuter1"></feGaussianBlur>
            <feColorMatrix values="0 0 0 0 0   0 0 0 0 0   0 0 0 0 0  0 0 0 0.1 0" type="matrix" in="shadowBlurOuter1"></feColorMatrix>
        </filter>
        <filter x="-35.7%" y="-1.9%" width="171.3%" height="103.9%" filterUnits="objectBoundingBox" id="filter-8">
            <feOffset dx="0" dy="0" in="SourceAlpha" result="shadowOffsetInner1"></feOffset>
            <feComposite in="shadowOffsetInner1" in2="SourceAlpha" operator="arithmetic" k2="-1" k3="1" result="shadowInnerInner1"></feComposite>
            <feColorMatrix values="0 0 0 0 0.718377976   0 0 0 0 0.718377976   0 0 0 0 0.718377976  0 0 0 1 0" type="matrix" in="shadowInnerInner1"></feColorMatrix>
        </filter>
        <path d="M0,1.24223709 C0,0.55616849 0.554172907,0 1.23846812,0 L2.80497555,0 L2.80497555,51.2817899 L1.23846812,51.2817899 C0.554481064,51.2817899 0,50.7233491 0,50.0395528 L0,1.24223709 Z" id="path-9"></path>
        <filter x="-53.5%" y="-2.9%" width="207.0%" height="105.9%" filterUnits="objectBoundingBox" id="filter-10">
            <feOffset dx="0" dy="0" in="SourceAlpha" result="shadowOffsetOuter1"></feOffset>
            <feGaussianBlur stdDeviation="0.5" in="shadowOffsetOuter1" result="shadowBlurOuter1"></feGaussianBlur>
            <feColorMatrix values="0 0 0 0 0   0 0 0 0 0   0 0 0 0 0  0 0 0 0.1 0" type="matrix" in="shadowBlurOuter1"></feColorMatrix>
        </filter>
        <filter x="-35.7%" y="-2.0%" width="171.3%" height="103.9%" filterUnits="objectBoundingBox" id="filter-11">
            <feOffset dx="0" dy="0" in="SourceAlpha" result="shadowOffsetInner1"></feOffset>
            <feComposite in="shadowOffsetInner1" in2="SourceAlpha" operator="arithmetic" k2="-1" k3="1" result="shadowInnerInner1"></feComposite>
            <feColorMatrix values="0 0 0 0 0.718377976   0 0 0 0 0.718377976   0 0 0 0 0.718377976  0 0 0 1 0" type="matrix" in="shadowInnerInner1"></feColorMatrix>
        </filter>
        <filter x="-8.4%" y="-0.7%" width="114.2%" height="101.5%" filterUnits="objectBoundingBox" id="filter-12">
            <feGaussianBlur stdDeviation="1.65888" in="SourceGraphic"></feGaussianBlur>
        </filter>
        <filter x="-6.0%" y="-0.7%" width="114.7%" height="101.5%" filterUnits="objectBoundingBox" id="filter-13">
            <feGaussianBlur stdDeviation="1.65888" in="SourceGraphic"></feGaussianBlur>
        </filter>
        <rect id="path-14" x="0" y="0" width="54.4966679" height="5.43897772" rx="2.71948886"></rect>
        <ellipse id="path-16" cx="3.81153544" cy="3.69442303" rx="3.00533095" ry="2.91373806"></ellipse>
        <rect id="path-18" x="0.796042741" y="0.866742692" width="305.917898" height="523.475755" rx="2.48832"></rect>
    </defs>
    <g id="Desktop" stroke="none" stroke-width="1" fill="none" fill-rule="evenodd">
        <g id="Landing-Page-Desktop" transform="translate(-732.000000, -280.000000)">
            <g id="Group-4" transform="translate(732.000000, 280.893939)">
                <mask id="mask-2" fill="white">
                    <use xlink:href="#path-1"></use>
                </mask>
                <g id="Rectangle"></g>
                <g id="Device" mask="url(#mask-2)">
                    <g transform="translate(122.823034, 8.106061)">
                        <g id="Body" stroke-width="1" fill="none">
                            <path d="M288.111061,0 C315.678711,-4.20492193e-15 347.416258,11.5730034 347.416258,57.8862629 L347.415226,145.756036 C346.920366,146.262941 346.614836,146.956535 346.614836,147.721478 L346.614836,147.721478 L346.614836,197.265108 C346.614836,198.031988 346.920007,198.726016 347.415048,199.232664 L347.416258,632.086911 C347.416258,651.347427 341.744478,689.973173 286.908928,689.973173 L62.110173,689.973173 C7.91325553,689.973173 2.00355397,651.561911 2.00355397,632.086911 L2.0045863,262.16989 C2.49944598,261.664541 2.80497555,260.973076 2.80497555,260.210482 L2.80497555,260.210482 L2.80497555,147.712847 C2.80497555,146.945409 2.49967845,146.253345 2.00445488,145.748894 L2.00355397,57.8862629 C2.00355397,23.8797528 20.0386702,0 62.110173,0 L288.111061,0 L288.111061,0 Z" id="Phone-Shape" fill="#F6F5F9"></path>
                            <g id="Antenna" transform="translate(2.003554, 54.389777)" fill="#ACA9BB">
                                <path d="M0,0.776996817 C0,0.776996817 2.08847022,5.55542832e-09 6.4113727,0 L6.4113727,9.71246021 C2.21525762,10.0578027 0,10.8779554 0,10.8779554 L0,0.776996817 Z" id="Top-Left"></path>
                                <path d="M339.001331,0.776996817 C339.001331,0.776996817 341.089802,5.55542832e-09 345.412704,0 L345.412704,9.71246021 C341.216589,10.0578027 339.001331,10.8779554 339.001331,10.8779554 L339.001331,0.776996817 Z" id="Top-Right" transform="translate(342.207018, 5.438978) scale(-1, 1) translate(-342.207018, -5.438978) "></path>
                            </g>
                            <g id="Silent-Button" transform="translate(0.000000, 87.800640)">
                                <g id="Rectangle-165">
                                    <use fill="black" fill-opacity="1" filter="url(#filter-4)" xlink:href="#path-3"></use>
                                    <use fill="#3D3C6E" fill-rule="evenodd" xlink:href="#path-3"></use>
                                    <use fill="black" fill-opacity="1" filter="url(#filter-5)" xlink:href="#path-3"></use>
                                </g>
                                <path d="M0.400710793,0.794033296 C0.400710793,0.570062562 0.586587382,0.388498408 0.801421587,0.388498408 L0.801421587,0.388498408 C1.02272805,0.388498408 1.20213238,0.562159616 1.20213238,0.794033296 L1.20213238,27.1778521 C1.20213238,27.4018228 1.01625579,27.583387 0.801421587,27.583387 L0.801421587,27.583387 C0.580115127,27.583387 0.400710793,27.4097258 0.400710793,27.1778521 L0.400710793,0.794033296 Z" id="Rectangle-166" fill="#3D3C6E"></path>
                            </g>
                            <g id="Volume-Up-Button" transform="translate(0.400711, 146.852398)">
                                <g id="Rectangle-165">
                                    <use fill="black" fill-opacity="1" filter="url(#filter-7)" xlink:href="#path-6"></use>
                                    <use fill="#3D3C6E" fill-rule="evenodd" xlink:href="#path-6"></use>
                                    <use fill="black" fill-opacity="1" filter="url(#filter-8)" xlink:href="#path-6"></use>
                                </g>
                                <path d="M0.400710793,0.79503388 C0.400710793,0.570510539 0.586587382,0.388498408 0.801421587,0.388498408 L0.801421587,0.388498408 C1.02272805,0.388498408 1.20213238,0.571375364 1.20213238,0.79503388 L1.20213238,50.486756 C1.20213238,50.7112794 1.01625579,50.8932915 0.801421587,50.8932915 L0.801421587,50.8932915 C0.580115127,50.8932915 0.400710793,50.7104146 0.400710793,50.486756 L0.400710793,0.79503388 Z" id="Rectangle-166" fill="#3D3C6E"></path>
                            </g>
                            <g id="Volume-Down-Button" transform="translate(0.400711, 209.789141)">
                                <g id="Rectangle-165">
                                    <use fill="black" fill-opacity="1" filter="url(#filter-10)" xlink:href="#path-9"></use>
                                    <use fill="#3D3C6E" fill-rule="evenodd" xlink:href="#path-9"></use>
                                    <use fill="black" fill-opacity="1" filter="url(#filter-11)" xlink:href="#path-9"></use>
                                </g>
                                <path d="M0.400710793,0.79503388 C0.400710793,0.570510539 0.586587382,0.388498408 0.801421587,0.388498408 L0.801421587,0.388498408 C1.02272805,0.388498408 1.20213238,0.571375364 1.20213238,0.79503388 L1.20213238,50.486756 C1.20213238,50.7112794 1.01625579,50.8932915 0.801421587,50.8932915 L0.801421587,50.8932915 C0.580115127,50.8932915 0.400710793,50.7104146 0.400710793,50.486756 L0.400710793,0.79503388 Z" id="Rectangle-166" fill="#3D3C6E"></path>
                            </g>
                            <g id="Sleep-Button" transform="translate(347.472226, 172.852398) scale(-1, 1) translate(-347.472226, -172.852398) translate(345.925351, 146.852398)" fill="#3D3C6E">
                                <path d="M0,1.24223709 C0,0.55616849 0.554172907,0.0767547839 1.23846812,0.171531938 L1.56650743,0.21696647 C2.25049449,0.311700944 2.80497555,0.938477992 2.80497555,1.63693842 L2.80497555,49.6448515 C2.80497555,50.3343459 2.25080265,50.9700463 1.56650743,51.0648234 L1.23846812,51.110258 C0.554481064,51.2049925 0,50.7233491 0,50.0395528 L0,1.24223709 Z" id="Rectangle-165"></path>
                                <rect id="Rectangle-166" x="0.400710793" y="0.388498408" width="1" height="50.5047931" rx="0.5"></rect>
                            </g>
                        </g>
                        <g id="Front" stroke-width="1" fill="none" transform="translate(7.613505, 5.438978)">
                            <path d="M0.000802951548,628.590425 C0.000802951573,609.767981 -0.00100368945,242.135933 0.000802951548,50.1162947 C0.00102696328,26.307109 11.0649605,-4.31319878e-17 52.0932061,-8.62639756e-16 C93.1214517,-1.68214752e-15 265.580473,4.22693481e-15 282.902623,-4.31319878e-17 C310.470274,-4.14067083e-15 334.193609,13.8622606 334.193605,50.1162947 C334.193583,241.781327 334.193605,615.258556 334.193605,628.978923 C334.193605,642.699291 330.010403,679.095218 282.101202,679.095218 L52.4939169,679.095218 C7.27659994,679.095218 0.000802951523,647.412869 0.000802951548,628.590425 Z" id="White-Surface" fill="#2A2A5A"></path>
                            <path d="M58.1174647,0.388498408 C31.5556233,0.388498408 10.0177698,21.9252367 10.0177698,48.4921498 L10.0177698,48.4921498 L10.0177698,630.603068 C10.0177698,657.167393 31.5527368,678.70672 58.1174647,678.70672 L58.1174647,678.70672 L48.5004056,678.70672 C21.9356777,678.70672 0.400710793,657.167393 0.400710793,630.603068 L0.400710793,48.4921498 C0.400710793,21.9252367 21.9385643,0.388498408 48.5004056,0.388498408 Z" id="Light-Left" fill="#3D3C6E" opacity="0.800000012" filter="url(#filter-12)"></path>
                            <path d="M285.892752,0.388498408 C312.457479,0.388498408 333.992446,21.9278249 333.992446,48.4921498 L333.992446,630.603068 C333.992446,657.169981 312.454593,678.70672 285.892752,678.70672 L278.279246,678.70672 C304.841088,678.70672 326.378941,657.169981 326.378941,630.603068 L326.378941,630.603068 L326.378941,48.4921498 C326.378941,21.9278249 304.843974,0.388498408 278.279246,0.388498408 L278.279246,0.388498408 L285.892752,0.388498408 Z" id="Light-Right" fill="#3D3C6E" opacity="0.800000012" filter="url(#filter-13)"></path>
                            <path d="M2.80577851,628.590425 L2.80577851,628.590425 C2.80577851,640.123014 5.48041355,650.942167 11.5833225,659.334166 C19.5156364,670.241747 32.745981,676.375729 52.4939169,676.375729 L282.101202,676.375729 C302.681582,676.375729 316.029494,669.586077 323.740803,657.731518 C329.230871,649.291662 331.388629,639.18805 331.388629,628.978923 C331.388629,628.486854 331.388626,557.472239 331.388624,515.397715 C331.388621,434.91945 331.388619,357.156715 331.388619,284.131904 C331.388619,188.694091 331.388622,109.099557 331.388629,50.1162944 C331.388631,33.6153065 326.335931,21.43882 317.033301,13.5047505 C308.632505,6.33984088 296.796361,2.71948886 282.902623,2.71948886 L240.419776,2.71948886 C204.970096,2.71948886 204.970096,2.71948886 163.837113,2.71948886 L145.45954,2.71948886 L52.0932061,2.71948886 C33.7664204,2.71948886 20.9065526,8.0817815 12.850517,17.8301251 C6.05463056,26.0536034 2.80589901,37.3085314 2.80577851,50.1163195 C2.80522366,109.088446 2.80497348,187.998088 2.80497557,282.405541 C2.80497717,354.988574 2.80512493,432.086768 2.80537703,512.921139 C2.80549842,551.844432 2.80577851,626.584225 2.80577851,628.590425 L2.80577851,628.590425 Z M0.000802951548,628.590425 C0.000802951573,609.767981 -0.00100368945,242.135933 0.000802951548,50.1162947 C0.00102696328,26.307109 11.0649605,8.98705319e-16 52.0932061,7.91975509e-17 C93.1214517,-7.40310218e-16 265.580473,5.16877211e-15 282.902623,8.98705319e-16 C310.470274,-3.19883352e-15 334.193609,13.8622606 334.193605,50.1162947 C334.193583,241.781327 334.193605,615.258556 334.193605,628.978923 C334.193605,642.699291 330.010403,679.095218 282.101202,679.095218 L52.4939169,679.095218 C7.27659994,679.095218 0.000802951523,647.412869 0.000802951548,628.590425 L0.000802951548,628.590425 Z" id="Stroke" fill="#514E82" fill-rule="nonzero"></path>
                            <ellipse id="Sensor" fill="#514E82" cx="167.296756" cy="20.0071571" rx="3.40604174" ry="3.30172553"></ellipse>
                            <g id="Speaker" opacity="0.801364272" transform="translate(139.848067, 37.295847)">
                                <mask id="mask-15" fill="white">
                                    <use xlink:href="#path-14"></use>
                                </mask>
                                <use id="Mask" fill="#514E82" xlink:href="#path-14"></use>
                                <path d="M54.8973787,4.6619809 L54.8973787,5.05047931 L-0.801421587,5.05047931 L-0.801421587,4.6619809 L54.8973787,4.6619809 Z M54.8973787,3.49648568 L54.8973787,3.88498408 L-0.801421587,3.88498408 L-0.801421587,3.49648568 L54.8973787,3.49648568 Z M54.8973787,2.33099045 L54.8973787,2.71948886 L-0.801421587,2.71948886 L-0.801421587,2.33099045 L54.8973787,2.33099045 Z M54.8973787,1.16549523 L54.8973787,1.55399363 L-0.801421587,1.55399363 L-0.801421587,1.16549523 L54.8973787,1.16549523 Z M54.8973787,0 L54.8973787,0.388498408 L-0.801421587,0.388498408 L-0.801421587,0 L54.8973787,0 Z" id="Grid" fill="#514E82" mask="url(#mask-15)"></path>
                                <path d="M0.801421587,-0.388498408 L0.801421587,6.21597454 L0.400710793,6.21597454 L0.400710793,-0.388498408 L0.801421587,-0.388498408 Z M2.00355397,-0.388498408 L2.00355397,6.21597454 L1.60284317,6.21597454 L1.60284317,-0.388498408 L2.00355397,-0.388498408 Z M3.20568635,-0.388498408 L3.20568635,6.21597454 L2.80497555,6.21597454 L2.80497555,-0.388498408 L3.20568635,-0.388498408 Z M4.40781873,-0.388498408 L4.40781873,6.21597454 L4.00710793,6.21597454 L4.00710793,-0.388498408 L4.40781873,-0.388498408 Z M5.60995111,-0.388498408 L5.60995111,6.21597454 L5.20924032,6.21597454 L5.20924032,-0.388498408 L5.60995111,-0.388498408 Z M6.81208349,-0.388498408 L6.81208349,6.21597454 L6.4113727,6.21597454 L6.4113727,-0.388498408 L6.81208349,-0.388498408 Z M8.01421587,-0.388498408 L8.01421587,6.21597454 L7.61350508,6.21597454 L7.61350508,-0.388498408 L8.01421587,-0.388498408 Z M9.21634825,-0.388498408 L9.21634825,6.21597454 L8.81563746,6.21597454 L8.81563746,-0.388498408 L9.21634825,-0.388498408 Z M10.4184806,-0.388498408 L10.4184806,6.21597454 L10.0177698,6.21597454 L10.0177698,-0.388498408 L10.4184806,-0.388498408 Z M11.620613,-0.388498408 L11.620613,6.21597454 L11.2199022,6.21597454 L11.2199022,-0.388498408 L11.620613,-0.388498408 Z M12.8227454,-0.388498408 L12.8227454,6.21597454 L12.4220346,6.21597454 L12.4220346,-0.388498408 L12.8227454,-0.388498408 Z M14.0248778,-0.388498408 L14.0248778,6.21597454 L13.624167,6.21597454 L13.624167,-0.388498408 L14.0248778,-0.388498408 Z M15.2270102,-0.388498408 L15.2270102,6.21597454 L14.8262994,6.21597454 L14.8262994,-0.388498408 L15.2270102,-0.388498408 Z M16.4291425,-0.388498408 L16.4291425,6.21597454 L16.0284317,6.21597454 L16.0284317,-0.388498408 L16.4291425,-0.388498408 Z M17.6312749,-0.388498408 L17.6312749,6.21597454 L17.2305641,6.21597454 L17.2305641,-0.388498408 L17.6312749,-0.388498408 Z M18.8334073,-0.388498408 L18.8334073,6.21597454 L18.4326965,6.21597454 L18.4326965,-0.388498408 L18.8334073,-0.388498408 Z M20.0355397,-0.388498408 L20.0355397,6.21597454 L19.6348289,6.21597454 L19.6348289,-0.388498408 L20.0355397,-0.388498408 Z M21.2376721,-0.388498408 L21.2376721,6.21597454 L20.8369613,6.21597454 L20.8369613,-0.388498408 L21.2376721,-0.388498408 Z M22.4398044,-0.388498408 L22.4398044,6.21597454 L22.0390936,6.21597454 L22.0390936,-0.388498408 L22.4398044,-0.388498408 Z M23.6419368,-0.388498408 L23.6419368,6.21597454 L23.241226,6.21597454 L23.241226,-0.388498408 L23.6419368,-0.388498408 Z M24.8440692,-0.388498408 L24.8440692,6.21597454 L24.4433584,6.21597454 L24.4433584,-0.388498408 L24.8440692,-0.388498408 Z M26.0462016,-0.388498408 L26.0462016,6.21597454 L25.6454908,6.21597454 L25.6454908,-0.388498408 L26.0462016,-0.388498408 Z M27.248334,-0.388498408 L27.248334,6.21597454 L26.8476232,6.21597454 L26.8476232,-0.388498408 L27.248334,-0.388498408 Z M28.4504663,-0.388498408 L28.4504663,6.21597454 L28.0497555,6.21597454 L28.0497555,-0.388498408 L28.4504663,-0.388498408 Z M29.6525987,-0.388498408 L29.6525987,6.21597454 L29.2518879,6.21597454 L29.2518879,-0.388498408 L29.6525987,-0.388498408 Z M30.8547311,-0.388498408 L30.8547311,6.21597454 L30.4540203,6.21597454 L30.4540203,-0.388498408 L30.8547311,-0.388498408 Z M32.0568635,-0.388498408 L32.0568635,6.21597454 L31.6561527,6.21597454 L31.6561527,-0.388498408 L32.0568635,-0.388498408 Z M33.2589959,-0.388498408 L33.2589959,6.21597454 L32.8582851,6.21597454 L32.8582851,-0.388498408 L33.2589959,-0.388498408 Z M34.4611282,-0.388498408 L34.4611282,6.21597454 L34.0604174,6.21597454 L34.0604174,-0.388498408 L34.4611282,-0.388498408 Z M35.6632606,-0.388498408 L35.6632606,6.21597454 L35.2625498,6.21597454 L35.2625498,-0.388498408 L35.6632606,-0.388498408 Z M36.865393,-0.388498408 L36.865393,6.21597454 L36.4646822,6.21597454 L36.4646822,-0.388498408 L36.865393,-0.388498408 Z M38.0675254,-0.388498408 L38.0675254,6.21597454 L37.6668146,6.21597454 L37.6668146,-0.388498408 L38.0675254,-0.388498408 Z M39.2696578,-0.388498408 L39.2696578,6.21597454 L38.868947,6.21597454 L38.868947,-0.388498408 L39.2696578,-0.388498408 Z M40.4717901,-0.388498408 L40.4717901,6.21597454 L40.0710793,6.21597454 L40.0710793,-0.388498408 L40.4717901,-0.388498408 Z M41.6739225,-0.388498408 L41.6739225,6.21597454 L41.2732117,6.21597454 L41.2732117,-0.388498408 L41.6739225,-0.388498408 Z M42.8760549,-0.388498408 L42.8760549,6.21597454 L42.4753441,6.21597454 L42.4753441,-0.388498408 L42.8760549,-0.388498408 Z M44.0781873,-0.388498408 L44.0781873,6.21597454 L43.6774765,6.21597454 L43.6774765,-0.388498408 L44.0781873,-0.388498408 Z M45.2803197,-0.388498408 L45.2803197,6.21597454 L44.8796089,6.21597454 L44.8796089,-0.388498408 L45.2803197,-0.388498408 Z M46.482452,-0.388498408 L46.482452,6.21597454 L46.0817412,6.21597454 L46.0817412,-0.388498408 L46.482452,-0.388498408 Z M47.6845844,-0.388498408 L47.6845844,6.21597454 L47.2838736,6.21597454 L47.2838736,-0.388498408 L47.6845844,-0.388498408 Z M48.8867168,-0.388498408 L48.8867168,6.21597454 L48.486006,6.21597454 L48.486006,-0.388498408 L48.8867168,-0.388498408 Z M50.0888492,-0.388498408 L50.0888492,6.21597454 L49.6881384,6.21597454 L49.6881384,-0.388498408 L50.0888492,-0.388498408 Z M51.2909816,-0.388498408 L51.2909816,6.21597454 L50.8902708,6.21597454 L50.8902708,-0.388498408 L51.2909816,-0.388498408 Z M52.4931139,-0.388498408 L52.4931139,6.21597454 L52.0924032,6.21597454 L52.0924032,-0.388498408 L52.4931139,-0.388498408 Z M53.6952463,-0.388498408 L53.6952463,6.21597454 L53.2945355,6.21597454 L53.2945355,-0.388498408 L53.6952463,-0.388498408 Z" id="Grid" fill="#514E82" mask="url(#mask-15)"></path>
                            </g>
                            <g id="Camera" transform="translate(108.587842, 36.126664)">
                                <mask id="mask-17" fill="white">
                                    <use xlink:href="#path-16"></use>
                                </mask>
                                <use id="Mask" fill="#514E82" xlink:href="#path-16"></use>
                            </g>
                        </g>
                        <rect id="Rectangle" fill="#FFFFFF" x="20.625" y="85" width="307.3125" height="505"></rect>
                        <g id="Group" stroke-width="1" fill="none" transform="translate(20.787219, 85.307371)">
                            <g id="telephone-screen/qr-code">
                                <g id="Front">
                                    <mask id="mask-19" fill="white">
                                        <use xlink:href="#path-18"></use>
                                    </mask>
                                    <rect stroke="#E5E3EB" stroke-width="2.90304" x="-0.655477259" y="-0.584777308" width="308.820938" height="526.378795" rx="2.48832"></rect>
                                    <g id="Qr-code-img" mask="url(#mask-19)">
                                        <g transform="translate(0.796043, 64.745070)" id="Group-4">
                                            <g transform="translate(12.948560, 267.183707)">
                                                <g id="Group-3" transform="translate(0.000000, 0.615719)" fill="#F6F5F9">
                                                    <rect id="Rectangle-Copy-5" x="0.733996867" y="0.372662275" width="86.6557503" height="11.9771863" rx="5.98859316"></rect>
                                                    <g id="Group" transform="translate(0.733997, 36.304221)">
                                                        <rect id="Rectangle-Copy-6" x="5.84237229e-14" y="0" width="275.903941" height="9.98098859" rx="4.9904943"></rect>
                                                        <rect id="Rectangle-Copy-7" x="5.84237229e-14" y="21.9581749" width="275.903941" height="9.98098859" rx="4.9904943"></rect>
                                                    </g>
                                                </g>
                                            </g>
                                        </g>
                                    </g>
                                </g>
                                <g id="Status-Bar" transform="translate(7.596344, 8.505322)" fill="#E5E3EB">
                                    <path d="M137.606526,0.998098859 L153.106041,0.998098859 C155.31098,0.998098859 157.098436,2.78555518 157.098436,4.9904943 C157.098436,7.19543341 155.31098,8.98288973 153.106041,8.98288973 L137.606526,8.98288973 C135.401587,8.98288973 133.61413,7.19543341 133.61413,4.9904943 C133.61413,2.78555518 135.401587,0.998098859 137.606526,0.998098859 Z" id="Charge-Copy"></path>
                                    <ellipse id="Oval" cx="5.25728319" cy="4.9904943" rx="5.25728319" ry="4.9904943"></ellipse>
                                    <path d="M27.1936486,0.681889959 L32.0308545,8.45251748 C32.322721,8.92138033 32.1792371,9.53807334 31.7103743,9.82993988 C31.5517837,9.92866234 31.3687108,9.98098859 31.1819032,9.98098859 L22.3564427,9.98098859 C21.8041579,9.98098859 21.3564427,9.53327334 21.3564427,8.98098859 C21.3564427,8.79418092 21.408769,8.61110809 21.5074914,8.45251748 L26.3446973,0.681889959 C26.4906306,0.447458534 26.7989771,0.375716603 27.0334085,0.521649871 C27.0983816,0.562095573 27.1532029,0.616916812 27.1936486,0.681889959 Z" id="Triangle" transform="translate(26.769173, 4.990494) rotate(-180.000000) translate(-26.769173, -4.990494) "></path>
                                    <path d="M277.387462,0.998098859 L288.972926,0.998098859 C291.177866,0.998098859 292.965322,2.78555518 292.965322,4.9904943 C292.965322,7.19543341 291.177866,8.98288973 288.972926,8.98288973 L277.387462,8.98288973 C275.182523,8.98288973 273.395067,7.19543341 273.395067,4.9904943 C273.395067,2.78555518 275.182523,0.998098859 277.387462,0.998098859 Z" id="Charge"></path>
                                    <rect id="Rectangle" x="255.92245" y="0" width="10.5145664" height="9.98098859" rx="2"></rect>
                                </g>
                                <g id="Group-2" transform="translate(13.361413, 64.876426)">
                                    <path d="M41.7366932,58.2256171 C29.7650788,55.0514446 20.7412488,51.1567545 18.2346294,46.3078653 C16.7413828,39.0223015 19.9052493,31.5793284 26.2558116,27.4380918 C33.1139223,22.7255168 35.4200122,22.6086761 41.4760048,23.6602424 C47.5319973,24.7118087 52.8861364,24.6923353 57.11731,30.2227952 C63.7949442,39.0442683 55.0719086,61.7308381 41.7366932,58.2256171 Z" id="Path" fill="#6D6899" fill-rule="nonzero"></path>
                                    <path d="M33.3144519,38.4405913 C29.4241785,47.6515334 26.5566059,70.630205 41.7366932,77.7769614 C56.9167805,84.9237177 73.8214219,61.3218957 77.410901,53.2404137 C81.00038,45.1589318 90.2848984,17.3118975 69.3897188,10.3988226 C48.4945392,3.48574764 38.5883792,25.8412688 33.3144519,38.4405913 Z" id="Path" fill="#8782C5" fill-rule="nonzero"></path>
                                    <path d="M68.6678124,45.3147194 C63.2735674,66.5018335 40.0923508,67.0470901 46.6095614,42.0626531 C52.9663482,18.1492559 75.3053406,19.0255612 68.6678124,45.3147194 Z" id="Path" fill="#4E4C75" fill-rule="nonzero"></path>
                                    <path d="M184.67416,32.1701403 C177.836102,23.426561 186.378661,8.17884922 181.967011,4.22573876 C177.555361,0.272628307 157.903464,8.84094654 158.264417,14.7608755 C158.401846,21.1723395 161.072708,27.287005 165.724117,31.8390916 C170.797515,36.4542994 191.111158,40.3879364 184.67416,32.1701403 Z" id="Path" fill="#4E4C75" fill-rule="nonzero"></path>
                                    <path d="M97.664386,60.4455904 C78.9349256,56.7066879 83.2262581,25.1207512 101.674977,28.2365033 C117.597024,30.904366 113.526274,13.9819375 113.867174,7.41938465 C114.208074,0.856831823 133.499017,-0.856831823 138.572415,1.10998668 C143.645813,3.07680518 170.937885,35.3443127 173.845564,31.8390916 C180.60341,23.6212955 196.665827,28.1196626 199.713876,38.3042772 C202.581449,47.9241617 198.99197,58.0893029 186.699508,63.4055549" id="Path" fill="#4E4C75" fill-rule="nonzero"></path>
                                    <path d="M120.344279,54.0972455 C126.059371,51.3125421 128.826679,45.2173521 131.854675,46.853122 C134.882671,48.4888918 144.728672,63.9508115 150.483871,60.990847 C156.239069,58.0308825 158.505053,46.853122 164.360516,54.4282942 C170.215979,62.0034665 186.037761,91.2331157 185.01506,114.912832 C183.992359,138.592547 194.500108,143.188282 181.967011,159.701768 C169.433914,176.215254 167.408565,203.088615 157.903464,206.710677 C148.398363,210.332739 129.829327,219.855256 122.028727,211.306412 C114.228127,202.757567 99.6897345,158.728095 92.9118355,148.524007 C86.1339366,138.319919 82.7650401,106.110832 87.4975376,95.2641199 C92.2300351,84.417408 119.000731,54.7398694 120.344279,54.0972455 Z" id="Path" fill="#84B0D9" fill-rule="nonzero"></path>
                                    <path d="M93.7540597,82.5674302 C92.7714649,84.5147753 86.5550487,102.040881 87.297008,105.000845 C88.0389674,107.96081 91.8891348,110.84288 92.7514119,111.621818 C93.613689,112.400756 128.846732,141.299357 131.172875,143.344069 C133.499017,145.388782 146.212591,158.085471 153.231126,151.931861 C160.24966,145.778251 185.877337,117.327539 189.587134,112.614964 C193.296931,107.902389 193.978731,95.82885 191.231476,88.4873592 C188.484221,81.1458683 187.441468,76.8032888 176.652978,77.6990676 C165.864488,78.5948463 134.4014,83.6579434 116.494111,78.9648419 C98.5868219,74.2717403 97.1029032,76.1801384 93.7540597,82.5674302 Z" id="Path" fill="#ED7788"></path>
                                    <path d="M103.038578,87.6889477 C102.216407,89.2273503 97.0226914,103.754544 97.6844389,106.247146 C98.3461865,108.739748 101.4945,111.037615 102.216407,111.719186 C102.938313,112.400756 133.238329,136.177839 135.083201,137.87203 C136.928073,139.56622 145.971956,149.341892 151.727154,144.239848 C157.482352,139.137804 178.237161,115.613876 181.325316,111.719186 C184.413471,107.824496 184.192889,98.5551331 181.926905,92.4794165 C179.660921,86.4037 177.515255,83.6968903 168.571637,84.4953018 C159.628018,85.2937133 136.627278,88.5847264 121.828197,84.6900363 C107.029116,80.7953462 105.805886,82.3142753 103.038578,87.6889477 Z" id="Path" fill="#F0DD8C" fill-rule="nonzero"></path>
                                    <path d="M142.302265,87.4163194 C155.416898,94.5046554 154.153562,92.284682 159.387383,89.6752396 C164.621204,87.0657973 169.81492,92.8688855 168.651848,97.4646199 C166.646553,105.507155 134.561824,111.933394 138.853157,117.230172 C141.901206,121.124862 159.587912,109.908155 168.631795,107.493447 C183.771777,103.598757 182.668864,129.810021 165.924646,125.272707 C155.055945,122.332216 142.121788,125.817964 129.287897,131.718419 C118.940572,136.469941 111.420713,117.38596 124.274658,112.653911 C127.88419,111.329717 149.300746,103.55981 147.897039,100.697213 C146.493333,97.8346154 140.698028,99.6456463 137.228867,100.560898 C133.759706,101.476151 124.796035,98.2630313 126.981807,90.6489122 C129.047261,83.5216293 135.404048,83.6774169 142.302265,87.4163194 Z" id="Path" fill="#ED7788"></path>
                                    <path d="M98.7472456,83.8916248 C100.090794,91.4473236 100.592117,95.6925359 97.5440683,104.241381 C94.496019,112.790225 100.090794,122.46853 101.093441,131.017375 C102.096089,139.56622 105.104032,154.385516 114.308339,162.895414 C123.512646,171.405311 127.503184,188.541948 128.866785,199.38866 C130.230386,210.235372 147.816828,221.198924 142.061629,226.125707 C136.306431,231.05249 130.210333,222.737327 124.013969,222.406278 C117.817606,222.07523 112.844473,232.045636 101.674977,237.303468 C90.5054809,242.5613 64.777539,228.657256 68.1664885,221.101557 C71.555438,213.545858 95.4786138,193.838726 98.5066101,173.099502 C101.534606,152.360277 85.0911829,143.889326 80.0177852,131.017375 C74.9443874,118.145424 73.5406806,90.9410139 76.2478295,86.6568548" id="Path" fill="#8782C5" fill-rule="nonzero"></path>
                                    <path d="M150.483871,199.154978 C148.859581,208.891704 149.80207,214.616898 154.494462,216.681084 C159.186853,218.74527 160.911408,206.827518 170.396455,211.423252 C179.881503,216.018987 180.202351,229.514088 191.051,224.567831 C201.899649,219.621575 211.103955,217.226341 206.772517,206.710677 C202.441078,196.195014 192.093753,180.226785 191.071053,168.055878 C190.048352,155.884971 191.712747,150.276618 197.808846,141.727773 C203.904944,133.178928 234.044536,126.616375 218.12249,107.551867 C202.200443,88.4873592 178.177002,60.815586 174.788053,64.4765947 C171.399103,68.1376034 181.124787,102.391403 181.445634,109.947102 C181.766481,117.5028 192.735448,131.21211 190.369199,138.105711 C188.00295,144.999313 178.858803,159.526507 173.785405,164.414343 C168.712007,169.302179 158.204259,176.19578 152.970437,188.366687 C151.68816,191.849878 150.853004,195.473308 150.483871,199.154978 L150.483871,199.154978 Z" id="Path" fill="#8782C5" fill-rule="nonzero"></path>
                                    <path d="M129.729062,15.9682294 C128.946957,19.5045327 128.946957,23.1617974 129.729062,26.6981007 C130.611392,30.8654191 130.551233,30.4759501 136.045743,35.0327375 C143.222853,41.028924 152.550845,44.0250643 161.994267,43.3673743 C167.288247,42.9389584 175.750595,46.4441795 176.211813,30.4370032 C176.673031,14.4298268 177.555361,12.2488004 178.016579,9.19146865 C178.477797,6.13413691 180.26251,1.94734505 176.652978,1.07103978 C173.043446,0.194734505 167.187983,1.07103978 154.313985,1.07103978 C146.946,1.05438319 139.582485,1.42492046 132.255734,2.18102646 C127.34276,2.47312822 130.611392,10.2625084 129.729062,15.9682294 Z" id="Path" fill="#FFA087" fill-rule="nonzero"></path>
                                    <path d="M131.07261,20.7781717 C128.144878,22.5307823 123.171745,22.7255168 121.366979,19.6876585 C119.562213,16.6498002 118.65983,9.15252174 120.244014,6.30939797 C121.828197,3.46627419 124.755929,-0.038946901 131.75441,3.01838483" id="Path" fill="#FFA087" fill-rule="nonzero"></path>
                                    <path d="M116.975382,52.1109536 C107.149434,54.0582986 91.7086582,62.0618868 84.6500179,68.5075989 C78.6341312,73.9406916 77.0298948,84.3589877 64.8778038,95.4588544 C58.039746,101.690359 54.5505317,108.175018 48.5948039,112.98496 C6.58386224,146.498768 44.082889,186.302501 62.1305489,182.79728 C76.488465,180.012577 81.7623923,164.609077 86.1940955,160.772807 C92.2099821,155.437082 89.6833097,145.953512 91.1271225,139.00149 C92.5709353,132.049468 98.2659747,110.78446 103.499796,104.06612 C108.733617,97.3477791 114.468763,85.5663416 113.746856,79.5490454 C113.02495,73.5317492 111.841826,61.0492674 114.228127,57.7972011" id="Path" fill="#8782C5" fill-rule="nonzero"></path>
                                    <path d="M171.479315,53.7661969 C178.918962,57.660887 189.08581,55.7135419 201.939754,63.2887142 C214.793699,70.8638864 226.965843,81.7105984 229.332092,93.881505 C231.69834,106.052412 267.693395,133.373663 262.84058,147.491914 C250.608277,182.933594 230.053998,173.31371 199.914406,158.961777" id="Path" fill="#8782C5" fill-rule="nonzero"></path>
                                    <path d="M104.763132,132.653145 C105.444933,140.870941 108.472929,154.073941 119.54216,158.630728 C143.244754,168.503767 123.412381,170.314798 127.803978,190.391926 C132.195575,210.469053 123.673069,198.414987 120.62502,191.03455 C116.393846,180.849935 118.960625,170.626373 112.202779,164.375396 C105.444933,158.124418 92.1498232,149.458733 91.9693466,134.366809" id="Path" fill="#6D6899" fill-rule="nonzero"></path>
                                    <path d="M85.492242,113.919686 C83.2864169,107.065031 60.7669479,103.520863 57.0571512,116.334393 C53.3473544,129.147924 61.0677423,158.747569 60.4260477,169.925329 C59.7843531,181.10309 85.492242,183.400957 85.1513418,150.451879 C85.0109711,136.508888 90.2247395,128.719508 85.492242,113.919686 Z" id="Path" fill="#4E4C75" fill-rule="nonzero"></path>
                                    <path d="M201.257954,101.651412 C203.624203,87.2410583 222.594299,92.9857262 225.642348,110.414464 C231.116805,141.76672 216.4982,151.172396 210.743002,158.747569 C204.987804,166.322741 194.820955,160.694914 193.136507,151.503445 C191.452059,142.311976 201.257954,127.181105 200.576153,122.585371" id="Path" fill="#4E4C75" fill-rule="nonzero"></path>
                                    <path d="M180.503145,105.039792 C181.245104,97.7372482 168.05026,59.1408692 153.291284,47.1062768 C149.701805,44.1852592 167.067665,51.7993784 178.29732,47.1062768 C192.113806,41.2642417 190.85047,47.6125865 187.12062,50.572551 C183.390771,53.5325155 176.913666,53.2988341 176.572766,57.2324711 C176.33213,60.036648 192.214071,71.1365147 186.037761,82.8011116 C182.388123,89.6752396 189.687399,95.8677969 186.378661,103.189814 C182.207646,112.322863 187.842527,115.672296 180.362774,118.145424 C177.615519,119.060676 180.583357,118.418053 181.265157,115.010199 C181.946958,111.602345 179.941662,110.628672 180.503145,105.039792 Z" id="Path" fill="#6D6899" fill-rule="nonzero"></path>
                                    <path d="M99.027987,109.265531 C100.070741,103.851912 112.343149,85.8973902 110.758966,76.8811827 C109.174782,67.8649751 108.75367,57.1545773 114.769557,51.565697 C120.785444,45.9768167 101.434342,40.1737284 108.75367,34.234326 C110.899337,32.5011889 111.26029,37.5448126 118.038189,37.1358701 C125.658312,36.6685073 139.956069,39.8037329 133.699547,46.0741839 C129.599851,50.6452294 126.041563,55.6487857 123.091534,60.990847 C119.702584,66.6770946 119.94322,80.697979 118.359036,86.3063327 C116.774853,91.9146865 106.327263,100.560898 104.021173,109.674473 C101.715083,118.788048 98.0052862,114.542836 99.027987,109.265531 Z" id="Path" fill="#6D6899" fill-rule="nonzero"></path>
                                    <path d="M93.8342715,103.520863 C97.0026385,99.9961684 97.1630621,87.3968459 102.858101,91.4667971 C104.562603,92.6546776 104.562603,96.0625314 104.101385,98.4772393 C103.640167,100.891947 100.953071,100.658266 105.003768,102.644558 C107.18954,103.696124 112.904632,101.748779 113.90728,106.695035 C114.909928,111.641292 117.296229,114.250734 117.296229,116.217553 C117.296229,118.184371 113.586433,120.501712 112.904632,122.799579 C112.222832,125.097446 116.915223,128.641614 110.538383,132.653145 C104.161544,136.664676 92.5909883,138.689915 88.8811915,133.432083 C86.4547839,130.024229 83.8880056,117.95069 86.8758959,110.414464 C88.4400265,106.32504 92.5709353,104.922951 93.8342715,103.520863 Z" id="Path" fill="#FFA087" fill-rule="nonzero"></path>
                                    <path d="M181.967011,120.930128 C183.029817,123.422729 185.055166,129.031083 183.430877,134.308388 C181.230529,141.366454 178.392016,148.221823 174.948476,154.794458 C169.173225,163.012254 158.344629,167.939037 152.248531,184.705678 C146.152432,201.472319 151.887578,205.48385 152.970437,202.562832 C157.702935,189.729828 166.686659,173.138449 178.217108,169.243758 C184.634054,167.082205 192.254177,148.971896 191.833065,135.827317 C191.712747,132.419464 191.432006,128.349512 190.008246,126.889004 C186.358608,123.189048 193.637831,122.390637 191.19137,120.112243" id="Path" fill="#6D6899" fill-rule="nonzero"></path>
                                    <path d="M201.017318,97.0946243 C196.545509,94.6214961 195.46265,96.3546332 192.153912,92.6546776 C188.845175,88.954722 191.432006,83.8916248 188.143321,83.0737399 C183.711618,81.9442798 181.746428,90.5515449 184.593948,93.5894032 C187.441468,96.6272615 185.997655,98.5746065 180.924257,97.9319827 C175.850859,97.2893588 171.439209,99.8793277 171.118362,104.163487 C170.797515,108.447646 174.146358,116.003345 175.128953,118.632261 C176.111548,121.261176 180.543251,129.147924 186.98025,128.485827 C193.417248,127.823729 202.842137,129.264765 206.05061,122.254322 C209.840619,114.367575 208.477018,101.203522 201.017318,97.0946243 Z" id="Path" fill="#FFA087" fill-rule="nonzero"></path>
                                    <path d="M205.328704,107.4545 C214.352534,111.34919 224.960547,116.003345 226.304095,125.545336 C227.647643,135.087326 224.619647,146.245613 217.520901,145.018786 C210.422155,143.791959 204.306003,121.650645 199.914406,120.365398" id="Path" fill="#FFA087" fill-rule="nonzero"></path>
                                    <path d="M92.250088,114.795991 C84.589859,115.24388 64.777539,119.839614 58.4006992,131.445791 C51.1816352,144.609844 60.6666831,155.553923 67.8857471,154.249202 C75.1048111,152.94448 85.031024,141.104622 93.9545892,127.94057" id="Path" fill="#FFA087" fill-rule="nonzero"></path>
                                    <path d="M130.290545,2.80417687 C130.584508,5.8003958 131.498471,8.70811937 132.977641,11.3530217 C134.0605,12.6966897 135.363942,12.7551101 135.664737,10.7688181 C136.125955,7.88674746 140.317022,2.80417687 139.414639,1.49945569 C138.512256,0.194734505 129.829327,0.272628307 130.290545,2.80417687 Z" id="Path" fill="#4E4C75" fill-rule="nonzero"></path>
                                    <path d="M129.789221,15.3061321 C128.42562,20.3302823 131.373404,42.0431797 130.591339,47.5152193 C129.809274,52.9872589 129.789221,66.7939353 142.623112,67.4560326 C155.457004,68.1181299 157.06124,64.6129088 159.02643,54.7398694 C160.991619,44.86683 157.241717,36.999556 159.427489,30.2033218" id="Path" fill="#FFA087" fill-rule="nonzero"></path>
                                </g>
                            </g>
                        </g>
                    </g>
                </g>
            </g>
        </g>
    </g>
</svg>