<svg viewBox="0 0 52 52" xmlns="http://www.w3.org/2000/svg"><path d="M25.6 0l3.8.3a1 1 0 01.8 1.5c-.4.6-.6 1.7-.6 2.5 0 2 1.1 4 2.8 4.8.4.2.6.7.5 1.1l-.3 1.9c0 3.6 3 6.5 6.5 6.5l1.9-.3c.4-.1 1 0 1.1.5a5.4 5.4 0 004.8 2.8c.8 0 1.9-.2 2.5-.6a1 1 0 011.5.8l.3 3.8c0 12-9 22.8-21 25.1-.2.1-2.3.5-4.5.6A26.1 26.1 0 010 25.6 26 26 0 0125.6 0zm.1 39.8a1 1 0 100 2 1 1 0 000-2zm-11-8a4 4 0 00-4 4c0 2.2 1.7 4.3 4 4 2.3-.3 4-1.8 4-4a4 4 0 00-4-4zm20-1a4 4 0 000 8c2.2 0 2.8-1.8 4-4 1.2-2.2-1.8-4-4-4zm-11-6c-1.7 0-2.8.8-3 3-.2 2.2 1.3 3 3 3a3 3 0 000-6zm14 0a1 1 0 100 2 1 1 0 000-2zm-27-3a1 1 0 100 2 1 1 0 000-2zm17-3a1 1 0 100 2 1 1 0 000-2zm-12-6a4 4 0 008 0c0-2.2-1.7-3.3-4-4-2.3-.7-4 1.8-4 4z" fill="#B27D38" fill-rule="nonzero"/></svg>