<svg viewBox="0 0 760 207" xmlns="http://www.w3.org/2000/svg"><path d="M405.3.2c49 6.4 68.3 137.1 86.5 184.6 8 20.8-25.2 29.5-30 11.2l-.6-2.8-.1-.4v-.3l-.2-.4-.1-.5c-1.5-6-4-11.7-12.4 0-29.6 35.6-75 2.7-82.5-31.8s32.6-76 52.8-58.5l.2.2.4.3.4.3.1.2.4.3c6 4.8 12.8 7.7 10.1-.7-2.8-9 .4-24.7-42.8-57.3-17.7-13.3-5-47.4 17.8-44.4zM63.8 58.8c36.9 20.5 33.1 13.7 47 4.3 14-9.3 29 8.5 26.5 23.5-4.4 26.2-90.9 52.4-78.6 68.7 5.4 7.2 24.9-4.5 44.8-16.8l2-1.2c12-7.4 24.2-14.9 33.2-18.2 40.8-15.2 41.5 69.3-4.9 57.6-30.1-7.6-65 5.8-99.3 27-27.5 17-50.9-43-16.4-60.5 9.7-4.8 67.2-33.5 62.9-42.5-3.3-6.8-13-4.5-21.6-1.4l-.7.2-.7.3-6.2 2.3c-9.3 3.6-34.3-5.2-29.4-30C27 48.4 44.4 48 63.8 58.7zm231.9 36.9c3.8 11.2 8.3 7.6 11.3 4l.3-.3 2.2-2.9c9-10.2 33.5-14.8 42.3 15.6 6.5 22.7 8.5 45.7 3 61.8-4.9 14.5-20.9 14.2-25.2 3.1-7.8-20.3 14.3-58.2-10.8-51.5-30.1 8-7.5 42-6 52.7 3.6 24-25.8 26.1-31.3 13C269 160.7 285 140.3 270 104c-7-17 19.5-27 25.8-8.3zm433.5-21.8c15.8 17 16 45.2-13.5 56.6-29.5 11.4-30.3-14.4-19.4-18.8 10.3-4.2 25.3-15 16-20.6-9.5-5.6-24.2 1-29.2 8.8-5 7.7-4 20.3-1.5 28 2.9 8.6 5.3 22 30.1 21 15.5-.6 22.5-6.2 29.3-11.2l.5-.4.3-.2c9.1-6.6 24.8 7.7 14.2 21-15 18.6-51.5 28.1-68.6 18.2a72.5 72.5 0 01-33-54.9 57 57 0 0119.9-50.5c6.2-4.7 36.7-16.6 55 3zm-482.8 9c13.5 16 12 42-15.7 51.6-27.7 9.6-27-14.1-16.6-17.9 9.7-3.5 24-13 15.7-18.4-8.2-5.4-22.1.2-27.1 7.2s-4.9 18.6-3 25.7l.5 2.3.2.5c2 7.8 5.3 17.6 25.6 17.5 14.8-.2 21.5-5.6 28.2-10 8.7-5.8 22.3 7.8 11.8 19.7-14.8 16.7-48.8 24.4-64 14.7a64.3 64.3 0 01-27-51.5 54.5 54.5 0 0121.3-45.8c6-4.2 34.6-14.3 50.1 4.4zm393.4-31.7c19 3.3 21.4 39.6 4.4 37.6-12.7-1.4-23.6-2-29 9.9-4.8 10.8 14.5 38.6 22 51.7 8.7 15.6-12.6 39.4-31.7 12.4-16.7-23.6-29.8-67.5-33.1-80.8-3.3-13.3 19.6-13.9 23.4-5.4 3.7 8.4 7.2 2.7 8.6-5.2 1.3-8 16.5-23.5 35.4-20.2zm-82 16.6c10.2 16.2 22 61.3 20.8 86.5-1 20.6-18.3 18.9-22.5 9.8-4.2-9-10-1-21.3 4-11.3 4.9-42.2 6.2-53.2-43-11-49.3 34.4-60.4 48.6-51l1.1 1 .3.1.2.2.5.5.2.2.3.3.2.1c2.4 2.4 4.3 3.8 3.4-5.6-1.2-12.7 13.7-15.5 21.4-3.1zm-154.6 91.7c25 .6 22.8-36.4.3-41.2-23-4.9-23.2 40.6-.3 41.2zm109.7-27.9c.4 21 17.7 27.1 29.4 15.2 8.4-8.7.7-25-.2-26.9v-.2c-6.8-9-29.6-8.9-29.2 11.9z" fill="#645BD4" fill-rule="nonzero"/></svg>