<svg viewBox="0 0 542 404" xmlns="http://www.w3.org/2000/svg" xmlns:xlink="http://www.w3.org/1999/xlink"><defs><path id="a" d="M.2.3H477v476.8H.2z"/><path id="b" d="M0 1h152v150.9H0z"/><path id="d" d="M0 1h96.9v122.6H0z"/></defs><g fill="none" fill-rule="evenodd"><g transform="translate(137.3 351.4)"><mask id="c" fill="#fff"><use xlink:href="#b"/></mask><path d="M35.3 12.4C34-.2 40.8-.8 46.1 3c7 4.9 42 24 42 24s5.9 5 12.1.4c5-3.6 29.8-18 36-21.7 6.4-3.6 9.1-.9 8.2 5.5-.9 6.3-21.6 49.5-21.6 56.8 0 7.2 18.4 18.4 26.6 26.6 5.1 5.1 1.8 13.5-3.6 13.5-7.3 0-33-7.2-39.3-8.1-5.8-1-9.9 2.2-9.9 8.5s1.4 30.7 1 38.8c-.4 5.5-8.7 6.8-14 .5-4-4.6-28-35.7-30.7-38.4-1-1-2.7-6.3-12.6-5.8-10.4.4-22.4.6-30.2 0-4-.4-6.9-1.6-8.5-3.5-2.4-2.7-2-6.7 1.7-11 6.3-7.2 38.3-24.7 41-30.2 1.8-3.6 1.9-6.8 1-11.2-2.7-12.2-9.3-28.7-10-35.2" fill="#D3AB02" mask="url(#c)"/></g><path d="M182.8 354.6c-1.3-12.6 5.4-13.2 10.8-9.5 7 4.9 42 24 42 24s5.8 5 12 .4c5-3.6 29.8-18 36.1-21.7 6.4-3.6 9-.9 8.2 5.5-1 6.3-21.7 49.5-21.7 56.7 0 7.3 18.5 18.5 26.6 26.6 5.2 5.2 1.8 13.6-3.6 13.6-7.2 0-33-7.2-39.2-8.1-5.9-1-10 2.2-10 8.5s1.4 30.7 1 38.8c-.3 5.5-8.6 6.8-14 .4-4-4.6-28-35.6-30.7-38.3-.9-1-2.7-6.3-12.6-5.8-10.3.4-22.3.6-30.2 0-4-.4-6.8-1.6-8.4-3.5-2.4-2.7-2-6.7 1.7-11 6.3-7.2 38.3-24.8 41-30.2 1.8-3.6 1.8-6.8.9-11.2-2.6-12.2-9.3-28.7-10-35.2" fill="#F8D114"/><path d="M251.4 231.2c3.6-3.3 7 3 9.5-5 13.4-42.5 31.3-36.1 52-31.6 20.6 4.6 31.8-28.9 8-41.2-29.4-15.2-73.5-17-90.5 32-3.7 10.4 8.6 57 21 45.8" fill="#4E4C75"/><path d="M227 184.3c-4.4 40.1 19 68.3 39.2 88.7 11 10.3 43.2-19.6 31.1-23.7-10.9-3.6-56.6-45.2-49.8-93l-9.5 7-11 21z" fill="#EFD259"/><g transform="translate(0 143.8)"><mask id="e" fill="#fff"><use xlink:href="#d"/></mask><path d="M96.9 12.6C94.2 9.1 81.2 1 81.2 1 63.7.2 42.4 14 39.8 17c3.8 5 8 5.4 6.8 6.8-10.8 8.3-17.5 4.1-22.5 8.5-26 22.8-31.4 62.3-14 85 7.7 9.8 21.7 6 24.5 2.7" fill="#4E4C75" mask="url(#e)"/></g><path d="M123.2 186c2.9-11.4-10.8-25.3-22.7-28.7-21.9-6.4-41 2.8-53.2 9.4-17.8 9.7-43.6 39.7-39 72.7 4.8 33 33 30.1 38.8 13.2 5.9-17 13.4-40.4 31.4-39.2 21.8 1.5 31.2 8.4 41.8-7.7" fill="#827AAF"/><path d="M214.1 208.3c-3-22.2-30-47.8-57.5-35.3-9 4-21 32.9-10.4 31.7 18.5-2 26.5 3.7 29.2 13.6 2.2 7.7 9.9 13.8 22.4 12 12.3-1.9 17.3-14.9 16.3-22" fill="#4E4C75"/><path d="M93.4 66.4c-12.9-6.1-29.7-6.3-44.6 10.2-3 3.3-10.1 1.8-8.1-5.1 3.4-12 13.4-27 43.7-25" fill="#FFA087" fill-rule="nonzero"/><path d="M348.5 93.4c-1.9-16.3-10.3-49.8 0-61.7L312 43.3a25.5 25.5 0 0127.7-21l-.8-.2c-50.5-9.8-74.5 17.3-116.7 32.3-5.5-1.3-13.7-2.3-25.1-3-51.5-3.1-119.1-36.2-133.2 20-5.5 22.3 19.7 30.6 28.5 18.3 19.9-27.7 57.2-18.6 74.8-4.7 16.1 19.5-1 33.8-14.4 50.5-11.3 14.2-18.4 30.4-14.9 49.5a79 79 0 0010.6-4.4 161.9 161.9 0 006.9-5.8c6.8-5.9 18.6-6 29.8-1.3 15.4 6.5 33.8 31.8 26.8 45.9 1-2 8.2-14.8 10.7-20 0-1 3.4-1.5 3.5-2 4.1-23.3 31.8-75.5 96.8-42.9-28-15-79.4-40-88.8-69 28.9-10.8 45.9-10.5 71.2.4 3.7 2.5 7 5 9.5 7.6 23.8 23.8 34.7 9.7 33.6-.1" fill="#827AAF"/><path d="M155.4 174.8a56.3 56.3 0 01-13 8.7c-10.2 3.4-20.3.3-28.5-3.4-13.9-6.2-22.3 13.5-10 21 7.7 4.8 51.5 25.5 82.8-26.9-11.6-5.5-24.5-5.3-31.3.6" fill="#EFD259"/><path d="M205.8 61.1c-2.7 5.2-6.9 12-15.1 9.7-6.4-1.8-11.8-8.3-7-22.3 2.7-7.9 10-14.4 16.8-12.3 6.7 2 13 10.2 5.3 25" fill="#FFA087" fill-rule="nonzero"/><path d="M194 14.4c-10-.2-32 5.4-33.6 21.5-1.5 16.2 26.4 23 35 23.4 8.8.3 37.8-1.2 36.9-22.5-.9-21.2-24.9-22.1-38.3-22.4" fill="#827AAF"/><path d="M178.5 29c-1.2-12-.6-21.4 3-25.4 6.4-3.7 13.4-4 20.2.4 6.7 4.5 7.6 6.5 8.7 12.4 1.2 5.8 3 10.6-.6 16.4-5.9 9.2-30 9.4-31.3-3.8" fill="#827AAF"/><path d="M211.2 18.7c1 3.2 2 9.5-.6 13.3-5.2 7.8-22.6 12.1-31.7.6-3.6-4.5-1.1-7.3-1.1-8.2 6.6 4.6 23.7 12.6 33.4-5.7" fill="#EFD259"/><path d="M211.5 220.1c14.7-26.7 11.8-94.3.2-111.3 20.3 27.1 19.9 53.5 14.5 88.3M337.6 43.1c-7.1-1.4-15.3-2.7-24.6-3.5-4.8 12.8.3 45.7 14.9 56.8a18 18 0 007.1 2.3c15.4 1.4-2.5-31.3 2.6-55.6" fill="#4E4C75"/><path d="M450 66.8c-2.2-.8-5.9-2.9-7-4.1-2.2-2.4-2.3-16.5-32-31.8-28.4-14.5-41-2.9-58.4-6.6-4.3-1-9-1.6-13.7-2.2l.8.2A25.5 25.5 0 00313 39.6a211.3 211.3 0 0138.4 7c-1.6 2.6-2 5.7.3 9.9 1.6 3 11.7 12.7 16.7 15.8 17.4 10.9 19.4 8.3 22.3 16.8 5 14.6 11.6 8.2 11.2-.5-1-21.5-13-20.2-17.8-23.9-1.2-.9-1.3-1.6-.8-2.2 21.2 1.3 33.9 5.7 61.5 17.6 8.3 3.6 15.5-9.6 5.2-13.3" fill="#FFA087" fill-rule="nonzero"/><path d="M377.3 366.8c6-3 7.6.3 6.8 3.7-1.1 4.4-4 25.6-4 25.6s-1.4 4 2.1 6.3c2.8 1.8 14.8 11.5 17.8 14s2.2 4.3-1.2 5c-3.3.8-29-1.3-32.7 0-3.6 1.4-5.8 13-8.3 18.6-1.6 3.5-6.5 3.5-7.5.7-1.4-3.6-2.7-18-3.4-21.3-.7-3-3-4.5-6.2-3.3-3.2 1.2-15.2 6.5-19.4 7.9-2.8.8-5-3-2.9-7 1.6-2.9 12.6-20.9 13.4-22.8.3-.6 2.7-2.6.6-7.4-2.3-5.2-4.7-11.2-5.8-15.3-.6-2-.5-3.7.1-4.9 1-1.7 3-2.3 5.8-1.2 4.9 1.8 19.9 14.5 23.1 14.8 2.2.3 3.8-.3 5.9-1.7 5.6-3.6 12.6-10.1 15.8-11.7M486.8 342.1c5.5 4 3.3 7-.1 7.8-4.5 1-24.7 8-24.7 8s-4.2.6-4.6 4.8a455 455 0 01-4.4 22.2c-.8 3.8-2.9 4-5 1.3-2.3-2.6-12-26.6-15-29.2-2.8-2.6-14 .7-20.2 1-3.9.3-6-4.1-4-6.3 2.5-2.9 14.7-10.5 17.3-12.7 2.5-2 2.7-4.8.2-7-2.5-2.3-12.8-10.6-15.8-13.7-2.1-2.1.4-5.9 4.8-5.8 3.3.1 24.4 1.7 26.4 1.6.7 0 3.5 1.2 7-2.9 3.5-4.3 7.7-9.2 10.8-12 1.6-1.5 3.1-2.2 4.5-2.2 1.9 0 3.4 1.6 3.7 4.6.6 5.2-3.9 24.3-2.7 27.3.8 2 2 3.3 4.2 4.5 5.8 3.3 14.8 6.6 17.6 8.7M460.3 260c-6.8.8-7.1-2.8-5.1-5.7 2.5-3.8 12.6-22.7 12.6-22.7s2.7-3.2.2-6.6c-2-2.6-9.9-15.9-11.9-19.3-2-3.3-.5-4.8 3-4.4 3.3.5 26.7 11.4 30.6 11.4 3.9 0 12.8-18.6 17.1-23 2.8-2.8 7.3-1 7.3 1.8 0 4-3 23.1-3.6 26.5-.4 3.2 1.4 4.6 4.7 5.3 3.3.7 18.4-1.5 23.6-1 3 .4 3.7 4.7.3 7.6-2.4 2.1-25.2 18.7-26.7 20.2-.5.5-3.3 1.5-3 6.8.2 5.6.4 12 .1 16.3-.2 2.1-.8 3.7-1.8 4.6-1.5 1.3-3.6 1.1-6-.9-3.9-3.3-13.5-20.5-16.4-22-2-.9-3.7-.9-6-.3-6.6 1.4-15.5 5.1-19 5.5" fill="#F8D114"/><path d="M261.3 261.6c.7-5.6 9.8-29.1 43-24.6 15.3 2 32.6-9.4 40-19 7.4-9.7 19.1-21.6 24-39.9 4.7-17.9 11-37.6 28.2-41 12.6-2.4 25.2-1.4 27.6 16.3 2.6 18.8 14.2 61.3-43.7 106.8-21.9 18.5-48.9 59-59.2 67.4-10.4 8.3-13.7-7.7-26.9-12.2a48.8 48.8 0 01-33-53.8" fill="#827AAF"/><path d="M425.8 143.8c-8.3-15.3-38.3-14.5-37 17.3 1.3 31.9-20.7 67.2-38 86.3a24.6 24.6 0 0021 16c17-19 47.6-42 55.2-116.9l-1.2-2.7M360.2 276.5c-8-5.2-15.3-16.5-15.9-21.8a196.2 196.2 0 01-41.5 37.6c-8.8 5-19.6 25.4 1.8 37.7 13.2 7.7 31.3-.7 45.2-13.9 1.8-17.5 1-23.2 8.3-36.5.5-1 1.3-2 2.1-3.1" fill="#EFD259"/><path d="M385.4 262.3c52.3-38.4 49.3-96.7 41.6-115.8-8.4 68.9-38.2 97.8-55.2 116.9 4.4.4 9 0 13.6-1.1M368.3 289.1c-4.2-10-5.1-8.5-5.8-11.3l-2.3-1.3c-.8 1.1-1.6 2.2-2 3.1-7.4 13.3-6.6 19-8.4 36.5 8.5-8 15.4-17.9 18.5-27" fill="#FF8B6C"/><path d="M307 331.2c-9.9-7.5-4-22.8-.3-26.1 3.6-3.3 36.8-25.5 39-33.8 7.5 10.8 14.6 17.4 22.6 17.8-2.6-8.3-5.8-11.3-5.8-11.3a44 44 0 01-18.2-23.1c-9.2 11.2-31 29.6-41.1 36-10 6.5-20.7 28.3 3.9 40.5M354.1 253.4c10.1-6.6 42.1-47.4 41.7-99-.1-19.3 6.2-19 10.9-20.2-18-1-18.3 17.8-18.7 24.5-.4 6.7 2.6 43.2-37.2 88.7.6 2.8 2.7 5.3 3.3 6" fill="#4E4C75"/></g></svg>