<?xml version="1.0" encoding="UTF-8"?>
<svg width="632px" height="665px" viewBox="0 0 632 665" version="1.1" xmlns="http://www.w3.org/2000/svg" xmlns:xlink="http://www.w3.org/1999/xlink">
    <title>img-left-quest</title>
    <g id="Landing-Page" stroke="none" stroke-width="1" fill="none" fill-rule="evenodd">
        <g id="Landing-Page-Desktop" transform="translate(-33.000000, -820.000000)">
            <g id="img-left-quest" transform="translate(33.000000, 820.000000)">
                <circle id="Oval" fill="#FCE6F1" fill-rule="nonzero" opacity="0.54" cx="297" cy="368" r="297"></circle>
                <g id="Group-14" transform="translate(154.829418, 0.247675)">
                    <path d="M105.078555,439.112145 L114.253793,439.238885 L190.018868,523.819565 L190.333524,524.143947 C192.031603,525.865782 192.368035,525.652956 195.570011,525.692515 C198.952872,525.739154 199.321392,521.525897 199.558048,519.840773 L126.512673,439.407875 L202.163598,440.444268 L250.856144,441.116453 L299.252581,441.775978 L321.289078,442.080073 L396.911703,525.309295 C399.809007,528.315049 400.614583,527.698871 403.796368,527.702655 L404.039527,527.704167 C407.426742,527.754323 408.929987,527.163821 409.170582,525.478285 L333.543604,442.245548 L347.944713,442.444235 L362.740428,442.645258 C374.250666,443.270054 383.872393,440.490117 377.843982,435.525288 L377.279054,435.06483 C371.625768,430.496695 365.916321,427.047784 365.916321,427.047784 C359.546131,422.392848 357.759063,420.026106 350.092156,419.924001 L316.490605,419.457642 L170.71343,417.457262 L122.320932,416.797324 L72.7942867,416.752325 C72.092582,416.746857 71.437316,416.803616 70.7702421,416.786143 C66.846183,416.669117 63.5851865,417.0228 61.1705823,417.696899 C65.6870525,424.492423 70.4685611,431.081427 75.5107541,437.460395 C78.2972573,438.765126 81.1876425,438.78791 85.8312483,438.853356 L105.078555,439.112145 Z" id="Fill-6" fill="#FCE6F1"></path>
                    <path d="M105.078555,439.112145 L114.253793,439.238885 L190.018868,523.819565 L190.333524,524.143947 C192.031603,525.865782 192.368035,525.652956 195.570011,525.692515 C198.952872,525.739154 199.321392,521.525897 199.558048,519.840773 L126.512673,439.407875 L202.163598,440.444268 L250.856144,441.116453 L299.252581,441.775978 L321.289078,442.080073 L396.911703,525.309295 C399.809007,528.315049 400.614583,527.698871 403.796368,527.702655 L404.039527,527.704167 C407.426742,527.754323 408.929987,527.163821 409.170582,525.478285 L333.543604,442.245548 L347.944713,442.444235 L362.740428,442.645258 C374.250666,443.270054 383.872393,440.490117 377.843982,435.525288 L377.279054,435.06483 C371.625768,430.496695 365.916321,427.047784 365.916321,427.047784 C359.546131,422.392848 357.759063,420.026106 350.092156,419.924001 L316.490605,419.457642 L170.71343,417.457262 L122.320932,416.797324 L72.7942867,416.752325 C72.092582,416.746857 71.437316,416.803616 70.7702421,416.786143 C66.846183,416.669117 63.5851865,417.0228 61.1705823,417.696899 C65.6870525,424.492423 70.4685611,431.081427 75.5107541,437.460395 C78.2972573,438.765126 81.1876425,438.78791 85.8312483,438.853356 L105.078555,439.112145 Z" id="Fill-8" fill="#CC8BB3"></path>
                    <path d="M235.536516,279.752325 C239.821041,280.601677 252.543583,288.444289 252.543583,288.444289 C260.863577,303.540008 257.934202,328.125807 256.366029,331.779246 C250.369689,330.53352 248.138174,327.048682 247.456884,328.737453 C244.915578,341.814948 251.572003,345.895983 249.783802,352.10763 C237.270943,395.632386 176.920447,422.744241 168.170582,380.916193" id="Fill-10" fill="#4E4C75"></path>
                    <path d="M197.963163,269.169299 C206.866987,261.62953 225.089249,267.66993 233.235242,276.597511 C248.371084,293.178789 248.559635,313.971652 248.027952,327.580985 C247.249211,347.490736 232.003707,383.269506 200.840276,393.444286 C169.681624,403.626537 159.998963,377.559531 172.418739,365.038592 C184.834151,352.514125 202.180911,335.673161 193.263434,320.364695 C182.476241,301.820213 172.310225,296.572734 181.901888,280.206791" id="Fill-12" fill="#827AAF"></path>
                    <path d="M193.76783,230.593823 C193.481046,231.356061 193.22106,232.107531 192.987873,232.848234 C192.652849,233.909992 192.36789,234.954564 192.136528,235.977602 C188.280691,253.11841 198.546851,264.577042 208.189761,272.507741 C220.664459,282.771924 207.30675,298.620542 194.430795,290.531287 C186.2378,285.377346 130.536011,253.058402 165.70659,198.752325 C175.464707,207.208147 196.204879,221.420923 193.76783,230.593823" id="Fill-14" fill="#EFD259"></path>
                    <path d="M201.386395,522.591716 C201.358995,525.474016 198.607856,527.780586 195.229819,527.752325 C191.859189,527.718773 189.146837,525.357644 189.170739,522.479696 L190.95477,320.912052 C190.978672,318.034104 193.73372,315.727121 197.103528,315.752325 C200.481976,315.784994 203.194327,318.146124 203.170426,321.024071 L201.386395,522.591716 Z" id="Fill-16" fill="#F9F7DC"></path>
                    <path d="M409.385549,523.591537 C409.362052,526.473524 406.606324,528.780587 403.227453,528.752325 C399.856402,528.722711 397.143382,526.3615 397.170788,523.4791 L398.95567,321.90843 C398.975257,319.026858 401.730985,316.719795 405.106357,316.752325 C408.480907,316.77767 411.193928,319.138881 411.170431,322.020867 L409.385549,523.591537 Z" id="Fill-18" fill="#F9F7DC"></path>
                    <path d="M162.197085,304.752325 C161.486547,304.751188 160.837082,304.79975 160.170582,304.838075 L181.170286,346.280495 L230.170582,346.752325 L209.116669,305.211315 L162.197085,304.752325 Z" id="Fill-20" fill="#F9F7DC"></path>
                    <polygon id="Fill-22" fill="#F9F7DC" points="258.170582 305.752325 279.209679 347.280271 328.170582 347.752325 307.135844 306.227928"></polygon>
                    <polygon id="Fill-24" fill="#F9F7DC" points="404.132671 307.223966 355.170582 306.752325 376.208494 348.280683 425.170582 348.752325"></polygon>
                    <path d="M148.327144,316.888424 L148.170582,335.180335 C148.412146,344.931568 154.387757,345.490834 162.014102,345.566014 L181.170582,345.752325 L160.396947,304.752325 C153.228141,305.164663 148.709688,308.123133 148.327144,316.888424" id="Fill-26" fill="#D868A0"></path>
                    <polygon id="Fill-28" fill="#D868A0" points="209.170582 304.752325 230.300762 346.276352 279.170582 346.752325 258.03957 305.220364"></polygon>
                    <polygon id="Fill-30" fill="#ED195D" points="307.170582 305.752325 328.300762 347.276352 377.170582 347.752325 356.03957 306.220364"></polygon>
                    <path d="M425.060358,348.60268 L439.845331,348.751215 L440.371394,348.752325 C447.799847,348.713636 454.161322,346.322894 454.008168,336.51013 L454.164301,320.460805 C454.39868,310.997491 448.041545,308.238542 440.503099,308.103219 L404.170582,307.752325 L425.060358,348.60268 Z" id="Fill-32" fill="#D868A0"></path>
                    <path d="M260.985977,258.276566 C264.689371,254.147548 269.344124,260.919691 271.250715,251.520615 C281.454093,201.195333 302.749337,206.337842 326.871517,209.098971 C350.993697,211.860099 360.000366,171.681102 331.082853,160.999366 C297.200387,148.489096 244.989407,150.371058 231.459711,208.374698 C228.555954,220.828347 248.178525,272.572945 260.985977,258.276566" id="Fill-34" fill="#4E4C75"></path>
                    <path d="M225.170582,214.294226 C225.145867,223.184115 226.217551,230.707509 228.295264,238.01733 C237.151622,269.170284 262.737709,287.900369 283.607409,304.898852 C297.643843,315.526597 331.053352,277.121355 316.63243,273.946017 C303.653892,271.090981 245.939254,228.692758 247.941506,172.752325" id="Fill-36" fill="#EFD259"></path>
                    <path d="M276.200767,291.977905 C276.422862,285.485813 283.927062,257.438126 322.517563,258.633659 C340.22696,259.177128 358.612014,243.89818 365.904206,231.994778 C373.208208,220.090133 385.211237,205.060396 388.575308,183.490698 C391.865336,162.391129 396.658696,139.080725 415.892188,133.174425 C430.043383,128.827336 444.604825,128.42671 449.497465,148.457822 C454.672119,169.658935 473.069106,216.949521 412.308938,275.974931 C389.502885,299.833969 363.515456,349.544 352.648721,360.344935 C341.776808,371.134458 336.07848,353.172998 320.459322,349.563779 C285.951814,341.573432 275.528642,311.701907 276.200767,291.977905" id="Fill-38" fill="#827AAF"></path>
                    <path d="M60.1705823,88.3443355 C44.7235924,82.8532666 25.3361622,84.6870101 10.2351837,105.338835 C7.20212515,109.483236 -1.11936496,108.565095 0.340974679,100.432885 C2.85681944,86.372246 12.5058056,67.9009082 47.4463586,66.7523246" id="Fill-40" fill="#FF8B6C"></path>
                    <path d="M355.835819,88.7709333 C351.783526,70.2845391 338.078602,32.9162226 348.393725,18.1042912 L307.893288,35.7243754 C308.040497,34.1687955 308.26719,32.7242687 308.603664,31.4512918 L308.606779,31.4430057 C311.482799,20.5473999 320.184998,8.74615346 337.198197,8.35044382 C336.876044,8.32056151 336.571325,8.30476916 336.249586,8.27882304 C277.100581,3.11734751 252.770649,37.0652018 206.140793,59.3755787 C199.666839,58.5224929 190.077888,58.3821881 176.89527,58.9531388 C117.38303,61.5503546 35.1077777,31.3389875 28.3673853,98.4590165 C25.3629961,128.355166 57.7014946,174.315057 60.9713732,133.876731 C64.1430769,94.7023029 115.406262,106.505291 147.497446,100.325411 C164.825311,142.220646 165.496062,173.390816 135.098561,209.43568 C138.481728,262.878184 206.527153,263.270042 229.027569,235.539341 C231.052879,226.372601 225.727643,234.799036 227.939728,228.541753 C226.325747,206.62778 246.489266,131.489459 333.923779,161.959556 C300.103538,148.048292 234.272689,122.945089 220.066681,90.814864 C251.898884,74.9437581 275.107799,75.9397199 305.441671,85.4092316 C310.03972,87.8360637 314.082066,90.4007806 317.303442,93.0078375 C347.477208,117.390106 358.285323,99.951605 355.835819,88.7709333" id="Fill-42" fill="#827AAF"></path>
                    <path d="M355.835819,88.7752104 C351.783526,70.2878402 338.078602,32.917551 348.393725,18.1048377 L307.893288,35.7258521 C308.040497,34.1701901 308.26719,32.725587 308.603664,31.4525429 L308.606779,31.4442563 C311.482799,20.5480753 320.184998,8.74620592 337.198197,8.3504754 C336.876044,8.32059151 336.571325,8.30479832 336.249586,8.27885084 C277.100581,3.11710282 252.770649,37.0667493 206.140793,59.378304 C199.666839,58.5251732 190.077888,58.3848609 176.89527,58.9558418 C117.38303,61.5531947 35.1077777,31.3402327 28.3673853,98.4638051 C25.3629961,128.361533 57.7014946,174.323851 60.9713732,133.883389 C64.1430769,94.7068931 115.406262,106.510504 147.497446,100.330298 C164.825311,142.227745 165.496062,173.399561 135.098561,209.446327 C137.82079,252.450082 182.394713,261.09093 211.433691,248.381505 C224.416284,213.043242 215.506109,140.39763 200.673394,122.989406 C223.520944,147.552469 227.123279,205.161654 227.759049,229.109649 C227.815331,228.924649 227.862683,228.768446 227.939728,228.553409 C226.325747,206.638279 246.489266,131.495992 333.923779,161.967697 C300.103538,148.055698 234.272689,122.95117 220.066681,90.819249 C251.898884,74.9473053 275.107799,75.9433196 305.441671,85.4133312 C310.03972,87.8402914 314.082066,90.4051437 317.303442,93.0123383 C347.477208,117.395894 358.285323,99.9564724 355.835819,88.7752104" id="Fill-44" fill="#827AAF"></path>
                    <path d="M229.613614,235.456945 C231.139952,229.545044 229.149733,230.838444 228.170582,230.94258 C228.230881,233.315713 228.25978,235.279762 228.275492,236.752325 C228.722599,236.316397 229.196503,235.90633 229.613614,235.456945" id="Fill-46" fill="#827AAF"></path>
                    <path d="M227.879149,230.74667 C227.863572,230.110918 227.844562,229.443648 227.82706,228.752325 C227.245706,230.500236 227.43104,230.800099 227.879149,230.74667" id="Fill-48" fill="#605B8E"></path>
                    <path d="M201.170582,122.752325 C215.881365,140.248899 224.717637,213.242742 211.842126,248.752325 C218.273138,245.90523 223.912565,241.986505 228.170582,237.142823 C228.157428,235.684517 228.133643,233.743438 228.082749,231.389326 C227.653309,231.442968 227.475695,231.141911 228.03283,229.387038 C227.402304,205.322943 223.829682,147.43447 201.170582,122.752325" id="Fill-50" fill="#4E4C75"></path>
                    <path d="M337.872196,31.8512859 C329.464815,31.0169796 319.845648,30.5990845 309.056508,30.8037365 C305.036693,45.9543384 314.982965,83.0564823 333.078358,93.9527353 C335.828698,95.1113758 338.70091,95.7965787 341.619666,95.7501021 C359.443671,95.4665361 334.923134,60.2549096 337.872196,31.8512859" id="Fill-52" fill="#4E4C75"></path>
                    <path d="M469.514776,45.8569082 C466.940109,45.2185681 462.417896,43.241546 460.970127,41.9619185 C458.201176,39.509006 456.332844,23.2503092 420.417998,9.33323384 C386.13751,-3.95416362 373.139499,10.9463726 352.701047,8.75897463 C347.657066,8.22116873 342.311967,7.96241178 336.7675,7.92810495 C337.089082,7.95805879 337.393261,7.97388895 337.714429,7.99989716 C320.731802,8.40049959 312.044615,20.2260479 309.173278,31.1437878 L309.170582,31.1560394 C319.908343,30.9504852 329.482117,31.3741681 337.849461,32.2121523 C343.891139,32.8124137 349.326079,33.6241861 354.095651,34.5818393 C352.5268,37.7270332 352.541363,41.3197784 355.552007,45.8495467 C357.741884,49.1573084 370.59469,59.0610247 376.63289,62.0192761 C397.918574,72.3990339 399.933135,69.2148698 404.276616,78.5588453 C411.787651,94.7258141 418.515726,86.6131435 417.010871,76.7427792 C413.244384,52.0633377 399.652307,55.074773 393.725278,51.4306348 C392.260874,50.5237562 392.00738,49.7007558 392.506034,48.9900107 C417.03239,47.8745815 432.070588,51.3648245 465.116995,61.6905741 C475.134184,64.8240953 481.807336,48.8624533 469.514776,45.8569082" id="Fill-54" fill="#FF8B6C"></path>
                    <path d="M188.438028,68.6818096 C185.921723,74.8827346 181.928457,83.2138204 172.069972,81.5328633 C164.425412,80.2366895 157.40578,73.4845027 161.261653,56.9833365 C163.442302,47.648551 171.08881,39.4034831 179.230435,40.9371527 C187.286657,42.4638079 195.613915,50.9996197 188.438028,68.6818096" id="Fill-56" fill="#FF8B6C"></path>
                    <path d="M169.126448,16.4016699 C157.735373,17.3442775 132.94345,26.4366643 133.172154,45.1433665 C133.404805,63.8496551 166.251144,68.384197 176.270957,67.6846678 C186.290354,66.9812045 219.501191,61.764194 215.898695,37.5200221 C212.292251,13.2762636 184.653064,15.1253112 169.126448,16.4016699" id="Fill-58" fill="#827AAF"></path>
                    <path d="M153.432578,34.6054101 C150.634853,21.1959353 150.103604,10.2546983 153.723451,5.28876773 C160.626221,0.330161296 168.601148,-0.940791933 176.826018,3.37346652 C185.043467,7.69246855 186.316184,9.89670149 188.292456,16.4257682 C190.272643,22.954423 192.972725,28.194686 189.489815,35.2188218 C183.940946,46.435122 156.559815,49.5693533 153.432578,34.6054101" id="Fill-60" fill="#827AAF"></path>
                    <path d="M189.053442,19.7523246 C190.619962,23.1987111 192.416842,30.334232 189.96618,34.9512735 C184.942981,44.4149569 165.782093,51.3694839 153.954263,39.4173539 C149.330652,34.7505693 151.887573,31.2182354 151.779251,30.1889317 C159.818498,34.6824475 180.176274,41.6513863 189.053442,19.7523246" id="Fill-62" fill="#EFD259"></path>
                    <path d="M237.506088,198.115577 L276.170582,299.752325 L272.831377,297.042691 C245.260332,274.618947 198.698785,234.271592 247.421737,175.752325 L237.506088,198.115577 Z" id="Fill-64" fill="#EFD259"></path>
                    <path d="M450.43121,137.960396 C439.084024,121.392676 404.920271,125.850677 410.239402,162.271259 C415.551076,198.696626 394.688257,241.929983 377.170582,265.909458 C383.803718,277.583198 393.09702,281.785911 403.108917,281.752325 C420.274453,257.829807 452.502803,227.764977 452.167994,140.906515 C451.591501,139.808312 451.008365,138.798739 450.43121,137.960396" id="Fill-66" fill="#EFD259"></path>
                    <path d="M391.170582,297.773019 C381.315857,292.827919 371.577996,280.780186 370.279371,274.752325 C357.766609,293.989272 336.634302,316.053427 327.188762,322.780742 C317.739273,329.50847 307.816928,354.077314 333.74389,365.61503 C349.832037,372.774642 369.667507,361.006654 383.982945,344.289069 C383.886391,324.07783 382.267198,317.62224 389.108192,301.607726 C389.604808,300.450215 390.304254,299.17205 391.170582,297.773019" id="Fill-68" fill="#EFD259"></path>
                    <path d="M418.636153,277.888146 C473.896532,227.807683 463.419469,161.609058 452.303022,140.752325 C450.924158,220.318572 420.364619,256.976552 403.170582,280.752325 C408.22454,280.727265 413.459745,279.662184 418.636153,277.888146" id="Fill-70" fill="#FF8B6C"></path>
                    <path d="M402.170582,311.359994 C396.193695,300.213859 395.313416,302.172308 394.276985,298.988284 C393.365383,298.65578 392.439604,298.224341 391.517533,297.752325 C390.659965,299.165911 389.967592,300.457374 389.475999,301.626927 C382.704184,317.808056 384.307003,324.33081 384.402581,344.752325 C393.070644,334.415685 399.700735,322.215508 402.170582,311.359994" id="Fill-72" fill="#FF8B6C"></path>
                    <path d="M336.982471,366.752325 C324.662324,359.305321 329.621734,341.139961 333.396134,336.913061 C337.178432,332.685334 372.545,303.345735 374.11344,293.572691 C383.951153,305.003847 392.94766,311.67695 402.170582,311.260016 C398.193787,302.05982 394.194406,299.005235 394.194406,299.005235 C383.303892,294.778523 372.3958,280.76982 370.511441,274.752325 C361.320478,288.646036 338.435527,312.389183 327.681414,320.963852 C316.922522,329.531064 307.311662,355.683626 336.982471,366.752325" id="Fill-74" fill="#4E4C75"></path>
                    <path d="M381.661006,271.752325 C392.336309,262.949842 423.835402,212.370687 417.221153,153.240158 C414.755388,131.191764 422.034134,130.719871 427.170582,128.752325 C406.570428,129.917458 408.468411,151.415916 408.83817,159.096379 C409.212255,166.780371 417.002276,208.237771 377.170582,265.194148 C378.133019,268.314037 380.810449,271.032969 381.661006,271.752325" id="Fill-76" fill="#4E4C75"></path>
                </g>
            </g>
        </g>
    </g>
</svg>