<?xml version="1.0" encoding="UTF-8"?>
<svg width="581px" height="625px" viewBox="0 0 581 625" version="1.1" xmlns="http://www.w3.org/2000/svg" xmlns:xlink="http://www.w3.org/1999/xlink">
    <title>img-challenges-journey</title>
    <defs>
        <path d="M0,59.9495339 C0,88.963963 33.6614664,108.946122 53.4073266,109.94662 C76.508333,111.086076 107.502183,93.8830759 112.782413,67.9535144 C118.722672,38.9390853 102.82698,7.22887117 67.2954317,0.947969866 C27.6937064,-6.05551301 0,26.9609063 0,59.9495339 Z" id="path-1"></path>
        <linearGradient x1="0.778626704%" y1="157.619268%" x2="-393.938097%" y2="-393.385347%" id="linearGradient-3">
            <stop stop-color="#FFFFFF" stop-opacity="0" offset="0%"></stop>
            <stop stop-color="#FFFFFF" stop-opacity="0.34050359" offset="29.5645186%"></stop>
            <stop stop-color="#FFFFFF" stop-opacity="0.534865921" offset="65.3241132%"></stop>
            <stop stop-color="#FFFFFF" offset="100%"></stop>
        </linearGradient>
        <path d="M26.1574862,2.37488705 C42.4459331,9.85165388 40.7274194,7.24505891 46.6849334,3.51980264 C52.6424475,-0.205453621 59.3928599,6.46028376 58.4649759,12.2270969 C56.8366417,22.3401375 19.4813726,33.3155746 24.9879894,39.4425281 C28.9723322,43.8772211 48.921837,28.4157239 59.444472,24.6653549 C77.0663267,18.3837292 78.2840325,50.8060722 57.9755115,46.8319709 C44.7599713,44.2459228 29.7068124,49.7872914 15.0217445,58.2845513 C3.19349288,65.1277905 -7.62520288,42.3362081 7.1965521,35.2720903 C11.3527462,33.2910325 36.0675817,21.6609502 34.106888,18.2655849 C32.1450601,14.8702196 25.4434239,17.6668728 21.4176781,19.1371134 C17.3930665,20.605071 6.39968355,17.5019273 8.25772011,7.90027481 C10.0119652,-1.1660184 17.5700224,-1.56611103 26.1574862,2.37488705 Z" id="path-4"></path>
        <filter x="-0.7%" y="-0.8%" width="102.7%" height="103.4%" filterUnits="objectBoundingBox" id="filter-5">
            <feOffset dx="1" dy="1" in="SourceAlpha" result="shadowOffsetOuter1"></feOffset>
            <feColorMatrix values="0 0 0 0 0.826907835   0 0 0 0 0.826907835   0 0 0 0 0.826907835  0 0 0 1 0" type="matrix" in="shadowOffsetOuter1"></feColorMatrix>
        </filter>
    </defs>
    <g id="Landing-Page" stroke="none" stroke-width="1" fill="none" fill-rule="evenodd">
        <g id="Landing-Page-Desktop" transform="translate(-732.000000, -2268.000000)">
            <g id="Challenges" transform="translate(132.000000, 2268.000000)">
                <g id="img-challenges-journey" transform="translate(612.000000, 0.667859)">
                    <path d="M105,46.6529902 C164.662062,33.2810562 239.106697,38.2168169 292.126912,61.5485256 C319.483662,73.5869477 331.308164,89.6604124 346,107.332141" id="Path-2-Copy" stroke="#514E82" stroke-width="8" stroke-linecap="round" stroke-dasharray="32" transform="translate(225.500000, 73.332141) rotate(-9.000000) translate(-225.500000, -73.332141) "></path>
                    <path d="M318,83.3321411 C348.343434,128.130287 399.104841,156.180994 447.080744,150.635949 C471.834789,147.774882 489.019747,132.537873 509,116.567604" id="Path-2-Copy-2" stroke="#514E82" stroke-width="8" stroke-linecap="round" stroke-dasharray="32" transform="translate(413.500000, 117.332141) scale(-1, -1) rotate(14.000000) translate(-413.500000, -117.332141) "></path>
                    <path d="M313,307.78978 C235.565631,291.275582 149.902801,276.306914 76,313.332141" id="Path-3" stroke="#514E82" stroke-width="8" stroke-linecap="round" stroke-dasharray="32"></path>
                    <path d="M54.8077133,334.332141 C-22.0493699,400.114438 61.6855804,487.480763 123.413316,520.72896 C146.82738,533.340396 174.667223,540.501731 200.482022,546.154891 C214.770286,549.283866 233.032602,554.869611 235,549.332141" id="Path-4" stroke="#514E82" stroke-width="8" stroke-linecap="round" stroke-dasharray="32"></path>
                    <path d="M504.673639,167.332141 C527.462841,179.834625 538.990103,182.259126 552.930818,206.478446 C578.156063,250.302472 558.54989,310.517761 511.54703,329.005553 C465.921192,346.951717 412.711258,335.291501 367,324.87911" id="Path-2" stroke="#514E82" stroke-width="8" stroke-linecap="round" stroke-dasharray="32"></path>
                    <path d="M68.4010872,7.3912114 C93.4632333,-7.14051375 125.510075,1.48325765 139.979712,26.6529439 C146.928277,38.7398535 148.811255,53.1038657 145.214396,66.5850569 L143.228302,74.0290627 C136.835159,97.9909793 112.310516,112.211045 88.4509791,105.790469 C58.6265918,97.764758 40.9274644,66.9774584 48.9188311,37.025082 C52.7774321,22.5627452 59.2715175,12.6847883 68.4010872,7.3912114 Z" id="Rectangle" fill="#2A2A5A"></path>
                    <path d="M364.861174,38.2579974 C358.53431,27.2958336 348.364501,19.9370088 337.036974,16.9007784 C325.708945,13.8644132 313.222957,15.1509462 302.264064,21.4802112 C294.171261,26.1541769 288.112646,34.6765548 284.662624,47.556622 C281.197341,60.4937101 283.302184,73.6110857 289.506449,84.3608136 C295.711164,95.111321 306.015789,103.493795 318.949339,106.960504 C329.61679,109.819808 340.432942,108.083181 349.296812,102.963889 C358.1599,97.8450478 365.071091,89.3440314 367.929196,78.6738228 L369.438627,73.0386408 C372.583849,61.2965943 370.937242,48.7856243 364.861174,38.2579974 Z" id="Rectangle-Copy-10" stroke="#E9BCD3" stroke-width="12" fill="#FCE6F1" fill-rule="nonzero"></path>
                    <path d="M554.518166,153.223661 C550.483533,138.152593 540.727209,126.145617 528.21581,118.915588 C515.702314,111.684347 500.432707,109.231366 485.37305,113.270266 C473.006457,116.586903 463.153245,124.606212 457.220477,134.89143 C451.288919,145.174551 449.27649,157.722545 452.589491,170.098098 L454.38192,176.79363 C458.039577,190.456699 466.970604,202.105367 479.209281,209.177808 C491.954404,216.542913 506.475528,218.039898 519.649929,214.506611 C532.82298,210.973687 544.649958,202.411309 552.007669,189.65577 C557.430243,180.255038 558.5173,168.162177 554.518166,153.223661 Z" id="Rectangle-Copy-2" stroke="#E9BCD3" stroke-width="12" fill="#FCE6F1" fill-rule="nonzero"></path>
                    <path d="M97.5903434,338.640624 C93.5564126,323.421497 83.7967638,311.301665 71.2890657,304.001495 C58.756309,296.6867 43.4631844,294.207381 28.3808678,298.292808 C16.0096675,301.64386 6.14756331,309.741312 0.211683653,320.13483 C-5.70993477,330.503378 -7.72087514,343.155599 -4.41329906,355.634441 L-2.61953377,362.401968 C1.0372859,376.19851 9.97134917,387.955905 22.2056484,395.096515 C34.9709905,402.547072 49.515126,404.05943 62.7099448,400.48528 C75.8885413,396.915524 87.725649,388.269073 95.0874293,375.378852 C100.501835,365.898417 101.582558,353.702422 97.5903434,338.640624 Z" id="Rectangle-Copy-9" stroke="#E9BCD3" stroke-width="12" fill="#FCE6F1" fill-rule="nonzero"></path>
                    <path d="M392.769226,303.580364 C389.034443,289.817542 380.010089,278.845749 368.426382,272.2421 C356.871797,265.655053 342.772322,263.41804 328.866035,267.097308 C317.40401,270.129883 308.278454,277.469173 302.780852,286.87142 C297.266151,296.302908 295.39788,307.811717 298.477857,319.161638 L300.118962,325.209216 C303.50698,337.694351 311.772656,348.345796 323.111335,354.809769 C334.885699,361.522118 348.300818,362.888971 360.472368,359.668673 C372.662553,356.443445 383.600263,348.619816 390.407699,336.977433 C395.44496,328.362482 396.487613,317.28282 392.769226,303.580364 Z" id="Rectangle-Copy-3" stroke="#E9BCD3" stroke-width="12" fill="#FCE6F1" fill-rule="nonzero"></path>
                    <path d="M225.5,560.281675 C225.5,574.883965 232.768682,587.602435 243.094275,597.268703 C255.758954,609.124699 272.868069,616.151751 285.078402,616.770433 C298.596428,617.437215 314.591718,612.528963 327.500845,603.398967 C339.25391,595.086597 348.345254,583.364229 351.151693,569.582679 C354.620535,552.639585 351.352386,534.880143 341.800608,520.809699 C333.127959,508.034272 319.28665,498.213179 300.426893,494.879346 C279.580689,491.192738 261.70938,497.476813 248.62286,508.950476 C234.077981,521.702763 225.5,540.992377 225.5,560.281675 Z" id="Mask" stroke="#9892ED" stroke-width="13" fill="#5E57B9"></path>
                    <g id="Group-15" transform="translate(289.000000, 555.332141) rotate(-360.000000) translate(-289.000000, -555.332141) translate(232.000000, 500.332141)">
                        <mask id="mask-2" fill="white">
                            <use xlink:href="#path-1"></use>
                        </mask>
                        <path stroke="#9892ED" stroke-width="13" d="M-6.5,59.9495339 C-6.5,74.551824 0.768682123,87.2702937 11.0942747,96.9365618 C23.7589535,108.792558 40.8680695,115.81961 53.0784019,116.438292 C66.5964285,117.105074 82.5917183,112.196822 95.500845,103.066826 C107.25391,94.7544555 116.345254,83.0320877 119.151693,69.2505384 C122.620535,52.3074442 119.352386,34.5480022 109.800608,20.4775575 C101.127959,7.7021312 87.2866497,-2.11896168 68.426893,-5.45279533 C47.5806895,-9.13940317 29.7093798,-2.85532807 16.6228601,8.61833532 C2.07798114,21.3706216 -6.5,40.6602363 -6.5,59.9495339 Z"></path>
                        <g mask="url(#mask-2)">
                            <g transform="translate(21.923077, 26.400000)">
                                <polygon id="Path-2" fill="url(#linearGradient-3)" fill-rule="evenodd" opacity="0.537248884" points="4.01998638 56.8614816 72.9340387 126.017338 108.922488 58.2061788 55.8969535 4.9945896 23.1627787 33.2332308"></polygon>
                                <g id="favicon" fill="none" fill-rule="nonzero">
                                    <use fill="black" fill-opacity="1" filter="url(#filter-5)" xlink:href="#path-4"></use>
                                    <use fill="#FFFFFF" xlink:href="#path-4"></use>
                                </g>
                            </g>
                        </g>
                    </g>
                </g>
            </g>
        </g>
    </g>
</svg>