<svg width="241" height="240" viewBox="0 0 241 240" xmlns="http://www.w3.org/2000/svg" xmlns:xlink="http://www.w3.org/1999/xlink"><defs><circle id="a" cx="120" cy="120" r="120"/></defs><g fill="none" fill-rule="evenodd"><mask id="b" fill="#fff"><use xlink:href="#a"/></mask><use fill="#FCE6F1" fill-rule="nonzero" opacity=".5" xlink:href="#a"/><path d="M163.4 32.4c-6.7-8.8 1.6-24.2-2.7-28.1-4.3-4-23.5 4.6-23.1 10.6 0 6.4 2.7 12.6 7.2 17.1 5 4.7 24.8 8.6 18.6.4z" fill="#4E4C75" fill-rule="nonzero" mask="url(#b)"/><path d="M78.3 60.8c-18.3-3.7-14-35.5 4-32.4C92.6 30.2 96.9 21.6 95 2.5c12.4-5.7 20.2-7.8 23.5-6.5 5 2 31.4 39.6 34.3 36 6.6-8.2 22.3-3.7 25.3 6.5 2.8 9.7-.8 20-12.8 25.3" fill="#4E4C75" fill-rule="nonzero" mask="url(#b)"/><path d="M100.5 54.4c5.6-2.8 8.3-9 11.3-7.3 3 1.7 12.5 17.2 18.2 14.3 5.6-3 7.8-14.3 13.5-6.6 5.7 7.6 21.2 37 20.2 60.8-1 23.8 9.3 28.5-3 45-12.2 16.7-14.2 43.7-23.5 47.4-9.3 3.6-27.4 13.2-35 4.6-7.7-8.6-21.9-53-28.5-63.2-6.6-10.2-10-42.6-5.3-53.6C73 85 99.2 55.1 100.5 54.4z" fill="#B8B8E8" fill-rule="nonzero" mask="url(#b)"/><path d="M74.5 83c-1 2-7 19.7-6.3 22.6.7 3 4.5 6 5.3 6.7.9.8 35.3 29.9 37.6 32 2.3 2 14.7 14.7 21.5 8.6 6.9-6.2 32-34.9 35.6-39.6 3.6-4.7 4.2-16.9 1.6-24.3-2.7-7.4-3.7-11.7-14.3-10.8-10.5.9-41.3 6-58.8 1.2-17.5-4.7-18.9-2.8-22.2 3.7z" fill="#D868A0" fill-rule="nonzero" mask="url(#b)"/><path d="M83.6 88.2a76 76 0 00-5.2 18.7c.6 2.5 3.7 4.8 4.4 5.5.7.7 30.3 24.6 32.1 26.3 1.8 1.7 10.6 11.5 16.3 6.4 5.6-5.1 25.9-28.8 28.9-32.7 3-4 2.8-13.2.6-19.4-2.2-6-4.3-8.8-13-8-8.8.8-31.3 4.1-45.7.2-14.5-4-15.7-2.4-18.4 3z" fill="#F9E27D" fill-rule="nonzero" mask="url(#b)"/><path d="M120.4 86.1c14 7.8 12.6 5.3 18.2 2.5 5.5-2.9 11 3.5 9.8 8.5-2.1 8.8-36.2 15.8-31.6 21.6 3.2 4.2 22-8 31.6-10.7 16-4.2 14.9 24.4-2.9 19.5-11.5-3.2-25.2.6-38.9 7-11 5.2-19-15.6-5.3-20.8 3.9-1.5 26.6-10 25-13-1.4-3.2-7.6-1.2-11.2-.2-3.7 1-13.2-2.5-10.9-10.9 2.2-7.7 9-7.6 16.2-3.5z" fill="#D868A0" fill-rule="nonzero" mask="url(#b)"/><g mask="url(#b)" fill-rule="nonzero"><path d="M109.7 16c-.8 3.6-.8 7.3 0 10.9.8 4.2.8 3.8 6.1 8.3 7 6 16.2 9 25.4 8.4 5.2-.4 13.4 3.1 13.9-13 .4-16 1.3-18.3 1.8-21.4.4-3 1-13-2.5-13.8-3.6-.9-9.3 0-21.8 0A199.5 199.5 0 00111-3.5c-4.8.3-.5 13.8-1.3 19.6z" fill="#FF8B6C"/><path d="M111 20.9c-2.9 1.8-7.7 2-9.5-1-1.8-3.1-2.6-10.7-1-13.6C102 3.5 104.7 0 111.6 3" fill="#FF8B6C"/><path d="M107.3-1.9a28 28 0 003.5 11c1.4 1.8 3 1.9 3.4-.7.6-3.7 6-10.3 4.9-12-1.2-1.6-12.4-1.5-11.8 1.7z" fill="#4E4C75"/></g><g fill-rule="nonzero"><path d="M130 200.4c-1.6 9.8-.7 15.5 3.9 17.6 4.6 2 6.2-10 15.5-5.3 9.3 4.6 9.6 18.2 20.2 13.2s19.6-7.4 15.3-18c-4.2-10.5-14.3-26.6-15.3-38.8-1-12.3.6-18 6.6-26.5 6-8.6 35.4-15.2 19.8-34.4-15.5-19.2-39-47-42.3-43.3-3.3 3.7 6.2 38.1 6.5 45.7.3 7.6 11 21.4 8.7 28.3a97.6 97.6 0 01-16.2 26.5c-5 5-15.2 11.9-20.3 24.1-1.3 3.5-2 7.2-2.4 10.9z" fill="#827AAF"/><path d="M150.5 54c7.2 4 17.2 2 29.7 9.7 12.6 7.6 24.5 18.5 26.8 30.8 2.3 12.2 37.5 39.7 32.7 53.9-12 35.6-32 26-61.5 11.5" fill="#827AAF"/><path d="M179.6 102.3c2.3-14.5 20.8-8.7 23.8 8.8 5.3 31.5-9 41-14.6 48.6-5.6 7.6-15.5 2-17.2-7.3-1.6-9.2 8-24.4 7.3-29" fill="#4E4C75"/><path d="M159.3 105.7c.7-7.4-12.2-46.2-26.6-58.3-3.5-3 13.5 4.7 24.4 0 13.5-5.9 12.3.5 8.6 3.5-3.6 3-10 2.7-10.3 6.7-.2 2.8 15.3 14 9.3 25.7-3.6 7 3.6 13.2.3 20.5-4 9.2 1.5 12.6-5.9 15-2.6 1 .3.3 1-3 .6-3.5-1.4-4.5-.8-10.1zM160.7 121.7c1 2.5 3 8.1 1.4 13.4-2.1 7.1-4.9 14-8.2 20.6-5.7 8.3-16.3 13.3-22.2 30.1-6 16.9-.4 21 .7 18 4.6-13 13.4-29.6 24.6-33.5 6.3-2.2 13.8-20.4 13.4-33.6-.2-3.5-.4-7.6-1.8-9-3.6-3.8 3.5-4.6 1.1-6.9" fill="#6D6899"/><path d="M179.3 97.7c-4.3-2.5-5.4-.8-8.6-4.5-3.3-3.7-.7-8.8-4-9.6-4.3-1.2-6.2 7.5-3.4 10.6 2.8 3 1.3 5-3.6 4.3-5-.6-9.3 2-9.6 6.3-.3 4.3 3 12 4 14.6.9 2.6 5.2 10.5 11.5 9.9 6.3-.7 15.5.8 18.6-6.3 3.7-8 2.4-21.2-4.9-25.3z" fill="#FF8B6C"/><path d="M183.5 108.1c8.9 4 19.2 8.6 20.5 18.2 1.3 9.6-1.6 20.8-8.6 19.6-6.9-1.2-12.9-23.5-17.2-24.8" fill="#FF8B6C"/></g><g fill-rule="nonzero"><path d="M79.4 84.4a33.9 33.9 0 01-1.2 20.5c-3 8.6 2.5 18.3 3.5 27 1 8.5 4 23.4 13 32 8.9 8.5 12.8 25.8 14.1 36.7 1.4 11 18.5 22 13 26.9-5.7 5-11.7-3.4-17.7-3.7-6-.4-11 9.7-21.8 15-11 5.2-36-8.8-32.8-16.4 3.3-7.6 26.7-27.4 29.7-48.2 3-21-13.1-29.4-18-42.4-5-13-6.4-40.3-3.8-44.6" fill="#827AAF"/><path d="M97.2 52.4c-9.6 2-24.7 10-31.6 16.5-5.8 5.5-7.4 16-19.3 27.1-6.7 6.3-10 12.8-15.9 17.7-41 33.7-4.4 73.7 13.2 70.2 14-2.8 19.2-18.3 23.5-22.1 6-5.4 3.5-15 4.9-22 1.4-7 7-28.3 12-35.1 5.2-6.8 10.8-18.6 10-24.7-.6-6-1.8-18.6.5-21.9" fill="#827AAF"/><path d="M85.3 133.5c.6 8.2 3.6 21.5 14.4 26.1 23.2 10 3.8 11.8 8 32 4.4 20.1-4 8-7 .6-4-10.3-1.5-20.5-8.1-26.8-6.7-6.3-19.6-15-19.8-30.2" fill="#6D6899"/><path d="M66.5 114.6c-2.2-6.9-24.2-10.4-27.8 2.4-3.7 13 3.9 42.7 3.3 54-.7 11.2 24.5 13.5 24.1-19.6-.1-14 5-21.9.4-36.8z" fill="#4E4C75"/><path d="M79.7 110c1-5.5 13-23.6 11.4-32.7-1.5-9-2-19.8 4-25.4 5.8-5.6-13-11.5-6-17.5 2.2-1.7 2.5 3.4 9.2 3 7.4-.5 21.4 2.6 15.3 9-4 4.6-7.5 9.6-10.4 15-3.3 5.7-3 19.8-4.6 25.4-1.6 5.7-11.8 14.4-14 23.5-2.3 9.2-6 5-5-.4z" fill="#6D6899"/><path d="M74.6 104.2c3.1-3.6 3.3-16.3 8.8-12.2 1.7 1.2 1.7 4.6 1.2 7-.4 2.5-3 2.3 1 4.3 2 1 7.6-1 8.6 4s3.3 7.6 3.3 9.6-3.6 4.3-4.3 6.6c-.6 2.4 4 6-2.3 10-6.2 4-17.5 6-21.1.7a32.7 32.7 0 01-2-23.1c1.5-4.1 5.6-5.5 6.8-7z" fill="#FF8B6C"/><path d="M73 115.5c-7.4.4-26.8 5-33 16.7-7 13.3 2.2 24.3 9.3 23 7-1.3 16.7-13.2 25.4-26.5" fill="#FF8B6C"/></g><path d="M109.7 15.4c-1.3 5 1.6 26.9.8 32.4-.7 5.5-.8 19.4 11.8 20 12.5.7 14-2.8 16-12.7 2-10-1.7-17.9.4-24.7" fill="#FF8B6C" fill-rule="nonzero"/><g fill-rule="nonzero"><path d="M23.7 58.6C12 55.4 3.2 51.5.7 46.6a18.5 18.5 0 017.9-19c6.7-4.7 9-4.9 14.9-3.8 5.9 1 11.1 1 15.2 6.6 6.6 8.9-2 31.7-15 28.2z" fill="#827AAF"/><path d="M15.5 38.7c-3.8 9.2-6.6 32.4 8.2 39.5 14.8 7.2 31.4-16.5 34.9-24.6C62 45.4 71 17.4 50.7 10.5c-20.4-7-30 15.5-35.2 28.2z" fill="#827AAF"/><path d="M50 45.6c-5.3 21.3-27.9 21.9-21.5-3.3 6.2-24 28-23.2 21.5 3.3z" fill="#4E4C75"/></g></g></svg>