<svg width="167" height="175" viewBox="0 0 167 175" xmlns="http://www.w3.org/2000/svg"><path d="M166.9 115.3c-5.7 46.1-45.7 60-80.5 59.1-20.4-.5-25.6-27-1-26.5 24.7.4 70 6 81.5-32.6zM19.5 71.6c17.3 2.3 24.1 48.3 30.6 65 2.8 7.3-9 10.4-10.6 4-.6-2.4-1-6.7-4.8-1.6-10.4 12.5-26.4 1-29-11.2C3 115.7 17 101.1 24.2 107.2c2.2 2 5 3.4 4 .2-1-3.2.2-8.7-15-20.1-6.3-4.7-1.8-16.7 6.2-15.7zm118.8 24.2c5.6 6 5.7 15.9-4.7 19.9-10.4 4-10.7-5-6.9-6.6 3.7-1.5 9-5.3 5.6-7.3-3.3-2-8.5.4-10.2 3.1-1.8 2.7-1.4 7.2-.5 9.9 1 3 1.8 7.7 10.6 7.4 5.7-.3 8.1-2.4 10.6-4.2 3.2-2.3 8.7 2.7 5 7.4-5.3 6.6-18.2 9.9-24.2 6.4a25.5 25.5 0 01-11.7-19.3 20 20 0 017-17.8c2.2-1.7 13-5.8 19.4 1zm-32.9-6.2c6.7 1.2 7.6 14 1.6 13.2-4.5-.5-8.3-.7-10.2 3.5-1.7 3.8 5 13.6 7.7 18.2 3.1 5.5-4.4 13.9-11.1 4.4a104.6 104.6 0 01-11.7-28.5c-1.2-4.6 6.9-4.9 8.2-1.9 1.3 3 2.6 1 3-1.8.5-2.8 5.9-8.3 12.5-7.1zm-29.2 5.8a71.3 71.3 0 017.3 30.5c-.3 7.2-6.5 6.6-8 3.4-1.4-3.2-3.5-.3-7.5 1.4s-14.9 2.2-18.7-15.1c-3.9-17.4 12.1-21.3 17.1-18 1.3.9 2.6 3.4 2.2-1-.4-4.6 4.8-5.5 7.6-1.2zm-57.4 32.3c8.8.2 8-12.8.1-14.5-8.1-1.7-8.2 14.3-.1 14.5zm41.5-9.8c.2 7.4 6.3 9.5 10.4 5.3 3.2-3.2-.1-9.5-.1-9.5-2.4-3.2-10.4-3.1-10.3 4.2zm2.8-76.7c13 7.2 11.7 4.8 16.6 1.5 4.9-3.2 10.2 3 9.3 8.3-1.5 9.2-32 18.4-27.7 24.2 3.1 4.1 19.6-9.6 28.2-12.8 14.4-5.3 14.7 24.4-1.7 20.3-10.6-2.7-23 2-35 9.5-9.7 6-18-15.1-5.8-21.3 3.4-1.7 23.7-11.8 22.2-15-1.5-3-7-.7-10.3.6-3.3 1.2-12.1-1.9-10.4-10.6 1.6-8.3 7.7-8.5 14.6-4.7zm81.5 13c1.7 5.3 4 1.3 4.8.3 3.2-3.6 11.9-5.2 15 5.5 2.3 8 3 16 1 21.7-1.7 5.1-7.4 5-8.9 1.1-2.7-7.1 5-20.5-3.8-18.1-10.6 2.8-2.7 14.8-2 18.6 1.2 8.4-9.2 9.1-11.1 4.5-4.5-10.7 1.2-17.9-4.1-30.7-2.5-6 6.8-9.4 9-3zM127 49.7c4.8 5.7 4.2 14.8-5.5 18.2-9.8 3.3-9.5-5-5.9-6.3 3.4-1.3 8.5-4.6 5.6-6.5-3-2-7.9 0-9.6 2.5-1.8 2.5-1.7 6.6-1 9 .7 2.9 1.2 7.3 9.2 7.2 5.2 0 7.6-2 10-3.5 3-2 7.8 2.7 4.1 7-5.2 5.8-17.2 8.5-22.5 5.1a22.6 22.6 0 01-9.6-18.1 19.2 19.2 0 017.5-16.2c2.1-1.4 12.2-5 17.7 1.6zM0 69C13.3 14.5 62.5-3.6 87.8.6 112.2 4.6 106 32.2 85 30 47.4 21 29 35.1 0 69z" fill="#FFF" fill-rule="nonzero"/></svg>