<svg width="153" height="160" viewBox="0 0 153 160" xmlns="http://www.w3.org/2000/svg"><path d="M152.9 105.4c-5.2 42.2-41.8 54.8-73.7 54-18.7-.4-23.5-24.6-1-24.2 22.6.4 64.1 5.5 74.7-29.8zm-135-40c15.8 2.1 22 44.2 28 59.5 2.5 6.7-8.2 9.5-9.7 3.6l-.3-1v-.2c-.5-2-1.3-4.1-4-.2-9.6 11.5-24.3.9-26.7-10.2-2.4-11.2 10.5-24.5 17-18.9l.6.5.3.2c1.8 1.4 3.7 2 2.9-.5l-.2-1v-.1C25 94 24.3 89 12 79.8c-5.7-4.3-1.6-15.3 5.8-14.3zm108.8 22.2c5.1 5.4 5.2 14.5-4.3 18.2-9.6 3.6-9.8-4.7-6.3-6 3.3-1.4 8.2-4.9 5.2-6.7-3-1.8-7.8.3-9.5 2.8-1.6 2.5-1.2 6.6-.4 9 .9 2.8 1.7 7.1 9.7 6.8 5.2-.2 7.4-2.2 9.7-3.8 3-2.1 8 2.5 4.6 6.8-4.8 6-16.6 9-22.2 5.8-5.5-3.2-9.9-9.9-10.7-17.7-.7-7.7 3-13.6 6.5-16.2 2-1.5 11.8-5.4 17.7 1zm-30-5.7c6 1 6.8 12.7 1.3 12.1-4-.5-7.6-.6-9.3 3.2-1.6 3.5 4.6 12.4 7 16.6 2.9 5-4 12.7-10.2 4a95.5 95.5 0 01-10.7-26c-1-4.3 6.4-4.5 7.6-1.7 1.2 2.7 2.3.8 2.8-1.7.4-2.6 5.3-7.6 11.4-6.5zm-27 5.3a65 65 0 016.8 27.9c-.3 6.6-6 6-7.3 3.1-1.3-2.9-3.2-.3-6.9 1.3-3.6 1.6-13.6 2-17.1-13.8-3.6-15.9 11-19.5 15.6-16.4.3.1.5.3.7.6h.2c.8.9 1.5 1.5 1.2-1.6-.4-4.1 4.4-5 6.9-1zm-52.5 29.6c8.1.2 7.4-11.8.1-13.3-7.4-1.6-7.5 13 0 13.3zm38-9c.2 6.7 5.8 8.7 9.6 4.9 2.8-3 0-8.3-.1-8.7-2.2-3-9.6-3-9.4 3.8zm2.6-70.1C69.8 44.3 68.5 42 73 39c4.5-3 9.4 2.7 8.6 7.5-.7 3.7-6.2 7.3-12 10.7l-.7.4c-7.4 4.3-15 8.1-12.7 11 1.7 2.3 7.8-1.3 14-5.1l.7-.4 1.7-1 .6-.4c3.2-2 6.4-3.8 8.8-4.7 13.2-5 13.4 22.3-1.5 18.5-9.8-2.4-21 2-32.1 8.7-9 5.5-16.5-13.8-5.4-19.4l.3-.2C47 63 64.7 54 63.3 51.2c-1.3-3-6.3-.7-9.4.4-3 1.2-11-1.7-9.5-9.7 1.5-7.5 7.1-7.7 13.4-4.2zm74.6 11.8c1.7 4.9 3.7 1.2 4.5.3 3-3.3 10.8-4.8 13.7 5a35.5 35.5 0 011 20c-1.6 4.6-6.8 4.5-8.2 1-.8-2.2-.6-4.8-.3-7.4l.1-.5c.8-5.3 2-10.2-3.3-8.7-9.7 2.5-2.4 13.5-2 17 1.2 7.6-8.3 8.3-10 4-4.1-9.7 1-16.3-3.8-28-2.3-5.5 6.3-8.6 8.3-2.7zm-16-4c4.3 5.1 3.8 13.5-5.1 16.6-9 3-8.7-4.6-5.4-5.8 3.1-1.1 7.8-4.2 5.1-6-2.7-1.7-7.2.1-8.8 2.4-1.6 2.2-1.5 6-1 8.2.7 2.6 1.2 6.6 8.6 6.6 4.7 0 7-1.8 9-3.2 2.9-2 7.3 2.5 3.9 6.3-4.8 5.4-15.8 7.9-20.7 4.7-4.8-3-8.5-9.4-8.7-16.5a17.5 17.5 0 016.9-14.8c1.9-1.3 11.1-4.6 16.2 1.4zM0 63C12.2 13.3 57.3-3.3 80.4.5c22.4 3.8 16.7 29-2.5 27C43.4 19 26.7 32 0 63z" fill="#645BD4" fill-rule="nonzero"/></svg>